G75*
G70*
%OFA0B0*%
%FSLAX24Y24*%
%IPPOS*%
%LPD*%
%AMOC8*
5,1,8,0,0,1.08239X$1,22.5*
%
%ADD10C,0.1064*%
%ADD11C,0.0080*%
%ADD12R,0.0197X0.0827*%
%ADD13R,0.0512X0.0512*%
%ADD14R,0.0473X0.0434*%
%ADD15R,0.0749X0.0670*%
%ADD16R,0.0434X0.0473*%
%ADD17R,0.0709X0.0335*%
%ADD18R,0.0709X0.0295*%
%ADD19OC8,0.1040*%
%ADD20OC8,0.0740*%
%ADD21C,0.1300*%
%ADD22OC8,0.0700*%
%ADD23R,0.0700X0.0700*%
%ADD24C,0.0780*%
%ADD25R,0.0740X0.0740*%
%ADD26C,0.0512*%
D10*
X008827Y006622D03*
X008827Y020401D03*
X042292Y020401D03*
X042292Y006622D03*
D11*
X034893Y010437D02*
X034843Y010387D01*
X034243Y010387D01*
X034193Y010437D01*
X034193Y010987D01*
X034193Y012087D01*
X034193Y012537D01*
X034243Y012587D01*
X034843Y012587D01*
X034893Y012537D01*
X034893Y010437D01*
X034881Y010426D02*
X034204Y010426D01*
X034193Y010504D02*
X034893Y010504D01*
X034893Y010583D02*
X034193Y010583D01*
X034193Y010661D02*
X034893Y010661D01*
X034893Y010740D02*
X034193Y010740D01*
X034193Y010818D02*
X034893Y010818D01*
X034893Y010897D02*
X034193Y010897D01*
X034193Y010975D02*
X034893Y010975D01*
X034893Y011054D02*
X034193Y011054D01*
X034193Y011132D02*
X034893Y011132D01*
X034893Y011211D02*
X034193Y011211D01*
X034193Y011289D02*
X034893Y011289D01*
X034893Y011368D02*
X034193Y011368D01*
X034193Y011446D02*
X034893Y011446D01*
X034893Y011525D02*
X034193Y011525D01*
X034193Y011603D02*
X034893Y011603D01*
X034893Y011682D02*
X034193Y011682D01*
X034193Y011760D02*
X034893Y011760D01*
X034893Y011839D02*
X034193Y011839D01*
X034193Y011917D02*
X034893Y011917D01*
X034893Y011996D02*
X034193Y011996D01*
X034193Y012074D02*
X034893Y012074D01*
X034893Y012153D02*
X034193Y012153D01*
X034193Y012231D02*
X034893Y012231D01*
X034893Y012310D02*
X034193Y012310D01*
X034193Y012388D02*
X034893Y012388D01*
X034893Y012467D02*
X034193Y012467D01*
X034201Y012545D02*
X034885Y012545D01*
X033693Y011937D02*
X033693Y011137D01*
X033593Y011137D01*
X033243Y011487D01*
X033193Y011487D01*
X033193Y011587D01*
X033243Y011587D01*
X033593Y011937D01*
X033693Y011937D01*
X033693Y011917D02*
X033573Y011917D01*
X033494Y011839D02*
X033693Y011839D01*
X033693Y011760D02*
X033416Y011760D01*
X033337Y011682D02*
X033693Y011682D01*
X033693Y011603D02*
X033259Y011603D01*
X033193Y011525D02*
X033693Y011525D01*
X033693Y011446D02*
X033284Y011446D01*
X033362Y011368D02*
X033693Y011368D01*
X033693Y011289D02*
X033441Y011289D01*
X033519Y011211D02*
X033693Y011211D01*
X033443Y010987D02*
X033393Y011037D01*
X032643Y011037D01*
X032643Y010987D01*
X032643Y009937D01*
X032693Y009887D01*
X033393Y009887D01*
X033443Y009937D01*
X033443Y010987D01*
X033443Y010975D02*
X032643Y010975D01*
X032643Y010897D02*
X033443Y010897D01*
X033443Y010818D02*
X032643Y010818D01*
X032643Y010740D02*
X033443Y010740D01*
X033443Y010661D02*
X032643Y010661D01*
X032643Y010583D02*
X033443Y010583D01*
X033443Y010504D02*
X032643Y010504D01*
X032643Y010426D02*
X033443Y010426D01*
X033443Y010347D02*
X032643Y010347D01*
X032643Y010269D02*
X033443Y010269D01*
X033443Y010190D02*
X032643Y010190D01*
X032643Y010112D02*
X033443Y010112D01*
X033443Y010033D02*
X032643Y010033D01*
X032643Y009955D02*
X033443Y009955D01*
X033393Y012037D02*
X032693Y012037D01*
X032643Y012087D01*
X032643Y013087D01*
X032693Y013137D01*
X033393Y013137D01*
X033443Y013087D01*
X033443Y012087D01*
X033393Y012037D01*
X033430Y012074D02*
X032656Y012074D01*
X032643Y012153D02*
X033443Y012153D01*
X033443Y012231D02*
X032643Y012231D01*
X032643Y012310D02*
X033443Y012310D01*
X033443Y012388D02*
X032643Y012388D01*
X032643Y012467D02*
X033443Y012467D01*
X033443Y012545D02*
X032643Y012545D01*
X032643Y012624D02*
X033443Y012624D01*
X033443Y012702D02*
X032643Y012702D01*
X032643Y012781D02*
X033443Y012781D01*
X033443Y012859D02*
X032643Y012859D01*
X032643Y012938D02*
X033443Y012938D01*
X033443Y013016D02*
X032643Y013016D01*
X032650Y013095D02*
X033435Y013095D01*
D12*
X022862Y008787D03*
X022587Y008787D03*
X022311Y008787D03*
X022036Y008787D03*
X021760Y008787D03*
X021485Y008787D03*
X021209Y008787D03*
X020933Y008787D03*
X020658Y008787D03*
X020382Y008787D03*
X020107Y008787D03*
X019831Y008787D03*
X019555Y008787D03*
X019280Y008787D03*
X019004Y008787D03*
X018729Y008787D03*
X018453Y008787D03*
X018177Y008787D03*
X017902Y008787D03*
X017626Y008787D03*
X017351Y008787D03*
X017075Y008787D03*
X016799Y008787D03*
X016524Y008787D03*
X016248Y008787D03*
X015973Y008787D03*
X015697Y008787D03*
X015422Y008787D03*
X015146Y008787D03*
X014870Y008787D03*
D13*
X014339Y012507D03*
X014339Y013334D03*
X023394Y013334D03*
X023394Y012507D03*
X024772Y008413D03*
X024772Y007586D03*
X026347Y007586D03*
X026347Y008413D03*
X027922Y008413D03*
X027922Y007586D03*
X029496Y007586D03*
X029496Y008413D03*
D14*
X021371Y007722D03*
X021371Y007053D03*
D15*
X022136Y007567D03*
X022136Y006464D03*
D16*
X022843Y006953D03*
X022843Y007622D03*
X016665Y007917D03*
X016665Y007248D03*
D17*
X032859Y011158D03*
X032859Y011906D03*
X034177Y011906D03*
X034177Y011158D03*
D18*
X034177Y011532D03*
X032859Y011532D03*
D19*
X029634Y010043D03*
X029634Y013043D03*
X033827Y015478D03*
X033827Y019418D03*
X024634Y013043D03*
X024634Y010043D03*
D20*
X026150Y014889D03*
X027134Y014889D03*
X028118Y014889D03*
X037945Y015011D03*
X038945Y015011D03*
X038945Y016011D03*
X037945Y016011D03*
X037945Y017011D03*
X038945Y017011D03*
X038945Y014011D03*
X037945Y014011D03*
X037945Y013011D03*
X038945Y013011D03*
X038945Y012011D03*
X037945Y012011D03*
X037945Y011011D03*
X038945Y011011D03*
X038945Y010011D03*
X028118Y020598D03*
X026150Y020598D03*
D21*
X024969Y017842D03*
X029299Y017842D03*
D22*
X013093Y018736D03*
X013093Y016374D03*
X013093Y014011D03*
X013093Y011649D03*
X013093Y009287D03*
D23*
X013093Y008287D03*
X013093Y010649D03*
X013093Y013011D03*
X013093Y015374D03*
X013093Y017736D03*
D24*
X012876Y020548D03*
X011876Y020648D03*
X010876Y020548D03*
X012435Y006475D03*
X011435Y006375D03*
X013435Y006375D03*
X014435Y006475D03*
X015435Y006375D03*
X039429Y020598D03*
X040569Y020598D03*
D25*
X037945Y010011D03*
D26*
X031465Y018713D03*
X031465Y020287D03*
M02*
