%
M48
M72
T01C0.0120
T02C0.0394
T03C0.0400
T04C0.0470
T05C0.0472
T06C0.0551
T07C0.1024
T08C0.1260
%
T01
X8236Y8000
X8236Y8787
X8236Y9574
X8236Y10362
X8236Y11149
X8236Y11937
X8236Y12724
X8236Y13511
X8236Y14299
X8236Y15086
X8236Y15874
X8236Y16661
X8236Y17448
X8236Y18236
X8236Y19023
X13843Y17187
X14343Y18287
X16193Y18887
X17292Y20992
X18079Y20992
X18866Y20992
X19654Y20992
X23591Y20992
X24378Y20992
X25166Y20992
X27134Y20992
X30339Y18731
X27639Y18431
X26089Y18431
X24043Y18437
X21893Y17037
X21893Y16587
X20686Y16149
X21943Y15437
X22393Y15087
X22943Y14787
X23393Y13537
X20486Y12149
X20643Y11787
X20893Y11537
X21143Y11287
X21443Y10987
X19493Y12037
X19843Y12387
X18693Y11937
X17986Y12099
X17993Y11637
X17543Y11137
X18336Y10599
X19043Y10537
X18893Y11137
X17443Y10387
X17786Y9649
X18293Y9687
X18693Y9687
X20486Y9449
X21093Y8137
X19336Y7899
X17943Y8037
X17636Y8399
X17193Y8187
X15986Y7499
X15536Y7299
X14536Y7799
X13543Y7237
X14186Y8999
X13793Y9587
X14286Y11049
X13843Y12087
X15136Y12599
X15443Y11987
X15893Y11837
X17193Y12887
X17436Y13699
X17943Y13387
X16836Y13699
X17986Y14549
X18793Y14587
X19286Y13799
X16443Y15337
X17336Y16149
X15186Y15299
X13843Y14687
X14236Y14099
X14343Y13537
X23186Y8649
X25193Y8337
X25893Y8337
X26347Y7330
X27922Y7330
X29496Y7330
X30943Y8287
X30543Y8637
X32039Y9181
X32039Y9881
X30589Y10231
X32043Y10937
X32043Y11537
X32043Y12137
X32093Y12887
X34639Y13431
X35589Y15331
X35789Y18031
X35293Y18537
X34389Y18181
X35193Y19887
X31539Y15831
X29389Y15631
X29093Y13987
X27039Y12531
X27489Y11381
X26639Y11181
X28639Y11681
X26343Y9937
X24643Y11237
X24772Y7330
X23243Y6737
X22786Y6449
X23243Y6287
X21336Y6449
X20048Y6819
X19260Y6819
X18473Y6819
X32252Y6031
X33040Y6031
X33827Y6031
X34614Y6031
X35402Y6031
X36189Y6031
X36977Y6031
X37764Y6031
X38551Y6031
X39339Y6031
X40126Y6031
X40914Y6031
X42882Y8000
X42882Y8787
X42882Y9574
X42882Y10362
X42882Y11149
X42882Y11937
X42882Y12724
X42882Y13511
X42882Y14299
X42882Y15086
X42882Y15874
X42882Y16661
X42882Y17448
X42882Y18236
X42882Y19023
X35143Y10387
X35793Y9537
X34639Y8931
X37839Y9031
X37839Y8481
X14536Y20992
T02
X13093Y18736
X13093Y17736
X13093Y16374
X13093Y15374
X13093Y14011
X13093Y13011
X13093Y11649
X13093Y10649
X13093Y9287
X13093Y8287
X26150Y14889
X27134Y14889
X28118Y14889
X37945Y15011
X38945Y15011
X38945Y16011
X37945Y16011
X37945Y17011
X38945Y17011
X38945Y14011
X37945Y14011
X37945Y13011
X38945Y13011
X38945Y12011
X37945Y12011
X37945Y11011
X38945Y11011
X38945Y10011
X37945Y10011
X28118Y20598
X26150Y20598
T03
X39429Y20598
X40569Y20598
X15435Y6375
X14435Y6475
X13435Y6375
X12435Y6475
X11435Y6375
X10876Y20548
X11876Y20648
X12876Y20548
T04
X33827Y19418
X33827Y15478
T05
X31465Y18713
X31465Y20287
T06
X29634Y13043
X29634Y10043
X24634Y10043
X24634Y13043
T07
X8827Y6622
X8827Y20401
X42292Y20401
X42292Y6622
T08
X29299Y17842
X24969Y17842
M30
