G75*
G70*
%OFA0B0*%
%FSLAX24Y24*%
%IPPOS*%
%LPD*%
%AMOC8*
5,1,8,0,0,1.08239X$1,22.5*
%
%ADD10R,0.0157X0.0787*%
%ADD11R,0.0472X0.0472*%
%ADD12R,0.0433X0.0394*%
%ADD13R,0.0709X0.0630*%
%ADD14R,0.0394X0.0433*%
%ADD15R,0.0650X0.0276*%
%ADD16R,0.0650X0.0236*%
%ADD17OC8,0.1000*%
%ADD18OC8,0.0700*%
%ADD19OC8,0.0660*%
%ADD20R,0.0660X0.0660*%
%ADD21C,0.0740*%
%ADD22R,0.0700X0.0700*%
%ADD23C,0.0100*%
%ADD24OC8,0.0240*%
%ADD25C,0.0080*%
%ADD26C,0.0160*%
D10*
X014870Y008787D03*
X015146Y008787D03*
X015422Y008787D03*
X015697Y008787D03*
X015973Y008787D03*
X016248Y008787D03*
X016524Y008787D03*
X016799Y008787D03*
X017075Y008787D03*
X017351Y008787D03*
X017626Y008787D03*
X017902Y008787D03*
X018177Y008787D03*
X018453Y008787D03*
X018729Y008787D03*
X019004Y008787D03*
X019280Y008787D03*
X019555Y008787D03*
X019831Y008787D03*
X020107Y008787D03*
X020382Y008787D03*
X020658Y008787D03*
X020933Y008787D03*
X021209Y008787D03*
X021485Y008787D03*
X021760Y008787D03*
X022036Y008787D03*
X022311Y008787D03*
X022587Y008787D03*
X022862Y008787D03*
D11*
X024772Y008413D03*
X024772Y007586D03*
X026347Y007586D03*
X026347Y008413D03*
X027922Y008413D03*
X027922Y007586D03*
X029496Y007586D03*
X029496Y008413D03*
X023394Y012507D03*
X023394Y013334D03*
X014339Y013334D03*
X014339Y012507D03*
D12*
X021371Y007722D03*
X021371Y007053D03*
D13*
X022136Y007567D03*
X022136Y006464D03*
D14*
X022843Y006953D03*
X022843Y007622D03*
X016665Y007917D03*
X016665Y007248D03*
D15*
X032859Y011158D03*
X032859Y011906D03*
X034177Y011906D03*
X034177Y011158D03*
D16*
X034177Y011532D03*
X032859Y011532D03*
D17*
X029634Y010043D03*
X029634Y013043D03*
X033827Y015478D03*
X033827Y019418D03*
X024634Y013043D03*
X024634Y010043D03*
D18*
X026150Y014889D03*
X027134Y014889D03*
X028118Y014889D03*
X037945Y015011D03*
X038945Y015011D03*
X038945Y016011D03*
X037945Y016011D03*
X037945Y017011D03*
X038945Y017011D03*
X038945Y014011D03*
X037945Y014011D03*
X037945Y013011D03*
X038945Y013011D03*
X038945Y012011D03*
X037945Y012011D03*
X037945Y011011D03*
X038945Y011011D03*
X038945Y010011D03*
X028118Y020598D03*
X026150Y020598D03*
D19*
X013093Y018736D03*
X013093Y016374D03*
X013093Y014011D03*
X013093Y011649D03*
X013093Y009287D03*
D20*
X013093Y008287D03*
X013093Y010649D03*
X013093Y013011D03*
X013093Y015374D03*
X013093Y017736D03*
D21*
X012876Y020548D03*
X011876Y020648D03*
X010876Y020548D03*
X012435Y006475D03*
X011435Y006375D03*
X013435Y006375D03*
X014435Y006475D03*
X015435Y006375D03*
X039429Y020598D03*
X040569Y020598D03*
D22*
X037945Y010011D03*
D23*
X038945Y010011D02*
X038945Y008240D01*
X038843Y008137D01*
X031893Y008137D01*
X030693Y006937D01*
X025743Y006937D01*
X025643Y007037D01*
X025643Y010837D01*
X025543Y010937D01*
X023543Y010937D01*
X023343Y010737D01*
X021143Y010737D01*
X019843Y012037D01*
X019843Y012387D01*
X019493Y012037D02*
X019893Y011637D01*
X019893Y011137D01*
X020493Y010537D01*
X023493Y010537D01*
X023643Y010687D01*
X025343Y010687D01*
X025443Y010587D01*
X025443Y006887D01*
X025593Y006737D01*
X030793Y006737D01*
X031993Y007937D01*
X039343Y007937D01*
X039443Y008037D01*
X039443Y010887D01*
X039319Y011011D01*
X038945Y011011D01*
X039443Y011187D02*
X039643Y010987D01*
X039643Y007887D01*
X039493Y007737D01*
X032093Y007737D01*
X030893Y006537D01*
X024343Y006537D01*
X024243Y006637D01*
X024243Y009387D01*
X023293Y010337D01*
X020343Y010337D01*
X019593Y011087D01*
X019593Y011437D01*
X019043Y011987D01*
X019043Y012237D01*
X018993Y012287D01*
X018643Y012287D01*
X017993Y011637D01*
X017543Y011137D02*
X017093Y010687D01*
X017093Y010087D01*
X017193Y009987D01*
X018793Y009987D01*
X019193Y009587D01*
X019443Y009587D01*
X019555Y009475D01*
X019555Y008787D01*
X019831Y008787D02*
X019831Y009649D01*
X019693Y009787D01*
X019293Y009787D01*
X018893Y010187D01*
X017643Y010187D01*
X017443Y010387D01*
X018293Y009687D02*
X018443Y009537D01*
X018443Y008994D01*
X018453Y008787D01*
X018177Y008787D02*
X018177Y008272D01*
X017943Y008037D01*
X017193Y008187D02*
X017193Y008187D01*
X016693Y008087D02*
X016665Y008060D01*
X016665Y007917D01*
X018729Y008787D02*
X018729Y009652D01*
X018693Y009687D01*
X019343Y010037D02*
X019043Y010337D01*
X019043Y010537D01*
X019343Y010037D02*
X019743Y010037D01*
X020043Y009737D01*
X022993Y009737D01*
X023643Y009087D01*
X023643Y006037D01*
X023743Y005937D01*
X031193Y005937D01*
X032393Y007137D01*
X040143Y007137D01*
X040243Y007237D01*
X040243Y011287D01*
X040043Y011487D01*
X040043Y012287D01*
X039843Y012487D01*
X039843Y013137D01*
X039643Y013337D01*
X039643Y014087D01*
X039493Y014237D01*
X039493Y014937D01*
X039419Y015011D01*
X038945Y015011D01*
X037945Y015011D02*
X037919Y015037D01*
X037493Y015037D01*
X037293Y015237D01*
X037293Y020837D01*
X037093Y021037D01*
X029793Y021037D01*
X028693Y019937D01*
X011793Y019937D01*
X011643Y019787D01*
X011643Y017387D01*
X011843Y017187D01*
X011843Y015187D01*
X012043Y014987D01*
X012043Y012937D01*
X012243Y012737D01*
X012243Y010637D01*
X012393Y010487D01*
X012393Y008437D01*
X012543Y008287D01*
X013093Y008287D01*
X013843Y009487D02*
X013793Y009537D01*
X013793Y009587D01*
X013093Y010649D02*
X012531Y010649D01*
X012443Y010737D01*
X012443Y012837D01*
X012243Y013037D01*
X012243Y015087D01*
X012043Y015287D01*
X012043Y017287D01*
X011843Y017487D01*
X011843Y019637D01*
X011943Y019737D01*
X028793Y019737D01*
X029893Y020837D01*
X036993Y020837D01*
X037093Y020737D01*
X037093Y015137D01*
X037893Y014337D01*
X037893Y014064D01*
X037945Y014011D01*
X037343Y013614D02*
X037945Y013011D01*
X037393Y013287D02*
X037393Y012564D01*
X037945Y012011D01*
X037443Y012237D02*
X037193Y012487D01*
X037193Y013187D01*
X036943Y013437D01*
X036943Y014387D01*
X036493Y014837D01*
X036493Y020137D01*
X036393Y020237D01*
X032743Y020237D01*
X031643Y019137D01*
X013793Y019137D01*
X013693Y019037D01*
X013693Y017837D01*
X013591Y017736D01*
X013093Y017736D01*
X012443Y017537D02*
X012243Y017737D01*
X012243Y019237D01*
X012343Y019337D01*
X031543Y019337D01*
X032643Y020437D01*
X036593Y020437D01*
X036693Y020337D01*
X036693Y014937D01*
X037143Y014487D01*
X037143Y013537D01*
X037393Y013287D01*
X037343Y013614D02*
X037343Y014587D01*
X036893Y015037D01*
X036893Y020537D01*
X036793Y020637D01*
X032543Y020637D01*
X031443Y019537D01*
X012143Y019537D01*
X012043Y019437D01*
X012043Y017637D01*
X012243Y017437D01*
X012243Y015387D01*
X012443Y015187D01*
X012443Y013137D01*
X012569Y013011D01*
X013093Y013011D01*
X014339Y013334D02*
X014339Y013533D01*
X014343Y013537D01*
X014339Y012507D02*
X014343Y012504D01*
X014343Y012087D01*
X014443Y011987D01*
X015443Y011987D01*
X015893Y011837D02*
X015893Y012137D01*
X016443Y012687D01*
X016443Y015337D01*
X016793Y015687D02*
X016743Y015737D01*
X014443Y015737D01*
X014343Y015837D01*
X014343Y018287D01*
X013843Y017187D02*
X013843Y017137D01*
X012443Y017537D02*
X012443Y015487D01*
X012557Y015374D01*
X013093Y015374D01*
X016793Y015687D02*
X016793Y014187D01*
X016893Y014087D01*
X017843Y014087D01*
X017943Y013987D01*
X017943Y013387D01*
X018693Y011937D02*
X019243Y011387D01*
X019243Y011137D01*
X020243Y010137D01*
X023193Y010137D01*
X024043Y009287D01*
X024043Y006437D01*
X024143Y006337D01*
X030993Y006337D01*
X032193Y007537D01*
X039693Y007537D01*
X039843Y007687D01*
X039843Y011087D01*
X039643Y011287D01*
X039643Y012087D01*
X039443Y012287D01*
X039443Y012887D01*
X039319Y013011D01*
X038945Y013011D01*
X039443Y013237D02*
X039643Y013037D01*
X039643Y012387D01*
X039843Y012187D01*
X039843Y011387D01*
X040043Y011187D01*
X040043Y007437D01*
X039943Y007337D01*
X032293Y007337D01*
X031093Y006137D01*
X023943Y006137D01*
X023843Y006237D01*
X023843Y009187D01*
X023093Y009937D01*
X020143Y009937D01*
X018893Y011137D01*
X020643Y011787D02*
X021943Y013087D01*
X021943Y015437D01*
X022393Y015087D02*
X022393Y013037D01*
X020893Y011537D01*
X021143Y011287D02*
X022943Y013087D01*
X022943Y014787D01*
X023393Y013537D02*
X023396Y013434D01*
X023394Y013334D01*
X023394Y012507D02*
X023723Y012507D01*
X023943Y012287D01*
X025243Y012287D01*
X026493Y013537D01*
X029043Y013537D01*
X029243Y013737D01*
X031643Y013737D01*
X031743Y013637D01*
X031743Y012887D01*
X029093Y013987D02*
X035693Y013987D01*
X035793Y013887D01*
X035793Y009537D01*
X037443Y011514D02*
X037945Y011011D01*
X037443Y011514D02*
X037443Y012237D01*
X038945Y012011D02*
X039319Y012011D01*
X039443Y011887D01*
X039443Y011187D01*
X039443Y013237D02*
X039443Y013937D01*
X039369Y014011D01*
X038945Y014011D01*
X033193Y018537D02*
X031493Y016837D01*
X022143Y016837D01*
X021893Y016587D01*
X021893Y017037D02*
X031393Y017037D01*
X033093Y018737D01*
X034943Y018737D01*
X035193Y018987D01*
X035193Y019887D01*
X035293Y018537D02*
X033193Y018537D01*
X024643Y011237D02*
X024543Y011337D01*
X021793Y011337D01*
X021443Y010987D01*
X021760Y008787D02*
X021760Y008255D01*
X021393Y007887D01*
X021393Y007844D01*
X021371Y007722D01*
X022036Y007694D02*
X022043Y007687D01*
X022116Y007587D01*
X022136Y007567D01*
X022036Y007694D02*
X022036Y008787D01*
X024772Y008413D02*
X025167Y008413D01*
X025193Y008337D01*
X025893Y008337D02*
X026271Y008337D01*
X026347Y008413D01*
X026347Y009933D01*
X026343Y009937D01*
X026347Y008413D02*
X027922Y008413D01*
X029496Y008413D01*
X029521Y008437D02*
X030143Y008437D01*
X030293Y008287D01*
X030943Y008287D01*
X029496Y007586D02*
X029496Y007330D01*
X027922Y007330D02*
X027922Y007586D01*
X026347Y007586D02*
X026347Y007330D01*
X024772Y007330D02*
X024772Y007586D01*
D24*
X024772Y007330D03*
X025193Y008337D03*
X025893Y008337D03*
X026347Y007330D03*
X027922Y007330D03*
X029496Y007330D03*
X030943Y008287D03*
X030543Y008637D03*
X032039Y009181D03*
X032039Y009881D03*
X030589Y010231D03*
X032043Y010937D03*
X032043Y011537D03*
X032043Y012137D03*
X032093Y012887D03*
X034639Y013431D03*
X035589Y015331D03*
X035789Y018031D03*
X035293Y018537D03*
X034389Y018181D03*
X035193Y019887D03*
X030339Y018731D03*
X027639Y018431D03*
X026089Y018431D03*
X024043Y018437D03*
X021893Y017037D03*
X021893Y016587D03*
X020686Y016149D03*
X021943Y015437D03*
X022393Y015087D03*
X022943Y014787D03*
X023393Y013537D03*
X020486Y012149D03*
X020643Y011787D03*
X020893Y011537D03*
X021143Y011287D03*
X021443Y010987D03*
X019493Y012037D03*
X019843Y012387D03*
X018693Y011937D03*
X017986Y012099D03*
X017993Y011637D03*
X017543Y011137D03*
X018336Y010599D03*
X019043Y010537D03*
X018893Y011137D03*
X017443Y010387D03*
X017786Y009649D03*
X018293Y009687D03*
X018693Y009687D03*
X020486Y009449D03*
X021093Y008137D03*
X019336Y007899D03*
X017943Y008037D03*
X017636Y008399D03*
X017193Y008187D03*
X015986Y007499D03*
X015536Y007299D03*
X014536Y007799D03*
X013543Y007237D03*
X014186Y008999D03*
X013793Y009587D03*
X014286Y011049D03*
X013843Y012087D03*
X015136Y012599D03*
X015443Y011987D03*
X015893Y011837D03*
X017193Y012887D03*
X017436Y013699D03*
X017943Y013387D03*
X016836Y013699D03*
X017986Y014549D03*
X018793Y014587D03*
X019286Y013799D03*
X016443Y015337D03*
X017336Y016149D03*
X015186Y015299D03*
X013843Y014687D03*
X014236Y014099D03*
X014343Y013537D03*
X013843Y017187D03*
X014343Y018287D03*
X016193Y018887D03*
X017292Y020992D03*
X018079Y020992D03*
X018866Y020992D03*
X019654Y020992D03*
X023591Y020992D03*
X024378Y020992D03*
X025166Y020992D03*
X027134Y020992D03*
X031539Y015831D03*
X029389Y015631D03*
X029093Y013987D03*
X027039Y012531D03*
X027489Y011381D03*
X026639Y011181D03*
X028639Y011681D03*
X026343Y009937D03*
X024643Y011237D03*
X023186Y008649D03*
X023243Y006737D03*
X022786Y006449D03*
X023243Y006287D03*
X021336Y006449D03*
X020048Y006819D03*
X019260Y006819D03*
X018473Y006819D03*
X008236Y008000D03*
X008236Y008787D03*
X008236Y009574D03*
X008236Y010362D03*
X008236Y011149D03*
X008236Y011937D03*
X008236Y012724D03*
X008236Y013511D03*
X008236Y014299D03*
X008236Y015086D03*
X008236Y015874D03*
X008236Y016661D03*
X008236Y017448D03*
X008236Y018236D03*
X008236Y019023D03*
X014536Y020992D03*
X034639Y008931D03*
X035793Y009537D03*
X035143Y010387D03*
X037839Y009031D03*
X037839Y008481D03*
X037764Y006031D03*
X036977Y006031D03*
X036189Y006031D03*
X035402Y006031D03*
X034614Y006031D03*
X033827Y006031D03*
X033040Y006031D03*
X032252Y006031D03*
X038551Y006031D03*
X039339Y006031D03*
X040126Y006031D03*
X040914Y006031D03*
X042882Y008000D03*
X042882Y008787D03*
X042882Y009574D03*
X042882Y010362D03*
X042882Y011149D03*
X042882Y011937D03*
X042882Y012724D03*
X042882Y013511D03*
X042882Y014299D03*
X042882Y015086D03*
X042882Y015874D03*
X042882Y016661D03*
X042882Y017448D03*
X042882Y018236D03*
X042882Y019023D03*
D25*
X007983Y021245D02*
X007983Y005777D01*
X020648Y005777D01*
X020563Y005863D01*
X020363Y006063D01*
X020363Y007407D01*
X017218Y007407D01*
X017113Y007513D01*
X017013Y007613D01*
X017013Y007907D01*
X016962Y007907D01*
X016962Y007659D01*
X016903Y007601D01*
X016427Y007601D01*
X016368Y007659D01*
X016368Y007907D01*
X016218Y007907D01*
X016068Y008057D01*
X016068Y008293D01*
X015853Y008293D01*
X015835Y008311D01*
X015817Y008293D01*
X015577Y008293D01*
X015559Y008311D01*
X015542Y008293D01*
X015301Y008293D01*
X015284Y008311D01*
X015266Y008293D01*
X015026Y008293D01*
X014967Y008352D01*
X014967Y009222D01*
X015026Y009281D01*
X015266Y009281D01*
X015284Y009263D01*
X015301Y009281D01*
X015542Y009281D01*
X015559Y009263D01*
X015577Y009281D01*
X015817Y009281D01*
X015835Y009263D01*
X015853Y009281D01*
X016068Y009281D01*
X016068Y009860D01*
X014023Y009860D01*
X014023Y007463D01*
X013763Y007203D01*
X013763Y007146D01*
X013634Y007017D01*
X013452Y007017D01*
X013412Y007057D01*
X012917Y007057D01*
X012717Y006857D01*
X012834Y006741D01*
X012905Y006568D01*
X012905Y006381D01*
X012834Y006209D01*
X012702Y006076D01*
X012529Y006005D01*
X012342Y006005D01*
X012169Y006076D01*
X012037Y006209D01*
X011965Y006381D01*
X011965Y006568D01*
X012037Y006741D01*
X012169Y006873D01*
X012263Y006912D01*
X012768Y007417D01*
X013412Y007417D01*
X013452Y007457D01*
X013508Y007457D01*
X013663Y007612D01*
X013663Y009406D01*
X013573Y009496D01*
X013573Y009679D01*
X013663Y009769D01*
X013663Y011956D01*
X013623Y011996D01*
X012593Y011996D01*
X012593Y012074D02*
X013623Y012074D01*
X013623Y011996D02*
X013623Y012179D01*
X013663Y012219D01*
X013663Y014556D01*
X013623Y014596D01*
X013623Y014779D01*
X013663Y014819D01*
X013663Y017056D01*
X013623Y017096D01*
X013623Y017279D01*
X013663Y017319D01*
X013663Y017595D01*
X013653Y017586D01*
X013523Y017586D01*
X013523Y017364D01*
X013464Y017306D01*
X012721Y017306D01*
X012663Y017364D01*
X012663Y018107D01*
X012721Y018166D01*
X013464Y018166D01*
X013523Y018107D01*
X013523Y017886D01*
X013529Y017886D01*
X013543Y017900D01*
X013543Y019100D01*
X013631Y019187D01*
X012405Y019187D01*
X012393Y019175D01*
X012393Y017800D01*
X012593Y017600D01*
X012593Y015550D01*
X012619Y015524D01*
X012663Y015524D01*
X012663Y015745D01*
X012721Y015804D01*
X013464Y015804D01*
X013523Y015745D01*
X013523Y015002D01*
X013464Y014944D01*
X012721Y014944D01*
X012663Y015002D01*
X012663Y015224D01*
X012593Y015224D01*
X012593Y013200D01*
X012631Y013161D01*
X012663Y013161D01*
X012663Y013383D01*
X012721Y013441D01*
X013464Y013441D01*
X013523Y013383D01*
X013523Y012640D01*
X013464Y012581D01*
X012721Y012581D01*
X012663Y012640D01*
X012663Y012861D01*
X012593Y012861D01*
X012593Y010800D01*
X012593Y010799D01*
X012663Y010799D01*
X012663Y011021D01*
X012721Y011079D01*
X013464Y011079D01*
X013523Y011021D01*
X013523Y010278D01*
X013464Y010219D01*
X012721Y010219D01*
X012663Y010278D01*
X012663Y010499D01*
X012543Y010499D01*
X012543Y008500D01*
X012605Y008437D01*
X012663Y008437D01*
X012663Y008658D01*
X012721Y008717D01*
X013464Y008717D01*
X013523Y008658D01*
X013523Y007916D01*
X013464Y007857D01*
X012721Y007857D01*
X012663Y007916D01*
X012663Y008137D01*
X012481Y008137D01*
X012331Y008287D01*
X012243Y008375D01*
X012243Y010425D01*
X012181Y010487D01*
X012093Y010575D01*
X012093Y012675D01*
X011981Y012787D01*
X011893Y012875D01*
X011893Y014925D01*
X011781Y015037D01*
X011693Y015125D01*
X011693Y017125D01*
X011581Y017237D01*
X011493Y017325D01*
X011493Y019850D01*
X011643Y020000D01*
X011731Y020087D01*
X012760Y020087D01*
X012610Y020150D01*
X012478Y020282D01*
X012406Y020455D01*
X012406Y020642D01*
X012478Y020814D01*
X012610Y020946D01*
X012783Y021018D01*
X012970Y021018D01*
X013142Y020946D01*
X013275Y020814D01*
X013346Y020642D01*
X013346Y020455D01*
X013275Y020282D01*
X013142Y020150D01*
X012992Y020087D01*
X028631Y020087D01*
X029643Y021100D01*
X029731Y021187D01*
X037155Y021187D01*
X037355Y020987D01*
X037443Y020900D01*
X037443Y015300D01*
X037520Y015222D01*
X037759Y015461D01*
X038132Y015461D01*
X038395Y015198D01*
X038395Y014825D01*
X038132Y014561D01*
X037881Y014561D01*
X037955Y014487D01*
X037955Y014487D01*
X037981Y014461D01*
X038132Y014461D01*
X038395Y014198D01*
X038395Y013825D01*
X038132Y013561D01*
X037759Y013561D01*
X037495Y013825D01*
X037495Y014198D01*
X037658Y014360D01*
X037493Y014525D01*
X037493Y013676D01*
X037733Y013436D01*
X037759Y013461D01*
X038132Y013461D01*
X038395Y013198D01*
X038395Y012825D01*
X038132Y012561D01*
X037759Y012561D01*
X037543Y012777D01*
X037543Y012626D01*
X037733Y012436D01*
X037759Y012461D01*
X038132Y012461D01*
X038395Y012198D01*
X038395Y011825D01*
X038132Y011561D01*
X037759Y011561D01*
X037593Y011727D01*
X037593Y011576D01*
X037733Y011436D01*
X037759Y011461D01*
X038132Y011461D01*
X038395Y011198D01*
X038395Y010825D01*
X038132Y010561D01*
X037759Y010561D01*
X037495Y010825D01*
X037495Y011198D01*
X037521Y011224D01*
X037293Y011452D01*
X037293Y012175D01*
X037043Y012425D01*
X037043Y013125D01*
X036793Y013375D01*
X036793Y014325D01*
X036343Y014775D01*
X036343Y020075D01*
X036331Y020087D01*
X035304Y020087D01*
X035413Y019979D01*
X035413Y019796D01*
X035343Y019726D01*
X035343Y018925D01*
X035105Y018687D01*
X035132Y018687D01*
X035202Y018757D01*
X035384Y018757D01*
X035513Y018629D01*
X035513Y018446D01*
X035384Y018317D01*
X035202Y018317D01*
X035132Y018387D01*
X033255Y018387D01*
X031643Y016775D01*
X031555Y016687D01*
X022205Y016687D01*
X022113Y016595D01*
X022113Y016496D01*
X021984Y016367D01*
X021802Y016367D01*
X021673Y016496D01*
X021673Y016679D01*
X021802Y016807D01*
X021901Y016807D01*
X021911Y016817D01*
X021802Y016817D01*
X021673Y016946D01*
X021673Y017129D01*
X021802Y017257D01*
X021984Y017257D01*
X022054Y017187D01*
X024538Y017187D01*
X024533Y017189D01*
X024316Y017406D01*
X024199Y017689D01*
X024199Y017995D01*
X024316Y018278D01*
X024533Y018495D01*
X024816Y018612D01*
X025122Y018612D01*
X025405Y018495D01*
X025621Y018278D01*
X025739Y017995D01*
X025739Y017689D01*
X025621Y017406D01*
X025405Y017189D01*
X025400Y017187D01*
X028868Y017187D01*
X028863Y017189D01*
X028647Y017406D01*
X028530Y017689D01*
X028530Y017995D01*
X028647Y018278D01*
X028863Y018495D01*
X029146Y018612D01*
X029453Y018612D01*
X029736Y018495D01*
X029952Y018278D01*
X030069Y017995D01*
X030069Y017689D01*
X029952Y017406D01*
X029736Y017189D01*
X029731Y017187D01*
X031331Y017187D01*
X033031Y018887D01*
X033510Y018887D01*
X033227Y019170D01*
X033227Y019667D01*
X033579Y020018D01*
X034076Y020018D01*
X034427Y019667D01*
X034427Y019170D01*
X034145Y018887D01*
X034881Y018887D01*
X035043Y019050D01*
X035043Y019726D01*
X034973Y019796D01*
X034973Y019979D01*
X035082Y020087D01*
X032805Y020087D01*
X031713Y018996D01*
X031784Y018926D01*
X031841Y018787D01*
X031841Y018638D01*
X031784Y018499D01*
X031678Y018394D01*
X031540Y018336D01*
X031390Y018336D01*
X031252Y018394D01*
X031146Y018499D01*
X031089Y018638D01*
X031089Y018787D01*
X031146Y018926D01*
X031208Y018987D01*
X021247Y018987D01*
X021617Y018617D01*
X023912Y018617D01*
X023952Y018657D01*
X024134Y018657D01*
X024263Y018529D01*
X024263Y018346D01*
X024134Y018217D01*
X023952Y018217D01*
X023912Y018257D01*
X021468Y018257D01*
X021363Y018363D01*
X021018Y018707D01*
X016324Y018707D01*
X016284Y018667D01*
X016102Y018667D01*
X016062Y018707D01*
X014217Y018707D01*
X014173Y018663D01*
X014173Y018429D01*
X014252Y018507D01*
X014434Y018507D01*
X014563Y018379D01*
X014563Y018196D01*
X014493Y018126D01*
X014493Y015900D01*
X014505Y015887D01*
X016805Y015887D01*
X016893Y015800D01*
X016943Y015750D01*
X016943Y014250D01*
X016955Y014237D01*
X017905Y014237D01*
X017993Y014150D01*
X018093Y014050D01*
X018093Y013549D01*
X018163Y013479D01*
X018163Y013296D01*
X018034Y013167D01*
X017852Y013167D01*
X017723Y013296D01*
X017723Y013479D01*
X017793Y013549D01*
X017793Y013925D01*
X017781Y013937D01*
X016831Y013937D01*
X016731Y014037D01*
X016593Y014037D01*
X016593Y014115D02*
X016653Y014115D01*
X016643Y014125D02*
X016731Y014037D01*
X016810Y013958D02*
X016593Y013958D01*
X016593Y013880D02*
X017793Y013880D01*
X017793Y013801D02*
X016593Y013801D01*
X016593Y013723D02*
X017793Y013723D01*
X017793Y013644D02*
X016593Y013644D01*
X016593Y013566D02*
X017793Y013566D01*
X017732Y013487D02*
X016593Y013487D01*
X016593Y013409D02*
X017723Y013409D01*
X017723Y013330D02*
X016593Y013330D01*
X016593Y013252D02*
X017767Y013252D01*
X017846Y013173D02*
X016593Y013173D01*
X016593Y013095D02*
X017089Y013095D01*
X017102Y013107D02*
X016973Y012979D01*
X016973Y012796D01*
X017102Y012667D01*
X017284Y012667D01*
X017324Y012707D01*
X017708Y012707D01*
X016174Y011173D01*
X016068Y011067D01*
X016068Y010220D01*
X014023Y010220D01*
X014023Y011956D01*
X014063Y011996D01*
X014063Y012171D01*
X014193Y012171D01*
X014193Y012025D01*
X014281Y011937D01*
X014381Y011837D01*
X015282Y011837D01*
X015352Y011767D01*
X015534Y011767D01*
X015663Y011896D01*
X015663Y012079D01*
X015534Y012207D01*
X015352Y012207D01*
X015282Y012137D01*
X014505Y012137D01*
X014493Y012150D01*
X014493Y012171D01*
X014616Y012171D01*
X014675Y012230D01*
X014675Y012785D01*
X014616Y012844D01*
X014061Y012844D01*
X014023Y012805D01*
X014023Y013036D01*
X014061Y012998D01*
X014616Y012998D01*
X014675Y013057D01*
X014675Y013612D01*
X014616Y013670D01*
X014521Y013670D01*
X014434Y013757D01*
X014252Y013757D01*
X014165Y013670D01*
X014061Y013670D01*
X014023Y013632D01*
X014023Y014556D01*
X014063Y014596D01*
X014063Y014779D01*
X014023Y014819D01*
X014023Y017056D01*
X014063Y017096D01*
X014063Y017279D01*
X014023Y017319D01*
X014023Y017563D01*
X014067Y017607D01*
X014173Y017713D01*
X014173Y018146D01*
X014193Y018126D01*
X014193Y015775D01*
X014281Y015687D01*
X014381Y015587D01*
X016643Y015587D01*
X016643Y015449D01*
X016534Y015557D01*
X016352Y015557D01*
X016223Y015429D01*
X016223Y015246D01*
X016293Y015176D01*
X016293Y012750D01*
X015743Y012200D01*
X015743Y011999D01*
X015673Y011929D01*
X015673Y011746D01*
X015802Y011617D01*
X015984Y011617D01*
X016113Y011746D01*
X016113Y011929D01*
X016043Y011999D01*
X016043Y012075D01*
X016505Y012537D01*
X016593Y012625D01*
X016593Y015176D01*
X016643Y015226D01*
X016643Y014125D01*
X016643Y014194D02*
X016593Y014194D01*
X016593Y014272D02*
X016643Y014272D01*
X016643Y014351D02*
X016593Y014351D01*
X016593Y014429D02*
X016643Y014429D01*
X016643Y014508D02*
X016593Y014508D01*
X016593Y014586D02*
X016643Y014586D01*
X016643Y014665D02*
X016593Y014665D01*
X016593Y014743D02*
X016643Y014743D01*
X016643Y014822D02*
X016593Y014822D01*
X016593Y014900D02*
X016643Y014900D01*
X016643Y014979D02*
X016593Y014979D01*
X016593Y015057D02*
X016643Y015057D01*
X016643Y015136D02*
X016593Y015136D01*
X016631Y015214D02*
X016643Y015214D01*
X016641Y015450D02*
X016643Y015450D01*
X016643Y015528D02*
X016563Y015528D01*
X016323Y015528D02*
X014023Y015528D01*
X014023Y015450D02*
X016244Y015450D01*
X016223Y015371D02*
X014023Y015371D01*
X014023Y015293D02*
X016223Y015293D01*
X016255Y015214D02*
X014023Y015214D01*
X014023Y015136D02*
X016293Y015136D01*
X016293Y015057D02*
X014023Y015057D01*
X014023Y014979D02*
X016293Y014979D01*
X016293Y014900D02*
X014023Y014900D01*
X014023Y014822D02*
X016293Y014822D01*
X016293Y014743D02*
X014063Y014743D01*
X014063Y014665D02*
X016293Y014665D01*
X016293Y014586D02*
X014053Y014586D01*
X014023Y014508D02*
X016293Y014508D01*
X016293Y014429D02*
X014023Y014429D01*
X014023Y014351D02*
X016293Y014351D01*
X016293Y014272D02*
X014023Y014272D01*
X014023Y014194D02*
X016293Y014194D01*
X016293Y014115D02*
X014023Y014115D01*
X014023Y014037D02*
X016293Y014037D01*
X016293Y013958D02*
X014023Y013958D01*
X014023Y013880D02*
X016293Y013880D01*
X016293Y013801D02*
X014023Y013801D01*
X014023Y013723D02*
X014217Y013723D01*
X014035Y013644D02*
X014023Y013644D01*
X013663Y013644D02*
X012593Y013644D01*
X012593Y013566D02*
X013663Y013566D01*
X013663Y013487D02*
X012593Y013487D01*
X012593Y013409D02*
X012689Y013409D01*
X012663Y013330D02*
X012593Y013330D01*
X012593Y013252D02*
X012663Y013252D01*
X012663Y013173D02*
X012619Y013173D01*
X012593Y013723D02*
X013663Y013723D01*
X013663Y013801D02*
X012593Y013801D01*
X012593Y013880D02*
X013663Y013880D01*
X013663Y013958D02*
X012593Y013958D01*
X012593Y014037D02*
X013663Y014037D01*
X013663Y014115D02*
X012593Y014115D01*
X012593Y014194D02*
X013663Y014194D01*
X013663Y014272D02*
X012593Y014272D01*
X012593Y014351D02*
X013663Y014351D01*
X013663Y014429D02*
X012593Y014429D01*
X012593Y014508D02*
X013663Y014508D01*
X013633Y014586D02*
X012593Y014586D01*
X012593Y014665D02*
X013623Y014665D01*
X013623Y014743D02*
X012593Y014743D01*
X012593Y014822D02*
X013663Y014822D01*
X013663Y014900D02*
X012593Y014900D01*
X012593Y014979D02*
X012686Y014979D01*
X012663Y015057D02*
X012593Y015057D01*
X012593Y015136D02*
X012663Y015136D01*
X012663Y015214D02*
X012593Y015214D01*
X012614Y015528D02*
X012663Y015528D01*
X012663Y015607D02*
X012593Y015607D01*
X012593Y015685D02*
X012663Y015685D01*
X012682Y015764D02*
X012593Y015764D01*
X012593Y015842D02*
X013663Y015842D01*
X013663Y015764D02*
X013504Y015764D01*
X013523Y015685D02*
X013663Y015685D01*
X013663Y015607D02*
X013523Y015607D01*
X013523Y015528D02*
X013663Y015528D01*
X013663Y015450D02*
X013523Y015450D01*
X013523Y015371D02*
X013663Y015371D01*
X013663Y015293D02*
X013523Y015293D01*
X013523Y015214D02*
X013663Y015214D01*
X013663Y015136D02*
X013523Y015136D01*
X013523Y015057D02*
X013663Y015057D01*
X013663Y014979D02*
X013500Y014979D01*
X014023Y015607D02*
X014361Y015607D01*
X014283Y015685D02*
X014023Y015685D01*
X014023Y015764D02*
X014204Y015764D01*
X014193Y015842D02*
X014023Y015842D01*
X014023Y015921D02*
X014193Y015921D01*
X014193Y015999D02*
X014023Y015999D01*
X014023Y016078D02*
X014193Y016078D01*
X014193Y016156D02*
X014023Y016156D01*
X014023Y016235D02*
X014193Y016235D01*
X014193Y016313D02*
X014023Y016313D01*
X014023Y016392D02*
X014193Y016392D01*
X014193Y016470D02*
X014023Y016470D01*
X014023Y016549D02*
X014193Y016549D01*
X014193Y016627D02*
X014023Y016627D01*
X014023Y016706D02*
X014193Y016706D01*
X014193Y016784D02*
X014023Y016784D01*
X014023Y016863D02*
X014193Y016863D01*
X014193Y016941D02*
X014023Y016941D01*
X014023Y017020D02*
X014193Y017020D01*
X014193Y017098D02*
X014063Y017098D01*
X014063Y017177D02*
X014193Y017177D01*
X014193Y017255D02*
X014063Y017255D01*
X014023Y017334D02*
X014193Y017334D01*
X014193Y017412D02*
X014023Y017412D01*
X014023Y017491D02*
X014193Y017491D01*
X014193Y017569D02*
X014029Y017569D01*
X014108Y017648D02*
X014193Y017648D01*
X014193Y017726D02*
X014173Y017726D01*
X014173Y017805D02*
X014193Y017805D01*
X014193Y017883D02*
X014173Y017883D01*
X014173Y017962D02*
X014193Y017962D01*
X014193Y018040D02*
X014173Y018040D01*
X014173Y018119D02*
X014193Y018119D01*
X014493Y018119D02*
X024250Y018119D01*
X024283Y018197D02*
X014563Y018197D01*
X014563Y018276D02*
X021450Y018276D01*
X021371Y018354D02*
X014563Y018354D01*
X014508Y018433D02*
X021293Y018433D01*
X021214Y018511D02*
X014173Y018511D01*
X014173Y018433D02*
X014177Y018433D01*
X014173Y018590D02*
X021136Y018590D01*
X021057Y018668D02*
X016285Y018668D01*
X016101Y018668D02*
X014178Y018668D01*
X013543Y018668D02*
X012393Y018668D01*
X012393Y018590D02*
X013543Y018590D01*
X013543Y018511D02*
X012393Y018511D01*
X012393Y018433D02*
X013543Y018433D01*
X013543Y018354D02*
X012393Y018354D01*
X012393Y018276D02*
X013543Y018276D01*
X013543Y018197D02*
X012393Y018197D01*
X012393Y018119D02*
X012674Y018119D01*
X012663Y018040D02*
X012393Y018040D01*
X012393Y017962D02*
X012663Y017962D01*
X012663Y017883D02*
X012393Y017883D01*
X012393Y017805D02*
X012663Y017805D01*
X012663Y017726D02*
X012466Y017726D01*
X012544Y017648D02*
X012663Y017648D01*
X012663Y017569D02*
X012593Y017569D01*
X012593Y017491D02*
X012663Y017491D01*
X012663Y017412D02*
X012593Y017412D01*
X012593Y017334D02*
X012693Y017334D01*
X012593Y017255D02*
X013623Y017255D01*
X013623Y017177D02*
X012593Y017177D01*
X012593Y017098D02*
X013623Y017098D01*
X013663Y017020D02*
X012593Y017020D01*
X012593Y016941D02*
X013663Y016941D01*
X013663Y016863D02*
X012593Y016863D01*
X012593Y016784D02*
X013663Y016784D01*
X013663Y016706D02*
X012593Y016706D01*
X012593Y016627D02*
X013663Y016627D01*
X013663Y016549D02*
X012593Y016549D01*
X012593Y016470D02*
X013663Y016470D01*
X013663Y016392D02*
X012593Y016392D01*
X012593Y016313D02*
X013663Y016313D01*
X013663Y016235D02*
X012593Y016235D01*
X012593Y016156D02*
X013663Y016156D01*
X013663Y016078D02*
X012593Y016078D01*
X012593Y015999D02*
X013663Y015999D01*
X013663Y015921D02*
X012593Y015921D01*
X011693Y015921D02*
X007983Y015921D01*
X007983Y015999D02*
X011693Y015999D01*
X011693Y016078D02*
X007983Y016078D01*
X007983Y016156D02*
X011693Y016156D01*
X011693Y016235D02*
X007983Y016235D01*
X007983Y016313D02*
X011693Y016313D01*
X011693Y016392D02*
X007983Y016392D01*
X007983Y016470D02*
X011693Y016470D01*
X011693Y016549D02*
X007983Y016549D01*
X007983Y016627D02*
X011693Y016627D01*
X011693Y016706D02*
X007983Y016706D01*
X007983Y016784D02*
X011693Y016784D01*
X011693Y016863D02*
X007983Y016863D01*
X007983Y016941D02*
X011693Y016941D01*
X011693Y017020D02*
X007983Y017020D01*
X007983Y017098D02*
X011693Y017098D01*
X011641Y017177D02*
X007983Y017177D01*
X007983Y017255D02*
X011563Y017255D01*
X011493Y017334D02*
X007983Y017334D01*
X007983Y017412D02*
X011493Y017412D01*
X011493Y017491D02*
X007983Y017491D01*
X007983Y017569D02*
X011493Y017569D01*
X011493Y017648D02*
X007983Y017648D01*
X007983Y017726D02*
X011493Y017726D01*
X011493Y017805D02*
X007983Y017805D01*
X007983Y017883D02*
X011493Y017883D01*
X011493Y017962D02*
X007983Y017962D01*
X007983Y018040D02*
X011493Y018040D01*
X011493Y018119D02*
X007983Y018119D01*
X007983Y018197D02*
X011493Y018197D01*
X011493Y018276D02*
X007983Y018276D01*
X007983Y018354D02*
X011493Y018354D01*
X011493Y018433D02*
X007983Y018433D01*
X007983Y018511D02*
X011493Y018511D01*
X011493Y018590D02*
X007983Y018590D01*
X007983Y018668D02*
X011493Y018668D01*
X011493Y018747D02*
X007983Y018747D01*
X007983Y018825D02*
X011493Y018825D01*
X011493Y018904D02*
X007983Y018904D01*
X007983Y018982D02*
X011493Y018982D01*
X011493Y019061D02*
X007983Y019061D01*
X007983Y019139D02*
X011493Y019139D01*
X011493Y019218D02*
X007983Y019218D01*
X007983Y019296D02*
X011493Y019296D01*
X011493Y019375D02*
X007983Y019375D01*
X007983Y019453D02*
X011493Y019453D01*
X011493Y019532D02*
X007983Y019532D01*
X007983Y019610D02*
X011493Y019610D01*
X011493Y019689D02*
X007983Y019689D01*
X007983Y019767D02*
X008654Y019767D01*
X008697Y019749D02*
X008957Y019749D01*
X009196Y019849D01*
X009380Y020032D01*
X009479Y020272D01*
X009479Y020531D01*
X009380Y020770D01*
X009196Y020954D01*
X008957Y021053D01*
X008697Y021053D01*
X008458Y020954D01*
X008274Y020770D01*
X008175Y020531D01*
X008175Y020272D01*
X008274Y020032D01*
X008458Y019849D01*
X008697Y019749D01*
X008464Y019846D02*
X007983Y019846D01*
X007983Y019924D02*
X008382Y019924D01*
X008303Y020003D02*
X007983Y020003D01*
X007983Y020081D02*
X008254Y020081D01*
X008221Y020160D02*
X007983Y020160D01*
X007983Y020238D02*
X008189Y020238D01*
X008175Y020317D02*
X007983Y020317D01*
X007983Y020395D02*
X008175Y020395D01*
X008175Y020474D02*
X007983Y020474D01*
X007983Y020552D02*
X008184Y020552D01*
X008217Y020631D02*
X007983Y020631D01*
X007983Y020709D02*
X008249Y020709D01*
X008292Y020788D02*
X007983Y020788D01*
X007983Y020866D02*
X008371Y020866D01*
X008449Y020945D02*
X007983Y020945D01*
X007983Y021023D02*
X008626Y021023D01*
X009028Y021023D02*
X025939Y021023D01*
X025963Y021048D02*
X025700Y020784D01*
X025700Y020412D01*
X025963Y020148D01*
X026336Y020148D01*
X026600Y020412D01*
X026600Y020784D01*
X026336Y021048D01*
X025963Y021048D01*
X025860Y020945D02*
X013144Y020945D01*
X013223Y020866D02*
X025782Y020866D01*
X025703Y020788D02*
X013286Y020788D01*
X013318Y020709D02*
X025700Y020709D01*
X025700Y020631D02*
X013346Y020631D01*
X013346Y020552D02*
X025700Y020552D01*
X025700Y020474D02*
X013346Y020474D01*
X013322Y020395D02*
X025716Y020395D01*
X025795Y020317D02*
X013289Y020317D01*
X013231Y020238D02*
X025873Y020238D01*
X025952Y020160D02*
X013153Y020160D01*
X012600Y020160D02*
X011153Y020160D01*
X011142Y020150D02*
X011275Y020282D01*
X011346Y020455D01*
X011346Y020642D01*
X011275Y020814D01*
X011142Y020946D01*
X010970Y021018D01*
X010783Y021018D01*
X010610Y020946D01*
X010478Y020814D01*
X010406Y020642D01*
X010406Y020455D01*
X010478Y020282D01*
X010610Y020150D01*
X010783Y020078D01*
X010970Y020078D01*
X011142Y020150D01*
X011231Y020238D02*
X012521Y020238D01*
X012463Y020317D02*
X011289Y020317D01*
X011322Y020395D02*
X012431Y020395D01*
X012406Y020474D02*
X011346Y020474D01*
X011346Y020552D02*
X012406Y020552D01*
X012406Y020631D02*
X011346Y020631D01*
X011318Y020709D02*
X012434Y020709D01*
X012467Y020788D02*
X011286Y020788D01*
X011223Y020866D02*
X012530Y020866D01*
X012608Y020945D02*
X011144Y020945D01*
X010608Y020945D02*
X009205Y020945D01*
X009284Y020866D02*
X010530Y020866D01*
X010467Y020788D02*
X009362Y020788D01*
X009405Y020709D02*
X010434Y020709D01*
X010406Y020631D02*
X009437Y020631D01*
X009470Y020552D02*
X010406Y020552D01*
X010406Y020474D02*
X009479Y020474D01*
X009479Y020395D02*
X010431Y020395D01*
X010463Y020317D02*
X009479Y020317D01*
X009465Y020238D02*
X010521Y020238D01*
X010600Y020160D02*
X009433Y020160D01*
X009400Y020081D02*
X010775Y020081D01*
X010978Y020081D02*
X011725Y020081D01*
X011646Y020003D02*
X009351Y020003D01*
X009272Y019924D02*
X011568Y019924D01*
X011493Y019846D02*
X009190Y019846D01*
X009000Y019767D02*
X011493Y019767D01*
X012393Y019139D02*
X013583Y019139D01*
X013543Y019061D02*
X012393Y019061D01*
X012393Y018982D02*
X013543Y018982D01*
X013543Y018904D02*
X012393Y018904D01*
X012393Y018825D02*
X013543Y018825D01*
X013543Y018747D02*
X012393Y018747D01*
X013511Y018119D02*
X013543Y018119D01*
X013543Y018040D02*
X013523Y018040D01*
X013523Y017962D02*
X013543Y017962D01*
X013523Y017569D02*
X013663Y017569D01*
X013663Y017491D02*
X013523Y017491D01*
X013523Y017412D02*
X013663Y017412D01*
X013663Y017334D02*
X013492Y017334D01*
X014493Y017334D02*
X024388Y017334D01*
X024313Y017412D02*
X014493Y017412D01*
X014493Y017491D02*
X024281Y017491D01*
X024248Y017569D02*
X014493Y017569D01*
X014493Y017648D02*
X024216Y017648D01*
X024199Y017726D02*
X014493Y017726D01*
X014493Y017805D02*
X024199Y017805D01*
X024199Y017883D02*
X014493Y017883D01*
X014493Y017962D02*
X024199Y017962D01*
X024218Y018040D02*
X014493Y018040D01*
X014493Y017255D02*
X021800Y017255D01*
X021721Y017177D02*
X014493Y017177D01*
X014493Y017098D02*
X021673Y017098D01*
X021673Y017020D02*
X014493Y017020D01*
X014493Y016941D02*
X021678Y016941D01*
X021756Y016863D02*
X014493Y016863D01*
X014493Y016784D02*
X021779Y016784D01*
X021700Y016706D02*
X014493Y016706D01*
X014493Y016627D02*
X021673Y016627D01*
X021673Y016549D02*
X014493Y016549D01*
X014493Y016470D02*
X021699Y016470D01*
X021777Y016392D02*
X014493Y016392D01*
X014493Y016313D02*
X036343Y016313D01*
X036343Y016235D02*
X014493Y016235D01*
X014493Y016156D02*
X036343Y016156D01*
X036343Y016078D02*
X034076Y016078D01*
X033579Y016078D01*
X033227Y015727D01*
X033227Y015230D01*
X033579Y014878D01*
X034076Y014878D01*
X034427Y015230D01*
X034427Y015727D01*
X034076Y016078D01*
X034155Y015999D02*
X036343Y015999D01*
X036343Y015921D02*
X034233Y015921D01*
X034312Y015842D02*
X036343Y015842D01*
X036343Y015764D02*
X034390Y015764D01*
X034427Y015685D02*
X036343Y015685D01*
X036343Y015607D02*
X034427Y015607D01*
X034427Y015528D02*
X036343Y015528D01*
X036343Y015450D02*
X034427Y015450D01*
X034427Y015371D02*
X036343Y015371D01*
X036343Y015293D02*
X034427Y015293D01*
X034412Y015214D02*
X036343Y015214D01*
X036343Y015136D02*
X034333Y015136D01*
X034255Y015057D02*
X036343Y015057D01*
X036343Y014979D02*
X034176Y014979D01*
X034098Y014900D02*
X036343Y014900D01*
X036343Y014822D02*
X028568Y014822D01*
X028568Y014900D02*
X033556Y014900D01*
X033478Y014979D02*
X028568Y014979D01*
X028568Y015057D02*
X033399Y015057D01*
X033321Y015136D02*
X028508Y015136D01*
X028568Y015076D02*
X028305Y015339D01*
X027932Y015339D01*
X027668Y015076D01*
X027668Y014703D01*
X027932Y014439D01*
X028305Y014439D01*
X028568Y014703D01*
X028568Y015076D01*
X028430Y015214D02*
X033242Y015214D01*
X033227Y015293D02*
X028351Y015293D01*
X027886Y015293D02*
X026383Y015293D01*
X026336Y015339D02*
X025963Y015339D01*
X025700Y015076D01*
X025700Y014703D01*
X025963Y014439D01*
X026336Y014439D01*
X026600Y014703D01*
X026600Y015076D01*
X026336Y015339D01*
X026461Y015214D02*
X027807Y015214D01*
X027729Y015136D02*
X026540Y015136D01*
X026600Y015057D02*
X027668Y015057D01*
X027668Y014979D02*
X026600Y014979D01*
X026600Y014900D02*
X027668Y014900D01*
X027668Y014822D02*
X026600Y014822D01*
X026600Y014743D02*
X027668Y014743D01*
X027706Y014665D02*
X026562Y014665D01*
X026483Y014586D02*
X027785Y014586D01*
X027863Y014508D02*
X026405Y014508D01*
X025895Y014508D02*
X023093Y014508D01*
X023093Y014586D02*
X025816Y014586D01*
X025738Y014665D02*
X023131Y014665D01*
X023163Y014696D02*
X023163Y014879D01*
X023034Y015007D01*
X022852Y015007D01*
X022723Y014879D01*
X022723Y014696D01*
X022793Y014626D01*
X022793Y013150D01*
X021151Y011507D01*
X021113Y011507D01*
X021113Y011545D01*
X022455Y012887D01*
X022543Y012975D01*
X022543Y014926D01*
X022613Y014996D01*
X022613Y015179D01*
X022484Y015307D01*
X022302Y015307D01*
X022173Y015179D01*
X022173Y014996D01*
X022243Y014926D01*
X022243Y013100D01*
X020901Y011757D01*
X020863Y011757D01*
X020863Y011795D01*
X022093Y013025D01*
X022093Y015276D01*
X022163Y015346D01*
X022163Y015529D01*
X022034Y015657D01*
X021852Y015657D01*
X021723Y015529D01*
X021723Y015346D01*
X021793Y015276D01*
X021793Y013150D01*
X020651Y012007D01*
X020552Y012007D01*
X020423Y011879D01*
X020423Y011696D01*
X020552Y011567D01*
X020673Y011567D01*
X020673Y011446D01*
X020802Y011317D01*
X020923Y011317D01*
X020923Y011196D01*
X021052Y011067D01*
X021223Y011067D01*
X021223Y010896D01*
X021232Y010887D01*
X021205Y010887D01*
X019993Y012100D01*
X019993Y012226D01*
X020063Y012296D01*
X020063Y012479D01*
X019934Y012607D01*
X019752Y012607D01*
X019623Y012479D01*
X019623Y012296D01*
X019693Y012226D01*
X019693Y012149D01*
X019584Y012257D01*
X019402Y012257D01*
X019273Y012129D01*
X019273Y011970D01*
X019193Y012050D01*
X019193Y012300D01*
X019143Y012350D01*
X019055Y012437D01*
X018581Y012437D01*
X018001Y011857D01*
X017902Y011857D01*
X017773Y011729D01*
X017773Y011546D01*
X017902Y011417D01*
X018084Y011417D01*
X018213Y011546D01*
X018213Y011645D01*
X018473Y011905D01*
X018473Y011846D01*
X018602Y011717D01*
X018701Y011717D01*
X019093Y011325D01*
X019093Y011249D01*
X018984Y011357D01*
X018802Y011357D01*
X018673Y011229D01*
X018673Y011046D01*
X018802Y010917D01*
X018905Y010917D01*
X019072Y010757D01*
X018952Y010757D01*
X018823Y010629D01*
X018823Y010446D01*
X018893Y010376D01*
X018893Y010337D01*
X017705Y010337D01*
X017663Y010380D01*
X017663Y010479D01*
X017534Y010607D01*
X017352Y010607D01*
X017243Y010499D01*
X017243Y010625D01*
X017535Y010917D01*
X017634Y010917D01*
X017763Y011046D01*
X017763Y011229D01*
X017634Y011357D01*
X017452Y011357D01*
X017323Y011229D01*
X017323Y011130D01*
X016943Y010750D01*
X016943Y010025D01*
X017031Y009937D01*
X017043Y009925D01*
X017131Y009837D01*
X018132Y009837D01*
X018073Y009779D01*
X018073Y009596D01*
X018202Y009467D01*
X018293Y009467D01*
X018293Y009281D01*
X018057Y009281D01*
X017999Y009222D01*
X017999Y008352D01*
X018022Y008329D01*
X017951Y008257D01*
X017852Y008257D01*
X017723Y008129D01*
X017723Y007946D01*
X017852Y007817D01*
X018034Y007817D01*
X018163Y007946D01*
X018163Y008045D01*
X018327Y008210D01*
X018327Y008299D01*
X018333Y008293D01*
X018573Y008293D01*
X018591Y008311D01*
X018608Y008293D01*
X018849Y008293D01*
X018907Y008352D01*
X018907Y009222D01*
X018879Y009251D01*
X018879Y009562D01*
X018913Y009596D01*
X018913Y009655D01*
X019131Y009437D01*
X019381Y009437D01*
X019405Y009413D01*
X019405Y009251D01*
X019377Y009222D01*
X019377Y008352D01*
X019435Y008293D01*
X019676Y008293D01*
X019693Y008311D01*
X019711Y008293D01*
X019951Y008293D01*
X019969Y008311D01*
X019986Y008293D01*
X020227Y008293D01*
X020285Y008352D01*
X020285Y009222D01*
X020227Y009281D01*
X019986Y009281D01*
X019981Y009275D01*
X019981Y009587D01*
X022931Y009587D01*
X023493Y009025D01*
X023493Y005975D01*
X023581Y005887D01*
X023681Y005787D01*
X031255Y005787D01*
X031343Y005875D01*
X032455Y006987D01*
X040205Y006987D01*
X040293Y007075D01*
X040393Y007175D01*
X040393Y011350D01*
X040305Y011437D01*
X040193Y011550D01*
X040193Y012350D01*
X040105Y012437D01*
X039993Y012550D01*
X039993Y013200D01*
X039905Y013287D01*
X039793Y013400D01*
X039793Y014150D01*
X039705Y014237D01*
X039643Y014300D01*
X039643Y015000D01*
X039555Y015087D01*
X039481Y015161D01*
X039395Y015161D01*
X039395Y015198D01*
X039132Y015461D01*
X038759Y015461D01*
X038495Y015198D01*
X038495Y014825D01*
X038759Y014561D01*
X039132Y014561D01*
X039343Y014773D01*
X039343Y014250D01*
X039132Y014461D01*
X038759Y014461D01*
X038495Y014198D01*
X038495Y013825D01*
X038759Y013561D01*
X039132Y013561D01*
X039293Y013723D01*
X039293Y013300D01*
X039132Y013461D01*
X038759Y013461D01*
X038495Y013198D01*
X038495Y012825D01*
X038759Y012561D01*
X039132Y012561D01*
X039293Y012723D01*
X039293Y012300D01*
X039132Y012461D01*
X038759Y012461D01*
X038495Y012198D01*
X038495Y011825D01*
X038759Y011561D01*
X039132Y011561D01*
X039293Y011723D01*
X039293Y011300D01*
X039132Y011461D01*
X038759Y011461D01*
X038495Y011198D01*
X038495Y010825D01*
X038759Y010561D01*
X039132Y010561D01*
X039293Y010723D01*
X039293Y010300D01*
X039132Y010461D01*
X038759Y010461D01*
X038495Y010198D01*
X038495Y009825D01*
X038759Y009561D01*
X038795Y009561D01*
X038795Y008302D01*
X038781Y008287D01*
X031831Y008287D01*
X030631Y007087D01*
X025805Y007087D01*
X025793Y007100D01*
X025793Y008126D01*
X025802Y008117D01*
X025984Y008117D01*
X026010Y008144D01*
X026010Y008135D01*
X026069Y008077D01*
X026624Y008077D01*
X026683Y008135D01*
X026683Y008263D01*
X027585Y008263D01*
X027585Y008135D01*
X027644Y008077D01*
X028199Y008077D01*
X028258Y008135D01*
X028258Y008263D01*
X029160Y008263D01*
X029160Y008135D01*
X029219Y008077D01*
X029774Y008077D01*
X029833Y008135D01*
X029833Y008287D01*
X030081Y008287D01*
X030231Y008137D01*
X030782Y008137D01*
X030852Y008067D01*
X031034Y008067D01*
X031163Y008196D01*
X031163Y008379D01*
X031034Y008507D01*
X030852Y008507D01*
X030782Y008437D01*
X030654Y008437D01*
X030763Y008546D01*
X030763Y008603D01*
X031323Y009163D01*
X031323Y012663D01*
X031367Y012707D01*
X031962Y012707D01*
X032002Y012667D01*
X032184Y012667D01*
X032313Y012796D01*
X032313Y012979D01*
X032184Y013107D01*
X032002Y013107D01*
X031962Y013067D01*
X031893Y013067D01*
X031893Y013700D01*
X031793Y013800D01*
X031755Y013837D01*
X035631Y013837D01*
X035643Y013825D01*
X035643Y009699D01*
X035573Y009629D01*
X035573Y009446D01*
X035702Y009317D01*
X035884Y009317D01*
X036013Y009446D01*
X036013Y009629D01*
X035943Y009699D01*
X035943Y013950D01*
X035855Y014037D01*
X036793Y014037D01*
X036793Y014115D02*
X035777Y014115D01*
X035755Y014137D02*
X029254Y014137D01*
X029184Y014207D01*
X029002Y014207D01*
X028873Y014079D01*
X028873Y013896D01*
X029002Y013767D01*
X029061Y013767D01*
X028981Y013687D01*
X026431Y013687D01*
X025181Y012437D01*
X024005Y012437D01*
X023785Y012657D01*
X023730Y012657D01*
X023730Y012785D01*
X023672Y012844D01*
X023116Y012844D01*
X023058Y012785D01*
X023058Y012230D01*
X023116Y012171D01*
X023672Y012171D01*
X023730Y012230D01*
X023730Y012288D01*
X023793Y012225D01*
X023881Y012137D01*
X025305Y012137D01*
X026555Y013387D01*
X029105Y013387D01*
X029193Y013475D01*
X029305Y013587D01*
X031581Y013587D01*
X031593Y013575D01*
X031593Y013067D01*
X031218Y013067D01*
X031113Y012962D01*
X030963Y012812D01*
X030963Y009312D01*
X030508Y008857D01*
X030452Y008857D01*
X030323Y008729D01*
X030323Y008546D01*
X030432Y008437D01*
X030355Y008437D01*
X030293Y008500D01*
X030205Y008587D01*
X029833Y008587D01*
X029833Y008691D01*
X029774Y008749D01*
X029219Y008749D01*
X029160Y008691D01*
X029160Y008563D01*
X028258Y008563D01*
X028258Y008691D01*
X028199Y008749D01*
X027644Y008749D01*
X027585Y008691D01*
X027585Y008563D01*
X026683Y008563D01*
X026683Y008691D01*
X026624Y008749D01*
X026497Y008749D01*
X026497Y009780D01*
X026563Y009846D01*
X026563Y010029D01*
X026434Y010157D01*
X026252Y010157D01*
X026123Y010029D01*
X026123Y009846D01*
X026197Y009772D01*
X026197Y008749D01*
X026069Y008749D01*
X026010Y008691D01*
X026010Y008531D01*
X025984Y008557D01*
X025802Y008557D01*
X025793Y008549D01*
X025793Y010900D01*
X025693Y011000D01*
X025605Y011087D01*
X024804Y011087D01*
X024863Y011146D01*
X024863Y011329D01*
X024734Y011457D01*
X024635Y011457D01*
X024605Y011487D01*
X021731Y011487D01*
X021643Y011400D01*
X021451Y011207D01*
X021363Y011207D01*
X021363Y011295D01*
X023005Y012937D01*
X023091Y013023D01*
X023116Y012998D01*
X023672Y012998D01*
X023730Y013057D01*
X023730Y013612D01*
X023672Y013670D01*
X023571Y013670D01*
X023484Y013757D01*
X023302Y013757D01*
X023215Y013670D01*
X023116Y013670D01*
X023093Y013647D01*
X023093Y014626D01*
X023163Y014696D01*
X023163Y014743D02*
X025700Y014743D01*
X025700Y014822D02*
X023163Y014822D01*
X023141Y014900D02*
X025700Y014900D01*
X025700Y014979D02*
X023062Y014979D01*
X022823Y014979D02*
X022595Y014979D01*
X022613Y015057D02*
X025700Y015057D01*
X025760Y015136D02*
X022613Y015136D01*
X022577Y015214D02*
X025839Y015214D01*
X025917Y015293D02*
X022498Y015293D01*
X022287Y015293D02*
X022109Y015293D01*
X022093Y015214D02*
X022209Y015214D01*
X022173Y015136D02*
X022093Y015136D01*
X022093Y015057D02*
X022173Y015057D01*
X022190Y014979D02*
X022093Y014979D01*
X022093Y014900D02*
X022243Y014900D01*
X022243Y014822D02*
X022093Y014822D01*
X022093Y014743D02*
X022243Y014743D01*
X022243Y014665D02*
X022093Y014665D01*
X022093Y014586D02*
X022243Y014586D01*
X022243Y014508D02*
X022093Y014508D01*
X022093Y014429D02*
X022243Y014429D01*
X022243Y014351D02*
X022093Y014351D01*
X022093Y014272D02*
X022243Y014272D01*
X022243Y014194D02*
X022093Y014194D01*
X022093Y014115D02*
X022243Y014115D01*
X022243Y014037D02*
X022093Y014037D01*
X022093Y013958D02*
X022243Y013958D01*
X022243Y013880D02*
X022093Y013880D01*
X022093Y013801D02*
X022243Y013801D01*
X022243Y013723D02*
X022093Y013723D01*
X022093Y013644D02*
X022243Y013644D01*
X022243Y013566D02*
X022093Y013566D01*
X022093Y013487D02*
X022243Y013487D01*
X022243Y013409D02*
X022093Y013409D01*
X022093Y013330D02*
X022243Y013330D01*
X022243Y013252D02*
X022093Y013252D01*
X022093Y013173D02*
X022243Y013173D01*
X022238Y013095D02*
X022093Y013095D01*
X022084Y013016D02*
X022160Y013016D01*
X022081Y012938D02*
X022005Y012938D01*
X022003Y012859D02*
X021927Y012859D01*
X021924Y012781D02*
X021848Y012781D01*
X021846Y012702D02*
X021770Y012702D01*
X021767Y012624D02*
X021691Y012624D01*
X021689Y012545D02*
X021613Y012545D01*
X021610Y012467D02*
X021534Y012467D01*
X021532Y012388D02*
X021456Y012388D01*
X021453Y012310D02*
X021377Y012310D01*
X021375Y012231D02*
X021299Y012231D01*
X021296Y012153D02*
X021220Y012153D01*
X021218Y012074D02*
X021142Y012074D01*
X021139Y011996D02*
X021063Y011996D01*
X021061Y011917D02*
X020985Y011917D01*
X020982Y011839D02*
X020906Y011839D01*
X020904Y011760D02*
X020863Y011760D01*
X020673Y011525D02*
X020567Y011525D01*
X020516Y011603D02*
X020489Y011603D01*
X020437Y011682D02*
X020410Y011682D01*
X020423Y011760D02*
X020332Y011760D01*
X020253Y011839D02*
X020423Y011839D01*
X020462Y011917D02*
X020175Y011917D01*
X020096Y011996D02*
X020540Y011996D01*
X020718Y012074D02*
X020018Y012074D01*
X019993Y012153D02*
X020796Y012153D01*
X020875Y012231D02*
X019998Y012231D01*
X020063Y012310D02*
X020953Y012310D01*
X021032Y012388D02*
X020063Y012388D01*
X020063Y012467D02*
X021110Y012467D01*
X021189Y012545D02*
X019996Y012545D01*
X019690Y012545D02*
X018055Y012545D01*
X017977Y012467D02*
X019623Y012467D01*
X019623Y012388D02*
X019104Y012388D01*
X019182Y012310D02*
X019623Y012310D01*
X019610Y012231D02*
X019688Y012231D01*
X019688Y012153D02*
X019693Y012153D01*
X019376Y012231D02*
X019193Y012231D01*
X019193Y012153D02*
X019297Y012153D01*
X019273Y012074D02*
X019193Y012074D01*
X019246Y011996D02*
X019273Y011996D01*
X018815Y011603D02*
X018213Y011603D01*
X018191Y011525D02*
X018893Y011525D01*
X018972Y011446D02*
X018113Y011446D01*
X017873Y011446D02*
X016956Y011446D01*
X016878Y011368D02*
X019050Y011368D01*
X019052Y011289D02*
X019093Y011289D01*
X018734Y011289D02*
X017702Y011289D01*
X017763Y011211D02*
X018673Y011211D01*
X018673Y011132D02*
X017763Y011132D01*
X017763Y011054D02*
X018673Y011054D01*
X018744Y010975D02*
X017692Y010975D01*
X017514Y010897D02*
X018927Y010897D01*
X019008Y010818D02*
X017436Y010818D01*
X017357Y010740D02*
X018934Y010740D01*
X018856Y010661D02*
X017279Y010661D01*
X017243Y010583D02*
X017327Y010583D01*
X017249Y010504D02*
X017243Y010504D01*
X016943Y010504D02*
X016428Y010504D01*
X016428Y010426D02*
X016943Y010426D01*
X016943Y010347D02*
X016428Y010347D01*
X016428Y010269D02*
X016943Y010269D01*
X016943Y010190D02*
X016428Y010190D01*
X016428Y010112D02*
X016943Y010112D01*
X016943Y010033D02*
X016428Y010033D01*
X016428Y009955D02*
X017013Y009955D01*
X017031Y009937D02*
X017031Y009937D01*
X017043Y009925D02*
X017043Y009925D01*
X017092Y009876D02*
X016428Y009876D01*
X016428Y009798D02*
X018092Y009798D01*
X018073Y009719D02*
X016428Y009719D01*
X016428Y009641D02*
X018073Y009641D01*
X018107Y009562D02*
X016428Y009562D01*
X016428Y009484D02*
X018185Y009484D01*
X018293Y009405D02*
X016428Y009405D01*
X016428Y009327D02*
X018293Y009327D01*
X018025Y009248D02*
X017228Y009248D01*
X017254Y009222D02*
X017195Y009281D01*
X016955Y009281D01*
X016896Y009222D01*
X016896Y008863D01*
X016895Y008862D01*
X016895Y008267D01*
X016428Y008267D01*
X016428Y008293D01*
X016644Y008293D01*
X016703Y008352D01*
X016703Y009222D01*
X016644Y009281D01*
X016428Y009281D01*
X016428Y010918D01*
X018217Y012707D01*
X018317Y012707D01*
X018423Y012813D01*
X018867Y013257D01*
X018973Y013363D01*
X018973Y014456D01*
X019013Y014496D01*
X019013Y014679D01*
X018884Y014807D01*
X018702Y014807D01*
X018573Y014679D01*
X018573Y014496D01*
X018613Y014456D01*
X018613Y013512D01*
X018168Y013067D01*
X017324Y013067D01*
X017284Y013107D01*
X017102Y013107D01*
X017011Y013016D02*
X016593Y013016D01*
X016593Y012938D02*
X016973Y012938D01*
X016973Y012859D02*
X016593Y012859D01*
X016593Y012781D02*
X016988Y012781D01*
X017067Y012702D02*
X016593Y012702D01*
X016591Y012624D02*
X017625Y012624D01*
X017703Y012702D02*
X017319Y012702D01*
X017546Y012545D02*
X016513Y012545D01*
X016434Y012467D02*
X017468Y012467D01*
X017389Y012388D02*
X016356Y012388D01*
X016277Y012310D02*
X017311Y012310D01*
X017232Y012231D02*
X016199Y012231D01*
X016120Y012153D02*
X017154Y012153D01*
X017075Y012074D02*
X016043Y012074D01*
X016045Y011996D02*
X016997Y011996D01*
X016918Y011917D02*
X016113Y011917D01*
X016113Y011839D02*
X016840Y011839D01*
X016761Y011760D02*
X016113Y011760D01*
X016048Y011682D02*
X016683Y011682D01*
X016604Y011603D02*
X014023Y011603D01*
X014023Y011525D02*
X016526Y011525D01*
X016447Y011446D02*
X014023Y011446D01*
X014023Y011368D02*
X016369Y011368D01*
X016290Y011289D02*
X014023Y011289D01*
X014023Y011211D02*
X016212Y011211D01*
X016133Y011132D02*
X014023Y011132D01*
X014023Y011054D02*
X016068Y011054D01*
X016068Y010975D02*
X014023Y010975D01*
X014023Y010897D02*
X016068Y010897D01*
X016068Y010818D02*
X014023Y010818D01*
X014023Y010740D02*
X016068Y010740D01*
X016068Y010661D02*
X014023Y010661D01*
X014023Y010583D02*
X016068Y010583D01*
X016068Y010504D02*
X014023Y010504D01*
X014023Y010426D02*
X016068Y010426D01*
X016068Y010347D02*
X014023Y010347D01*
X014023Y010269D02*
X016068Y010269D01*
X016428Y010583D02*
X016943Y010583D01*
X016943Y010661D02*
X016428Y010661D01*
X016428Y010740D02*
X016943Y010740D01*
X017012Y010818D02*
X016428Y010818D01*
X016428Y010897D02*
X017090Y010897D01*
X017169Y010975D02*
X016485Y010975D01*
X016564Y011054D02*
X017247Y011054D01*
X017323Y011132D02*
X016642Y011132D01*
X016721Y011211D02*
X017323Y011211D01*
X017384Y011289D02*
X016799Y011289D01*
X017035Y011525D02*
X017794Y011525D01*
X017773Y011603D02*
X017113Y011603D01*
X017192Y011682D02*
X017773Y011682D01*
X017805Y011760D02*
X017270Y011760D01*
X017349Y011839D02*
X017883Y011839D01*
X018061Y011917D02*
X017427Y011917D01*
X017506Y011996D02*
X018139Y011996D01*
X018218Y012074D02*
X017584Y012074D01*
X017663Y012153D02*
X018296Y012153D01*
X018375Y012231D02*
X017741Y012231D01*
X017820Y012310D02*
X018453Y012310D01*
X018532Y012388D02*
X017898Y012388D01*
X018134Y012624D02*
X021267Y012624D01*
X021346Y012702D02*
X018212Y012702D01*
X018391Y012781D02*
X021424Y012781D01*
X021503Y012859D02*
X018469Y012859D01*
X018548Y012938D02*
X021581Y012938D01*
X021660Y013016D02*
X018626Y013016D01*
X018705Y013095D02*
X021738Y013095D01*
X021793Y013173D02*
X018783Y013173D01*
X018862Y013252D02*
X021793Y013252D01*
X021793Y013330D02*
X018940Y013330D01*
X018973Y013409D02*
X021793Y013409D01*
X021793Y013487D02*
X018973Y013487D01*
X018973Y013566D02*
X021793Y013566D01*
X021793Y013644D02*
X018973Y013644D01*
X018973Y013723D02*
X021793Y013723D01*
X021793Y013801D02*
X018973Y013801D01*
X018973Y013880D02*
X021793Y013880D01*
X021793Y013958D02*
X018973Y013958D01*
X018973Y014037D02*
X021793Y014037D01*
X021793Y014115D02*
X018973Y014115D01*
X018973Y014194D02*
X021793Y014194D01*
X021793Y014272D02*
X018973Y014272D01*
X018973Y014351D02*
X021793Y014351D01*
X021793Y014429D02*
X018973Y014429D01*
X019013Y014508D02*
X021793Y014508D01*
X021793Y014586D02*
X019013Y014586D01*
X019013Y014665D02*
X021793Y014665D01*
X021793Y014743D02*
X018948Y014743D01*
X018638Y014743D02*
X016943Y014743D01*
X016943Y014665D02*
X018573Y014665D01*
X018573Y014586D02*
X016943Y014586D01*
X016943Y014508D02*
X018573Y014508D01*
X018613Y014429D02*
X016943Y014429D01*
X016943Y014351D02*
X018613Y014351D01*
X018613Y014272D02*
X016943Y014272D01*
X016943Y014822D02*
X021793Y014822D01*
X021793Y014900D02*
X016943Y014900D01*
X016943Y014979D02*
X021793Y014979D01*
X021793Y015057D02*
X016943Y015057D01*
X016943Y015136D02*
X021793Y015136D01*
X021793Y015214D02*
X016943Y015214D01*
X016943Y015293D02*
X021776Y015293D01*
X021723Y015371D02*
X016943Y015371D01*
X016943Y015450D02*
X021723Y015450D01*
X021723Y015528D02*
X016943Y015528D01*
X016943Y015607D02*
X021801Y015607D01*
X022084Y015607D02*
X033227Y015607D01*
X033227Y015685D02*
X016943Y015685D01*
X016928Y015764D02*
X033264Y015764D01*
X033343Y015842D02*
X016850Y015842D01*
X014493Y015921D02*
X033421Y015921D01*
X033500Y015999D02*
X014493Y015999D01*
X014493Y016078D02*
X033578Y016078D01*
X033227Y015528D02*
X022163Y015528D01*
X022163Y015450D02*
X033227Y015450D01*
X033227Y015371D02*
X022163Y015371D01*
X022543Y014900D02*
X022745Y014900D01*
X022723Y014822D02*
X022543Y014822D01*
X022543Y014743D02*
X022723Y014743D01*
X022754Y014665D02*
X022543Y014665D01*
X022543Y014586D02*
X022793Y014586D01*
X022793Y014508D02*
X022543Y014508D01*
X022543Y014429D02*
X022793Y014429D01*
X022793Y014351D02*
X022543Y014351D01*
X022543Y014272D02*
X022793Y014272D01*
X022793Y014194D02*
X022543Y014194D01*
X022543Y014115D02*
X022793Y014115D01*
X022793Y014037D02*
X022543Y014037D01*
X022543Y013958D02*
X022793Y013958D01*
X022793Y013880D02*
X022543Y013880D01*
X022543Y013801D02*
X022793Y013801D01*
X022793Y013723D02*
X022543Y013723D01*
X022543Y013644D02*
X022793Y013644D01*
X022793Y013566D02*
X022543Y013566D01*
X022543Y013487D02*
X022793Y013487D01*
X022793Y013409D02*
X022543Y013409D01*
X022543Y013330D02*
X022793Y013330D01*
X022793Y013252D02*
X022543Y013252D01*
X022543Y013173D02*
X022793Y013173D01*
X022738Y013095D02*
X022543Y013095D01*
X022543Y013016D02*
X022660Y013016D01*
X022581Y012938D02*
X022505Y012938D01*
X022503Y012859D02*
X022427Y012859D01*
X022424Y012781D02*
X022348Y012781D01*
X022346Y012702D02*
X022270Y012702D01*
X022267Y012624D02*
X022191Y012624D01*
X022189Y012545D02*
X022113Y012545D01*
X022110Y012467D02*
X022034Y012467D01*
X022032Y012388D02*
X021956Y012388D01*
X021953Y012310D02*
X021877Y012310D01*
X021875Y012231D02*
X021799Y012231D01*
X021796Y012153D02*
X021720Y012153D01*
X021718Y012074D02*
X021642Y012074D01*
X021639Y011996D02*
X021563Y011996D01*
X021561Y011917D02*
X021485Y011917D01*
X021482Y011839D02*
X021406Y011839D01*
X021404Y011760D02*
X021328Y011760D01*
X021325Y011682D02*
X021249Y011682D01*
X021247Y011603D02*
X021171Y011603D01*
X021168Y011525D02*
X021113Y011525D01*
X020923Y011289D02*
X020803Y011289D01*
X020751Y011368D02*
X020724Y011368D01*
X020673Y011446D02*
X020646Y011446D01*
X020881Y011211D02*
X020923Y011211D01*
X020960Y011132D02*
X020987Y011132D01*
X021038Y011054D02*
X021223Y011054D01*
X021223Y010975D02*
X021117Y010975D01*
X021195Y010897D02*
X021223Y010897D01*
X021363Y011211D02*
X021454Y011211D01*
X021533Y011289D02*
X021363Y011289D01*
X021435Y011368D02*
X021611Y011368D01*
X021690Y011446D02*
X021514Y011446D01*
X021592Y011525D02*
X030963Y011525D01*
X030963Y011603D02*
X021671Y011603D01*
X021749Y011682D02*
X030963Y011682D01*
X030963Y011760D02*
X021828Y011760D01*
X021906Y011839D02*
X030963Y011839D01*
X030963Y011917D02*
X021985Y011917D01*
X022063Y011996D02*
X030963Y011996D01*
X030963Y012074D02*
X022142Y012074D01*
X022220Y012153D02*
X023865Y012153D01*
X023787Y012231D02*
X023730Y012231D01*
X023975Y012467D02*
X025210Y012467D01*
X025289Y012545D02*
X023897Y012545D01*
X023818Y012624D02*
X025367Y012624D01*
X025446Y012702D02*
X023730Y012702D01*
X023730Y012781D02*
X025524Y012781D01*
X025603Y012859D02*
X022927Y012859D01*
X022848Y012781D02*
X023058Y012781D01*
X023058Y012702D02*
X022770Y012702D01*
X022691Y012624D02*
X023058Y012624D01*
X023058Y012545D02*
X022613Y012545D01*
X022534Y012467D02*
X023058Y012467D01*
X023058Y012388D02*
X022456Y012388D01*
X022377Y012310D02*
X023058Y012310D01*
X023058Y012231D02*
X022299Y012231D01*
X023005Y012938D02*
X025681Y012938D01*
X025760Y013016D02*
X023690Y013016D01*
X023730Y013095D02*
X025838Y013095D01*
X025917Y013173D02*
X023730Y013173D01*
X023730Y013252D02*
X025995Y013252D01*
X026074Y013330D02*
X023730Y013330D01*
X023730Y013409D02*
X026152Y013409D01*
X026231Y013487D02*
X023730Y013487D01*
X023730Y013566D02*
X026309Y013566D01*
X026388Y013644D02*
X023698Y013644D01*
X023518Y013723D02*
X029016Y013723D01*
X028968Y013801D02*
X023093Y013801D01*
X023093Y013723D02*
X023267Y013723D01*
X023093Y013880D02*
X028889Y013880D01*
X028873Y013958D02*
X023093Y013958D01*
X023093Y014037D02*
X028873Y014037D01*
X028910Y014115D02*
X023093Y014115D01*
X023093Y014194D02*
X028988Y014194D01*
X029197Y014194D02*
X036793Y014194D01*
X036793Y014272D02*
X023093Y014272D01*
X023093Y014351D02*
X036767Y014351D01*
X036689Y014429D02*
X023093Y014429D01*
X023084Y013016D02*
X023098Y013016D01*
X024745Y011446D02*
X030963Y011446D01*
X030963Y011368D02*
X024823Y011368D01*
X024863Y011289D02*
X030963Y011289D01*
X030963Y011211D02*
X024863Y011211D01*
X024849Y011132D02*
X030963Y011132D01*
X030963Y011054D02*
X025638Y011054D01*
X025717Y010975D02*
X030963Y010975D01*
X030963Y010897D02*
X025793Y010897D01*
X025793Y010818D02*
X030963Y010818D01*
X030963Y010740D02*
X025793Y010740D01*
X025793Y010661D02*
X030963Y010661D01*
X030963Y010583D02*
X029943Y010583D01*
X029883Y010643D02*
X029386Y010643D01*
X029034Y010291D01*
X029034Y009794D01*
X029386Y009443D01*
X029883Y009443D01*
X030234Y009794D01*
X030234Y010291D01*
X029883Y010643D01*
X030021Y010504D02*
X030963Y010504D01*
X030963Y010426D02*
X030100Y010426D01*
X030178Y010347D02*
X030963Y010347D01*
X030963Y010269D02*
X030234Y010269D01*
X030234Y010190D02*
X030963Y010190D01*
X030963Y010112D02*
X030234Y010112D01*
X030234Y010033D02*
X030963Y010033D01*
X030963Y009955D02*
X030234Y009955D01*
X030234Y009876D02*
X030963Y009876D01*
X030963Y009798D02*
X030234Y009798D01*
X030159Y009719D02*
X030963Y009719D01*
X030963Y009641D02*
X030081Y009641D01*
X030002Y009562D02*
X030963Y009562D01*
X030963Y009484D02*
X029924Y009484D01*
X029345Y009484D02*
X026497Y009484D01*
X026497Y009562D02*
X029266Y009562D01*
X029188Y009641D02*
X026497Y009641D01*
X026497Y009719D02*
X029109Y009719D01*
X029034Y009798D02*
X026514Y009798D01*
X026563Y009876D02*
X029034Y009876D01*
X029034Y009955D02*
X026563Y009955D01*
X026558Y010033D02*
X029034Y010033D01*
X029034Y010112D02*
X026479Y010112D01*
X026206Y010112D02*
X025793Y010112D01*
X025793Y010190D02*
X029034Y010190D01*
X029034Y010269D02*
X025793Y010269D01*
X025793Y010347D02*
X029090Y010347D01*
X029169Y010426D02*
X025793Y010426D01*
X025793Y010504D02*
X029247Y010504D01*
X029326Y010583D02*
X025793Y010583D01*
X025793Y010033D02*
X026128Y010033D01*
X026123Y009955D02*
X025793Y009955D01*
X025793Y009876D02*
X026123Y009876D01*
X026171Y009798D02*
X025793Y009798D01*
X025793Y009719D02*
X026197Y009719D01*
X026197Y009641D02*
X025793Y009641D01*
X025793Y009562D02*
X026197Y009562D01*
X026197Y009484D02*
X025793Y009484D01*
X025793Y009405D02*
X026197Y009405D01*
X026197Y009327D02*
X025793Y009327D01*
X025793Y009248D02*
X026197Y009248D01*
X026197Y009170D02*
X025793Y009170D01*
X025793Y009091D02*
X026197Y009091D01*
X026197Y009013D02*
X025793Y009013D01*
X025793Y008934D02*
X026197Y008934D01*
X026197Y008856D02*
X025793Y008856D01*
X025793Y008777D02*
X026197Y008777D01*
X026019Y008699D02*
X025793Y008699D01*
X025793Y008620D02*
X026010Y008620D01*
X025999Y008542D02*
X026010Y008542D01*
X026497Y008777D02*
X030372Y008777D01*
X030323Y008699D02*
X029824Y008699D01*
X029833Y008620D02*
X030323Y008620D01*
X030327Y008542D02*
X030250Y008542D01*
X030329Y008463D02*
X030406Y008463D01*
X030680Y008463D02*
X030808Y008463D01*
X030758Y008542D02*
X038795Y008542D01*
X038795Y008620D02*
X030780Y008620D01*
X030859Y008699D02*
X038795Y008699D01*
X038795Y008777D02*
X030937Y008777D01*
X031016Y008856D02*
X038795Y008856D01*
X038795Y008934D02*
X031094Y008934D01*
X031173Y009013D02*
X038795Y009013D01*
X038795Y009091D02*
X031251Y009091D01*
X031323Y009170D02*
X038795Y009170D01*
X038795Y009248D02*
X031323Y009248D01*
X031323Y009327D02*
X035692Y009327D01*
X035614Y009405D02*
X031323Y009405D01*
X031323Y009484D02*
X035573Y009484D01*
X035573Y009562D02*
X031323Y009562D01*
X031323Y009641D02*
X035585Y009641D01*
X035643Y009719D02*
X033473Y009719D01*
X033451Y009697D02*
X033533Y009779D01*
X033533Y009779D01*
X033633Y009879D01*
X033633Y010947D01*
X033784Y010947D01*
X033811Y010920D01*
X033997Y010920D01*
X033997Y010428D01*
X034003Y010423D01*
X034003Y010379D01*
X034085Y010297D01*
X034185Y010197D01*
X034901Y010197D01*
X034911Y010207D01*
X035012Y010207D01*
X035052Y010167D01*
X035234Y010167D01*
X035363Y010296D01*
X035363Y010479D01*
X035234Y010607D01*
X035083Y010607D01*
X035083Y012595D01*
X035001Y012677D01*
X034983Y012695D01*
X034983Y012695D01*
X034901Y012777D01*
X034185Y012777D01*
X034103Y012695D01*
X034003Y012595D01*
X034003Y012144D01*
X033811Y012144D01*
X033795Y012127D01*
X033633Y012127D01*
X033633Y013145D01*
X033533Y013245D01*
X033451Y013327D01*
X032635Y013327D01*
X032535Y013227D01*
X032453Y013145D01*
X032453Y012104D01*
X032435Y012086D01*
X032349Y012086D01*
X032263Y012172D01*
X032263Y012229D01*
X032134Y012357D01*
X031952Y012357D01*
X031823Y012229D01*
X031823Y012046D01*
X031952Y011917D01*
X032008Y011917D01*
X032200Y011726D01*
X032435Y011726D01*
X032449Y011712D01*
X032179Y011712D01*
X032134Y011757D01*
X031952Y011757D01*
X031823Y011629D01*
X031823Y011446D01*
X031952Y011317D01*
X032134Y011317D01*
X032168Y011352D01*
X032449Y011352D01*
X032435Y011338D01*
X032189Y011338D01*
X032008Y011157D01*
X031952Y011157D01*
X031823Y011029D01*
X031823Y010846D01*
X031952Y010717D01*
X032134Y010717D01*
X032263Y010846D01*
X032263Y010903D01*
X032338Y010978D01*
X032435Y010978D01*
X032453Y010960D01*
X032453Y009879D01*
X032535Y009797D01*
X032635Y009697D01*
X033451Y009697D01*
X033551Y009798D02*
X035643Y009798D01*
X035643Y009876D02*
X033630Y009876D01*
X033633Y009955D02*
X035643Y009955D01*
X035643Y010033D02*
X033633Y010033D01*
X033633Y010112D02*
X035643Y010112D01*
X035643Y010190D02*
X035257Y010190D01*
X035335Y010269D02*
X035643Y010269D01*
X035643Y010347D02*
X035363Y010347D01*
X035363Y010426D02*
X035643Y010426D01*
X035643Y010504D02*
X035337Y010504D01*
X035258Y010583D02*
X035643Y010583D01*
X035643Y010661D02*
X035083Y010661D01*
X035083Y010740D02*
X035643Y010740D01*
X035643Y010818D02*
X035083Y010818D01*
X035083Y010897D02*
X035643Y010897D01*
X035643Y010975D02*
X035083Y010975D01*
X035083Y011054D02*
X035643Y011054D01*
X035643Y011132D02*
X035083Y011132D01*
X035083Y011211D02*
X035643Y011211D01*
X035643Y011289D02*
X035083Y011289D01*
X035083Y011368D02*
X035643Y011368D01*
X035643Y011446D02*
X035083Y011446D01*
X035083Y011525D02*
X035643Y011525D01*
X035643Y011603D02*
X035083Y011603D01*
X035083Y011682D02*
X035643Y011682D01*
X035643Y011760D02*
X035083Y011760D01*
X035083Y011839D02*
X035643Y011839D01*
X035643Y011917D02*
X035083Y011917D01*
X035083Y011996D02*
X035643Y011996D01*
X035643Y012074D02*
X035083Y012074D01*
X035083Y012153D02*
X035643Y012153D01*
X035643Y012231D02*
X035083Y012231D01*
X035083Y012310D02*
X035643Y012310D01*
X035643Y012388D02*
X035083Y012388D01*
X035083Y012467D02*
X035643Y012467D01*
X035643Y012545D02*
X035083Y012545D01*
X035054Y012624D02*
X035643Y012624D01*
X035643Y012702D02*
X034976Y012702D01*
X035001Y012677D02*
X035001Y012677D01*
X034935Y012545D02*
X034151Y012545D01*
X034143Y012537D02*
X034143Y012037D01*
X034543Y012037D01*
X034593Y011987D01*
X034593Y011587D01*
X034443Y011587D01*
X034443Y011487D01*
X034593Y011487D01*
X034593Y011087D01*
X034543Y011037D01*
X034143Y011037D01*
X034143Y010437D01*
X034243Y010337D01*
X034843Y010337D01*
X034943Y010437D01*
X034943Y012537D01*
X034843Y012637D01*
X034243Y012637D01*
X034143Y012537D01*
X034143Y012467D02*
X034943Y012467D01*
X034943Y012388D02*
X034143Y012388D01*
X034143Y012310D02*
X034943Y012310D01*
X034943Y012231D02*
X034143Y012231D01*
X034143Y012153D02*
X034943Y012153D01*
X034943Y012074D02*
X034143Y012074D01*
X034003Y012153D02*
X033633Y012153D01*
X033633Y012231D02*
X034003Y012231D01*
X034003Y012310D02*
X033633Y012310D01*
X033633Y012388D02*
X034003Y012388D01*
X034003Y012467D02*
X033633Y012467D01*
X033633Y012545D02*
X034003Y012545D01*
X034031Y012624D02*
X033633Y012624D01*
X033633Y012702D02*
X034110Y012702D01*
X034229Y012624D02*
X034856Y012624D01*
X034943Y011996D02*
X034584Y011996D01*
X034593Y011917D02*
X034943Y011917D01*
X034943Y011839D02*
X034593Y011839D01*
X034593Y011760D02*
X034943Y011760D01*
X034943Y011682D02*
X034593Y011682D01*
X034593Y011603D02*
X034943Y011603D01*
X034943Y011525D02*
X034443Y011525D01*
X034593Y011446D02*
X034943Y011446D01*
X034943Y011368D02*
X034593Y011368D01*
X034593Y011289D02*
X034943Y011289D01*
X034943Y011211D02*
X034593Y011211D01*
X034593Y011132D02*
X034943Y011132D01*
X034943Y011054D02*
X034559Y011054D01*
X034943Y010975D02*
X034143Y010975D01*
X034143Y010897D02*
X034943Y010897D01*
X034943Y010818D02*
X034143Y010818D01*
X034143Y010740D02*
X034943Y010740D01*
X034943Y010661D02*
X034143Y010661D01*
X034143Y010583D02*
X034943Y010583D01*
X034943Y010504D02*
X034143Y010504D01*
X034154Y010426D02*
X034931Y010426D01*
X034853Y010347D02*
X034233Y010347D01*
X034113Y010269D02*
X033633Y010269D01*
X033633Y010347D02*
X034035Y010347D01*
X034000Y010426D02*
X033633Y010426D01*
X033633Y010504D02*
X033997Y010504D01*
X033997Y010583D02*
X033633Y010583D01*
X033633Y010661D02*
X033997Y010661D01*
X033997Y010740D02*
X033633Y010740D01*
X033633Y010818D02*
X033997Y010818D01*
X033997Y010897D02*
X033633Y010897D01*
X033493Y010897D02*
X032593Y010897D01*
X032593Y010975D02*
X033493Y010975D01*
X033493Y010987D02*
X033493Y009937D01*
X033393Y009837D01*
X032693Y009837D01*
X032593Y009937D01*
X032593Y011087D01*
X033393Y011087D01*
X033493Y010987D01*
X033426Y011054D02*
X032593Y011054D01*
X032437Y010975D02*
X032335Y010975D01*
X032263Y010897D02*
X032453Y010897D01*
X032453Y010818D02*
X032235Y010818D01*
X032156Y010740D02*
X032453Y010740D01*
X032453Y010661D02*
X031323Y010661D01*
X031323Y010583D02*
X032453Y010583D01*
X032453Y010504D02*
X031323Y010504D01*
X031323Y010426D02*
X032453Y010426D01*
X032453Y010347D02*
X031323Y010347D01*
X031323Y010269D02*
X032453Y010269D01*
X032453Y010190D02*
X031323Y010190D01*
X031323Y010112D02*
X032453Y010112D01*
X032453Y010033D02*
X031323Y010033D01*
X031323Y009955D02*
X032453Y009955D01*
X032456Y009876D02*
X031323Y009876D01*
X031323Y009798D02*
X032534Y009798D01*
X032613Y009719D02*
X031323Y009719D01*
X030963Y009405D02*
X026497Y009405D01*
X026497Y009327D02*
X030963Y009327D01*
X030899Y009248D02*
X026497Y009248D01*
X026497Y009170D02*
X030821Y009170D01*
X030742Y009091D02*
X026497Y009091D01*
X026497Y009013D02*
X030664Y009013D01*
X030585Y008934D02*
X026497Y008934D01*
X026497Y008856D02*
X030450Y008856D01*
X030140Y008228D02*
X029833Y008228D01*
X029833Y008149D02*
X030219Y008149D01*
X029833Y007864D02*
X029774Y007922D01*
X029219Y007922D01*
X029160Y007864D01*
X029160Y007309D01*
X029219Y007250D01*
X029276Y007250D01*
X029276Y007239D01*
X029405Y007110D01*
X029587Y007110D01*
X029716Y007239D01*
X029716Y007250D01*
X029774Y007250D01*
X029833Y007309D01*
X029833Y007864D01*
X029833Y007835D02*
X031379Y007835D01*
X031300Y007757D02*
X029833Y007757D01*
X029833Y007678D02*
X031222Y007678D01*
X031143Y007600D02*
X029833Y007600D01*
X029833Y007521D02*
X031065Y007521D01*
X030986Y007443D02*
X029833Y007443D01*
X029833Y007364D02*
X030908Y007364D01*
X030829Y007286D02*
X029810Y007286D01*
X029685Y007207D02*
X030751Y007207D01*
X030672Y007129D02*
X029606Y007129D01*
X029387Y007129D02*
X028031Y007129D01*
X028013Y007110D02*
X028142Y007239D01*
X028142Y007250D01*
X028199Y007250D01*
X028258Y007309D01*
X028258Y007864D01*
X028199Y007922D01*
X027644Y007922D01*
X027585Y007864D01*
X027585Y007309D01*
X027644Y007250D01*
X027702Y007250D01*
X027702Y007239D01*
X027830Y007110D01*
X028013Y007110D01*
X028110Y007207D02*
X029308Y007207D01*
X029183Y007286D02*
X028235Y007286D01*
X028258Y007364D02*
X029160Y007364D01*
X029160Y007443D02*
X028258Y007443D01*
X028258Y007521D02*
X029160Y007521D01*
X029160Y007600D02*
X028258Y007600D01*
X028258Y007678D02*
X029160Y007678D01*
X029160Y007757D02*
X028258Y007757D01*
X028258Y007835D02*
X029160Y007835D01*
X029210Y007914D02*
X028208Y007914D01*
X028258Y008149D02*
X029160Y008149D01*
X029160Y008228D02*
X028258Y008228D01*
X028258Y008620D02*
X029160Y008620D01*
X029168Y008699D02*
X028249Y008699D01*
X027594Y008699D02*
X026675Y008699D01*
X026683Y008620D02*
X027585Y008620D01*
X027585Y008228D02*
X026683Y008228D01*
X026683Y008149D02*
X027585Y008149D01*
X027635Y007914D02*
X026633Y007914D01*
X026624Y007922D02*
X026683Y007864D01*
X026683Y007309D01*
X026624Y007250D01*
X026567Y007250D01*
X026567Y007239D01*
X026438Y007110D01*
X026256Y007110D01*
X026127Y007239D01*
X026127Y007250D01*
X026069Y007250D01*
X026010Y007309D01*
X026010Y007864D01*
X026069Y007922D01*
X026624Y007922D01*
X026683Y007835D02*
X027585Y007835D01*
X027585Y007757D02*
X026683Y007757D01*
X026683Y007678D02*
X027585Y007678D01*
X027585Y007600D02*
X026683Y007600D01*
X026683Y007521D02*
X027585Y007521D01*
X027585Y007443D02*
X026683Y007443D01*
X026683Y007364D02*
X027585Y007364D01*
X027608Y007286D02*
X026660Y007286D01*
X026535Y007207D02*
X027733Y007207D01*
X027812Y007129D02*
X026456Y007129D01*
X026237Y007129D02*
X025793Y007129D01*
X025793Y007207D02*
X026159Y007207D01*
X026033Y007286D02*
X025793Y007286D01*
X025793Y007364D02*
X026010Y007364D01*
X026010Y007443D02*
X025793Y007443D01*
X025793Y007521D02*
X026010Y007521D01*
X026010Y007600D02*
X025793Y007600D01*
X025793Y007678D02*
X026010Y007678D01*
X026010Y007757D02*
X025793Y007757D01*
X025793Y007835D02*
X026010Y007835D01*
X026061Y007914D02*
X025793Y007914D01*
X025793Y007992D02*
X031536Y007992D01*
X031457Y007914D02*
X029782Y007914D01*
X030848Y008071D02*
X025793Y008071D01*
X023493Y008071D02*
X023423Y008071D01*
X023423Y008149D02*
X023493Y008149D01*
X023423Y008162D02*
X023323Y008262D01*
X023217Y008367D01*
X022491Y008367D01*
X022491Y008862D01*
X022490Y008863D01*
X022490Y009222D01*
X022431Y009281D01*
X022191Y009281D01*
X022173Y009263D01*
X022156Y009281D01*
X021916Y009281D01*
X021898Y009263D01*
X021880Y009281D01*
X021640Y009281D01*
X021581Y009222D01*
X021581Y008352D01*
X021610Y008323D01*
X021610Y008317D01*
X021331Y008037D01*
X021312Y008019D01*
X021285Y008019D01*
X021313Y008046D01*
X021313Y008229D01*
X021184Y008357D01*
X021002Y008357D01*
X020873Y008229D01*
X020873Y008172D01*
X020468Y007767D01*
X017373Y007767D01*
X017373Y008056D01*
X017413Y008096D01*
X017413Y008279D01*
X017284Y008407D01*
X017255Y008407D01*
X017255Y008862D01*
X017254Y008863D01*
X017254Y009222D01*
X017254Y009170D02*
X017999Y009170D01*
X017999Y009091D02*
X017254Y009091D01*
X017254Y009013D02*
X017999Y009013D01*
X017999Y008934D02*
X017254Y008934D01*
X017255Y008856D02*
X017999Y008856D01*
X017999Y008777D02*
X017255Y008777D01*
X017255Y008699D02*
X017999Y008699D01*
X017999Y008620D02*
X017255Y008620D01*
X017255Y008542D02*
X017999Y008542D01*
X017999Y008463D02*
X017255Y008463D01*
X017306Y008385D02*
X017999Y008385D01*
X018000Y008306D02*
X017385Y008306D01*
X017413Y008228D02*
X017822Y008228D01*
X017744Y008149D02*
X017413Y008149D01*
X017387Y008071D02*
X017723Y008071D01*
X017723Y007992D02*
X017373Y007992D01*
X017373Y007914D02*
X017755Y007914D01*
X017834Y007835D02*
X017373Y007835D01*
X017013Y007835D02*
X016962Y007835D01*
X016962Y007757D02*
X017013Y007757D01*
X017013Y007678D02*
X016962Y007678D01*
X017026Y007600D02*
X014023Y007600D01*
X014023Y007678D02*
X016368Y007678D01*
X016368Y007757D02*
X014023Y007757D01*
X014023Y007835D02*
X016368Y007835D01*
X016212Y007914D02*
X014023Y007914D01*
X014023Y007992D02*
X016133Y007992D01*
X016068Y008071D02*
X014023Y008071D01*
X014023Y008149D02*
X016068Y008149D01*
X016068Y008228D02*
X014023Y008228D01*
X014023Y008306D02*
X015013Y008306D01*
X014967Y008385D02*
X014023Y008385D01*
X014023Y008463D02*
X014967Y008463D01*
X014967Y008542D02*
X014023Y008542D01*
X014023Y008620D02*
X014967Y008620D01*
X014967Y008699D02*
X014023Y008699D01*
X014023Y008777D02*
X014967Y008777D01*
X014967Y008856D02*
X014023Y008856D01*
X014023Y008934D02*
X014967Y008934D01*
X014967Y009013D02*
X014023Y009013D01*
X014023Y009091D02*
X014967Y009091D01*
X014967Y009170D02*
X014023Y009170D01*
X014023Y009248D02*
X014993Y009248D01*
X014023Y009327D02*
X016068Y009327D01*
X016068Y009405D02*
X014023Y009405D01*
X014023Y009484D02*
X016068Y009484D01*
X016068Y009562D02*
X014023Y009562D01*
X014023Y009641D02*
X016068Y009641D01*
X016068Y009719D02*
X014023Y009719D01*
X014023Y009798D02*
X016068Y009798D01*
X016676Y009248D02*
X016923Y009248D01*
X016896Y009170D02*
X016703Y009170D01*
X016703Y009091D02*
X016896Y009091D01*
X016896Y009013D02*
X016703Y009013D01*
X016703Y008934D02*
X016896Y008934D01*
X016895Y008856D02*
X016703Y008856D01*
X016703Y008777D02*
X016895Y008777D01*
X016895Y008699D02*
X016703Y008699D01*
X016703Y008620D02*
X016895Y008620D01*
X016895Y008542D02*
X016703Y008542D01*
X016703Y008463D02*
X016895Y008463D01*
X016895Y008385D02*
X016703Y008385D01*
X016657Y008306D02*
X016895Y008306D01*
X015839Y008306D02*
X015830Y008306D01*
X015564Y008306D02*
X015555Y008306D01*
X015288Y008306D02*
X015279Y008306D01*
X014023Y007521D02*
X017104Y007521D01*
X017183Y007443D02*
X014003Y007443D01*
X013924Y007364D02*
X020363Y007364D01*
X020363Y007286D02*
X013846Y007286D01*
X013767Y007207D02*
X020363Y007207D01*
X020363Y007129D02*
X013745Y007129D01*
X013667Y007050D02*
X020363Y007050D01*
X020363Y006972D02*
X012832Y006972D01*
X012910Y007050D02*
X013419Y007050D01*
X013437Y007443D02*
X007983Y007443D01*
X007983Y007521D02*
X013572Y007521D01*
X013651Y007600D02*
X007983Y007600D01*
X007983Y007678D02*
X013663Y007678D01*
X013663Y007757D02*
X007983Y007757D01*
X007983Y007835D02*
X013663Y007835D01*
X013663Y007914D02*
X013521Y007914D01*
X013523Y007992D02*
X013663Y007992D01*
X013663Y008071D02*
X013523Y008071D01*
X013523Y008149D02*
X013663Y008149D01*
X013663Y008228D02*
X013523Y008228D01*
X013523Y008306D02*
X013663Y008306D01*
X013663Y008385D02*
X013523Y008385D01*
X013523Y008463D02*
X013663Y008463D01*
X013663Y008542D02*
X013523Y008542D01*
X013523Y008620D02*
X013663Y008620D01*
X013663Y008699D02*
X013482Y008699D01*
X013663Y008777D02*
X012543Y008777D01*
X012543Y008699D02*
X012703Y008699D01*
X012663Y008620D02*
X012543Y008620D01*
X012543Y008542D02*
X012663Y008542D01*
X012663Y008463D02*
X012579Y008463D01*
X012390Y008228D02*
X007983Y008228D01*
X007983Y008306D02*
X012312Y008306D01*
X012243Y008385D02*
X007983Y008385D01*
X007983Y008463D02*
X012243Y008463D01*
X012243Y008542D02*
X007983Y008542D01*
X007983Y008620D02*
X012243Y008620D01*
X012243Y008699D02*
X007983Y008699D01*
X007983Y008777D02*
X012243Y008777D01*
X012243Y008856D02*
X007983Y008856D01*
X007983Y008934D02*
X012243Y008934D01*
X012243Y009013D02*
X007983Y009013D01*
X007983Y009091D02*
X012243Y009091D01*
X012243Y009170D02*
X007983Y009170D01*
X007983Y009248D02*
X012243Y009248D01*
X012243Y009327D02*
X007983Y009327D01*
X007983Y009405D02*
X012243Y009405D01*
X012243Y009484D02*
X007983Y009484D01*
X007983Y009562D02*
X012243Y009562D01*
X012243Y009641D02*
X007983Y009641D01*
X007983Y009719D02*
X012243Y009719D01*
X012243Y009798D02*
X007983Y009798D01*
X007983Y009876D02*
X012243Y009876D01*
X012243Y009955D02*
X007983Y009955D01*
X007983Y010033D02*
X012243Y010033D01*
X012243Y010112D02*
X007983Y010112D01*
X007983Y010190D02*
X012243Y010190D01*
X012243Y010269D02*
X007983Y010269D01*
X007983Y010347D02*
X012243Y010347D01*
X012242Y010426D02*
X007983Y010426D01*
X007983Y010504D02*
X012164Y010504D01*
X012093Y010583D02*
X007983Y010583D01*
X007983Y010661D02*
X012093Y010661D01*
X012093Y010740D02*
X007983Y010740D01*
X007983Y010818D02*
X012093Y010818D01*
X012093Y010897D02*
X007983Y010897D01*
X007983Y010975D02*
X012093Y010975D01*
X012093Y011054D02*
X007983Y011054D01*
X007983Y011132D02*
X012093Y011132D01*
X012093Y011211D02*
X007983Y011211D01*
X007983Y011289D02*
X012093Y011289D01*
X012093Y011368D02*
X007983Y011368D01*
X007983Y011446D02*
X012093Y011446D01*
X012093Y011525D02*
X007983Y011525D01*
X007983Y011603D02*
X012093Y011603D01*
X012093Y011682D02*
X007983Y011682D01*
X007983Y011760D02*
X012093Y011760D01*
X012093Y011839D02*
X007983Y011839D01*
X007983Y011917D02*
X012093Y011917D01*
X012093Y011996D02*
X007983Y011996D01*
X007983Y012074D02*
X012093Y012074D01*
X012093Y012153D02*
X007983Y012153D01*
X007983Y012231D02*
X012093Y012231D01*
X012093Y012310D02*
X007983Y012310D01*
X007983Y012388D02*
X012093Y012388D01*
X012093Y012467D02*
X007983Y012467D01*
X007983Y012545D02*
X012093Y012545D01*
X012093Y012624D02*
X007983Y012624D01*
X007983Y012702D02*
X012066Y012702D01*
X011987Y012781D02*
X007983Y012781D01*
X007983Y012859D02*
X011909Y012859D01*
X011893Y012938D02*
X007983Y012938D01*
X007983Y013016D02*
X011893Y013016D01*
X011893Y013095D02*
X007983Y013095D01*
X007983Y013173D02*
X011893Y013173D01*
X011893Y013252D02*
X007983Y013252D01*
X007983Y013330D02*
X011893Y013330D01*
X011893Y013409D02*
X007983Y013409D01*
X007983Y013487D02*
X011893Y013487D01*
X011893Y013566D02*
X007983Y013566D01*
X007983Y013644D02*
X011893Y013644D01*
X011893Y013723D02*
X007983Y013723D01*
X007983Y013801D02*
X011893Y013801D01*
X011893Y013880D02*
X007983Y013880D01*
X007983Y013958D02*
X011893Y013958D01*
X011893Y014037D02*
X007983Y014037D01*
X007983Y014115D02*
X011893Y014115D01*
X011893Y014194D02*
X007983Y014194D01*
X007983Y014272D02*
X011893Y014272D01*
X011893Y014351D02*
X007983Y014351D01*
X007983Y014429D02*
X011893Y014429D01*
X011893Y014508D02*
X007983Y014508D01*
X007983Y014586D02*
X011893Y014586D01*
X011893Y014665D02*
X007983Y014665D01*
X007983Y014743D02*
X011893Y014743D01*
X011893Y014822D02*
X007983Y014822D01*
X007983Y014900D02*
X011893Y014900D01*
X011839Y014979D02*
X007983Y014979D01*
X007983Y015057D02*
X011761Y015057D01*
X011693Y015136D02*
X007983Y015136D01*
X007983Y015214D02*
X011693Y015214D01*
X011693Y015293D02*
X007983Y015293D01*
X007983Y015371D02*
X011693Y015371D01*
X011693Y015450D02*
X007983Y015450D01*
X007983Y015528D02*
X011693Y015528D01*
X011693Y015607D02*
X007983Y015607D01*
X007983Y015685D02*
X011693Y015685D01*
X011693Y015764D02*
X007983Y015764D01*
X007983Y015842D02*
X011693Y015842D01*
X014468Y013723D02*
X016293Y013723D01*
X016293Y013644D02*
X014643Y013644D01*
X014675Y013566D02*
X016293Y013566D01*
X016293Y013487D02*
X014675Y013487D01*
X014675Y013409D02*
X016293Y013409D01*
X016293Y013330D02*
X014675Y013330D01*
X014675Y013252D02*
X016293Y013252D01*
X016293Y013173D02*
X014675Y013173D01*
X014675Y013095D02*
X016293Y013095D01*
X016293Y013016D02*
X014635Y013016D01*
X014675Y012781D02*
X016293Y012781D01*
X016293Y012859D02*
X014023Y012859D01*
X014023Y012938D02*
X016293Y012938D01*
X016246Y012702D02*
X014675Y012702D01*
X014675Y012624D02*
X016167Y012624D01*
X016089Y012545D02*
X014675Y012545D01*
X014675Y012467D02*
X016010Y012467D01*
X015932Y012388D02*
X014675Y012388D01*
X014675Y012310D02*
X015853Y012310D01*
X015775Y012231D02*
X014675Y012231D01*
X014493Y012153D02*
X015297Y012153D01*
X015588Y012153D02*
X015743Y012153D01*
X015743Y012074D02*
X015663Y012074D01*
X015663Y011996D02*
X015740Y011996D01*
X015673Y011917D02*
X015663Y011917D01*
X015673Y011839D02*
X015605Y011839D01*
X015673Y011760D02*
X014023Y011760D01*
X014023Y011682D02*
X015737Y011682D01*
X014379Y011839D02*
X014023Y011839D01*
X014023Y011917D02*
X014301Y011917D01*
X014222Y011996D02*
X014062Y011996D01*
X014063Y012074D02*
X014193Y012074D01*
X014193Y012153D02*
X014063Y012153D01*
X013663Y012231D02*
X012593Y012231D01*
X012593Y012153D02*
X013623Y012153D01*
X013663Y012310D02*
X012593Y012310D01*
X012593Y012388D02*
X013663Y012388D01*
X013663Y012467D02*
X012593Y012467D01*
X012593Y012545D02*
X013663Y012545D01*
X013663Y012624D02*
X013507Y012624D01*
X013523Y012702D02*
X013663Y012702D01*
X013663Y012781D02*
X013523Y012781D01*
X013523Y012859D02*
X013663Y012859D01*
X013663Y012938D02*
X013523Y012938D01*
X013523Y013016D02*
X013663Y013016D01*
X013663Y013095D02*
X013523Y013095D01*
X013523Y013173D02*
X013663Y013173D01*
X013663Y013252D02*
X013523Y013252D01*
X013523Y013330D02*
X013663Y013330D01*
X013663Y013409D02*
X013497Y013409D01*
X014023Y013016D02*
X014043Y013016D01*
X012663Y012859D02*
X012593Y012859D01*
X012593Y012781D02*
X012663Y012781D01*
X012663Y012702D02*
X012593Y012702D01*
X012593Y012624D02*
X012679Y012624D01*
X012593Y011917D02*
X013663Y011917D01*
X013663Y011839D02*
X012593Y011839D01*
X012593Y011760D02*
X013663Y011760D01*
X013663Y011682D02*
X012593Y011682D01*
X012593Y011603D02*
X013663Y011603D01*
X013663Y011525D02*
X012593Y011525D01*
X012593Y011446D02*
X013663Y011446D01*
X013663Y011368D02*
X012593Y011368D01*
X012593Y011289D02*
X013663Y011289D01*
X013663Y011211D02*
X012593Y011211D01*
X012593Y011132D02*
X013663Y011132D01*
X013663Y011054D02*
X013489Y011054D01*
X013523Y010975D02*
X013663Y010975D01*
X013663Y010897D02*
X013523Y010897D01*
X013523Y010818D02*
X013663Y010818D01*
X013663Y010740D02*
X013523Y010740D01*
X013523Y010661D02*
X013663Y010661D01*
X013663Y010583D02*
X013523Y010583D01*
X013523Y010504D02*
X013663Y010504D01*
X013663Y010426D02*
X013523Y010426D01*
X013523Y010347D02*
X013663Y010347D01*
X013663Y010269D02*
X013514Y010269D01*
X013663Y010190D02*
X012543Y010190D01*
X012543Y010112D02*
X013663Y010112D01*
X013663Y010033D02*
X012543Y010033D01*
X012543Y009955D02*
X013663Y009955D01*
X013663Y009876D02*
X012543Y009876D01*
X012543Y009798D02*
X013663Y009798D01*
X013614Y009719D02*
X012543Y009719D01*
X012543Y009641D02*
X013573Y009641D01*
X013573Y009562D02*
X012543Y009562D01*
X012543Y009484D02*
X013585Y009484D01*
X013663Y009405D02*
X012543Y009405D01*
X012543Y009327D02*
X013663Y009327D01*
X013663Y009248D02*
X012543Y009248D01*
X012543Y009170D02*
X013663Y009170D01*
X013663Y009091D02*
X012543Y009091D01*
X012543Y009013D02*
X013663Y009013D01*
X013663Y008934D02*
X012543Y008934D01*
X012543Y008856D02*
X013663Y008856D01*
X012663Y008071D02*
X007983Y008071D01*
X007983Y008149D02*
X012469Y008149D01*
X012663Y007992D02*
X007983Y007992D01*
X007983Y007914D02*
X012664Y007914D01*
X012715Y007364D02*
X007983Y007364D01*
X007983Y007286D02*
X012637Y007286D01*
X012558Y007207D02*
X009116Y007207D01*
X009196Y007174D02*
X008957Y007273D01*
X008697Y007273D01*
X008458Y007174D01*
X008274Y006991D01*
X008175Y006751D01*
X008175Y006492D01*
X008274Y006252D01*
X008458Y006069D01*
X008697Y005970D01*
X008957Y005970D01*
X009196Y006069D01*
X009380Y006252D01*
X009479Y006492D01*
X009479Y006751D01*
X009380Y006991D01*
X009196Y007174D01*
X009242Y007129D02*
X012480Y007129D01*
X012401Y007050D02*
X009320Y007050D01*
X009387Y006972D02*
X012323Y006972D01*
X012218Y006893D02*
X009420Y006893D01*
X009453Y006815D02*
X011270Y006815D01*
X011342Y006845D02*
X011169Y006773D01*
X011037Y006641D01*
X010965Y006468D01*
X010965Y006281D01*
X011037Y006109D01*
X011169Y005976D01*
X011342Y005905D01*
X011529Y005905D01*
X011702Y005976D01*
X011834Y006109D01*
X011905Y006281D01*
X011905Y006468D01*
X011834Y006641D01*
X011702Y006773D01*
X011529Y006845D01*
X011342Y006845D01*
X011132Y006736D02*
X009479Y006736D01*
X009479Y006658D02*
X011054Y006658D01*
X011011Y006579D02*
X009479Y006579D01*
X009479Y006501D02*
X010979Y006501D01*
X010965Y006422D02*
X009450Y006422D01*
X009418Y006344D02*
X010965Y006344D01*
X010972Y006265D02*
X009385Y006265D01*
X009314Y006187D02*
X011004Y006187D01*
X011037Y006108D02*
X009236Y006108D01*
X009102Y006030D02*
X011116Y006030D01*
X011229Y005951D02*
X007983Y005951D01*
X007983Y005873D02*
X020553Y005873D01*
X020631Y005794D02*
X007983Y005794D01*
X007983Y006030D02*
X008552Y006030D01*
X008418Y006108D02*
X007983Y006108D01*
X007983Y006187D02*
X008340Y006187D01*
X008269Y006265D02*
X007983Y006265D01*
X007983Y006344D02*
X008237Y006344D01*
X008204Y006422D02*
X007983Y006422D01*
X007983Y006501D02*
X008175Y006501D01*
X008175Y006579D02*
X007983Y006579D01*
X007983Y006658D02*
X008175Y006658D01*
X008175Y006736D02*
X007983Y006736D01*
X007983Y006815D02*
X008202Y006815D01*
X008234Y006893D02*
X007983Y006893D01*
X007983Y006972D02*
X008267Y006972D01*
X008334Y007050D02*
X007983Y007050D01*
X007983Y007129D02*
X008412Y007129D01*
X008538Y007207D02*
X007983Y007207D01*
X011601Y006815D02*
X012111Y006815D01*
X012035Y006736D02*
X011738Y006736D01*
X011817Y006658D02*
X012002Y006658D01*
X011970Y006579D02*
X011859Y006579D01*
X011892Y006501D02*
X011965Y006501D01*
X011965Y006422D02*
X011905Y006422D01*
X011905Y006344D02*
X011981Y006344D01*
X012013Y006265D02*
X011899Y006265D01*
X011866Y006187D02*
X012059Y006187D01*
X012137Y006108D02*
X011834Y006108D01*
X011755Y006030D02*
X012281Y006030D01*
X012589Y006030D02*
X014281Y006030D01*
X014342Y006005D02*
X014169Y006076D01*
X014037Y006209D01*
X013965Y006381D01*
X013965Y006568D01*
X014037Y006741D01*
X014169Y006873D01*
X014342Y006945D01*
X014529Y006945D01*
X014702Y006873D01*
X014834Y006741D01*
X014905Y006568D01*
X014905Y006381D01*
X014834Y006209D01*
X014702Y006076D01*
X014529Y006005D01*
X014342Y006005D01*
X014137Y006108D02*
X012734Y006108D01*
X012812Y006187D02*
X014059Y006187D01*
X014013Y006265D02*
X012857Y006265D01*
X012890Y006344D02*
X013981Y006344D01*
X013965Y006422D02*
X012905Y006422D01*
X012905Y006501D02*
X013965Y006501D01*
X013970Y006579D02*
X012901Y006579D01*
X012868Y006658D02*
X014002Y006658D01*
X014035Y006736D02*
X012836Y006736D01*
X012760Y006815D02*
X014111Y006815D01*
X014218Y006893D02*
X012753Y006893D01*
X011641Y005951D02*
X015229Y005951D01*
X015169Y005976D02*
X015342Y005905D01*
X015529Y005905D01*
X015702Y005976D01*
X015834Y006109D01*
X015905Y006281D01*
X015905Y006468D01*
X015834Y006641D01*
X015702Y006773D01*
X015529Y006845D01*
X015342Y006845D01*
X015169Y006773D01*
X015037Y006641D01*
X014965Y006468D01*
X014965Y006281D01*
X015037Y006109D01*
X015169Y005976D01*
X015116Y006030D02*
X014589Y006030D01*
X014734Y006108D02*
X015037Y006108D01*
X015004Y006187D02*
X014812Y006187D01*
X014857Y006265D02*
X014972Y006265D01*
X014965Y006344D02*
X014890Y006344D01*
X014905Y006422D02*
X014965Y006422D01*
X014979Y006501D02*
X014905Y006501D01*
X014901Y006579D02*
X015011Y006579D01*
X015054Y006658D02*
X014868Y006658D01*
X014836Y006736D02*
X015132Y006736D01*
X015270Y006815D02*
X014760Y006815D01*
X014653Y006893D02*
X020363Y006893D01*
X020363Y006815D02*
X015601Y006815D01*
X015738Y006736D02*
X020363Y006736D01*
X020363Y006658D02*
X015817Y006658D01*
X015859Y006579D02*
X020363Y006579D01*
X020363Y006501D02*
X015892Y006501D01*
X015905Y006422D02*
X020363Y006422D01*
X020363Y006344D02*
X015905Y006344D01*
X015899Y006265D02*
X020363Y006265D01*
X020363Y006187D02*
X015866Y006187D01*
X015834Y006108D02*
X020363Y006108D01*
X020396Y006030D02*
X015755Y006030D01*
X015641Y005951D02*
X020474Y005951D01*
X020723Y006212D02*
X020723Y007513D01*
X021054Y007844D01*
X021054Y007484D01*
X021113Y007425D01*
X021629Y007425D01*
X021682Y007479D01*
X021682Y007210D01*
X021741Y007152D01*
X022532Y007152D01*
X022591Y007210D01*
X022591Y007319D01*
X022605Y007306D01*
X023063Y007306D01*
X023063Y006869D01*
X023023Y006829D01*
X023023Y006646D01*
X023152Y006517D01*
X023334Y006517D01*
X023463Y006646D01*
X023463Y006829D01*
X023423Y006869D01*
X023423Y008162D01*
X023357Y008228D02*
X023493Y008228D01*
X023493Y008306D02*
X023278Y008306D01*
X023323Y008262D02*
X023323Y008262D01*
X023493Y008385D02*
X022491Y008385D01*
X022491Y008463D02*
X023493Y008463D01*
X023493Y008542D02*
X022491Y008542D01*
X022491Y008620D02*
X023493Y008620D01*
X023493Y008699D02*
X022491Y008699D01*
X022491Y008777D02*
X023493Y008777D01*
X023493Y008856D02*
X022491Y008856D01*
X022490Y008934D02*
X023493Y008934D01*
X023493Y009013D02*
X022490Y009013D01*
X022490Y009091D02*
X023427Y009091D01*
X023348Y009170D02*
X022490Y009170D01*
X022464Y009248D02*
X023270Y009248D01*
X023191Y009327D02*
X019981Y009327D01*
X019981Y009405D02*
X023113Y009405D01*
X023034Y009484D02*
X019981Y009484D01*
X019981Y009562D02*
X022956Y009562D01*
X021608Y009248D02*
X020259Y009248D01*
X020285Y009170D02*
X021581Y009170D01*
X021581Y009091D02*
X020285Y009091D01*
X020285Y009013D02*
X021581Y009013D01*
X021581Y008934D02*
X020285Y008934D01*
X020285Y008856D02*
X021581Y008856D01*
X021581Y008777D02*
X020285Y008777D01*
X020285Y008699D02*
X021581Y008699D01*
X021581Y008620D02*
X020285Y008620D01*
X020285Y008542D02*
X021581Y008542D01*
X021581Y008463D02*
X020285Y008463D01*
X020285Y008385D02*
X021581Y008385D01*
X021600Y008306D02*
X021235Y008306D01*
X021313Y008228D02*
X021521Y008228D01*
X021443Y008149D02*
X021313Y008149D01*
X021313Y008071D02*
X021364Y008071D01*
X021054Y007835D02*
X021045Y007835D01*
X021054Y007757D02*
X020967Y007757D01*
X020888Y007678D02*
X021054Y007678D01*
X021054Y007600D02*
X020810Y007600D01*
X020731Y007521D02*
X021054Y007521D01*
X021095Y007443D02*
X020723Y007443D01*
X020723Y007364D02*
X021682Y007364D01*
X021682Y007286D02*
X020723Y007286D01*
X020723Y007207D02*
X021685Y007207D01*
X021682Y007443D02*
X021646Y007443D01*
X020723Y007129D02*
X023063Y007129D01*
X023063Y007207D02*
X022588Y007207D01*
X022591Y007286D02*
X023063Y007286D01*
X023063Y007050D02*
X020723Y007050D01*
X020723Y006972D02*
X023063Y006972D01*
X023063Y006893D02*
X020723Y006893D01*
X020723Y006815D02*
X023023Y006815D01*
X023023Y006736D02*
X020723Y006736D01*
X020723Y006658D02*
X023023Y006658D01*
X023090Y006579D02*
X020723Y006579D01*
X020723Y006501D02*
X023145Y006501D01*
X023152Y006507D02*
X023023Y006379D01*
X023023Y006322D01*
X022818Y006117D01*
X020817Y006117D01*
X020723Y006212D01*
X020748Y006187D02*
X022888Y006187D01*
X022966Y006265D02*
X020723Y006265D01*
X020723Y006344D02*
X023023Y006344D01*
X023067Y006422D02*
X020723Y006422D01*
X022987Y005777D02*
X023277Y006067D01*
X023334Y006067D01*
X023463Y006196D01*
X023463Y006379D01*
X023334Y006507D01*
X023152Y006507D01*
X023340Y006501D02*
X023493Y006501D01*
X023493Y006579D02*
X023396Y006579D01*
X023463Y006658D02*
X023493Y006658D01*
X023493Y006736D02*
X023463Y006736D01*
X023463Y006815D02*
X023493Y006815D01*
X023493Y006893D02*
X023423Y006893D01*
X023423Y006972D02*
X023493Y006972D01*
X023493Y007050D02*
X023423Y007050D01*
X023423Y007129D02*
X023493Y007129D01*
X023493Y007207D02*
X023423Y007207D01*
X023423Y007286D02*
X023493Y007286D01*
X023493Y007364D02*
X023423Y007364D01*
X023423Y007443D02*
X023493Y007443D01*
X023493Y007521D02*
X023423Y007521D01*
X023423Y007600D02*
X023493Y007600D01*
X023493Y007678D02*
X023423Y007678D01*
X023423Y007757D02*
X023493Y007757D01*
X023493Y007835D02*
X023423Y007835D01*
X023423Y007914D02*
X023493Y007914D01*
X023493Y007992D02*
X023423Y007992D01*
X020951Y008306D02*
X020240Y008306D01*
X019973Y008306D02*
X019964Y008306D01*
X019698Y008306D02*
X019689Y008306D01*
X019422Y008306D02*
X018862Y008306D01*
X018907Y008385D02*
X019377Y008385D01*
X019377Y008463D02*
X018907Y008463D01*
X018907Y008542D02*
X019377Y008542D01*
X019377Y008620D02*
X018907Y008620D01*
X018907Y008699D02*
X019377Y008699D01*
X019377Y008777D02*
X018907Y008777D01*
X018907Y008856D02*
X019377Y008856D01*
X019377Y008934D02*
X018907Y008934D01*
X018907Y009013D02*
X019377Y009013D01*
X019377Y009091D02*
X018907Y009091D01*
X018907Y009170D02*
X019377Y009170D01*
X019403Y009248D02*
X018881Y009248D01*
X018879Y009327D02*
X019405Y009327D01*
X019405Y009405D02*
X018879Y009405D01*
X018879Y009484D02*
X019084Y009484D01*
X019006Y009562D02*
X018879Y009562D01*
X018913Y009641D02*
X018927Y009641D01*
X018893Y010347D02*
X017695Y010347D01*
X017663Y010426D02*
X018843Y010426D01*
X018823Y010504D02*
X017637Y010504D01*
X017558Y010583D02*
X018823Y010583D01*
X018736Y011682D02*
X018249Y011682D01*
X018328Y011760D02*
X018559Y011760D01*
X018480Y011839D02*
X018406Y011839D01*
X018196Y013095D02*
X017296Y013095D01*
X018040Y013173D02*
X018274Y013173D01*
X018353Y013252D02*
X018118Y013252D01*
X018163Y013330D02*
X018431Y013330D01*
X018510Y013409D02*
X018163Y013409D01*
X018154Y013487D02*
X018588Y013487D01*
X018613Y013566D02*
X018093Y013566D01*
X018093Y013644D02*
X018613Y013644D01*
X018613Y013723D02*
X018093Y013723D01*
X018093Y013801D02*
X018613Y013801D01*
X018613Y013880D02*
X018093Y013880D01*
X018093Y013958D02*
X018613Y013958D01*
X018613Y014037D02*
X018093Y014037D01*
X018027Y014115D02*
X018613Y014115D01*
X018613Y014194D02*
X017948Y014194D01*
X022008Y016392D02*
X036343Y016392D01*
X036343Y016470D02*
X022087Y016470D01*
X022113Y016549D02*
X036343Y016549D01*
X036343Y016627D02*
X022145Y016627D01*
X021986Y017255D02*
X024467Y017255D01*
X025471Y017255D02*
X028797Y017255D01*
X028719Y017334D02*
X025549Y017334D01*
X025624Y017412D02*
X028644Y017412D01*
X028612Y017491D02*
X025657Y017491D01*
X025689Y017569D02*
X028579Y017569D01*
X028547Y017648D02*
X025722Y017648D01*
X025739Y017726D02*
X028530Y017726D01*
X028530Y017805D02*
X025739Y017805D01*
X025739Y017883D02*
X028530Y017883D01*
X028530Y017962D02*
X025739Y017962D01*
X025720Y018040D02*
X028548Y018040D01*
X028581Y018119D02*
X025687Y018119D01*
X025655Y018197D02*
X028613Y018197D01*
X028646Y018276D02*
X025622Y018276D01*
X025545Y018354D02*
X028723Y018354D01*
X028801Y018433D02*
X025467Y018433D01*
X025365Y018511D02*
X028903Y018511D01*
X029093Y018590D02*
X025175Y018590D01*
X024762Y018590D02*
X024201Y018590D01*
X024263Y018511D02*
X024573Y018511D01*
X024471Y018433D02*
X024263Y018433D01*
X024263Y018354D02*
X024392Y018354D01*
X024315Y018276D02*
X024192Y018276D01*
X021566Y018668D02*
X031089Y018668D01*
X031089Y018747D02*
X021488Y018747D01*
X021409Y018825D02*
X031104Y018825D01*
X031137Y018904D02*
X021331Y018904D01*
X021252Y018982D02*
X031203Y018982D01*
X031108Y018590D02*
X029506Y018590D01*
X029696Y018511D02*
X031141Y018511D01*
X031212Y018433D02*
X029797Y018433D01*
X029876Y018354D02*
X031346Y018354D01*
X031583Y018354D02*
X032498Y018354D01*
X032419Y018276D02*
X029953Y018276D01*
X029986Y018197D02*
X032341Y018197D01*
X032262Y018119D02*
X030018Y018119D01*
X030051Y018040D02*
X032184Y018040D01*
X032105Y017962D02*
X030069Y017962D01*
X030069Y017883D02*
X032027Y017883D01*
X031948Y017805D02*
X030069Y017805D01*
X030069Y017726D02*
X031870Y017726D01*
X031791Y017648D02*
X030052Y017648D01*
X030020Y017569D02*
X031713Y017569D01*
X031634Y017491D02*
X029987Y017491D01*
X029955Y017412D02*
X031556Y017412D01*
X031477Y017334D02*
X029880Y017334D01*
X029802Y017255D02*
X031399Y017255D01*
X031887Y017020D02*
X036343Y017020D01*
X036343Y017098D02*
X031966Y017098D01*
X032044Y017177D02*
X036343Y017177D01*
X036343Y017255D02*
X032123Y017255D01*
X032201Y017334D02*
X036343Y017334D01*
X036343Y017412D02*
X032280Y017412D01*
X032358Y017491D02*
X036343Y017491D01*
X036343Y017569D02*
X032437Y017569D01*
X032515Y017648D02*
X036343Y017648D01*
X036343Y017726D02*
X032594Y017726D01*
X032672Y017805D02*
X036343Y017805D01*
X036343Y017883D02*
X032751Y017883D01*
X032829Y017962D02*
X036343Y017962D01*
X036343Y018040D02*
X032908Y018040D01*
X032986Y018119D02*
X036343Y018119D01*
X036343Y018197D02*
X033065Y018197D01*
X033143Y018276D02*
X036343Y018276D01*
X036343Y018354D02*
X035421Y018354D01*
X035499Y018433D02*
X036343Y018433D01*
X036343Y018511D02*
X035513Y018511D01*
X035513Y018590D02*
X036343Y018590D01*
X036343Y018668D02*
X035473Y018668D01*
X035394Y018747D02*
X036343Y018747D01*
X036343Y018825D02*
X035243Y018825D01*
X035191Y018747D02*
X035164Y018747D01*
X035321Y018904D02*
X036343Y018904D01*
X036343Y018982D02*
X035343Y018982D01*
X035343Y019061D02*
X036343Y019061D01*
X036343Y019139D02*
X035343Y019139D01*
X035343Y019218D02*
X036343Y019218D01*
X036343Y019296D02*
X035343Y019296D01*
X035343Y019375D02*
X036343Y019375D01*
X036343Y019453D02*
X035343Y019453D01*
X035343Y019532D02*
X036343Y019532D01*
X036343Y019610D02*
X035343Y019610D01*
X035343Y019689D02*
X036343Y019689D01*
X036343Y019767D02*
X035384Y019767D01*
X035413Y019846D02*
X036343Y019846D01*
X036343Y019924D02*
X035413Y019924D01*
X035388Y020003D02*
X036343Y020003D01*
X036337Y020081D02*
X035310Y020081D01*
X035076Y020081D02*
X032799Y020081D01*
X032720Y020003D02*
X033563Y020003D01*
X033485Y019924D02*
X032642Y019924D01*
X032563Y019846D02*
X033406Y019846D01*
X033328Y019767D02*
X032485Y019767D01*
X032406Y019689D02*
X033249Y019689D01*
X033227Y019610D02*
X032328Y019610D01*
X032249Y019532D02*
X033227Y019532D01*
X033227Y019453D02*
X032171Y019453D01*
X032092Y019375D02*
X033227Y019375D01*
X033227Y019296D02*
X032014Y019296D01*
X031935Y019218D02*
X033227Y019218D01*
X033257Y019139D02*
X031857Y019139D01*
X031778Y019061D02*
X033336Y019061D01*
X033414Y018982D02*
X031727Y018982D01*
X031793Y018904D02*
X033493Y018904D01*
X032969Y018825D02*
X031825Y018825D01*
X031841Y018747D02*
X032890Y018747D01*
X032812Y018668D02*
X031841Y018668D01*
X031821Y018590D02*
X032733Y018590D01*
X032655Y018511D02*
X031789Y018511D01*
X031717Y018433D02*
X032576Y018433D01*
X033222Y018354D02*
X035165Y018354D01*
X034897Y018904D02*
X034161Y018904D01*
X034240Y018982D02*
X034976Y018982D01*
X035043Y019061D02*
X034318Y019061D01*
X034397Y019139D02*
X035043Y019139D01*
X035043Y019218D02*
X034427Y019218D01*
X034427Y019296D02*
X035043Y019296D01*
X035043Y019375D02*
X034427Y019375D01*
X034427Y019453D02*
X035043Y019453D01*
X035043Y019532D02*
X034427Y019532D01*
X034427Y019610D02*
X035043Y019610D01*
X035043Y019689D02*
X034405Y019689D01*
X034327Y019767D02*
X035002Y019767D01*
X034973Y019846D02*
X034248Y019846D01*
X034170Y019924D02*
X034973Y019924D01*
X034997Y020003D02*
X034091Y020003D01*
X037162Y021180D02*
X043136Y021180D01*
X043136Y021245D02*
X043136Y005777D01*
X022987Y005777D01*
X023004Y005794D02*
X023674Y005794D01*
X023595Y005873D02*
X023083Y005873D01*
X023161Y005951D02*
X023517Y005951D01*
X023493Y006030D02*
X023240Y006030D01*
X023375Y006108D02*
X023493Y006108D01*
X023493Y006187D02*
X023453Y006187D01*
X023463Y006265D02*
X023493Y006265D01*
X023493Y006344D02*
X023463Y006344D01*
X023493Y006422D02*
X023419Y006422D01*
X020850Y008149D02*
X018267Y008149D01*
X018327Y008228D02*
X020873Y008228D01*
X020772Y008071D02*
X018188Y008071D01*
X018163Y007992D02*
X020693Y007992D01*
X020615Y007914D02*
X018130Y007914D01*
X018052Y007835D02*
X020536Y007835D01*
X018595Y008306D02*
X018586Y008306D01*
X012672Y010269D02*
X012543Y010269D01*
X012543Y010347D02*
X012663Y010347D01*
X012663Y010426D02*
X012543Y010426D01*
X012593Y010818D02*
X012663Y010818D01*
X012663Y010897D02*
X012593Y010897D01*
X012593Y010975D02*
X012663Y010975D01*
X012696Y011054D02*
X012593Y011054D01*
X025320Y012153D02*
X030963Y012153D01*
X030963Y012231D02*
X025399Y012231D01*
X025477Y012310D02*
X030963Y012310D01*
X030963Y012388D02*
X025556Y012388D01*
X025634Y012467D02*
X030963Y012467D01*
X030963Y012545D02*
X025713Y012545D01*
X025791Y012624D02*
X030963Y012624D01*
X030963Y012702D02*
X025870Y012702D01*
X025948Y012781D02*
X030963Y012781D01*
X031010Y012859D02*
X026027Y012859D01*
X026105Y012938D02*
X031089Y012938D01*
X031167Y013016D02*
X026184Y013016D01*
X026262Y013095D02*
X031593Y013095D01*
X031593Y013173D02*
X026341Y013173D01*
X026419Y013252D02*
X031593Y013252D01*
X031593Y013330D02*
X026498Y013330D01*
X028373Y014508D02*
X036610Y014508D01*
X036532Y014586D02*
X028452Y014586D01*
X028530Y014665D02*
X036453Y014665D01*
X036375Y014743D02*
X028568Y014743D01*
X029283Y013566D02*
X031593Y013566D01*
X031593Y013487D02*
X029205Y013487D01*
X029126Y013409D02*
X031593Y013409D01*
X031893Y013409D02*
X035643Y013409D01*
X035643Y013487D02*
X031893Y013487D01*
X031893Y013566D02*
X035643Y013566D01*
X035643Y013644D02*
X031893Y013644D01*
X031869Y013723D02*
X035643Y013723D01*
X035643Y013801D02*
X031791Y013801D01*
X031893Y013330D02*
X035643Y013330D01*
X035643Y013252D02*
X033526Y013252D01*
X033605Y013173D02*
X035643Y013173D01*
X035643Y013095D02*
X033633Y013095D01*
X033633Y013016D02*
X035643Y013016D01*
X035643Y012938D02*
X033633Y012938D01*
X033633Y012859D02*
X035643Y012859D01*
X035643Y012781D02*
X033633Y012781D01*
X033493Y012781D02*
X032593Y012781D01*
X032593Y012859D02*
X033493Y012859D01*
X033493Y012938D02*
X032593Y012938D01*
X032593Y013016D02*
X033493Y013016D01*
X033493Y013087D02*
X033493Y012087D01*
X033393Y011987D01*
X032593Y011987D01*
X032593Y013087D01*
X032693Y013187D01*
X033393Y013187D01*
X033493Y013087D01*
X033485Y013095D02*
X032600Y013095D01*
X032679Y013173D02*
X033407Y013173D01*
X032559Y013252D02*
X031893Y013252D01*
X031893Y013173D02*
X032481Y013173D01*
X032453Y013095D02*
X032196Y013095D01*
X032275Y013016D02*
X032453Y013016D01*
X032453Y012938D02*
X032313Y012938D01*
X032313Y012859D02*
X032453Y012859D01*
X032453Y012781D02*
X032297Y012781D01*
X032219Y012702D02*
X032453Y012702D01*
X032453Y012624D02*
X031323Y012624D01*
X031323Y012545D02*
X032453Y012545D01*
X032453Y012467D02*
X031323Y012467D01*
X031323Y012388D02*
X032453Y012388D01*
X032453Y012310D02*
X032181Y012310D01*
X032260Y012231D02*
X032453Y012231D01*
X032453Y012153D02*
X032282Y012153D01*
X032593Y012153D02*
X033493Y012153D01*
X033493Y012231D02*
X032593Y012231D01*
X032593Y012310D02*
X033493Y012310D01*
X033493Y012388D02*
X032593Y012388D01*
X032593Y012467D02*
X033493Y012467D01*
X033493Y012545D02*
X032593Y012545D01*
X032593Y012624D02*
X033493Y012624D01*
X033493Y012702D02*
X032593Y012702D01*
X031967Y012702D02*
X031362Y012702D01*
X031323Y012310D02*
X031904Y012310D01*
X031826Y012231D02*
X031323Y012231D01*
X031323Y012153D02*
X031823Y012153D01*
X031823Y012074D02*
X031323Y012074D01*
X031323Y011996D02*
X031873Y011996D01*
X031952Y011917D02*
X031323Y011917D01*
X031323Y011839D02*
X032087Y011839D01*
X032165Y011760D02*
X031323Y011760D01*
X031323Y011682D02*
X031876Y011682D01*
X031823Y011603D02*
X031323Y011603D01*
X031323Y011525D02*
X031823Y011525D01*
X031823Y011446D02*
X031323Y011446D01*
X031323Y011368D02*
X031901Y011368D01*
X032062Y011211D02*
X031323Y011211D01*
X031323Y011289D02*
X032140Y011289D01*
X031927Y011132D02*
X031323Y011132D01*
X031323Y011054D02*
X031848Y011054D01*
X031823Y010975D02*
X031323Y010975D01*
X031323Y010897D02*
X031823Y010897D01*
X031851Y010818D02*
X031323Y010818D01*
X031323Y010740D02*
X031929Y010740D01*
X032593Y010740D02*
X033493Y010740D01*
X033493Y010818D02*
X032593Y010818D01*
X032593Y010661D02*
X033493Y010661D01*
X033493Y010583D02*
X032593Y010583D01*
X032593Y010504D02*
X033493Y010504D01*
X033493Y010426D02*
X032593Y010426D01*
X032593Y010347D02*
X033493Y010347D01*
X033493Y010269D02*
X032593Y010269D01*
X032593Y010190D02*
X033493Y010190D01*
X033493Y010112D02*
X032593Y010112D01*
X032593Y010033D02*
X033493Y010033D01*
X033493Y009955D02*
X032593Y009955D01*
X032654Y009876D02*
X033432Y009876D01*
X033633Y010190D02*
X035029Y010190D01*
X035943Y010190D02*
X037495Y010190D01*
X037495Y010112D02*
X035943Y010112D01*
X035943Y010033D02*
X037495Y010033D01*
X037495Y009955D02*
X035943Y009955D01*
X035943Y009876D02*
X037495Y009876D01*
X037495Y009798D02*
X035943Y009798D01*
X035943Y009719D02*
X037495Y009719D01*
X037495Y009641D02*
X036000Y009641D01*
X036013Y009562D02*
X037553Y009562D01*
X037554Y009561D02*
X037495Y009620D01*
X037495Y010403D01*
X037554Y010461D01*
X038337Y010461D01*
X038395Y010403D01*
X038395Y009620D01*
X038337Y009561D01*
X037554Y009561D01*
X038338Y009562D02*
X038758Y009562D01*
X038795Y009484D02*
X036013Y009484D01*
X035972Y009405D02*
X038795Y009405D01*
X038795Y009327D02*
X035893Y009327D01*
X035943Y010269D02*
X037495Y010269D01*
X037495Y010347D02*
X035943Y010347D01*
X035943Y010426D02*
X037518Y010426D01*
X037737Y010583D02*
X035943Y010583D01*
X035943Y010661D02*
X037659Y010661D01*
X037580Y010740D02*
X035943Y010740D01*
X035943Y010818D02*
X037502Y010818D01*
X037495Y010897D02*
X035943Y010897D01*
X035943Y010975D02*
X037495Y010975D01*
X037495Y011054D02*
X035943Y011054D01*
X035943Y011132D02*
X037495Y011132D01*
X037508Y011211D02*
X035943Y011211D01*
X035943Y011289D02*
X037455Y011289D01*
X037377Y011368D02*
X035943Y011368D01*
X035943Y011446D02*
X037298Y011446D01*
X037293Y011525D02*
X035943Y011525D01*
X035943Y011603D02*
X037293Y011603D01*
X037293Y011682D02*
X035943Y011682D01*
X035943Y011760D02*
X037293Y011760D01*
X037293Y011839D02*
X035943Y011839D01*
X035943Y011917D02*
X037293Y011917D01*
X037293Y011996D02*
X035943Y011996D01*
X035943Y012074D02*
X037293Y012074D01*
X037293Y012153D02*
X035943Y012153D01*
X035943Y012231D02*
X037237Y012231D01*
X037158Y012310D02*
X035943Y012310D01*
X035943Y012388D02*
X037080Y012388D01*
X037043Y012467D02*
X035943Y012467D01*
X035943Y012545D02*
X037043Y012545D01*
X037043Y012624D02*
X035943Y012624D01*
X035943Y012702D02*
X037043Y012702D01*
X037043Y012781D02*
X035943Y012781D01*
X035943Y012859D02*
X037043Y012859D01*
X037043Y012938D02*
X035943Y012938D01*
X035943Y013016D02*
X037043Y013016D01*
X037043Y013095D02*
X035943Y013095D01*
X035943Y013173D02*
X036995Y013173D01*
X036916Y013252D02*
X035943Y013252D01*
X035943Y013330D02*
X036838Y013330D01*
X036793Y013409D02*
X035943Y013409D01*
X035943Y013487D02*
X036793Y013487D01*
X036793Y013566D02*
X035943Y013566D01*
X035943Y013644D02*
X036793Y013644D01*
X036793Y013723D02*
X035943Y013723D01*
X035943Y013801D02*
X036793Y013801D01*
X036793Y013880D02*
X035943Y013880D01*
X035934Y013958D02*
X036793Y013958D01*
X037493Y013958D02*
X037495Y013958D01*
X037493Y013880D02*
X037495Y013880D01*
X037493Y013801D02*
X037519Y013801D01*
X037493Y013723D02*
X037597Y013723D01*
X037524Y013644D02*
X037676Y013644D01*
X037603Y013566D02*
X037754Y013566D01*
X037681Y013487D02*
X039293Y013487D01*
X039293Y013409D02*
X039184Y013409D01*
X039263Y013330D02*
X039293Y013330D01*
X039293Y013566D02*
X039136Y013566D01*
X039215Y013644D02*
X039293Y013644D01*
X039793Y013644D02*
X043136Y013644D01*
X043136Y013566D02*
X039793Y013566D01*
X039793Y013487D02*
X043136Y013487D01*
X043136Y013409D02*
X039793Y013409D01*
X039862Y013330D02*
X043136Y013330D01*
X043136Y013252D02*
X039940Y013252D01*
X039993Y013173D02*
X043136Y013173D01*
X043136Y013095D02*
X039993Y013095D01*
X039993Y013016D02*
X043136Y013016D01*
X043136Y012938D02*
X039993Y012938D01*
X039993Y012859D02*
X043136Y012859D01*
X043136Y012781D02*
X039993Y012781D01*
X039993Y012702D02*
X043136Y012702D01*
X043136Y012624D02*
X039993Y012624D01*
X039997Y012545D02*
X043136Y012545D01*
X043136Y012467D02*
X040075Y012467D01*
X040154Y012388D02*
X043136Y012388D01*
X043136Y012310D02*
X040193Y012310D01*
X040193Y012231D02*
X043136Y012231D01*
X043136Y012153D02*
X040193Y012153D01*
X040193Y012074D02*
X043136Y012074D01*
X043136Y011996D02*
X040193Y011996D01*
X040193Y011917D02*
X043136Y011917D01*
X043136Y011839D02*
X040193Y011839D01*
X040193Y011760D02*
X043136Y011760D01*
X043136Y011682D02*
X040193Y011682D01*
X040193Y011603D02*
X043136Y011603D01*
X043136Y011525D02*
X040217Y011525D01*
X040296Y011446D02*
X043136Y011446D01*
X043136Y011368D02*
X040374Y011368D01*
X040393Y011289D02*
X043136Y011289D01*
X043136Y011211D02*
X040393Y011211D01*
X040393Y011132D02*
X043136Y011132D01*
X043136Y011054D02*
X040393Y011054D01*
X040393Y010975D02*
X043136Y010975D01*
X043136Y010897D02*
X040393Y010897D01*
X040393Y010818D02*
X043136Y010818D01*
X043136Y010740D02*
X040393Y010740D01*
X040393Y010661D02*
X043136Y010661D01*
X043136Y010583D02*
X040393Y010583D01*
X040393Y010504D02*
X043136Y010504D01*
X043136Y010426D02*
X040393Y010426D01*
X040393Y010347D02*
X043136Y010347D01*
X043136Y010269D02*
X040393Y010269D01*
X040393Y010190D02*
X043136Y010190D01*
X043136Y010112D02*
X040393Y010112D01*
X040393Y010033D02*
X043136Y010033D01*
X043136Y009955D02*
X040393Y009955D01*
X040393Y009876D02*
X043136Y009876D01*
X043136Y009798D02*
X040393Y009798D01*
X040393Y009719D02*
X043136Y009719D01*
X043136Y009641D02*
X040393Y009641D01*
X040393Y009562D02*
X043136Y009562D01*
X043136Y009484D02*
X040393Y009484D01*
X040393Y009405D02*
X043136Y009405D01*
X043136Y009327D02*
X040393Y009327D01*
X040393Y009248D02*
X043136Y009248D01*
X043136Y009170D02*
X040393Y009170D01*
X040393Y009091D02*
X043136Y009091D01*
X043136Y009013D02*
X040393Y009013D01*
X040393Y008934D02*
X043136Y008934D01*
X043136Y008856D02*
X040393Y008856D01*
X040393Y008777D02*
X043136Y008777D01*
X043136Y008699D02*
X040393Y008699D01*
X040393Y008620D02*
X043136Y008620D01*
X043136Y008542D02*
X040393Y008542D01*
X040393Y008463D02*
X043136Y008463D01*
X043136Y008385D02*
X040393Y008385D01*
X040393Y008306D02*
X043136Y008306D01*
X043136Y008228D02*
X040393Y008228D01*
X040393Y008149D02*
X043136Y008149D01*
X043136Y008071D02*
X040393Y008071D01*
X040393Y007992D02*
X043136Y007992D01*
X043136Y007914D02*
X040393Y007914D01*
X040393Y007835D02*
X043136Y007835D01*
X043136Y007757D02*
X040393Y007757D01*
X040393Y007678D02*
X043136Y007678D01*
X043136Y007600D02*
X040393Y007600D01*
X040393Y007521D02*
X043136Y007521D01*
X043136Y007443D02*
X040393Y007443D01*
X040393Y007364D02*
X043136Y007364D01*
X043136Y007286D02*
X040393Y007286D01*
X040393Y007207D02*
X042002Y007207D01*
X041922Y007174D02*
X041739Y006991D01*
X041640Y006751D01*
X041640Y006492D01*
X041739Y006252D01*
X041922Y006069D01*
X042162Y005970D01*
X042421Y005970D01*
X042661Y006069D01*
X042844Y006252D01*
X042943Y006492D01*
X042943Y006751D01*
X042844Y006991D01*
X042661Y007174D01*
X042421Y007273D01*
X042162Y007273D01*
X041922Y007174D01*
X041877Y007129D02*
X040346Y007129D01*
X040268Y007050D02*
X041799Y007050D01*
X041731Y006972D02*
X032439Y006972D01*
X032361Y006893D02*
X041699Y006893D01*
X041666Y006815D02*
X032282Y006815D01*
X032204Y006736D02*
X041640Y006736D01*
X041640Y006658D02*
X032125Y006658D01*
X032047Y006579D02*
X041640Y006579D01*
X041640Y006501D02*
X031968Y006501D01*
X031890Y006422D02*
X041669Y006422D01*
X041701Y006344D02*
X031811Y006344D01*
X031733Y006265D02*
X041734Y006265D01*
X041805Y006187D02*
X031654Y006187D01*
X031576Y006108D02*
X041883Y006108D01*
X042017Y006030D02*
X031497Y006030D01*
X031419Y005951D02*
X043136Y005951D01*
X043136Y005873D02*
X031340Y005873D01*
X031262Y005794D02*
X043136Y005794D01*
X043136Y006030D02*
X042566Y006030D01*
X042700Y006108D02*
X043136Y006108D01*
X043136Y006187D02*
X042779Y006187D01*
X042850Y006265D02*
X043136Y006265D01*
X043136Y006344D02*
X042882Y006344D01*
X042915Y006422D02*
X043136Y006422D01*
X043136Y006501D02*
X042943Y006501D01*
X042943Y006579D02*
X043136Y006579D01*
X043136Y006658D02*
X042943Y006658D01*
X042943Y006736D02*
X043136Y006736D01*
X043136Y006815D02*
X042917Y006815D01*
X042885Y006893D02*
X043136Y006893D01*
X043136Y006972D02*
X042852Y006972D01*
X042785Y007050D02*
X043136Y007050D01*
X043136Y007129D02*
X042706Y007129D01*
X042581Y007207D02*
X043136Y007207D01*
X038795Y008306D02*
X031163Y008306D01*
X031163Y008228D02*
X031771Y008228D01*
X031693Y008149D02*
X031116Y008149D01*
X031037Y008071D02*
X031614Y008071D01*
X031156Y008385D02*
X038795Y008385D01*
X038795Y008463D02*
X031078Y008463D01*
X033593Y011087D02*
X033293Y011387D01*
X033293Y011437D01*
X033243Y011487D01*
X033143Y011487D01*
X033143Y011587D01*
X033243Y011587D01*
X033293Y011637D01*
X033293Y011687D01*
X033593Y011987D01*
X033743Y011987D01*
X033743Y011087D01*
X033593Y011087D01*
X033548Y011132D02*
X033743Y011132D01*
X033743Y011211D02*
X033469Y011211D01*
X033391Y011289D02*
X033743Y011289D01*
X033743Y011368D02*
X033312Y011368D01*
X033284Y011446D02*
X033743Y011446D01*
X033743Y011525D02*
X033143Y011525D01*
X033259Y011603D02*
X033743Y011603D01*
X033743Y011682D02*
X033293Y011682D01*
X033366Y011760D02*
X033743Y011760D01*
X033743Y011839D02*
X033444Y011839D01*
X033523Y011917D02*
X033743Y011917D01*
X033480Y012074D02*
X032593Y012074D01*
X032593Y011996D02*
X033401Y011996D01*
X031989Y013095D02*
X031893Y013095D01*
X035755Y014137D02*
X035855Y014037D01*
X037493Y014037D02*
X037495Y014037D01*
X037493Y014115D02*
X037495Y014115D01*
X037493Y014194D02*
X037495Y014194D01*
X037493Y014272D02*
X037570Y014272D01*
X037493Y014351D02*
X037648Y014351D01*
X037589Y014429D02*
X037493Y014429D01*
X037493Y014508D02*
X037510Y014508D01*
X037934Y014508D02*
X039343Y014508D01*
X039343Y014586D02*
X039157Y014586D01*
X039235Y014665D02*
X039343Y014665D01*
X039343Y014743D02*
X039314Y014743D01*
X039343Y014429D02*
X039164Y014429D01*
X039242Y014351D02*
X039343Y014351D01*
X039343Y014272D02*
X039321Y014272D01*
X039643Y014351D02*
X043136Y014351D01*
X043136Y014429D02*
X039643Y014429D01*
X039643Y014508D02*
X043136Y014508D01*
X043136Y014586D02*
X039643Y014586D01*
X039643Y014665D02*
X043136Y014665D01*
X043136Y014743D02*
X039643Y014743D01*
X039643Y014822D02*
X043136Y014822D01*
X043136Y014900D02*
X039643Y014900D01*
X039643Y014979D02*
X043136Y014979D01*
X043136Y015057D02*
X039585Y015057D01*
X039506Y015136D02*
X043136Y015136D01*
X043136Y015214D02*
X039379Y015214D01*
X039300Y015293D02*
X043136Y015293D01*
X043136Y015371D02*
X039222Y015371D01*
X039143Y015450D02*
X043136Y015450D01*
X043136Y015528D02*
X037443Y015528D01*
X037443Y015450D02*
X037747Y015450D01*
X037669Y015371D02*
X037443Y015371D01*
X037449Y015293D02*
X037590Y015293D01*
X037443Y015607D02*
X038713Y015607D01*
X038759Y015561D02*
X039132Y015561D01*
X039395Y015825D01*
X039395Y016198D01*
X039132Y016461D01*
X038759Y016461D01*
X038495Y016198D01*
X038495Y015825D01*
X038759Y015561D01*
X038747Y015450D02*
X038143Y015450D01*
X038222Y015371D02*
X038669Y015371D01*
X038590Y015293D02*
X038300Y015293D01*
X038379Y015214D02*
X038512Y015214D01*
X038495Y015136D02*
X038395Y015136D01*
X038395Y015057D02*
X038495Y015057D01*
X038495Y014979D02*
X038395Y014979D01*
X038395Y014900D02*
X038495Y014900D01*
X038498Y014822D02*
X038392Y014822D01*
X038314Y014743D02*
X038577Y014743D01*
X038655Y014665D02*
X038235Y014665D01*
X038157Y014586D02*
X038734Y014586D01*
X038727Y014429D02*
X038164Y014429D01*
X038242Y014351D02*
X038648Y014351D01*
X038570Y014272D02*
X038321Y014272D01*
X038395Y014194D02*
X038495Y014194D01*
X038495Y014115D02*
X038395Y014115D01*
X038395Y014037D02*
X038495Y014037D01*
X038495Y013958D02*
X038395Y013958D01*
X038395Y013880D02*
X038495Y013880D01*
X038519Y013801D02*
X038372Y013801D01*
X038293Y013723D02*
X038597Y013723D01*
X038676Y013644D02*
X038215Y013644D01*
X038136Y013566D02*
X038754Y013566D01*
X038706Y013409D02*
X038184Y013409D01*
X038263Y013330D02*
X038628Y013330D01*
X038549Y013252D02*
X038341Y013252D01*
X038395Y013173D02*
X038495Y013173D01*
X038495Y013095D02*
X038395Y013095D01*
X038395Y013016D02*
X038495Y013016D01*
X038495Y012938D02*
X038395Y012938D01*
X038395Y012859D02*
X038495Y012859D01*
X038539Y012781D02*
X038351Y012781D01*
X038273Y012702D02*
X038618Y012702D01*
X038696Y012624D02*
X038194Y012624D01*
X038205Y012388D02*
X038686Y012388D01*
X038607Y012310D02*
X038283Y012310D01*
X038362Y012231D02*
X038529Y012231D01*
X038495Y012153D02*
X038395Y012153D01*
X038395Y012074D02*
X038495Y012074D01*
X038495Y011996D02*
X038395Y011996D01*
X038395Y011917D02*
X038495Y011917D01*
X038495Y011839D02*
X038395Y011839D01*
X038331Y011760D02*
X038560Y011760D01*
X038638Y011682D02*
X038252Y011682D01*
X038174Y011603D02*
X038717Y011603D01*
X038744Y011446D02*
X038147Y011446D01*
X038225Y011368D02*
X038665Y011368D01*
X038587Y011289D02*
X038304Y011289D01*
X038382Y011211D02*
X038508Y011211D01*
X038495Y011132D02*
X038395Y011132D01*
X038395Y011054D02*
X038495Y011054D01*
X038495Y010975D02*
X038395Y010975D01*
X038395Y010897D02*
X038495Y010897D01*
X038502Y010818D02*
X038389Y010818D01*
X038310Y010740D02*
X038580Y010740D01*
X038659Y010661D02*
X038232Y010661D01*
X038153Y010583D02*
X038737Y010583D01*
X038723Y010426D02*
X038372Y010426D01*
X038395Y010347D02*
X038645Y010347D01*
X038566Y010269D02*
X038395Y010269D01*
X038395Y010190D02*
X038495Y010190D01*
X038495Y010112D02*
X038395Y010112D01*
X038395Y010033D02*
X038495Y010033D01*
X038495Y009955D02*
X038395Y009955D01*
X038395Y009876D02*
X038495Y009876D01*
X038522Y009798D02*
X038395Y009798D01*
X038395Y009719D02*
X038601Y009719D01*
X038679Y009641D02*
X038395Y009641D01*
X039167Y010426D02*
X039293Y010426D01*
X039293Y010504D02*
X035943Y010504D01*
X037593Y011603D02*
X037717Y011603D01*
X037644Y011525D02*
X039293Y011525D01*
X039293Y011603D02*
X039174Y011603D01*
X039252Y011682D02*
X039293Y011682D01*
X039293Y011446D02*
X039147Y011446D01*
X039225Y011368D02*
X039293Y011368D01*
X039293Y010661D02*
X039232Y010661D01*
X039293Y010583D02*
X039153Y010583D01*
X039246Y010347D02*
X039293Y010347D01*
X037744Y011446D02*
X037722Y011446D01*
X037638Y011682D02*
X037593Y011682D01*
X037702Y012467D02*
X039293Y012467D01*
X039293Y012545D02*
X037623Y012545D01*
X037696Y012624D02*
X037545Y012624D01*
X037543Y012702D02*
X037618Y012702D01*
X039194Y012624D02*
X039293Y012624D01*
X039293Y012702D02*
X039273Y012702D01*
X039293Y012388D02*
X039205Y012388D01*
X039283Y012310D02*
X039293Y012310D01*
X039793Y013723D02*
X043136Y013723D01*
X043136Y013801D02*
X039793Y013801D01*
X039793Y013880D02*
X043136Y013880D01*
X043136Y013958D02*
X039793Y013958D01*
X039793Y014037D02*
X043136Y014037D01*
X043136Y014115D02*
X039793Y014115D01*
X039748Y014194D02*
X043136Y014194D01*
X043136Y014272D02*
X039670Y014272D01*
X039177Y015607D02*
X043136Y015607D01*
X043136Y015685D02*
X039256Y015685D01*
X039334Y015764D02*
X043136Y015764D01*
X043136Y015842D02*
X039395Y015842D01*
X039395Y015921D02*
X043136Y015921D01*
X043136Y015999D02*
X039395Y015999D01*
X039395Y016078D02*
X043136Y016078D01*
X043136Y016156D02*
X039395Y016156D01*
X039358Y016235D02*
X043136Y016235D01*
X043136Y016313D02*
X039280Y016313D01*
X039201Y016392D02*
X043136Y016392D01*
X043136Y016470D02*
X037443Y016470D01*
X037443Y016392D02*
X038689Y016392D01*
X038611Y016313D02*
X037443Y016313D01*
X037443Y016235D02*
X038532Y016235D01*
X038495Y016156D02*
X037443Y016156D01*
X037443Y016078D02*
X038495Y016078D01*
X038495Y015999D02*
X037443Y015999D01*
X037443Y015921D02*
X038495Y015921D01*
X038495Y015842D02*
X037443Y015842D01*
X037443Y015764D02*
X038556Y015764D01*
X038635Y015685D02*
X037443Y015685D01*
X037443Y016549D02*
X043136Y016549D01*
X043136Y016627D02*
X039198Y016627D01*
X039132Y016561D02*
X039395Y016825D01*
X039395Y017198D01*
X039132Y017461D01*
X038759Y017461D01*
X038495Y017198D01*
X038495Y016825D01*
X038759Y016561D01*
X039132Y016561D01*
X039276Y016706D02*
X043136Y016706D01*
X043136Y016784D02*
X039355Y016784D01*
X039395Y016863D02*
X043136Y016863D01*
X043136Y016941D02*
X039395Y016941D01*
X039395Y017020D02*
X043136Y017020D01*
X043136Y017098D02*
X039395Y017098D01*
X039395Y017177D02*
X043136Y017177D01*
X043136Y017255D02*
X039338Y017255D01*
X039259Y017334D02*
X043136Y017334D01*
X043136Y017412D02*
X039181Y017412D01*
X038710Y017412D02*
X037443Y017412D01*
X037443Y017334D02*
X038631Y017334D01*
X038553Y017255D02*
X037443Y017255D01*
X037443Y017177D02*
X038495Y017177D01*
X038495Y017098D02*
X037443Y017098D01*
X037443Y017020D02*
X038495Y017020D01*
X038495Y016941D02*
X037443Y016941D01*
X037443Y016863D02*
X038495Y016863D01*
X038536Y016784D02*
X037443Y016784D01*
X037443Y016706D02*
X038614Y016706D01*
X038693Y016627D02*
X037443Y016627D01*
X036343Y016706D02*
X031573Y016706D01*
X031652Y016784D02*
X036343Y016784D01*
X036343Y016863D02*
X031730Y016863D01*
X031809Y016941D02*
X036343Y016941D01*
X037443Y017491D02*
X043136Y017491D01*
X043136Y017569D02*
X037443Y017569D01*
X037443Y017648D02*
X043136Y017648D01*
X043136Y017726D02*
X037443Y017726D01*
X037443Y017805D02*
X043136Y017805D01*
X043136Y017883D02*
X037443Y017883D01*
X037443Y017962D02*
X043136Y017962D01*
X043136Y018040D02*
X037443Y018040D01*
X037443Y018119D02*
X043136Y018119D01*
X043136Y018197D02*
X037443Y018197D01*
X037443Y018276D02*
X043136Y018276D01*
X043136Y018354D02*
X037443Y018354D01*
X037443Y018433D02*
X043136Y018433D01*
X043136Y018511D02*
X037443Y018511D01*
X037443Y018590D02*
X043136Y018590D01*
X043136Y018668D02*
X037443Y018668D01*
X037443Y018747D02*
X043136Y018747D01*
X043136Y018825D02*
X037443Y018825D01*
X037443Y018904D02*
X043136Y018904D01*
X043136Y018982D02*
X037443Y018982D01*
X037443Y019061D02*
X043136Y019061D01*
X043136Y019139D02*
X037443Y019139D01*
X037443Y019218D02*
X043136Y019218D01*
X043136Y019296D02*
X037443Y019296D01*
X037443Y019375D02*
X043136Y019375D01*
X043136Y019453D02*
X037443Y019453D01*
X037443Y019532D02*
X043136Y019532D01*
X043136Y019610D02*
X037443Y019610D01*
X037443Y019689D02*
X043136Y019689D01*
X043136Y019767D02*
X042465Y019767D01*
X042421Y019749D02*
X042661Y019849D01*
X042844Y020032D01*
X042943Y020272D01*
X042943Y020531D01*
X042844Y020770D01*
X042661Y020954D01*
X042421Y021053D01*
X042162Y021053D01*
X041922Y020954D01*
X041739Y020770D01*
X041640Y020531D01*
X041640Y020272D01*
X041739Y020032D01*
X041922Y019849D01*
X042162Y019749D01*
X042421Y019749D01*
X042654Y019846D02*
X043136Y019846D01*
X043136Y019924D02*
X042737Y019924D01*
X042815Y020003D02*
X043136Y020003D01*
X043136Y020081D02*
X042865Y020081D01*
X042897Y020160D02*
X043136Y020160D01*
X043136Y020238D02*
X042930Y020238D01*
X042943Y020317D02*
X043136Y020317D01*
X043136Y020395D02*
X042943Y020395D01*
X042943Y020474D02*
X043136Y020474D01*
X043136Y020552D02*
X042934Y020552D01*
X042902Y020631D02*
X043136Y020631D01*
X043136Y020709D02*
X042869Y020709D01*
X042827Y020788D02*
X043136Y020788D01*
X043136Y020866D02*
X042748Y020866D01*
X042670Y020945D02*
X043136Y020945D01*
X043136Y021023D02*
X042493Y021023D01*
X042091Y021023D02*
X040770Y021023D01*
X040835Y020996D02*
X040663Y021068D01*
X040476Y021068D01*
X040303Y020996D01*
X040171Y020864D01*
X040099Y020692D01*
X040099Y020505D01*
X040171Y020332D01*
X040303Y020200D01*
X040476Y020128D01*
X040663Y020128D01*
X040835Y020200D01*
X040968Y020332D01*
X041039Y020505D01*
X041039Y020692D01*
X040968Y020864D01*
X040835Y020996D01*
X040887Y020945D02*
X041914Y020945D01*
X041835Y020866D02*
X040965Y020866D01*
X040999Y020788D02*
X041757Y020788D01*
X041714Y020709D02*
X041032Y020709D01*
X041039Y020631D02*
X041681Y020631D01*
X041649Y020552D02*
X041039Y020552D01*
X041026Y020474D02*
X041640Y020474D01*
X041640Y020395D02*
X040994Y020395D01*
X040953Y020317D02*
X041640Y020317D01*
X041653Y020238D02*
X040874Y020238D01*
X040740Y020160D02*
X041686Y020160D01*
X041719Y020081D02*
X037443Y020081D01*
X037443Y020003D02*
X041768Y020003D01*
X041847Y019924D02*
X037443Y019924D01*
X037443Y019846D02*
X041929Y019846D01*
X042118Y019767D02*
X037443Y019767D01*
X037443Y020160D02*
X039259Y020160D01*
X039336Y020128D02*
X039523Y020128D01*
X039695Y020200D01*
X039828Y020332D01*
X039899Y020505D01*
X039899Y020692D01*
X039828Y020864D01*
X039695Y020996D01*
X039523Y021068D01*
X039336Y021068D01*
X039163Y020996D01*
X039031Y020864D01*
X038959Y020692D01*
X038959Y020505D01*
X039031Y020332D01*
X039163Y020200D01*
X039336Y020128D01*
X039124Y020238D02*
X037443Y020238D01*
X037443Y020317D02*
X039045Y020317D01*
X039004Y020395D02*
X037443Y020395D01*
X037443Y020474D02*
X038972Y020474D01*
X038959Y020552D02*
X037443Y020552D01*
X037443Y020631D02*
X038959Y020631D01*
X038967Y020709D02*
X037443Y020709D01*
X037443Y020788D02*
X038999Y020788D01*
X039033Y020866D02*
X037443Y020866D01*
X037397Y020945D02*
X039111Y020945D01*
X039228Y021023D02*
X037319Y021023D01*
X037240Y021102D02*
X043136Y021102D01*
X043136Y021245D02*
X007983Y021245D01*
X007983Y021180D02*
X029724Y021180D01*
X029645Y021102D02*
X007983Y021102D01*
X026361Y021023D02*
X029567Y021023D01*
X029488Y020945D02*
X026439Y020945D01*
X026518Y020866D02*
X029410Y020866D01*
X029331Y020788D02*
X026596Y020788D01*
X026600Y020709D02*
X029253Y020709D01*
X029174Y020631D02*
X026600Y020631D01*
X026600Y020552D02*
X029096Y020552D01*
X029017Y020474D02*
X026600Y020474D01*
X026584Y020395D02*
X028939Y020395D01*
X028860Y020317D02*
X026505Y020317D01*
X026427Y020238D02*
X028782Y020238D01*
X028703Y020160D02*
X026348Y020160D01*
X039600Y020160D02*
X040399Y020160D01*
X040264Y020238D02*
X039734Y020238D01*
X039813Y020317D02*
X040185Y020317D01*
X040144Y020395D02*
X039854Y020395D01*
X039886Y020474D02*
X040112Y020474D01*
X040099Y020552D02*
X039899Y020552D01*
X039899Y020631D02*
X040099Y020631D01*
X040107Y020709D02*
X039892Y020709D01*
X039859Y020788D02*
X040139Y020788D01*
X040173Y020866D02*
X039825Y020866D01*
X039747Y020945D02*
X040251Y020945D01*
X040368Y021023D02*
X039630Y021023D01*
D26*
X032093Y012887D02*
X031743Y012887D01*
X031293Y012887D01*
X031143Y012737D01*
X031143Y009237D01*
X030543Y008637D01*
X029521Y008437D02*
X029496Y008413D01*
X032043Y010937D02*
X032263Y011158D01*
X032859Y011158D01*
X032859Y011532D02*
X032048Y011532D01*
X032043Y011537D01*
X032274Y011906D02*
X032043Y012137D01*
X032274Y011906D02*
X032859Y011906D01*
X034177Y011906D02*
X034177Y011532D01*
X034177Y011158D01*
X034177Y010503D01*
X034293Y010387D01*
X035143Y010387D01*
X023243Y008087D02*
X023243Y006737D01*
X023243Y006287D02*
X022893Y005937D01*
X020743Y005937D01*
X020543Y006137D01*
X020543Y007587D01*
X021093Y008137D01*
X020543Y007587D02*
X017293Y007587D01*
X017193Y007687D01*
X017193Y008187D01*
X017075Y008205D01*
X017075Y008170D01*
X016993Y008087D01*
X016693Y008087D01*
X016293Y008087D01*
X016248Y008132D01*
X016248Y008787D01*
X016248Y010040D01*
X013846Y010040D01*
X013843Y010037D01*
X013843Y009487D01*
X013843Y007537D01*
X013543Y007237D01*
X012843Y007237D01*
X012435Y006830D01*
X012435Y006475D01*
X017075Y008205D02*
X017075Y008787D01*
X016248Y010040D02*
X016248Y010993D01*
X018143Y012887D01*
X018243Y012887D01*
X018793Y013437D01*
X018793Y014587D01*
X018143Y012887D02*
X017193Y012887D01*
X013843Y012087D02*
X013843Y014687D01*
X013843Y017137D01*
X013843Y017187D02*
X013843Y017637D01*
X013993Y017787D01*
X013993Y018737D01*
X014143Y018887D01*
X016193Y018887D01*
X021093Y018887D01*
X021543Y018437D01*
X024043Y018437D01*
X013843Y012087D02*
X013843Y010037D01*
X022311Y008787D02*
X022311Y008269D01*
X022393Y008187D01*
X022843Y008187D01*
X022843Y007622D01*
X023243Y008087D02*
X023143Y008187D01*
X022843Y008187D01*
M02*
