G75*
G70*
%OFA0B0*%
%FSLAX24Y24*%
%IPPOS*%
%LPD*%
%AMOC8*
5,1,8,0,0,1.08239X$1,22.5*
%
%ADD10C,0.1064*%
%ADD11R,0.0316X0.0512*%
%ADD12R,0.0434X0.0512*%
%ADD13R,0.0434X0.0788*%
%ADD14R,0.0434X0.0355*%
%ADD15R,0.0434X0.1142*%
%ADD16R,0.0473X0.0434*%
%ADD17R,0.0631X0.0237*%
%ADD18R,0.0237X0.0631*%
%ADD19R,0.0276X0.0453*%
%ADD20R,0.0631X0.0867*%
%ADD21R,0.1615X0.0749*%
%ADD22R,0.1064X0.0591*%
%ADD23R,0.0749X0.0670*%
%ADD24R,0.0434X0.0473*%
%ADD25R,0.0591X0.0434*%
%ADD26OC8,0.1040*%
%ADD27OC8,0.0740*%
%ADD28C,0.1300*%
%ADD29OC8,0.0700*%
%ADD30R,0.0700X0.0700*%
%ADD31R,0.0788X0.0788*%
%ADD32R,0.0788X0.0473*%
%ADD33R,0.0788X0.1812*%
%ADD34C,0.0780*%
%ADD35R,0.0906X0.0276*%
%ADD36R,0.0740X0.0740*%
%ADD37R,0.0670X0.0749*%
%ADD38R,0.0946X0.0617*%
%ADD39R,0.0867X0.0481*%
%ADD40R,0.0867X0.0491*%
%ADD41R,0.0501X0.0827*%
%ADD42C,0.0512*%
%ADD43C,0.0540*%
%ADD44R,0.0540X0.0290*%
D10*
X008827Y006622D03*
X008827Y020401D03*
X042292Y020401D03*
X042292Y006622D03*
D11*
X020126Y014850D03*
X019693Y014850D03*
X019260Y014850D03*
X018827Y014850D03*
X018394Y014850D03*
X017961Y014850D03*
X017528Y014850D03*
X017095Y014850D03*
X016662Y014850D03*
D12*
X016485Y016543D03*
X020736Y014850D03*
D13*
X021662Y020795D03*
D14*
X016485Y018984D03*
D15*
X016485Y020618D03*
D16*
X013843Y018122D03*
X013843Y017453D03*
X013843Y015622D03*
X013843Y014953D03*
X015943Y014953D03*
X015943Y015622D03*
G36*
X016943Y013894D02*
X017276Y013561D01*
X016969Y013254D01*
X016636Y013587D01*
X016943Y013894D01*
G37*
G36*
X017416Y013421D02*
X017749Y013088D01*
X017442Y012781D01*
X017109Y013114D01*
X017416Y013421D01*
G37*
X014403Y013324D03*
X013843Y013022D03*
X014403Y012654D03*
X013843Y012353D03*
X013793Y010522D03*
X013793Y009853D03*
G36*
X014876Y009364D02*
X014543Y009031D01*
X014236Y009338D01*
X014569Y009671D01*
X014876Y009364D01*
G37*
G36*
X015349Y009837D02*
X015016Y009504D01*
X014709Y009811D01*
X015042Y010144D01*
X015349Y009837D01*
G37*
G36*
X016159Y008261D02*
X016492Y008594D01*
X016799Y008287D01*
X016466Y007954D01*
X016159Y008261D01*
G37*
G36*
X015686Y007788D02*
X016019Y008121D01*
X016326Y007814D01*
X015993Y007481D01*
X015686Y007788D01*
G37*
G36*
X016086Y007388D02*
X016419Y007721D01*
X016726Y007414D01*
X016393Y007081D01*
X016086Y007388D01*
G37*
G36*
X016559Y007861D02*
X016892Y008194D01*
X017199Y007887D01*
X016866Y007554D01*
X016559Y007861D01*
G37*
X013793Y007922D03*
X013793Y007253D03*
X010543Y007122D03*
X010543Y006453D03*
G36*
X021769Y008054D02*
X021436Y008387D01*
X021743Y008694D01*
X022076Y008361D01*
X021769Y008054D01*
G37*
G36*
X022242Y007581D02*
X021909Y007914D01*
X022216Y008221D01*
X022549Y007888D01*
X022242Y007581D01*
G37*
X024772Y007665D03*
X024772Y008334D03*
X026347Y008334D03*
X026347Y007665D03*
X027922Y007665D03*
X027922Y008334D03*
X029496Y008334D03*
X029496Y007665D03*
X025443Y010503D03*
X025443Y011172D03*
X023482Y012602D03*
X023482Y013271D03*
X025543Y015553D03*
X026143Y015553D03*
X026143Y016222D03*
X026158Y016737D03*
X026827Y016737D03*
X027508Y016737D03*
X028177Y016737D03*
X028193Y016222D03*
X028743Y016222D03*
X028743Y015553D03*
X028193Y015553D03*
X030008Y015437D03*
X030043Y016053D03*
X030677Y015437D03*
X032493Y015953D03*
X032493Y016622D03*
X030043Y016722D03*
X027427Y019187D03*
X026758Y019187D03*
X026151Y019184D03*
X026151Y019853D03*
X025543Y016222D03*
X035958Y020637D03*
X036627Y020637D03*
X036493Y014622D03*
X036493Y013953D03*
X036493Y013322D03*
X036493Y012653D03*
X036193Y009722D03*
X036193Y009053D03*
D17*
G36*
X021765Y011100D02*
X022210Y011545D01*
X022377Y011378D01*
X021932Y010933D01*
X021765Y011100D01*
G37*
G36*
X021542Y011322D02*
X021987Y011767D01*
X022154Y011600D01*
X021709Y011155D01*
X021542Y011322D01*
G37*
G36*
X021320Y011545D02*
X021765Y011990D01*
X021932Y011823D01*
X021487Y011378D01*
X021320Y011545D01*
G37*
G36*
X021097Y011768D02*
X021542Y012213D01*
X021709Y012046D01*
X021264Y011601D01*
X021097Y011768D01*
G37*
G36*
X020874Y011990D02*
X021319Y012435D01*
X021486Y012268D01*
X021041Y011823D01*
X020874Y011990D01*
G37*
G36*
X020651Y012213D02*
X021096Y012658D01*
X021263Y012491D01*
X020818Y012046D01*
X020651Y012213D01*
G37*
G36*
X020429Y012436D02*
X020874Y012881D01*
X021041Y012714D01*
X020596Y012269D01*
X020429Y012436D01*
G37*
G36*
X020206Y012658D02*
X020651Y013103D01*
X020818Y012936D01*
X020373Y012491D01*
X020206Y012658D01*
G37*
G36*
X019983Y012881D02*
X020428Y013326D01*
X020595Y013159D01*
X020150Y012714D01*
X019983Y012881D01*
G37*
G36*
X019761Y013104D02*
X020206Y013549D01*
X020373Y013382D01*
X019928Y012937D01*
X019761Y013104D01*
G37*
G36*
X019538Y013327D02*
X019983Y013772D01*
X020150Y013605D01*
X019705Y013160D01*
X019538Y013327D01*
G37*
G36*
X016309Y010097D02*
X016754Y010542D01*
X016921Y010375D01*
X016476Y009930D01*
X016309Y010097D01*
G37*
G36*
X016531Y009875D02*
X016976Y010320D01*
X017143Y010153D01*
X016698Y009708D01*
X016531Y009875D01*
G37*
G36*
X016754Y009652D02*
X017199Y010097D01*
X017366Y009930D01*
X016921Y009485D01*
X016754Y009652D01*
G37*
G36*
X016977Y009429D02*
X017422Y009874D01*
X017589Y009707D01*
X017144Y009262D01*
X016977Y009429D01*
G37*
G36*
X017199Y009206D02*
X017644Y009651D01*
X017811Y009484D01*
X017366Y009039D01*
X017199Y009206D01*
G37*
G36*
X017422Y008984D02*
X017867Y009429D01*
X018034Y009262D01*
X017589Y008817D01*
X017422Y008984D01*
G37*
G36*
X017645Y008761D02*
X018090Y009206D01*
X018257Y009039D01*
X017812Y008594D01*
X017645Y008761D01*
G37*
G36*
X017868Y008538D02*
X018313Y008983D01*
X018480Y008816D01*
X018035Y008371D01*
X017868Y008538D01*
G37*
G36*
X018090Y008316D02*
X018535Y008761D01*
X018702Y008594D01*
X018257Y008149D01*
X018090Y008316D01*
G37*
G36*
X018313Y008093D02*
X018758Y008538D01*
X018925Y008371D01*
X018480Y007926D01*
X018313Y008093D01*
G37*
G36*
X018536Y007870D02*
X018981Y008315D01*
X019148Y008148D01*
X018703Y007703D01*
X018536Y007870D01*
G37*
D18*
G36*
X019538Y008148D02*
X019705Y008315D01*
X020150Y007870D01*
X019983Y007703D01*
X019538Y008148D01*
G37*
G36*
X019761Y008371D02*
X019928Y008538D01*
X020373Y008093D01*
X020206Y007926D01*
X019761Y008371D01*
G37*
G36*
X019983Y008594D02*
X020150Y008761D01*
X020595Y008316D01*
X020428Y008149D01*
X019983Y008594D01*
G37*
G36*
X020206Y008816D02*
X020373Y008983D01*
X020818Y008538D01*
X020651Y008371D01*
X020206Y008816D01*
G37*
G36*
X020429Y009039D02*
X020596Y009206D01*
X021041Y008761D01*
X020874Y008594D01*
X020429Y009039D01*
G37*
G36*
X020651Y009262D02*
X020818Y009429D01*
X021263Y008984D01*
X021096Y008817D01*
X020651Y009262D01*
G37*
G36*
X020874Y009484D02*
X021041Y009651D01*
X021486Y009206D01*
X021319Y009039D01*
X020874Y009484D01*
G37*
G36*
X021097Y009707D02*
X021264Y009874D01*
X021709Y009429D01*
X021542Y009262D01*
X021097Y009707D01*
G37*
G36*
X021320Y009930D02*
X021487Y010097D01*
X021932Y009652D01*
X021765Y009485D01*
X021320Y009930D01*
G37*
G36*
X021542Y010153D02*
X021709Y010320D01*
X022154Y009875D01*
X021987Y009708D01*
X021542Y010153D01*
G37*
G36*
X021765Y010375D02*
X021932Y010542D01*
X022377Y010097D01*
X022210Y009930D01*
X021765Y010375D01*
G37*
G36*
X017868Y012936D02*
X018035Y013103D01*
X018480Y012658D01*
X018313Y012491D01*
X017868Y012936D01*
G37*
G36*
X017645Y012714D02*
X017812Y012881D01*
X018257Y012436D01*
X018090Y012269D01*
X017645Y012714D01*
G37*
G36*
X017422Y012491D02*
X017589Y012658D01*
X018034Y012213D01*
X017867Y012046D01*
X017422Y012491D01*
G37*
G36*
X017199Y012268D02*
X017366Y012435D01*
X017811Y011990D01*
X017644Y011823D01*
X017199Y012268D01*
G37*
G36*
X016977Y012046D02*
X017144Y012213D01*
X017589Y011768D01*
X017422Y011601D01*
X016977Y012046D01*
G37*
G36*
X016754Y011823D02*
X016921Y011990D01*
X017366Y011545D01*
X017199Y011378D01*
X016754Y011823D01*
G37*
G36*
X016531Y011600D02*
X016698Y011767D01*
X017143Y011322D01*
X016976Y011155D01*
X016531Y011600D01*
G37*
G36*
X016309Y011378D02*
X016476Y011545D01*
X016921Y011100D01*
X016754Y010933D01*
X016309Y011378D01*
G37*
G36*
X018090Y013159D02*
X018257Y013326D01*
X018702Y012881D01*
X018535Y012714D01*
X018090Y013159D01*
G37*
G36*
X018313Y013382D02*
X018480Y013549D01*
X018925Y013104D01*
X018758Y012937D01*
X018313Y013382D01*
G37*
G36*
X018536Y013605D02*
X018703Y013772D01*
X019148Y013327D01*
X018981Y013160D01*
X018536Y013605D01*
G37*
D19*
X035019Y010919D03*
X035393Y010919D03*
X035767Y010919D03*
X035767Y009856D03*
X035019Y009856D03*
D20*
X033901Y012937D03*
X032484Y012937D03*
X034884Y016987D03*
X036301Y016987D03*
D21*
X033343Y011872D03*
X033343Y009903D03*
D22*
X032986Y007287D03*
X034600Y007287D03*
D23*
X031743Y007286D03*
X031743Y008389D03*
X032443Y013936D03*
X032443Y015039D03*
X022443Y013839D03*
X022443Y012736D03*
D24*
X026143Y011172D03*
X026143Y010503D03*
X026127Y009937D03*
X025458Y009937D03*
X030759Y010940D03*
X031428Y010940D03*
X031428Y011515D03*
X030759Y011515D03*
X030759Y012141D03*
X031428Y012141D03*
X030677Y014887D03*
X030008Y014887D03*
X030643Y016053D03*
X030643Y016722D03*
X035258Y016137D03*
X035927Y016137D03*
X035893Y014622D03*
X035893Y013953D03*
X036658Y017937D03*
X037327Y017937D03*
X037458Y020637D03*
X038127Y020637D03*
X027377Y019837D03*
X026708Y019837D03*
D25*
X033210Y017361D03*
X034076Y016987D03*
X033210Y016613D03*
X027585Y012865D03*
X028451Y012491D03*
X028335Y011889D03*
X028335Y011141D03*
X028451Y010540D03*
X027585Y010166D03*
X027585Y010914D03*
X027585Y012117D03*
X029201Y011515D03*
D26*
X029634Y010043D03*
X029634Y013043D03*
X033827Y015478D03*
X033827Y019418D03*
X024634Y013043D03*
X024634Y010043D03*
D27*
X026150Y014889D03*
X027134Y014889D03*
X028118Y014889D03*
X037945Y015011D03*
X038945Y015011D03*
X038945Y016011D03*
X037945Y016011D03*
X037945Y017011D03*
X038945Y017011D03*
X038945Y014011D03*
X037945Y014011D03*
X037945Y013011D03*
X038945Y013011D03*
X038945Y012011D03*
X037945Y012011D03*
X037945Y011011D03*
X038945Y011011D03*
X038945Y010011D03*
X028118Y020598D03*
X026150Y020598D03*
D28*
X024969Y017842D03*
X029299Y017842D03*
D29*
X013093Y018736D03*
X013093Y016374D03*
X013093Y014011D03*
X013093Y011649D03*
X013093Y009287D03*
D30*
X013093Y008287D03*
X013093Y010649D03*
X013093Y013011D03*
X013093Y015374D03*
X013093Y017736D03*
D31*
X038543Y008750D03*
X038543Y006624D03*
D32*
X038543Y007687D03*
G36*
X015883Y008821D02*
X016439Y009377D01*
X016773Y009043D01*
X016217Y008487D01*
X015883Y008821D01*
G37*
G36*
X015243Y009462D02*
X015799Y010018D01*
X016133Y009684D01*
X015577Y009128D01*
X015243Y009462D01*
G37*
G36*
X014213Y008432D02*
X014769Y008988D01*
X015103Y008654D01*
X014547Y008098D01*
X014213Y008432D01*
G37*
G36*
X014853Y007791D02*
X015409Y008347D01*
X015743Y008013D01*
X015187Y007457D01*
X014853Y007791D01*
G37*
D33*
X036102Y007687D03*
D34*
X015435Y006375D03*
X014435Y006475D03*
X013435Y006375D03*
X012435Y006475D03*
X011435Y006375D03*
X010876Y020548D03*
X011876Y020648D03*
X012876Y020548D03*
X039429Y020598D03*
X040569Y020598D03*
D35*
X038066Y020037D03*
X038066Y019537D03*
X038066Y019037D03*
X038066Y018537D03*
X036019Y018537D03*
X036019Y019037D03*
X036019Y019537D03*
X036019Y020037D03*
D36*
X037945Y010011D03*
D37*
X033894Y008937D03*
X032792Y008937D03*
D38*
X032627Y019887D03*
X030303Y019894D03*
D39*
X032465Y017945D03*
D40*
X030465Y017965D03*
D41*
X031465Y016921D03*
D42*
X031465Y018713D03*
X031465Y020287D03*
D43*
X036493Y015287D03*
X036543Y011187D03*
X035443Y008737D03*
D44*
X031543Y014080D03*
X031543Y014400D03*
X030643Y014395D03*
X030643Y014075D03*
M02*
