G75*
G70*
%OFA0B0*%
%FSLAX24Y24*%
%IPPOS*%
%LPD*%
%AMOC8*
5,1,8,0,0,1.08239X$1,22.5*
%
%ADD10R,0.0276X0.0472*%
%ADD11R,0.0394X0.0472*%
%ADD12R,0.0394X0.0748*%
%ADD13R,0.0394X0.0315*%
%ADD14R,0.0394X0.1102*%
%ADD15R,0.0433X0.0394*%
%ADD16R,0.0591X0.0197*%
%ADD17R,0.0197X0.0591*%
%ADD18R,0.0236X0.0413*%
%ADD19R,0.0591X0.0827*%
%ADD20R,0.1575X0.0709*%
%ADD21R,0.1024X0.0551*%
%ADD22R,0.0709X0.0630*%
%ADD23R,0.0394X0.0433*%
%ADD24R,0.0551X0.0394*%
%ADD25OC8,0.1000*%
%ADD26OC8,0.0700*%
%ADD27OC8,0.0660*%
%ADD28R,0.0660X0.0660*%
%ADD29R,0.0748X0.0748*%
%ADD30R,0.0748X0.0433*%
%ADD31R,0.0748X0.1772*%
%ADD32C,0.0740*%
%ADD33R,0.0866X0.0236*%
%ADD34R,0.0700X0.0700*%
%ADD35R,0.0630X0.0709*%
%ADD36R,0.0906X0.0577*%
%ADD37R,0.0827X0.0441*%
%ADD38R,0.0827X0.0451*%
%ADD39R,0.0461X0.0787*%
%ADD40C,0.0500*%
%ADD41R,0.0500X0.0250*%
%ADD42C,0.0100*%
%ADD43OC8,0.0240*%
%ADD44C,0.0080*%
%ADD45C,0.0240*%
%ADD46C,0.0120*%
%ADD47C,0.0160*%
D10*
X016662Y014850D03*
X017095Y014850D03*
X017528Y014850D03*
X017961Y014850D03*
X018394Y014850D03*
X018827Y014850D03*
X019260Y014850D03*
X019693Y014850D03*
X020126Y014850D03*
D11*
X020736Y014850D03*
X016485Y016543D03*
D12*
X021662Y020795D03*
D13*
X016485Y018984D03*
D14*
X016485Y020618D03*
D15*
X013843Y018122D03*
X013843Y017453D03*
X013843Y015622D03*
X013843Y014953D03*
X015943Y014953D03*
X015943Y015622D03*
G36*
X016943Y013866D02*
X017248Y013561D01*
X016969Y013282D01*
X016664Y013587D01*
X016943Y013866D01*
G37*
G36*
X017416Y013393D02*
X017721Y013088D01*
X017442Y012809D01*
X017137Y013114D01*
X017416Y013393D01*
G37*
X014403Y013324D03*
X013843Y013022D03*
X014403Y012654D03*
X013843Y012353D03*
X013793Y010522D03*
X013793Y009853D03*
G36*
X014848Y009364D02*
X014543Y009059D01*
X014264Y009338D01*
X014569Y009643D01*
X014848Y009364D01*
G37*
G36*
X015321Y009837D02*
X015016Y009532D01*
X014737Y009811D01*
X015042Y010116D01*
X015321Y009837D01*
G37*
G36*
X016187Y008261D02*
X016492Y008566D01*
X016771Y008287D01*
X016466Y007982D01*
X016187Y008261D01*
G37*
G36*
X015714Y007788D02*
X016019Y008093D01*
X016298Y007814D01*
X015993Y007509D01*
X015714Y007788D01*
G37*
G36*
X016114Y007388D02*
X016419Y007693D01*
X016698Y007414D01*
X016393Y007109D01*
X016114Y007388D01*
G37*
G36*
X016587Y007861D02*
X016892Y008166D01*
X017171Y007887D01*
X016866Y007582D01*
X016587Y007861D01*
G37*
X013793Y007922D03*
X013793Y007253D03*
X010543Y007122D03*
X010543Y006453D03*
G36*
X021769Y008082D02*
X021464Y008387D01*
X021743Y008666D01*
X022048Y008361D01*
X021769Y008082D01*
G37*
G36*
X022242Y007609D02*
X021937Y007914D01*
X022216Y008193D01*
X022521Y007888D01*
X022242Y007609D01*
G37*
X024772Y007665D03*
X024772Y008334D03*
X026347Y008334D03*
X026347Y007665D03*
X027922Y007665D03*
X027922Y008334D03*
X029496Y008334D03*
X029496Y007665D03*
X025443Y010503D03*
X025443Y011172D03*
X023482Y012602D03*
X023482Y013271D03*
X025543Y015553D03*
X026143Y015553D03*
X026143Y016222D03*
X026158Y016737D03*
X026827Y016737D03*
X027508Y016737D03*
X028177Y016737D03*
X028193Y016222D03*
X028743Y016222D03*
X028743Y015553D03*
X028193Y015553D03*
X030008Y015437D03*
X030043Y016053D03*
X030677Y015437D03*
X032493Y015953D03*
X032493Y016622D03*
X030043Y016722D03*
X027427Y019187D03*
X026758Y019187D03*
X026151Y019184D03*
X026151Y019853D03*
X025543Y016222D03*
X035958Y020637D03*
X036627Y020637D03*
X036493Y014622D03*
X036493Y013953D03*
X036493Y013322D03*
X036493Y012653D03*
X036193Y009722D03*
X036193Y009053D03*
D16*
G36*
X021794Y011100D02*
X022210Y011516D01*
X022348Y011378D01*
X021932Y010962D01*
X021794Y011100D01*
G37*
G36*
X021571Y011322D02*
X021987Y011738D01*
X022125Y011600D01*
X021709Y011184D01*
X021571Y011322D01*
G37*
G36*
X021349Y011545D02*
X021765Y011961D01*
X021903Y011823D01*
X021487Y011407D01*
X021349Y011545D01*
G37*
G36*
X021126Y011768D02*
X021542Y012184D01*
X021680Y012046D01*
X021264Y011630D01*
X021126Y011768D01*
G37*
G36*
X020903Y011990D02*
X021319Y012406D01*
X021457Y012268D01*
X021041Y011852D01*
X020903Y011990D01*
G37*
G36*
X020680Y012213D02*
X021096Y012629D01*
X021234Y012491D01*
X020818Y012075D01*
X020680Y012213D01*
G37*
G36*
X020458Y012436D02*
X020874Y012852D01*
X021012Y012714D01*
X020596Y012298D01*
X020458Y012436D01*
G37*
G36*
X020235Y012658D02*
X020651Y013074D01*
X020789Y012936D01*
X020373Y012520D01*
X020235Y012658D01*
G37*
G36*
X020012Y012881D02*
X020428Y013297D01*
X020566Y013159D01*
X020150Y012743D01*
X020012Y012881D01*
G37*
G36*
X019790Y013104D02*
X020206Y013520D01*
X020344Y013382D01*
X019928Y012966D01*
X019790Y013104D01*
G37*
G36*
X019567Y013327D02*
X019983Y013743D01*
X020121Y013605D01*
X019705Y013189D01*
X019567Y013327D01*
G37*
G36*
X016338Y010097D02*
X016754Y010513D01*
X016892Y010375D01*
X016476Y009959D01*
X016338Y010097D01*
G37*
G36*
X016560Y009875D02*
X016976Y010291D01*
X017114Y010153D01*
X016698Y009737D01*
X016560Y009875D01*
G37*
G36*
X016783Y009652D02*
X017199Y010068D01*
X017337Y009930D01*
X016921Y009514D01*
X016783Y009652D01*
G37*
G36*
X017006Y009429D02*
X017422Y009845D01*
X017560Y009707D01*
X017144Y009291D01*
X017006Y009429D01*
G37*
G36*
X017228Y009206D02*
X017644Y009622D01*
X017782Y009484D01*
X017366Y009068D01*
X017228Y009206D01*
G37*
G36*
X017451Y008984D02*
X017867Y009400D01*
X018005Y009262D01*
X017589Y008846D01*
X017451Y008984D01*
G37*
G36*
X017674Y008761D02*
X018090Y009177D01*
X018228Y009039D01*
X017812Y008623D01*
X017674Y008761D01*
G37*
G36*
X017897Y008538D02*
X018313Y008954D01*
X018451Y008816D01*
X018035Y008400D01*
X017897Y008538D01*
G37*
G36*
X018119Y008316D02*
X018535Y008732D01*
X018673Y008594D01*
X018257Y008178D01*
X018119Y008316D01*
G37*
G36*
X018342Y008093D02*
X018758Y008509D01*
X018896Y008371D01*
X018480Y007955D01*
X018342Y008093D01*
G37*
G36*
X018565Y007870D02*
X018981Y008286D01*
X019119Y008148D01*
X018703Y007732D01*
X018565Y007870D01*
G37*
D17*
G36*
X019567Y008148D02*
X019705Y008286D01*
X020121Y007870D01*
X019983Y007732D01*
X019567Y008148D01*
G37*
G36*
X019790Y008371D02*
X019928Y008509D01*
X020344Y008093D01*
X020206Y007955D01*
X019790Y008371D01*
G37*
G36*
X020012Y008594D02*
X020150Y008732D01*
X020566Y008316D01*
X020428Y008178D01*
X020012Y008594D01*
G37*
G36*
X020235Y008816D02*
X020373Y008954D01*
X020789Y008538D01*
X020651Y008400D01*
X020235Y008816D01*
G37*
G36*
X020458Y009039D02*
X020596Y009177D01*
X021012Y008761D01*
X020874Y008623D01*
X020458Y009039D01*
G37*
G36*
X020680Y009262D02*
X020818Y009400D01*
X021234Y008984D01*
X021096Y008846D01*
X020680Y009262D01*
G37*
G36*
X020903Y009484D02*
X021041Y009622D01*
X021457Y009206D01*
X021319Y009068D01*
X020903Y009484D01*
G37*
G36*
X021126Y009707D02*
X021264Y009845D01*
X021680Y009429D01*
X021542Y009291D01*
X021126Y009707D01*
G37*
G36*
X021349Y009930D02*
X021487Y010068D01*
X021903Y009652D01*
X021765Y009514D01*
X021349Y009930D01*
G37*
G36*
X021571Y010153D02*
X021709Y010291D01*
X022125Y009875D01*
X021987Y009737D01*
X021571Y010153D01*
G37*
G36*
X021794Y010375D02*
X021932Y010513D01*
X022348Y010097D01*
X022210Y009959D01*
X021794Y010375D01*
G37*
G36*
X017897Y012936D02*
X018035Y013074D01*
X018451Y012658D01*
X018313Y012520D01*
X017897Y012936D01*
G37*
G36*
X017674Y012714D02*
X017812Y012852D01*
X018228Y012436D01*
X018090Y012298D01*
X017674Y012714D01*
G37*
G36*
X017451Y012491D02*
X017589Y012629D01*
X018005Y012213D01*
X017867Y012075D01*
X017451Y012491D01*
G37*
G36*
X017228Y012268D02*
X017366Y012406D01*
X017782Y011990D01*
X017644Y011852D01*
X017228Y012268D01*
G37*
G36*
X017006Y012046D02*
X017144Y012184D01*
X017560Y011768D01*
X017422Y011630D01*
X017006Y012046D01*
G37*
G36*
X016783Y011823D02*
X016921Y011961D01*
X017337Y011545D01*
X017199Y011407D01*
X016783Y011823D01*
G37*
G36*
X016560Y011600D02*
X016698Y011738D01*
X017114Y011322D01*
X016976Y011184D01*
X016560Y011600D01*
G37*
G36*
X016338Y011378D02*
X016476Y011516D01*
X016892Y011100D01*
X016754Y010962D01*
X016338Y011378D01*
G37*
G36*
X018119Y013159D02*
X018257Y013297D01*
X018673Y012881D01*
X018535Y012743D01*
X018119Y013159D01*
G37*
G36*
X018342Y013382D02*
X018480Y013520D01*
X018896Y013104D01*
X018758Y012966D01*
X018342Y013382D01*
G37*
G36*
X018565Y013605D02*
X018703Y013743D01*
X019119Y013327D01*
X018981Y013189D01*
X018565Y013605D01*
G37*
D18*
X035019Y010919D03*
X035393Y010919D03*
X035767Y010919D03*
X035767Y009856D03*
X035019Y009856D03*
D19*
X033901Y012937D03*
X032484Y012937D03*
X034884Y016987D03*
X036301Y016987D03*
D20*
X033343Y011872D03*
X033343Y009903D03*
D21*
X032986Y007287D03*
X034600Y007287D03*
D22*
X031743Y007286D03*
X031743Y008389D03*
X032443Y013936D03*
X032443Y015039D03*
X022443Y013839D03*
X022443Y012736D03*
D23*
X026143Y011172D03*
X026143Y010503D03*
X026127Y009937D03*
X025458Y009937D03*
X030759Y010940D03*
X031428Y010940D03*
X031428Y011515D03*
X030759Y011515D03*
X030759Y012141D03*
X031428Y012141D03*
X030677Y014887D03*
X030008Y014887D03*
X030643Y016053D03*
X030643Y016722D03*
X035258Y016137D03*
X035927Y016137D03*
X035893Y014622D03*
X035893Y013953D03*
X036658Y017937D03*
X037327Y017937D03*
X037458Y020637D03*
X038127Y020637D03*
X027377Y019837D03*
X026708Y019837D03*
D24*
X033210Y017361D03*
X034076Y016987D03*
X033210Y016613D03*
X027585Y012865D03*
X028451Y012491D03*
X028335Y011889D03*
X028335Y011141D03*
X028451Y010540D03*
X027585Y010166D03*
X027585Y010914D03*
X027585Y012117D03*
X029201Y011515D03*
D25*
X029634Y010043D03*
X029634Y013043D03*
X033827Y015478D03*
X033827Y019418D03*
X024634Y013043D03*
X024634Y010043D03*
D26*
X026150Y014889D03*
X027134Y014889D03*
X028118Y014889D03*
X037945Y015011D03*
X038945Y015011D03*
X038945Y016011D03*
X037945Y016011D03*
X037945Y017011D03*
X038945Y017011D03*
X038945Y014011D03*
X037945Y014011D03*
X037945Y013011D03*
X038945Y013011D03*
X038945Y012011D03*
X037945Y012011D03*
X037945Y011011D03*
X038945Y011011D03*
X038945Y010011D03*
X028118Y020598D03*
X026150Y020598D03*
D27*
X013093Y018736D03*
X013093Y016374D03*
X013093Y014011D03*
X013093Y011649D03*
X013093Y009287D03*
D28*
X013093Y008287D03*
X013093Y010649D03*
X013093Y013011D03*
X013093Y015374D03*
X013093Y017736D03*
D29*
X038543Y008750D03*
X038543Y006624D03*
D30*
X038543Y007687D03*
G36*
X015911Y008821D02*
X016439Y009349D01*
X016745Y009043D01*
X016217Y008515D01*
X015911Y008821D01*
G37*
G36*
X015271Y009462D02*
X015799Y009990D01*
X016105Y009684D01*
X015577Y009156D01*
X015271Y009462D01*
G37*
G36*
X014241Y008432D02*
X014769Y008960D01*
X015075Y008654D01*
X014547Y008126D01*
X014241Y008432D01*
G37*
G36*
X014881Y007791D02*
X015409Y008319D01*
X015715Y008013D01*
X015187Y007485D01*
X014881Y007791D01*
G37*
D31*
X036102Y007687D03*
D32*
X015435Y006375D03*
X014435Y006475D03*
X013435Y006375D03*
X012435Y006475D03*
X011435Y006375D03*
X010876Y020548D03*
X011876Y020648D03*
X012876Y020548D03*
X039429Y020598D03*
X040569Y020598D03*
D33*
X038066Y020037D03*
X038066Y019537D03*
X038066Y019037D03*
X038066Y018537D03*
X036019Y018537D03*
X036019Y019037D03*
X036019Y019537D03*
X036019Y020037D03*
D34*
X037945Y010011D03*
D35*
X033894Y008937D03*
X032792Y008937D03*
D36*
X032627Y019887D03*
X030303Y019894D03*
D37*
X032465Y017945D03*
D38*
X030465Y017965D03*
D39*
X031465Y016921D03*
D40*
X036493Y015287D03*
X036543Y011187D03*
X035443Y008737D03*
D41*
X031543Y014080D03*
X031543Y014400D03*
X030643Y014395D03*
X030643Y014075D03*
D42*
X031538Y014075D01*
X031543Y014080D01*
X031543Y014400D02*
X031543Y015337D01*
X032043Y015837D01*
X032043Y016487D01*
X032143Y016587D01*
X032458Y016587D01*
X032493Y016622D01*
X033201Y016622D01*
X033210Y016613D01*
X030677Y014887D02*
X030643Y014853D01*
X030643Y014395D01*
X030643Y014075D02*
X030605Y014037D01*
X029793Y014037D01*
X029443Y014387D01*
X028893Y014387D01*
X028443Y013937D01*
X024743Y013937D01*
X024293Y014387D01*
X021993Y014387D01*
X021693Y014087D01*
X021693Y013537D01*
X020735Y012579D01*
X020735Y012575D01*
X020512Y012797D02*
X020243Y012528D01*
X020243Y011737D01*
X019043Y010537D01*
X019393Y010537D02*
X020643Y011787D01*
X020893Y011537D02*
X019693Y010337D01*
X019693Y008587D01*
X020048Y008232D01*
X020067Y008232D01*
X019844Y008036D02*
X019393Y008487D01*
X019393Y010537D01*
X019943Y010087D02*
X021143Y011287D01*
X021443Y010987D02*
X020243Y009837D01*
X020243Y008937D01*
X020503Y008677D01*
X020512Y008677D01*
X020735Y008895D02*
X021043Y008587D01*
X021043Y008487D01*
X020643Y008087D01*
X020643Y006087D01*
X020543Y005987D01*
X015943Y005987D01*
X015793Y005837D01*
X011493Y005837D01*
X011443Y005887D01*
X011443Y006367D01*
X011435Y006375D01*
X010621Y006375D01*
X010543Y006453D01*
X010543Y007122D02*
X012308Y007122D01*
X012443Y006987D01*
X012443Y006482D01*
X012435Y006475D01*
X013543Y007237D02*
X013777Y007237D01*
X013793Y007253D01*
X014435Y006475D02*
X014898Y006937D01*
X015693Y006937D01*
X015993Y006637D01*
X017043Y006637D01*
X018619Y008214D01*
X018619Y008232D01*
X018396Y008455D02*
X017979Y008037D01*
X017943Y008037D01*
X017293Y008287D02*
X017193Y008187D01*
X017193Y008187D01*
X016879Y007874D01*
X016479Y008274D02*
X016328Y008425D01*
X016328Y008932D01*
X016633Y009237D01*
X016943Y009237D01*
X017274Y009568D01*
X017283Y009568D01*
X017060Y009791D02*
X017046Y009791D01*
X016793Y009537D01*
X016243Y009537D01*
X015643Y008937D01*
X015052Y008937D01*
X014658Y008543D01*
X014658Y008644D01*
X014556Y008644D01*
X014556Y009351D01*
X013793Y009587D02*
X013793Y009853D01*
X013793Y010522D02*
X013666Y010649D01*
X013093Y010649D01*
X014843Y011287D02*
X016343Y009787D01*
X016611Y009787D01*
X016837Y010014D01*
X016615Y010236D02*
X016615Y010666D01*
X015443Y011837D01*
X015443Y011987D01*
X015443Y014837D01*
X015543Y014937D01*
X015927Y014937D01*
X015943Y014953D01*
X016046Y014850D01*
X016662Y014850D01*
X017443Y014437D02*
X015793Y014437D01*
X015693Y014337D01*
X015693Y012606D01*
X016837Y011461D01*
X017046Y011684D02*
X016593Y012137D01*
X016600Y012144D01*
X015893Y012851D01*
X015893Y014137D01*
X015993Y014237D01*
X018293Y014237D01*
X018394Y014339D01*
X018394Y014850D01*
X018693Y014337D02*
X019543Y014337D01*
X019693Y014487D01*
X019693Y014850D01*
X019693Y014850D01*
X019260Y014850D02*
X019260Y015270D01*
X019193Y015337D01*
X016443Y015337D01*
X017528Y014850D02*
X017528Y014522D01*
X017443Y014437D01*
X018393Y014037D02*
X018693Y014337D01*
X018393Y014037D02*
X016243Y014037D01*
X016143Y013937D01*
X016143Y013037D01*
X017274Y011907D01*
X017283Y011907D01*
X017505Y012129D02*
X017993Y011642D01*
X017993Y011637D01*
X017543Y011201D02*
X017060Y011684D01*
X017046Y011684D01*
X016615Y011239D02*
X017193Y010660D01*
X017443Y010387D01*
X018243Y009687D02*
X018293Y009687D01*
X018243Y009687D02*
X018243Y009187D01*
X017955Y008900D01*
X017951Y008900D01*
X018174Y008677D02*
X018693Y009197D01*
X018693Y009687D01*
X017728Y009123D02*
X017678Y009123D01*
X017293Y008737D01*
X017293Y008287D01*
X018842Y008009D02*
X017207Y006375D01*
X015435Y006375D01*
X013793Y007922D02*
X013428Y008287D01*
X013093Y008287D01*
X014843Y011287D02*
X014843Y019587D01*
X014693Y019737D01*
X012993Y019737D01*
X012867Y019863D01*
X012867Y020539D01*
X012876Y020548D01*
X014193Y019487D02*
X011043Y019487D01*
X010893Y019637D01*
X010893Y020524D01*
X010876Y020548D01*
X014193Y019487D02*
X014343Y019337D01*
X014343Y018287D01*
X013843Y018122D02*
X013479Y018122D01*
X013093Y017736D01*
X013843Y017453D02*
X013843Y017187D01*
X013827Y015637D02*
X013493Y015637D01*
X013229Y015374D01*
X013093Y015374D01*
X013827Y015637D02*
X013843Y015622D01*
X013843Y014953D02*
X013843Y014687D01*
X014343Y013537D02*
X014343Y013334D01*
X014403Y013324D01*
X013843Y013022D02*
X013832Y013011D01*
X013093Y013011D01*
X013843Y012353D02*
X013843Y012087D01*
X015893Y011837D02*
X016016Y011837D01*
X016615Y011239D01*
X017543Y011201D02*
X017543Y011137D01*
X018693Y011937D02*
X018693Y012724D01*
X018396Y013020D01*
X018410Y013020D01*
X018619Y013243D02*
X018943Y012919D01*
X018943Y012537D01*
X019143Y012337D01*
X019143Y011787D01*
X018893Y011537D01*
X018893Y011137D01*
X019493Y012037D02*
X019493Y012387D01*
X019193Y012687D01*
X019193Y013115D01*
X018842Y013466D01*
X018842Y013486D01*
X018619Y013261D02*
X018619Y013243D01*
X018174Y012807D02*
X017943Y013037D01*
X017943Y013387D01*
X017429Y013101D02*
X017951Y012579D01*
X017951Y012575D01*
X018174Y012797D02*
X018174Y012807D01*
X019393Y012837D02*
X019393Y012987D01*
X019844Y013439D01*
X019844Y013466D01*
X020067Y013261D02*
X021343Y014537D01*
X021343Y016687D01*
X021693Y017037D01*
X021893Y017037D01*
X021893Y016587D02*
X021893Y016087D01*
X021543Y015737D01*
X021543Y014274D01*
X020289Y013020D01*
X020067Y013243D02*
X020067Y013261D01*
X019393Y012837D02*
X019843Y012387D01*
X021180Y012129D02*
X021185Y012129D01*
X021793Y012737D01*
X022242Y012737D01*
X022443Y012736D01*
X021743Y012237D02*
X025943Y012237D01*
X027193Y013487D01*
X028593Y013487D01*
X029093Y013987D01*
X028118Y014889D02*
X028118Y015478D01*
X028193Y015553D01*
X028743Y015553D01*
X028193Y016222D02*
X027652Y016222D01*
X027618Y016187D01*
X027618Y014237D01*
X027518Y014137D01*
X025243Y014137D01*
X024593Y014787D01*
X022943Y014787D01*
X022393Y015087D02*
X024993Y015087D01*
X025743Y014337D01*
X026543Y014337D01*
X026643Y014437D01*
X026643Y016087D01*
X026508Y016222D01*
X026143Y016222D01*
X026143Y016722D01*
X026158Y016737D01*
X026143Y015553D02*
X025543Y015553D01*
X026143Y015553D02*
X026150Y015546D01*
X026150Y014889D01*
X028193Y016222D02*
X028193Y016722D01*
X028177Y016737D01*
X026758Y019187D02*
X026155Y019187D01*
X026151Y019184D01*
X026148Y019187D01*
X023143Y019187D01*
X022993Y019037D01*
X022993Y015537D01*
X022893Y015437D01*
X021943Y015437D01*
X023393Y013537D02*
X023499Y013287D01*
X023482Y013271D01*
X021943Y011987D02*
X026443Y011987D01*
X026593Y012137D01*
X027564Y012137D01*
X027585Y012117D01*
X027689Y011787D02*
X028335Y011141D01*
X027689Y011787D02*
X022193Y011787D01*
X021867Y011461D01*
X021848Y011461D01*
X022071Y011266D02*
X022393Y011587D01*
X026793Y011587D01*
X026993Y011387D01*
X026993Y010237D01*
X027093Y010137D01*
X027556Y010137D01*
X027585Y010166D01*
X026343Y009937D02*
X026127Y009937D01*
X026393Y009387D02*
X026643Y009137D01*
X027693Y009137D01*
X028143Y008687D01*
X029193Y008687D01*
X029496Y008384D01*
X029496Y008334D01*
X029496Y007665D02*
X029496Y007330D01*
X027922Y007330D02*
X027922Y007665D01*
X027922Y008334D02*
X027943Y008356D01*
X027943Y008587D01*
X027693Y008837D01*
X026593Y008837D01*
X026243Y009187D01*
X023943Y009187D01*
X023493Y009637D01*
X022243Y009637D01*
X021867Y010014D01*
X021848Y010014D01*
X021689Y009791D02*
X022093Y009387D01*
X023343Y009387D01*
X023793Y008937D01*
X026193Y008937D01*
X026343Y008787D01*
X026343Y008338D01*
X026347Y008334D01*
X025893Y008337D02*
X025193Y008337D01*
X024772Y008334D02*
X024743Y008363D01*
X024743Y008687D01*
X024693Y008737D01*
X023593Y008737D01*
X023143Y009187D01*
X021793Y009187D01*
X021412Y009568D01*
X021403Y009568D01*
X021626Y009791D02*
X021689Y009791D01*
X022071Y010236D02*
X022094Y010236D01*
X022493Y009837D01*
X023643Y009837D01*
X024093Y009387D01*
X026393Y009387D01*
X025543Y009587D02*
X029179Y009587D01*
X029634Y010043D01*
X026143Y011172D02*
X025443Y011172D01*
X025377Y011237D01*
X024643Y011237D01*
X025443Y010503D02*
X025443Y009953D01*
X025458Y009937D01*
X025458Y009672D01*
X025543Y009587D01*
X025458Y009937D02*
X025353Y010043D01*
X024634Y010043D01*
X022071Y011239D02*
X022071Y011266D01*
X021639Y011684D02*
X021943Y011987D01*
X021743Y012237D02*
X021412Y011907D01*
X021403Y011907D01*
X021626Y011684D02*
X021639Y011684D01*
X019943Y010087D02*
X019943Y008787D01*
X020276Y008455D01*
X020289Y008455D01*
X019844Y008036D02*
X019844Y008009D01*
X021093Y008137D02*
X021520Y008137D01*
X021756Y008374D01*
X021720Y008337D01*
X021756Y008374D02*
X021007Y009123D01*
X020957Y009123D01*
X020735Y008900D02*
X020735Y008895D01*
X024772Y007665D02*
X024772Y007330D01*
X026347Y007330D02*
X026347Y007665D01*
X035343Y008137D02*
X035443Y008237D01*
X035443Y008737D01*
X035793Y009537D02*
X035793Y009737D01*
X036177Y009737D01*
X036193Y009722D01*
X035793Y009737D02*
X035793Y009830D01*
X035767Y009856D01*
X036493Y014622D02*
X036493Y015287D01*
X036019Y018537D02*
X035293Y018537D01*
X035193Y019887D02*
X035193Y019937D01*
X035293Y020037D01*
X036019Y020037D01*
X026708Y019837D02*
X026692Y019853D01*
X026151Y019853D01*
X026150Y019854D01*
X026150Y020598D01*
D43*
X027134Y020992D03*
X025166Y020992D03*
X024378Y020992D03*
X023591Y020992D03*
X024043Y018437D03*
X026089Y018431D03*
X027639Y018431D03*
X030339Y018731D03*
X034389Y018181D03*
X035293Y018537D03*
X035789Y018031D03*
X035193Y019887D03*
X031539Y015831D03*
X029389Y015631D03*
X029093Y013987D03*
X027039Y012531D03*
X027489Y011381D03*
X026639Y011181D03*
X028639Y011681D03*
X030589Y010231D03*
X032039Y009881D03*
X032039Y009181D03*
X030943Y008287D03*
X030543Y008637D03*
X029496Y007330D03*
X027922Y007330D03*
X026347Y007330D03*
X025893Y008337D03*
X025193Y008337D03*
X024772Y007330D03*
X023243Y006737D03*
X022786Y006449D03*
X023243Y006287D03*
X021336Y006449D03*
X020048Y006819D03*
X019260Y006819D03*
X018473Y006819D03*
X017943Y008037D03*
X017636Y008399D03*
X017193Y008187D03*
X015986Y007499D03*
X015536Y007299D03*
X014536Y007799D03*
X013543Y007237D03*
X014186Y008999D03*
X013793Y009587D03*
X014286Y011049D03*
X013843Y012087D03*
X015136Y012599D03*
X015443Y011987D03*
X015893Y011837D03*
X017543Y011137D03*
X017993Y011637D03*
X018693Y011937D03*
X017986Y012099D03*
X017193Y012887D03*
X017436Y013699D03*
X017943Y013387D03*
X016836Y013699D03*
X017986Y014549D03*
X018793Y014587D03*
X019286Y013799D03*
X019843Y012387D03*
X019493Y012037D03*
X020486Y012149D03*
X020643Y011787D03*
X020893Y011537D03*
X021143Y011287D03*
X021443Y010987D03*
X020486Y009449D03*
X019043Y010537D03*
X018336Y010599D03*
X018893Y011137D03*
X017443Y010387D03*
X017786Y009649D03*
X018293Y009687D03*
X018693Y009687D03*
X019336Y007899D03*
X021093Y008137D03*
X023186Y008649D03*
X026343Y009937D03*
X024643Y011237D03*
X023393Y013537D03*
X022943Y014787D03*
X022393Y015087D03*
X021943Y015437D03*
X020686Y016149D03*
X021893Y016587D03*
X021893Y017037D03*
X017336Y016149D03*
X016443Y015337D03*
X015186Y015299D03*
X013843Y014687D03*
X014236Y014099D03*
X014343Y013537D03*
X013843Y017187D03*
X014343Y018287D03*
X016193Y018887D03*
X017292Y020992D03*
X018079Y020992D03*
X018866Y020992D03*
X019654Y020992D03*
X014536Y020992D03*
X008236Y019023D03*
X008236Y018236D03*
X008236Y017448D03*
X008236Y016661D03*
X008236Y015874D03*
X008236Y015086D03*
X008236Y014299D03*
X008236Y013511D03*
X008236Y012724D03*
X008236Y011937D03*
X008236Y011149D03*
X008236Y010362D03*
X008236Y009574D03*
X008236Y008787D03*
X008236Y008000D03*
X032043Y010937D03*
X032043Y011537D03*
X032043Y012137D03*
X032093Y012887D03*
X034639Y013431D03*
X035589Y015331D03*
X042882Y015086D03*
X042882Y014299D03*
X042882Y013511D03*
X042882Y012724D03*
X042882Y011937D03*
X042882Y011149D03*
X042882Y010362D03*
X042882Y009574D03*
X042882Y008787D03*
X042882Y008000D03*
X040914Y006031D03*
X040126Y006031D03*
X039339Y006031D03*
X038551Y006031D03*
X037764Y006031D03*
X036977Y006031D03*
X036189Y006031D03*
X035402Y006031D03*
X034614Y006031D03*
X033827Y006031D03*
X033040Y006031D03*
X032252Y006031D03*
X034639Y008931D03*
X035793Y009537D03*
X035143Y010387D03*
X037839Y009031D03*
X037839Y008481D03*
X042882Y015874D03*
X042882Y016661D03*
X042882Y017448D03*
X042882Y018236D03*
X042882Y019023D03*
D44*
X009517Y005932D02*
X009286Y005777D01*
X011341Y005777D01*
X011293Y005825D01*
X011293Y005925D01*
X011169Y005976D01*
X011037Y006109D01*
X010989Y006225D01*
X010859Y006225D01*
X010859Y006214D01*
X010801Y006156D01*
X010285Y006156D01*
X010226Y006214D01*
X010226Y006691D01*
X010285Y006750D01*
X010801Y006750D01*
X010859Y006691D01*
X010859Y006525D01*
X010989Y006525D01*
X011037Y006641D01*
X011169Y006773D01*
X011342Y006845D01*
X011529Y006845D01*
X011702Y006773D01*
X011834Y006641D01*
X011905Y006468D01*
X011905Y006281D01*
X011834Y006109D01*
X011713Y005987D01*
X015158Y005987D01*
X015037Y006109D01*
X014965Y006281D01*
X014965Y006468D01*
X015037Y006641D01*
X015169Y006773D01*
X015203Y006787D01*
X014960Y006787D01*
X014857Y006685D01*
X014905Y006568D01*
X014905Y006381D01*
X014834Y006209D01*
X014702Y006076D01*
X014529Y006005D01*
X014342Y006005D01*
X014169Y006076D01*
X014037Y006209D01*
X013965Y006381D01*
X013965Y006568D01*
X014037Y006741D01*
X014169Y006873D01*
X014342Y006945D01*
X014529Y006945D01*
X014645Y006897D01*
X014836Y007087D01*
X015755Y007087D01*
X015843Y007000D01*
X016055Y006787D01*
X016981Y006787D01*
X018011Y007817D01*
X017852Y007817D01*
X017723Y007946D01*
X017723Y008129D01*
X017852Y008257D01*
X017987Y008257D01*
X018018Y008288D01*
X018018Y008299D01*
X017993Y008299D01*
X017795Y008497D01*
X017795Y008522D01*
X017770Y008522D01*
X017572Y008719D01*
X017572Y008744D01*
X017548Y008744D01*
X017530Y008762D01*
X017443Y008675D01*
X017443Y008225D01*
X017413Y008195D01*
X017413Y008096D01*
X017284Y007967D01*
X017234Y007967D01*
X017272Y007929D01*
X017272Y007847D01*
X016907Y007482D01*
X016824Y007482D01*
X016487Y007819D01*
X016487Y007882D01*
X016424Y007882D01*
X016087Y008219D01*
X016087Y008302D01*
X016178Y008392D01*
X016178Y008415D01*
X016175Y008415D01*
X015810Y008779D01*
X015810Y008862D01*
X016335Y009387D01*
X016305Y009387D01*
X015793Y008875D01*
X015705Y008787D01*
X015115Y008787D01*
X015099Y008772D01*
X015175Y008695D01*
X015175Y008612D01*
X014588Y008025D01*
X014505Y008025D01*
X014140Y008390D01*
X014140Y008473D01*
X014406Y008739D01*
X014406Y009053D01*
X014164Y009295D01*
X014164Y009378D01*
X014529Y009743D01*
X014611Y009743D01*
X014948Y009406D01*
X014948Y009323D01*
X014706Y009081D01*
X014706Y009039D01*
X014728Y009060D01*
X014810Y009060D01*
X014887Y008984D01*
X014990Y009087D01*
X015581Y009087D01*
X016181Y009687D01*
X016231Y009687D01*
X016193Y009725D01*
X014693Y011225D01*
X014693Y013058D01*
X014661Y013027D01*
X014159Y013027D01*
X014159Y012784D01*
X014101Y012725D01*
X013585Y012725D01*
X013526Y012784D01*
X013526Y012861D01*
X013523Y012861D01*
X013523Y012640D01*
X013464Y012581D01*
X012721Y012581D01*
X012663Y012640D01*
X012663Y013383D01*
X012721Y013441D01*
X013464Y013441D01*
X013523Y013383D01*
X013523Y013161D01*
X013526Y013161D01*
X013526Y013260D01*
X013585Y013319D01*
X014087Y013319D01*
X014087Y013562D01*
X014123Y013598D01*
X014123Y013629D01*
X014252Y013757D01*
X014434Y013757D01*
X014563Y013629D01*
X014563Y013620D01*
X014661Y013620D01*
X014693Y013589D01*
X014693Y019525D01*
X014631Y019587D01*
X014305Y019587D01*
X014493Y019400D01*
X014493Y018449D01*
X014563Y018379D01*
X014563Y018196D01*
X014434Y018067D01*
X014252Y018067D01*
X014159Y018160D01*
X014159Y017884D01*
X014101Y017825D01*
X013585Y017825D01*
X013526Y017884D01*
X013526Y017957D01*
X013523Y017954D01*
X013523Y017364D01*
X013464Y017306D01*
X012721Y017306D01*
X012663Y017364D01*
X012663Y018107D01*
X012721Y018166D01*
X013311Y018166D01*
X013417Y018272D01*
X013526Y018272D01*
X013526Y018360D01*
X013585Y018419D01*
X014101Y018419D01*
X014132Y018388D01*
X014193Y018449D01*
X014193Y019275D01*
X014131Y019337D01*
X010981Y019337D01*
X010831Y019487D01*
X010831Y019487D01*
X010743Y019575D01*
X010743Y020095D01*
X010610Y020150D01*
X010478Y020282D01*
X010406Y020455D01*
X010406Y020642D01*
X010478Y020814D01*
X010610Y020946D01*
X010783Y021018D01*
X010970Y021018D01*
X011142Y020946D01*
X011275Y020814D01*
X011346Y020642D01*
X011346Y020455D01*
X011275Y020282D01*
X011142Y020150D01*
X011043Y020108D01*
X011043Y019700D01*
X011105Y019637D01*
X012881Y019637D01*
X012843Y019675D01*
X012805Y019713D01*
X012805Y019713D01*
X012717Y019801D01*
X012717Y020105D01*
X012610Y020150D01*
X012478Y020282D01*
X012406Y020455D01*
X012406Y020642D01*
X012478Y020814D01*
X012610Y020946D01*
X012783Y021018D01*
X012970Y021018D01*
X013142Y020946D01*
X013275Y020814D01*
X013346Y020642D01*
X013346Y020455D01*
X013275Y020282D01*
X013142Y020150D01*
X013017Y020098D01*
X013017Y019926D01*
X013055Y019887D01*
X014755Y019887D01*
X014905Y019737D01*
X014993Y019650D01*
X014993Y011350D01*
X016236Y010106D01*
X016236Y010139D01*
X016465Y010367D01*
X016465Y010603D01*
X015381Y011687D01*
X015293Y011775D01*
X015293Y011826D01*
X015223Y011896D01*
X015223Y012079D01*
X015293Y012149D01*
X015293Y014900D01*
X015393Y015000D01*
X015481Y015087D01*
X015626Y015087D01*
X015626Y015191D01*
X015685Y015250D01*
X016201Y015250D01*
X016242Y015208D01*
X016242Y015227D01*
X016223Y015246D01*
X016223Y015429D01*
X016242Y015448D01*
X016242Y016211D01*
X016188Y016265D01*
X016188Y016821D01*
X016242Y016875D01*
X016242Y018263D01*
X016280Y018301D01*
X016689Y018301D01*
X016727Y018263D01*
X016727Y016875D01*
X016781Y016821D01*
X016781Y016265D01*
X016727Y016211D01*
X016727Y015487D01*
X019255Y015487D01*
X019343Y015400D01*
X019410Y015332D01*
X019410Y015186D01*
X019439Y015186D01*
X019477Y015149D01*
X019514Y015186D01*
X019872Y015186D01*
X019910Y015149D01*
X019947Y015186D01*
X020305Y015186D01*
X020364Y015128D01*
X020364Y014572D01*
X020305Y014514D01*
X019947Y014514D01*
X019910Y014551D01*
X019872Y014514D01*
X019843Y014514D01*
X019843Y014425D01*
X019755Y014337D01*
X019605Y014187D01*
X018755Y014187D01*
X018543Y013975D01*
X018543Y013975D01*
X018455Y013887D01*
X016305Y013887D01*
X016293Y013875D01*
X016293Y013100D01*
X017107Y012285D01*
X017127Y012285D01*
X017127Y012310D01*
X017325Y012508D01*
X017408Y012508D01*
X017884Y012032D01*
X017884Y011963D01*
X017989Y011857D01*
X018084Y011857D01*
X018213Y011729D01*
X018213Y011546D01*
X018084Y011417D01*
X017902Y011417D01*
X017773Y011546D01*
X017773Y011650D01*
X017672Y011751D01*
X017661Y011751D01*
X017661Y011726D01*
X017463Y011528D01*
X017438Y011528D01*
X017438Y011518D01*
X017599Y011357D01*
X017634Y011357D01*
X017763Y011229D01*
X017763Y011046D01*
X017634Y010917D01*
X017452Y010917D01*
X017323Y011046D01*
X017323Y011209D01*
X017226Y011306D01*
X017216Y011306D01*
X017216Y011281D01*
X017018Y011083D01*
X016993Y011083D01*
X016993Y011072D01*
X017258Y010808D01*
X017261Y010807D01*
X017301Y010764D01*
X017343Y010722D01*
X017343Y010719D01*
X017445Y010607D01*
X017534Y010607D01*
X017663Y010479D01*
X017663Y010296D01*
X017534Y010167D01*
X017352Y010167D01*
X017223Y010296D01*
X017223Y010405D01*
X017084Y010557D01*
X016781Y010860D01*
X016712Y010860D01*
X016236Y011336D01*
X016236Y011405D01*
X016004Y011637D01*
X015984Y011617D01*
X015875Y011617D01*
X016765Y010728D01*
X016765Y010615D01*
X016795Y010615D01*
X016993Y010417D01*
X016993Y010392D01*
X017018Y010392D01*
X017216Y010194D01*
X017216Y010169D01*
X017241Y010169D01*
X017438Y009971D01*
X017438Y009947D01*
X017463Y009947D01*
X017661Y009749D01*
X017661Y009666D01*
X017185Y009190D01*
X017107Y009190D01*
X017093Y009175D01*
X017005Y009087D01*
X016843Y009087D01*
X016846Y009085D01*
X016846Y009002D01*
X016510Y008666D01*
X016535Y008666D01*
X016872Y008329D01*
X016872Y008266D01*
X016935Y008266D01*
X016973Y008228D01*
X016973Y008279D01*
X017102Y008407D01*
X017143Y008407D01*
X017143Y008800D01*
X017231Y008887D01*
X017350Y009006D01*
X017350Y009025D01*
X017826Y009501D01*
X017909Y009501D01*
X018093Y009317D01*
X018093Y009576D01*
X018073Y009596D01*
X018073Y009779D01*
X018202Y009907D01*
X018384Y009907D01*
X018493Y009799D01*
X018602Y009907D01*
X018784Y009907D01*
X018913Y009779D01*
X018913Y009596D01*
X018843Y009526D01*
X018843Y009134D01*
X018552Y008844D01*
X018552Y008833D01*
X018577Y008833D01*
X018775Y008635D01*
X018775Y008610D01*
X018800Y008610D01*
X018997Y008413D01*
X018997Y008388D01*
X019022Y008388D01*
X019220Y008190D01*
X019220Y008107D01*
X018744Y007631D01*
X018675Y007631D01*
X017269Y006225D01*
X015882Y006225D01*
X015834Y006109D01*
X015713Y005987D01*
X015731Y005987D01*
X015881Y006137D01*
X020481Y006137D01*
X020493Y006150D01*
X020493Y008099D01*
X020470Y008076D01*
X020445Y008076D01*
X020445Y008051D01*
X020247Y007854D01*
X020222Y007854D01*
X020222Y007829D01*
X020024Y007631D01*
X019942Y007631D01*
X019465Y008107D01*
X019465Y008190D01*
X019472Y008196D01*
X019331Y008337D01*
X019243Y008425D01*
X019243Y010426D01*
X019242Y010426D01*
X019243Y010426D02*
X019134Y010317D01*
X018952Y010317D01*
X018823Y010446D01*
X018823Y010629D01*
X018952Y010757D01*
X019051Y010757D01*
X020093Y011800D01*
X020093Y012590D01*
X020134Y012631D01*
X020134Y012642D01*
X020109Y012642D01*
X019911Y012840D01*
X019911Y012865D01*
X019886Y012865D01*
X019688Y013062D01*
X019688Y013071D01*
X019543Y012925D01*
X019543Y012900D01*
X019835Y012607D01*
X019934Y012607D01*
X020063Y012479D01*
X020063Y012296D01*
X019934Y012167D01*
X019752Y012167D01*
X019643Y012276D01*
X019643Y012199D01*
X019713Y012129D01*
X019713Y011946D01*
X019584Y011817D01*
X019402Y011817D01*
X019293Y011926D01*
X019293Y011725D01*
X019205Y011637D01*
X019043Y011475D01*
X019043Y011299D01*
X019113Y011229D01*
X019113Y011046D01*
X018984Y010917D01*
X018802Y010917D01*
X018673Y011046D01*
X018673Y011229D01*
X018743Y011299D01*
X018743Y011600D01*
X018993Y011850D01*
X018993Y012275D01*
X018881Y012387D01*
X018843Y012425D01*
X018843Y012099D01*
X018913Y012029D01*
X018913Y011846D01*
X018784Y011717D01*
X018602Y011717D01*
X018473Y011846D01*
X018473Y012029D01*
X018543Y012099D01*
X018543Y012608D01*
X018354Y012419D01*
X018329Y012419D01*
X018329Y012394D01*
X018131Y012196D01*
X018049Y012196D01*
X017572Y012673D01*
X017572Y012746D01*
X017547Y012771D01*
X017485Y012708D01*
X017402Y012708D01*
X017363Y012747D01*
X017284Y012667D01*
X017102Y012667D01*
X016973Y012796D01*
X016973Y012979D01*
X017052Y013058D01*
X017037Y013073D01*
X017037Y013156D01*
X017374Y013493D01*
X017457Y013493D01*
X017793Y013157D01*
X017793Y013226D01*
X017723Y013296D01*
X017723Y013479D01*
X017852Y013607D01*
X018034Y013607D01*
X018163Y013479D01*
X018163Y013346D01*
X018216Y013399D01*
X018241Y013399D01*
X018241Y013424D01*
X018438Y013621D01*
X018463Y013621D01*
X018463Y013646D01*
X018661Y013844D01*
X018744Y013844D01*
X019220Y013368D01*
X019220Y013299D01*
X019343Y013177D01*
X019343Y013150D01*
X019472Y013279D01*
X019465Y013285D01*
X019465Y013368D01*
X019942Y013844D01*
X020024Y013844D01*
X020222Y013646D01*
X020222Y013629D01*
X021193Y014600D01*
X021193Y016750D01*
X021631Y017187D01*
X021732Y017187D01*
X021802Y017257D01*
X021984Y017257D01*
X022113Y017129D01*
X022113Y016946D01*
X021984Y016817D01*
X021802Y016817D01*
X021743Y016876D01*
X021493Y016625D01*
X021493Y015900D01*
X021743Y016150D01*
X021743Y016426D01*
X021673Y016496D01*
X021673Y016679D01*
X021802Y016807D01*
X021984Y016807D01*
X022113Y016679D01*
X022113Y016496D01*
X022043Y016426D01*
X022043Y016025D01*
X021693Y015675D01*
X021693Y014300D01*
X021843Y014450D01*
X021931Y014537D01*
X024355Y014537D01*
X024805Y014087D01*
X025081Y014087D01*
X024531Y014637D01*
X023104Y014637D01*
X023034Y014567D01*
X022852Y014567D01*
X022723Y014696D01*
X022723Y014879D01*
X022782Y014937D01*
X022554Y014937D01*
X022484Y014867D01*
X022302Y014867D01*
X022173Y014996D01*
X022173Y015179D01*
X022282Y015287D01*
X022104Y015287D01*
X022034Y015217D01*
X021852Y015217D01*
X021723Y015346D01*
X021723Y015529D01*
X021852Y015657D01*
X022034Y015657D01*
X022104Y015587D01*
X022831Y015587D01*
X022843Y015600D01*
X022843Y019100D01*
X022993Y019250D01*
X023081Y019337D01*
X025835Y019337D01*
X025835Y019422D01*
X025893Y019481D01*
X026409Y019481D01*
X026453Y019437D01*
X026500Y019484D01*
X027016Y019484D01*
X027075Y019426D01*
X027075Y018949D01*
X027016Y018891D01*
X026500Y018891D01*
X026456Y018934D01*
X026409Y018887D01*
X025893Y018887D01*
X025835Y018946D01*
X025835Y019037D01*
X023205Y019037D01*
X023143Y018975D01*
X023143Y015475D01*
X023055Y015387D01*
X022955Y015287D01*
X022504Y015287D01*
X022554Y015237D01*
X025055Y015237D01*
X025143Y015150D01*
X025143Y015150D01*
X025805Y014487D01*
X025915Y014487D01*
X025700Y014703D01*
X025700Y015076D01*
X025882Y015258D01*
X025843Y015298D01*
X025801Y015256D01*
X025285Y015256D01*
X025226Y015314D01*
X025226Y015791D01*
X025285Y015850D01*
X025801Y015850D01*
X025843Y015808D01*
X025885Y015850D01*
X026401Y015850D01*
X026459Y015791D01*
X026459Y015314D01*
X026410Y015265D01*
X026493Y015183D01*
X026493Y016025D01*
X026459Y016059D01*
X026459Y015984D01*
X026401Y015925D01*
X025885Y015925D01*
X025843Y015967D01*
X025801Y015925D01*
X025285Y015925D01*
X025226Y015984D01*
X025226Y016460D01*
X025285Y016519D01*
X025363Y016519D01*
X025363Y016557D01*
X024068Y016557D01*
X023963Y016663D01*
X023863Y016763D01*
X023863Y018306D01*
X023823Y018346D01*
X023823Y018529D01*
X023952Y018657D01*
X024134Y018657D01*
X024263Y018529D01*
X024263Y018346D01*
X024223Y018306D01*
X024223Y018053D01*
X024316Y018278D01*
X024533Y018495D01*
X024816Y018612D01*
X025122Y018612D01*
X025405Y018495D01*
X025621Y018278D01*
X025739Y017995D01*
X025739Y017689D01*
X025667Y017516D01*
X025668Y017517D01*
X028013Y017517D01*
X028013Y019657D01*
X027674Y019657D01*
X027674Y019579D01*
X027616Y019521D01*
X027139Y019521D01*
X027081Y019579D01*
X027081Y020095D01*
X027139Y020154D01*
X027616Y020154D01*
X027674Y020095D01*
X027674Y020017D01*
X028167Y020017D01*
X028273Y019912D01*
X028373Y019812D01*
X028373Y019417D01*
X033118Y019417D01*
X033227Y019526D01*
X033227Y019667D01*
X033579Y020018D01*
X034076Y020018D01*
X034377Y019717D01*
X035052Y019717D01*
X034973Y019796D01*
X034973Y019979D01*
X035102Y020107D01*
X035151Y020107D01*
X035231Y020187D01*
X035486Y020187D01*
X035486Y020197D01*
X035545Y020256D01*
X036494Y020256D01*
X036533Y020216D01*
X036533Y020341D01*
X036369Y020341D01*
X036311Y020399D01*
X036311Y020876D01*
X036369Y020934D01*
X036885Y020934D01*
X036944Y020876D01*
X036944Y020399D01*
X036885Y020341D01*
X036853Y020341D01*
X036853Y019571D01*
X036759Y019477D01*
X036659Y019377D01*
X036552Y019377D01*
X036494Y019319D01*
X035545Y019319D01*
X035507Y019357D01*
X034973Y019357D01*
X034973Y017767D01*
X036317Y017767D01*
X036481Y017603D01*
X036481Y017501D01*
X036638Y017501D01*
X036697Y017442D01*
X036697Y016533D01*
X036638Y016474D01*
X036453Y016474D01*
X036453Y016171D01*
X036359Y016077D01*
X036359Y016077D01*
X036353Y016071D01*
X036353Y016071D01*
X036259Y015977D01*
X036224Y015977D01*
X036224Y015879D01*
X036166Y015821D01*
X035689Y015821D01*
X035631Y015879D01*
X035631Y016395D01*
X035689Y016454D01*
X036133Y016454D01*
X036133Y016474D01*
X035965Y016474D01*
X035906Y016533D01*
X035906Y017407D01*
X035279Y017407D01*
X035279Y016533D01*
X035221Y016474D01*
X035053Y016474D01*
X035053Y016454D01*
X035496Y016454D01*
X035555Y016395D01*
X035555Y015879D01*
X035496Y015821D01*
X035020Y015821D01*
X034961Y015879D01*
X034961Y015977D01*
X034927Y015977D01*
X034827Y016077D01*
X034733Y016171D01*
X034733Y016474D01*
X034547Y016474D01*
X034489Y016533D01*
X034489Y016827D01*
X034451Y016827D01*
X034451Y016749D01*
X034393Y016691D01*
X034236Y016691D01*
X034236Y016454D01*
X034003Y016221D01*
X034003Y016078D01*
X034076Y016078D01*
X034826Y016078D01*
X034747Y016156D02*
X034003Y016156D01*
X034017Y016235D02*
X034733Y016235D01*
X034733Y016313D02*
X034095Y016313D01*
X034174Y016392D02*
X034733Y016392D01*
X034733Y016470D02*
X034236Y016470D01*
X034236Y016549D02*
X034489Y016549D01*
X034489Y016627D02*
X034236Y016627D01*
X034408Y016706D02*
X034489Y016706D01*
X034489Y016784D02*
X034451Y016784D01*
X034451Y017147D02*
X034451Y017226D01*
X034393Y017284D01*
X033759Y017284D01*
X033700Y017226D01*
X033700Y016749D01*
X033759Y016691D01*
X033916Y016691D01*
X033916Y016587D01*
X033777Y016447D01*
X033683Y016354D01*
X033683Y016078D01*
X033579Y016078D01*
X033227Y015727D01*
X033227Y015230D01*
X033579Y014878D01*
X034076Y014878D01*
X034427Y015230D01*
X034427Y015727D01*
X034076Y016078D01*
X034155Y015999D02*
X034904Y015999D01*
X034961Y015921D02*
X034233Y015921D01*
X034312Y015842D02*
X034998Y015842D01*
X034427Y015685D02*
X038635Y015685D01*
X038713Y015607D02*
X036636Y015607D01*
X036691Y015584D02*
X036562Y015637D01*
X036423Y015637D01*
X036295Y015584D01*
X036196Y015486D01*
X036143Y015357D01*
X036143Y015218D01*
X036196Y015089D01*
X036295Y014991D01*
X036343Y014971D01*
X036343Y014919D01*
X036235Y014919D01*
X036190Y014874D01*
X036190Y014880D01*
X036131Y014939D01*
X035655Y014939D01*
X035596Y014880D01*
X035596Y014817D01*
X034968Y014817D01*
X034863Y014712D01*
X034226Y014075D01*
X032897Y014075D01*
X032897Y014293D01*
X032839Y014351D01*
X034502Y014351D01*
X034580Y014429D02*
X031893Y014429D01*
X031893Y014351D02*
X032047Y014351D01*
X031988Y014293D01*
X031988Y013580D01*
X032047Y013521D01*
X032264Y013521D01*
X032264Y013451D01*
X032147Y013451D01*
X032089Y013392D01*
X032089Y013107D01*
X032002Y013107D01*
X031873Y012979D01*
X031873Y012796D01*
X032002Y012667D01*
X032089Y012667D01*
X032089Y012483D01*
X032147Y012424D01*
X032821Y012424D01*
X032879Y012483D01*
X032879Y013392D01*
X032821Y013451D01*
X032704Y013451D01*
X032704Y013521D01*
X032839Y013521D01*
X032897Y013580D01*
X032897Y013715D01*
X034375Y013715D01*
X035117Y014457D01*
X035596Y014457D01*
X035596Y014364D01*
X035655Y014306D01*
X036131Y014306D01*
X036190Y014364D01*
X036190Y014370D01*
X036235Y014325D01*
X036751Y014325D01*
X036809Y014384D01*
X036809Y014860D01*
X036751Y014919D01*
X036643Y014919D01*
X036643Y014971D01*
X036691Y014991D01*
X036789Y015089D01*
X036843Y015218D01*
X036843Y015357D01*
X036789Y015486D01*
X036691Y015584D01*
X036747Y015528D02*
X043136Y015528D01*
X043136Y015450D02*
X039143Y015450D01*
X039132Y015461D02*
X038759Y015461D01*
X038495Y015198D01*
X038495Y014825D01*
X038759Y014561D01*
X039132Y014561D01*
X039395Y014825D01*
X039395Y015198D01*
X039132Y015461D01*
X039132Y015561D02*
X038759Y015561D01*
X038495Y015825D01*
X038495Y016198D01*
X038501Y016203D01*
X038377Y016327D01*
X038283Y016421D01*
X038283Y017954D01*
X038683Y018354D01*
X038683Y018871D01*
X038677Y018877D01*
X038599Y018877D01*
X038541Y018819D01*
X037592Y018819D01*
X037534Y018877D01*
X037427Y018877D01*
X037327Y018977D01*
X037233Y019071D01*
X037233Y020321D01*
X037220Y020321D01*
X037161Y020379D01*
X037161Y020895D01*
X037220Y020954D01*
X037696Y020954D01*
X037755Y020895D01*
X037755Y020379D01*
X037696Y020321D01*
X037553Y020321D01*
X037553Y020216D01*
X037592Y020256D01*
X038541Y020256D01*
X038599Y020197D01*
X038599Y019878D01*
X038541Y019819D01*
X037592Y019819D01*
X037553Y019858D01*
X037553Y019716D01*
X037592Y019756D01*
X038541Y019756D01*
X038599Y019697D01*
X038883Y019697D01*
X038883Y020054D01*
X039027Y020197D01*
X039168Y020197D01*
X039163Y020200D01*
X039031Y020332D01*
X038970Y020477D01*
X038424Y020477D01*
X038424Y020379D01*
X038366Y020321D01*
X037889Y020321D01*
X037831Y020379D01*
X037831Y020895D01*
X037889Y020954D01*
X038366Y020954D01*
X038424Y020895D01*
X038424Y020797D01*
X039003Y020797D01*
X039031Y020864D01*
X039163Y020996D01*
X039336Y021068D01*
X039523Y021068D01*
X039695Y020996D01*
X039828Y020864D01*
X039899Y020692D01*
X039899Y020505D01*
X039828Y020332D01*
X039695Y020200D01*
X039690Y020197D01*
X040308Y020197D01*
X040303Y020200D01*
X040171Y020332D01*
X040099Y020505D01*
X040099Y020692D01*
X040171Y020864D01*
X040303Y020996D01*
X040476Y021068D01*
X040663Y021068D01*
X040835Y020996D01*
X040968Y020864D01*
X041039Y020692D01*
X041039Y020505D01*
X040968Y020332D01*
X040835Y020200D01*
X040729Y020156D01*
X040729Y020091D01*
X040609Y019971D01*
X040515Y019877D01*
X039203Y019877D01*
X039203Y017390D01*
X039395Y017198D01*
X039395Y016825D01*
X039132Y016561D01*
X038759Y016561D01*
X038603Y016717D01*
X038603Y016554D01*
X038727Y016430D01*
X038759Y016461D01*
X039132Y016461D01*
X039395Y016198D01*
X039395Y015825D01*
X039132Y015561D01*
X039177Y015607D02*
X043136Y015607D01*
X043136Y015685D02*
X039256Y015685D01*
X039334Y015764D02*
X043136Y015764D01*
X043136Y015842D02*
X039395Y015842D01*
X039395Y015921D02*
X043136Y015921D01*
X043136Y015999D02*
X039395Y015999D01*
X039395Y016078D02*
X043136Y016078D01*
X043136Y016156D02*
X039395Y016156D01*
X039358Y016235D02*
X043136Y016235D01*
X043136Y016313D02*
X039280Y016313D01*
X039201Y016392D02*
X043136Y016392D01*
X043136Y016470D02*
X038686Y016470D01*
X038608Y016549D02*
X043136Y016549D01*
X043136Y016627D02*
X039198Y016627D01*
X039276Y016706D02*
X043136Y016706D01*
X043136Y016784D02*
X039355Y016784D01*
X039395Y016863D02*
X043136Y016863D01*
X043136Y016941D02*
X039395Y016941D01*
X039395Y017020D02*
X043136Y017020D01*
X043136Y017098D02*
X039395Y017098D01*
X039395Y017177D02*
X043136Y017177D01*
X043136Y017255D02*
X039338Y017255D01*
X039259Y017334D02*
X043136Y017334D01*
X043136Y017412D02*
X039203Y017412D01*
X039203Y017491D02*
X043136Y017491D01*
X043136Y017569D02*
X039203Y017569D01*
X039203Y017648D02*
X043136Y017648D01*
X043136Y017726D02*
X039203Y017726D01*
X039203Y017805D02*
X043136Y017805D01*
X043136Y017883D02*
X039203Y017883D01*
X039203Y017962D02*
X043136Y017962D01*
X043136Y018040D02*
X039203Y018040D01*
X039203Y018119D02*
X043136Y018119D01*
X043136Y018197D02*
X039203Y018197D01*
X039203Y018276D02*
X043136Y018276D01*
X043136Y018354D02*
X039203Y018354D01*
X039203Y018433D02*
X043136Y018433D01*
X043136Y018511D02*
X039203Y018511D01*
X039203Y018590D02*
X043136Y018590D01*
X043136Y018668D02*
X039203Y018668D01*
X039203Y018747D02*
X043136Y018747D01*
X043136Y018825D02*
X039203Y018825D01*
X039203Y018904D02*
X043136Y018904D01*
X043136Y018982D02*
X039203Y018982D01*
X039203Y019061D02*
X043136Y019061D01*
X043136Y019139D02*
X039203Y019139D01*
X039203Y019218D02*
X043136Y019218D01*
X043136Y019296D02*
X039203Y019296D01*
X039203Y019375D02*
X043136Y019375D01*
X043136Y019453D02*
X042433Y019453D01*
X042292Y019425D02*
X042665Y019500D01*
X042982Y019711D01*
X043136Y019942D01*
X043136Y007081D01*
X042982Y007312D01*
X042665Y007523D01*
X042292Y007597D01*
X042292Y007597D01*
X041918Y007523D01*
X041602Y007312D01*
X041602Y007312D01*
X041390Y006995D01*
X041316Y006622D01*
X041316Y006622D01*
X041390Y006248D01*
X041602Y005932D01*
X041832Y005777D01*
X015945Y005777D01*
X016005Y005837D01*
X020605Y005837D01*
X020693Y005925D01*
X020793Y006025D01*
X020793Y008025D01*
X020873Y008105D01*
X020873Y008046D01*
X021002Y007917D01*
X021184Y007917D01*
X021254Y007987D01*
X021582Y007987D01*
X021652Y008058D01*
X021729Y007982D01*
X021811Y007982D01*
X022148Y008319D01*
X022148Y008402D01*
X021784Y008766D01*
X021701Y008766D01*
X021638Y008704D01*
X021336Y009006D01*
X021336Y009025D01*
X020860Y009501D01*
X020777Y009501D01*
X020579Y009303D01*
X020579Y009278D01*
X020554Y009278D01*
X020393Y009117D01*
X020393Y009773D01*
X021430Y010767D01*
X021534Y010767D01*
X021663Y010896D01*
X021663Y011079D01*
X021534Y011207D01*
X021363Y011207D01*
X021363Y011379D01*
X021234Y011507D01*
X021113Y011507D01*
X021113Y011629D01*
X020984Y011757D01*
X020863Y011757D01*
X020863Y011879D01*
X020734Y012007D01*
X020552Y012007D01*
X020423Y011879D01*
X020423Y011780D01*
X020393Y011750D01*
X020393Y012358D01*
X020554Y012196D01*
X020637Y012196D01*
X021113Y012673D01*
X021113Y012746D01*
X021755Y013387D01*
X021843Y013475D01*
X021843Y014025D01*
X022055Y014237D01*
X024231Y014237D01*
X024593Y013875D01*
X024681Y013787D01*
X028505Y013787D01*
X028955Y014237D01*
X029381Y014237D01*
X029643Y013975D01*
X029731Y013887D01*
X030314Y013887D01*
X030351Y013850D01*
X030934Y013850D01*
X030993Y013908D01*
X030993Y013925D01*
X031193Y013925D01*
X031193Y013913D01*
X031251Y013855D01*
X031834Y013855D01*
X031893Y013913D01*
X031893Y014566D01*
X031834Y014625D01*
X031693Y014625D01*
X031693Y015275D01*
X032105Y015687D01*
X032193Y015775D01*
X032193Y016367D01*
X032235Y016325D01*
X032751Y016325D01*
X032809Y016384D01*
X032809Y016472D01*
X032834Y016472D01*
X032834Y016375D01*
X032893Y016317D01*
X033527Y016317D01*
X033585Y016375D01*
X033585Y016852D01*
X033527Y016910D01*
X032893Y016910D01*
X032834Y016852D01*
X032834Y016772D01*
X032809Y016772D01*
X032809Y016860D01*
X032751Y016919D01*
X032235Y016919D01*
X032176Y016860D01*
X032176Y016737D01*
X032081Y016737D01*
X031893Y016550D01*
X031893Y015900D01*
X031393Y015400D01*
X031393Y014625D01*
X031251Y014625D01*
X031193Y014566D01*
X031193Y014225D01*
X030993Y014225D01*
X030993Y014562D01*
X030950Y014605D01*
X030974Y014629D01*
X030974Y015145D01*
X030916Y015204D01*
X030439Y015204D01*
X030381Y015145D01*
X030381Y014629D01*
X030390Y014620D01*
X030351Y014620D01*
X030293Y014562D01*
X030293Y014187D01*
X029855Y014187D01*
X029505Y014537D01*
X028831Y014537D01*
X028743Y014450D01*
X028381Y014087D01*
X027680Y014087D01*
X027768Y014175D01*
X027768Y014604D01*
X027932Y014439D01*
X028305Y014439D01*
X028568Y014703D01*
X028568Y015076D01*
X028388Y015256D01*
X028451Y015256D01*
X028468Y015273D01*
X028485Y015256D01*
X029001Y015256D01*
X029059Y015314D01*
X029059Y015791D01*
X029001Y015850D01*
X028485Y015850D01*
X028468Y015833D01*
X028451Y015850D01*
X027935Y015850D01*
X027876Y015791D01*
X027876Y015314D01*
X027892Y015299D01*
X027768Y015175D01*
X027768Y016072D01*
X027876Y016072D01*
X027876Y015984D01*
X027935Y015925D01*
X028451Y015925D01*
X028468Y015942D01*
X028485Y015925D01*
X029001Y015925D01*
X029059Y015984D01*
X029059Y016460D01*
X029001Y016519D01*
X028923Y016519D01*
X028923Y017162D01*
X028918Y017167D01*
X029146Y017072D01*
X029453Y017072D01*
X029736Y017189D01*
X029952Y017406D01*
X030049Y017640D01*
X030483Y017640D01*
X030483Y017039D01*
X030405Y017039D01*
X030346Y016980D01*
X030346Y016974D01*
X030301Y017019D01*
X029785Y017019D01*
X029726Y016960D01*
X029726Y016484D01*
X029785Y016425D01*
X030301Y016425D01*
X030346Y016470D01*
X030346Y016464D01*
X030405Y016406D01*
X030881Y016406D01*
X030940Y016464D01*
X030940Y016980D01*
X030881Y017039D01*
X030803Y017039D01*
X030803Y017640D01*
X030920Y017640D01*
X030978Y017698D01*
X030978Y017785D01*
X031951Y017785D01*
X031951Y017683D01*
X032010Y017625D01*
X032920Y017625D01*
X032978Y017683D01*
X032978Y018207D01*
X032920Y018265D01*
X032010Y018265D01*
X031951Y018207D01*
X031951Y018105D01*
X030978Y018105D01*
X030978Y018232D01*
X030920Y018290D01*
X030010Y018290D01*
X029966Y018246D01*
X029952Y018278D01*
X029736Y018495D01*
X029453Y018612D01*
X029146Y018612D01*
X028863Y018495D01*
X028647Y018278D01*
X028530Y017995D01*
X028530Y017689D01*
X028624Y017461D01*
X028567Y017517D01*
X028373Y017517D01*
X028373Y019057D01*
X031314Y019057D01*
X031252Y019032D01*
X031146Y018926D01*
X031089Y018787D01*
X031089Y018638D01*
X031146Y018499D01*
X031252Y018394D01*
X031390Y018336D01*
X031540Y018336D01*
X031678Y018394D01*
X031784Y018499D01*
X031841Y018638D01*
X031841Y018787D01*
X031784Y018926D01*
X031678Y019032D01*
X031616Y019057D01*
X033267Y019057D01*
X033303Y019093D01*
X033579Y018818D01*
X034076Y018818D01*
X034427Y019170D01*
X034427Y019357D01*
X034613Y019357D01*
X034613Y017613D01*
X034718Y017507D01*
X034718Y017507D01*
X034725Y017501D01*
X034547Y017501D01*
X034489Y017442D01*
X034489Y017147D01*
X034451Y017147D01*
X034451Y017177D02*
X034489Y017177D01*
X034489Y017255D02*
X034422Y017255D01*
X034489Y017334D02*
X031795Y017334D01*
X031795Y017356D02*
X031737Y017415D01*
X031193Y017415D01*
X031135Y017356D01*
X031135Y016486D01*
X031193Y016428D01*
X031737Y016428D01*
X031795Y016486D01*
X031795Y017356D01*
X031739Y017412D02*
X034489Y017412D01*
X034538Y017491D02*
X030803Y017491D01*
X030803Y017569D02*
X034656Y017569D01*
X034613Y017648D02*
X032943Y017648D01*
X032978Y017726D02*
X034613Y017726D01*
X034613Y017805D02*
X032978Y017805D01*
X032978Y017883D02*
X034613Y017883D01*
X034613Y017962D02*
X032978Y017962D01*
X032978Y018040D02*
X034613Y018040D01*
X034613Y018119D02*
X032978Y018119D01*
X032978Y018197D02*
X034613Y018197D01*
X034613Y018276D02*
X030934Y018276D01*
X030978Y018197D02*
X031951Y018197D01*
X031951Y018119D02*
X030978Y018119D01*
X030978Y017726D02*
X031951Y017726D01*
X031987Y017648D02*
X030928Y017648D01*
X030803Y017412D02*
X031191Y017412D01*
X031135Y017334D02*
X030803Y017334D01*
X030803Y017255D02*
X031135Y017255D01*
X031135Y017177D02*
X030803Y017177D01*
X030803Y017098D02*
X031135Y017098D01*
X031135Y017020D02*
X030900Y017020D01*
X030940Y016941D02*
X031135Y016941D01*
X031135Y016863D02*
X030940Y016863D01*
X030940Y016784D02*
X031135Y016784D01*
X031135Y016706D02*
X030940Y016706D01*
X030940Y016627D02*
X031135Y016627D01*
X031135Y016549D02*
X030940Y016549D01*
X030940Y016470D02*
X031151Y016470D01*
X031779Y016470D02*
X031893Y016470D01*
X031893Y016392D02*
X029059Y016392D01*
X029059Y016313D02*
X029749Y016313D01*
X029726Y016291D02*
X029726Y015814D01*
X029785Y015756D01*
X029883Y015756D01*
X029883Y015734D01*
X029750Y015734D01*
X029692Y015676D01*
X029692Y015199D01*
X029728Y015162D01*
X029711Y015145D01*
X029711Y014629D01*
X029770Y014571D01*
X030246Y014571D01*
X030305Y014629D01*
X030305Y015145D01*
X030288Y015162D01*
X030325Y015199D01*
X030325Y015676D01*
X030266Y015734D01*
X030203Y015734D01*
X030203Y015756D01*
X030301Y015756D01*
X030359Y015814D01*
X030359Y016291D01*
X030301Y016350D01*
X029785Y016350D01*
X029726Y016291D01*
X029726Y016235D02*
X029059Y016235D01*
X029059Y016156D02*
X029726Y016156D01*
X029726Y016078D02*
X029059Y016078D01*
X029059Y015999D02*
X029726Y015999D01*
X029726Y015921D02*
X027768Y015921D01*
X027768Y015999D02*
X027876Y015999D01*
X027928Y015842D02*
X027768Y015842D01*
X027768Y015764D02*
X027876Y015764D01*
X027876Y015685D02*
X027768Y015685D01*
X027768Y015607D02*
X027876Y015607D01*
X027876Y015528D02*
X027768Y015528D01*
X027768Y015450D02*
X027876Y015450D01*
X027876Y015371D02*
X027768Y015371D01*
X027768Y015293D02*
X027886Y015293D01*
X027807Y015214D02*
X027768Y015214D01*
X027468Y015214D02*
X026793Y015214D01*
X026793Y015136D02*
X027468Y015136D01*
X027468Y015057D02*
X026793Y015057D01*
X026793Y014979D02*
X027468Y014979D01*
X027468Y014900D02*
X026793Y014900D01*
X026793Y014822D02*
X027468Y014822D01*
X027468Y014743D02*
X026793Y014743D01*
X026793Y014665D02*
X027468Y014665D01*
X027468Y014586D02*
X026793Y014586D01*
X026793Y014508D02*
X027468Y014508D01*
X027468Y014429D02*
X026793Y014429D01*
X026793Y014375D02*
X026705Y014287D01*
X027456Y014287D01*
X027468Y014300D01*
X027468Y016250D01*
X027556Y016337D01*
X027590Y016372D01*
X027876Y016372D01*
X027876Y016460D01*
X027888Y016472D01*
X027861Y016499D01*
X027861Y016976D01*
X027919Y017034D01*
X028435Y017034D01*
X028494Y016976D01*
X028494Y016519D01*
X028563Y016519D01*
X028563Y017013D01*
X028418Y017157D01*
X025817Y017157D01*
X025723Y017063D01*
X025723Y016519D01*
X025801Y016519D01*
X025843Y016477D01*
X025853Y016487D01*
X025842Y016499D01*
X025842Y016976D01*
X025900Y017034D01*
X026416Y017034D01*
X026475Y016976D01*
X026475Y016499D01*
X026448Y016472D01*
X026459Y016460D01*
X026459Y016372D01*
X026570Y016372D01*
X026705Y016237D01*
X026793Y016150D01*
X026793Y014375D01*
X026768Y014351D02*
X027468Y014351D01*
X027768Y014351D02*
X028644Y014351D01*
X028566Y014272D02*
X027768Y014272D01*
X027768Y014194D02*
X028487Y014194D01*
X028409Y014115D02*
X027708Y014115D01*
X027768Y014429D02*
X028723Y014429D01*
X028801Y014508D02*
X028373Y014508D01*
X028452Y014586D02*
X029754Y014586D01*
X029711Y014665D02*
X028530Y014665D01*
X028568Y014743D02*
X029711Y014743D01*
X029711Y014822D02*
X028568Y014822D01*
X028568Y014900D02*
X029711Y014900D01*
X029711Y014979D02*
X028568Y014979D01*
X028568Y015057D02*
X029711Y015057D01*
X029711Y015136D02*
X028508Y015136D01*
X028430Y015214D02*
X029692Y015214D01*
X029692Y015293D02*
X029038Y015293D01*
X029059Y015371D02*
X029692Y015371D01*
X029692Y015450D02*
X029059Y015450D01*
X029059Y015528D02*
X029692Y015528D01*
X029692Y015607D02*
X029059Y015607D01*
X029059Y015685D02*
X029701Y015685D01*
X029777Y015764D02*
X029059Y015764D01*
X029008Y015842D02*
X029726Y015842D01*
X030309Y015764D02*
X031757Y015764D01*
X031679Y015685D02*
X030315Y015685D01*
X030325Y015607D02*
X031600Y015607D01*
X031522Y015528D02*
X030325Y015528D01*
X030325Y015450D02*
X031443Y015450D01*
X031393Y015371D02*
X030325Y015371D01*
X030325Y015293D02*
X031393Y015293D01*
X031393Y015214D02*
X030325Y015214D01*
X030305Y015136D02*
X030381Y015136D01*
X030381Y015057D02*
X030305Y015057D01*
X030305Y014979D02*
X030381Y014979D01*
X030381Y014900D02*
X030305Y014900D01*
X030305Y014822D02*
X030381Y014822D01*
X030381Y014743D02*
X030305Y014743D01*
X030305Y014665D02*
X030381Y014665D01*
X030318Y014586D02*
X030262Y014586D01*
X030293Y014508D02*
X029534Y014508D01*
X029613Y014429D02*
X030293Y014429D01*
X030293Y014351D02*
X029691Y014351D01*
X029770Y014272D02*
X030293Y014272D01*
X030293Y014194D02*
X029848Y014194D01*
X029660Y013958D02*
X029313Y013958D01*
X029313Y013896D02*
X029313Y014079D01*
X029184Y014207D01*
X029002Y014207D01*
X028873Y014079D01*
X028873Y013980D01*
X028531Y013637D01*
X027131Y013637D01*
X027043Y013550D01*
X025881Y012387D01*
X022897Y012387D01*
X022897Y013093D01*
X022839Y013151D01*
X022047Y013151D01*
X021988Y013093D01*
X021988Y012887D01*
X021731Y012887D01*
X021643Y012800D01*
X021351Y012508D01*
X021278Y012508D01*
X020802Y012032D01*
X020802Y011949D01*
X021000Y011751D01*
X021024Y011751D01*
X021024Y011726D01*
X021222Y011528D01*
X021247Y011528D01*
X021247Y011503D01*
X021445Y011306D01*
X021470Y011306D01*
X021470Y011281D01*
X021668Y011083D01*
X021693Y011083D01*
X021693Y011058D01*
X021890Y010860D01*
X021973Y010860D01*
X022449Y011336D01*
X022449Y011419D01*
X022443Y011425D01*
X022455Y011437D01*
X024532Y011437D01*
X024423Y011329D01*
X024423Y011146D01*
X024552Y011017D01*
X024734Y011017D01*
X024804Y011087D01*
X025126Y011087D01*
X025126Y010934D01*
X025185Y010875D01*
X025701Y010875D01*
X025759Y010934D01*
X025759Y011022D01*
X025846Y011022D01*
X025846Y010914D01*
X025905Y010856D01*
X026381Y010856D01*
X026440Y010914D01*
X026440Y011430D01*
X026432Y011437D01*
X026731Y011437D01*
X026843Y011325D01*
X026843Y010175D01*
X026943Y010075D01*
X027031Y009987D01*
X027209Y009987D01*
X027209Y009928D01*
X027268Y009869D01*
X027902Y009869D01*
X027960Y009928D01*
X027960Y010404D01*
X027902Y010463D01*
X027268Y010463D01*
X027209Y010404D01*
X027209Y010287D01*
X027155Y010287D01*
X027143Y010300D01*
X027143Y011450D01*
X027055Y011537D01*
X026955Y011637D01*
X027627Y011637D01*
X027959Y011305D01*
X027959Y010903D01*
X028018Y010844D01*
X028501Y010844D01*
X028493Y010837D01*
X028134Y010837D01*
X028075Y010778D01*
X028075Y010302D01*
X028134Y010243D01*
X028768Y010243D01*
X028827Y010302D01*
X028827Y010661D01*
X028926Y010760D01*
X030462Y010760D01*
X030462Y010682D01*
X030520Y010624D01*
X030997Y010624D01*
X031055Y010682D01*
X031055Y011198D01*
X031026Y011228D01*
X031055Y011257D01*
X031055Y011773D01*
X031001Y011828D01*
X031055Y011883D01*
X031055Y012399D01*
X030997Y012457D01*
X030520Y012457D01*
X030462Y012399D01*
X030462Y012321D01*
X028876Y012321D01*
X028827Y012370D01*
X028827Y012729D01*
X028768Y012787D01*
X028134Y012787D01*
X028075Y012729D01*
X028075Y012252D01*
X028134Y012194D01*
X028493Y012194D01*
X028726Y011961D01*
X030462Y011961D01*
X030462Y011883D01*
X030516Y011828D01*
X030462Y011773D01*
X030462Y011695D01*
X029577Y011695D01*
X029577Y011754D01*
X029518Y011812D01*
X028884Y011812D01*
X028825Y011754D01*
X028825Y011277D01*
X028884Y011219D01*
X029518Y011219D01*
X029577Y011277D01*
X029577Y011335D01*
X030462Y011335D01*
X030462Y011257D01*
X030491Y011228D01*
X030462Y011198D01*
X030462Y011120D01*
X028776Y011120D01*
X028710Y011054D01*
X028710Y011380D01*
X028652Y011438D01*
X028250Y011438D01*
X027869Y011820D01*
X027902Y011820D01*
X027960Y011878D01*
X027960Y012355D01*
X027902Y012413D01*
X027268Y012413D01*
X027209Y012355D01*
X027209Y012287D01*
X026531Y012287D01*
X026443Y012200D01*
X026381Y012137D01*
X026055Y012137D01*
X027255Y013337D01*
X028655Y013337D01*
X029085Y013767D01*
X029184Y013767D01*
X029313Y013896D01*
X029296Y013880D02*
X030321Y013880D01*
X030964Y013880D02*
X031226Y013880D01*
X031193Y014272D02*
X030993Y014272D01*
X030993Y014351D02*
X031193Y014351D01*
X031193Y014429D02*
X030993Y014429D01*
X030993Y014508D02*
X031193Y014508D01*
X031213Y014586D02*
X030968Y014586D01*
X030974Y014665D02*
X031393Y014665D01*
X031393Y014743D02*
X030974Y014743D01*
X030974Y014822D02*
X031393Y014822D01*
X031393Y014900D02*
X030974Y014900D01*
X030974Y014979D02*
X031393Y014979D01*
X031393Y015057D02*
X030974Y015057D01*
X030974Y015136D02*
X031393Y015136D01*
X031693Y015136D02*
X033321Y015136D01*
X033242Y015214D02*
X031693Y015214D01*
X031710Y015293D02*
X033227Y015293D01*
X033227Y015371D02*
X031789Y015371D01*
X031867Y015450D02*
X033227Y015450D01*
X033227Y015528D02*
X031946Y015528D01*
X032024Y015607D02*
X033227Y015607D01*
X033227Y015685D02*
X032103Y015685D01*
X032181Y015764D02*
X033264Y015764D01*
X033343Y015842D02*
X032193Y015842D01*
X032193Y015921D02*
X033421Y015921D01*
X033500Y015999D02*
X032193Y015999D01*
X032193Y016078D02*
X033578Y016078D01*
X033683Y016156D02*
X032193Y016156D01*
X032193Y016235D02*
X033683Y016235D01*
X033683Y016313D02*
X032193Y016313D01*
X031893Y016313D02*
X030337Y016313D01*
X030359Y016235D02*
X031893Y016235D01*
X031893Y016156D02*
X030359Y016156D01*
X030359Y016078D02*
X031893Y016078D01*
X031893Y015999D02*
X030359Y015999D01*
X030359Y015921D02*
X031893Y015921D01*
X031836Y015842D02*
X030359Y015842D01*
X029740Y016470D02*
X029049Y016470D01*
X028923Y016549D02*
X029726Y016549D01*
X029726Y016627D02*
X028923Y016627D01*
X028923Y016706D02*
X029726Y016706D01*
X029726Y016784D02*
X028923Y016784D01*
X028923Y016863D02*
X029726Y016863D01*
X029726Y016941D02*
X028923Y016941D01*
X028923Y017020D02*
X030386Y017020D01*
X030483Y017098D02*
X029516Y017098D01*
X029705Y017177D02*
X030483Y017177D01*
X030483Y017255D02*
X029802Y017255D01*
X029880Y017334D02*
X030483Y017334D01*
X030483Y017412D02*
X029955Y017412D01*
X029987Y017491D02*
X030483Y017491D01*
X030483Y017569D02*
X030020Y017569D01*
X029995Y018276D02*
X029953Y018276D01*
X029876Y018354D02*
X031346Y018354D01*
X031212Y018433D02*
X029797Y018433D01*
X029696Y018511D02*
X031141Y018511D01*
X031108Y018590D02*
X029506Y018590D01*
X029093Y018590D02*
X028373Y018590D01*
X028373Y018668D02*
X031089Y018668D01*
X031089Y018747D02*
X028373Y018747D01*
X028373Y018825D02*
X031104Y018825D01*
X031137Y018904D02*
X028373Y018904D01*
X028373Y018982D02*
X031203Y018982D01*
X031727Y018982D02*
X033414Y018982D01*
X033336Y019061D02*
X033271Y019061D01*
X033493Y018904D02*
X031793Y018904D01*
X031825Y018825D02*
X033571Y018825D01*
X034083Y018825D02*
X034613Y018825D01*
X034613Y018747D02*
X031841Y018747D01*
X031841Y018668D02*
X034613Y018668D01*
X034613Y018590D02*
X031821Y018590D01*
X031789Y018511D02*
X034613Y018511D01*
X034613Y018433D02*
X031717Y018433D01*
X031583Y018354D02*
X034613Y018354D01*
X034973Y018354D02*
X035165Y018354D01*
X035202Y018317D02*
X035384Y018317D01*
X035454Y018387D01*
X035486Y018387D01*
X035486Y018378D01*
X035545Y018319D01*
X036494Y018319D01*
X036552Y018378D01*
X036552Y018697D01*
X036494Y018756D01*
X035545Y018756D01*
X035486Y018697D01*
X035486Y018687D01*
X035454Y018687D01*
X035384Y018757D01*
X035202Y018757D01*
X035073Y018629D01*
X035073Y018446D01*
X035202Y018317D01*
X035086Y018433D02*
X034973Y018433D01*
X034973Y018511D02*
X035073Y018511D01*
X035073Y018590D02*
X034973Y018590D01*
X034973Y018668D02*
X035113Y018668D01*
X035191Y018747D02*
X034973Y018747D01*
X034973Y018825D02*
X037586Y018825D01*
X037592Y018756D02*
X037534Y018697D01*
X037327Y018697D01*
X037233Y018604D01*
X037167Y018538D01*
X037167Y018254D01*
X037089Y018254D01*
X037031Y018195D01*
X037031Y017679D01*
X037089Y017621D01*
X037566Y017621D01*
X037624Y017679D01*
X037624Y018195D01*
X037566Y018254D01*
X037487Y018254D01*
X037487Y018377D01*
X037534Y018377D01*
X037592Y018319D01*
X038541Y018319D01*
X038599Y018378D01*
X038599Y018697D01*
X038541Y018756D01*
X037592Y018756D01*
X037583Y018747D02*
X036502Y018747D01*
X036552Y018668D02*
X037298Y018668D01*
X037219Y018590D02*
X036552Y018590D01*
X036552Y018511D02*
X037167Y018511D01*
X037167Y018433D02*
X036552Y018433D01*
X036529Y018354D02*
X037167Y018354D01*
X037167Y018276D02*
X034973Y018276D01*
X034973Y018197D02*
X037033Y018197D01*
X037031Y018119D02*
X034973Y018119D01*
X034973Y018040D02*
X037031Y018040D01*
X037031Y017962D02*
X034973Y017962D01*
X034973Y017883D02*
X037031Y017883D01*
X037031Y017805D02*
X034973Y017805D01*
X035279Y017334D02*
X035906Y017334D01*
X035906Y017255D02*
X035279Y017255D01*
X035279Y017177D02*
X035906Y017177D01*
X035906Y017098D02*
X035279Y017098D01*
X035279Y017020D02*
X035906Y017020D01*
X035906Y016941D02*
X035279Y016941D01*
X035279Y016863D02*
X035906Y016863D01*
X035906Y016784D02*
X035279Y016784D01*
X035279Y016706D02*
X035906Y016706D01*
X035906Y016627D02*
X035279Y016627D01*
X035279Y016549D02*
X035906Y016549D01*
X036133Y016470D02*
X035053Y016470D01*
X035555Y016392D02*
X035631Y016392D01*
X035631Y016313D02*
X035555Y016313D01*
X035555Y016235D02*
X035631Y016235D01*
X035631Y016156D02*
X035555Y016156D01*
X035555Y016078D02*
X035631Y016078D01*
X035631Y015999D02*
X035555Y015999D01*
X035555Y015921D02*
X035631Y015921D01*
X035668Y015842D02*
X035518Y015842D01*
X036187Y015842D02*
X038495Y015842D01*
X038495Y015921D02*
X036224Y015921D01*
X036281Y015999D02*
X038495Y015999D01*
X038495Y016078D02*
X036360Y016078D01*
X036438Y016156D02*
X038495Y016156D01*
X038469Y016235D02*
X036453Y016235D01*
X036453Y016313D02*
X038390Y016313D01*
X038312Y016392D02*
X036453Y016392D01*
X036453Y016470D02*
X038283Y016470D01*
X038283Y016549D02*
X036697Y016549D01*
X036697Y016627D02*
X038283Y016627D01*
X038283Y016706D02*
X036697Y016706D01*
X036697Y016784D02*
X038283Y016784D01*
X038283Y016863D02*
X036697Y016863D01*
X036697Y016941D02*
X038283Y016941D01*
X038283Y017020D02*
X036697Y017020D01*
X036697Y017098D02*
X038283Y017098D01*
X038283Y017177D02*
X036697Y017177D01*
X036697Y017255D02*
X038283Y017255D01*
X038283Y017334D02*
X036697Y017334D01*
X036697Y017412D02*
X038283Y017412D01*
X038283Y017491D02*
X036648Y017491D01*
X036481Y017569D02*
X038283Y017569D01*
X038283Y017648D02*
X037593Y017648D01*
X037624Y017726D02*
X038283Y017726D01*
X038283Y017805D02*
X037624Y017805D01*
X037624Y017883D02*
X038283Y017883D01*
X038291Y017962D02*
X037624Y017962D01*
X037624Y018040D02*
X038370Y018040D01*
X038448Y018119D02*
X037624Y018119D01*
X037622Y018197D02*
X038527Y018197D01*
X038605Y018276D02*
X037487Y018276D01*
X037487Y018354D02*
X037557Y018354D01*
X037400Y018904D02*
X034973Y018904D01*
X034973Y018982D02*
X037321Y018982D01*
X037243Y019061D02*
X034973Y019061D01*
X034973Y019139D02*
X037233Y019139D01*
X037233Y019218D02*
X034973Y019218D01*
X034973Y019296D02*
X037233Y019296D01*
X037233Y019375D02*
X036549Y019375D01*
X036735Y019453D02*
X037233Y019453D01*
X037233Y019532D02*
X036814Y019532D01*
X036853Y019610D02*
X037233Y019610D01*
X037233Y019689D02*
X036853Y019689D01*
X036853Y019767D02*
X037233Y019767D01*
X037233Y019846D02*
X036853Y019846D01*
X036853Y019924D02*
X037233Y019924D01*
X037233Y020003D02*
X036853Y020003D01*
X036853Y020081D02*
X037233Y020081D01*
X037233Y020160D02*
X036853Y020160D01*
X036853Y020238D02*
X037233Y020238D01*
X037233Y020317D02*
X036853Y020317D01*
X036940Y020395D02*
X037161Y020395D01*
X037161Y020474D02*
X036944Y020474D01*
X036944Y020552D02*
X037161Y020552D01*
X037161Y020631D02*
X036944Y020631D01*
X036944Y020709D02*
X037161Y020709D01*
X037161Y020788D02*
X036944Y020788D01*
X036944Y020866D02*
X037161Y020866D01*
X037211Y020945D02*
X026439Y020945D01*
X026361Y021023D02*
X039228Y021023D01*
X039111Y020945D02*
X038375Y020945D01*
X038424Y020866D02*
X039033Y020866D01*
X038972Y020474D02*
X038424Y020474D01*
X038424Y020395D02*
X039004Y020395D01*
X039045Y020317D02*
X037553Y020317D01*
X037553Y020238D02*
X037575Y020238D01*
X037755Y020395D02*
X037831Y020395D01*
X037831Y020474D02*
X037755Y020474D01*
X037755Y020552D02*
X037831Y020552D01*
X037831Y020631D02*
X037755Y020631D01*
X037755Y020709D02*
X037831Y020709D01*
X037831Y020788D02*
X037755Y020788D01*
X037755Y020866D02*
X037831Y020866D01*
X037880Y020945D02*
X037705Y020945D01*
X038558Y020238D02*
X039124Y020238D01*
X038989Y020160D02*
X038599Y020160D01*
X038599Y020081D02*
X038911Y020081D01*
X038883Y020003D02*
X038599Y020003D01*
X038599Y019924D02*
X038883Y019924D01*
X038883Y019846D02*
X038568Y019846D01*
X038883Y019767D02*
X037553Y019767D01*
X037553Y019846D02*
X037565Y019846D01*
X036533Y020238D02*
X036511Y020238D01*
X036533Y020317D02*
X031841Y020317D01*
X031841Y020362D02*
X031784Y020501D01*
X031678Y020606D01*
X031540Y020664D01*
X031390Y020664D01*
X031252Y020606D01*
X031146Y020501D01*
X031089Y020362D01*
X031089Y020213D01*
X031146Y020074D01*
X031252Y019968D01*
X031390Y019911D01*
X031540Y019911D01*
X031678Y019968D01*
X031784Y020074D01*
X031841Y020213D01*
X031841Y020362D01*
X031827Y020395D02*
X036315Y020395D01*
X036311Y020474D02*
X031795Y020474D01*
X031732Y020552D02*
X036311Y020552D01*
X036311Y020631D02*
X031619Y020631D01*
X031311Y020631D02*
X026600Y020631D01*
X026600Y020709D02*
X036311Y020709D01*
X036311Y020788D02*
X026596Y020788D01*
X026600Y020784D02*
X026336Y021048D01*
X025963Y021048D01*
X025700Y020784D01*
X025700Y020412D01*
X025962Y020150D01*
X025893Y020150D01*
X025835Y020091D01*
X025835Y019615D01*
X025893Y019556D01*
X026409Y019556D01*
X026422Y019569D01*
X026470Y019521D01*
X026946Y019521D01*
X027005Y019579D01*
X027005Y020095D01*
X026946Y020154D01*
X026470Y020154D01*
X026437Y020122D01*
X026409Y020150D01*
X026338Y020150D01*
X026600Y020412D01*
X026600Y020784D01*
X026518Y020866D02*
X036311Y020866D01*
X035528Y020238D02*
X033159Y020238D01*
X033180Y020218D02*
X033121Y020276D01*
X032133Y020276D01*
X032074Y020218D01*
X032074Y019557D01*
X032133Y019499D01*
X033121Y019499D01*
X033180Y019557D01*
X033180Y020218D01*
X033180Y020160D02*
X035203Y020160D01*
X035076Y020081D02*
X033180Y020081D01*
X033180Y020003D02*
X033563Y020003D01*
X033485Y019924D02*
X033180Y019924D01*
X033180Y019846D02*
X033406Y019846D01*
X033328Y019767D02*
X033180Y019767D01*
X033180Y019689D02*
X033249Y019689D01*
X033227Y019610D02*
X033180Y019610D01*
X033154Y019532D02*
X033227Y019532D01*
X033154Y019453D02*
X028373Y019453D01*
X028373Y019532D02*
X032099Y019532D01*
X032074Y019610D02*
X028373Y019610D01*
X028373Y019689D02*
X032074Y019689D01*
X032074Y019767D02*
X028373Y019767D01*
X028339Y019846D02*
X032074Y019846D01*
X032074Y019924D02*
X031572Y019924D01*
X031712Y020003D02*
X032074Y020003D01*
X032074Y020081D02*
X031787Y020081D01*
X031819Y020160D02*
X032074Y020160D01*
X032095Y020238D02*
X031841Y020238D01*
X031358Y019924D02*
X028260Y019924D01*
X028182Y020003D02*
X031217Y020003D01*
X031143Y020081D02*
X027674Y020081D01*
X027674Y019610D02*
X028013Y019610D01*
X028013Y019532D02*
X027627Y019532D01*
X028013Y019453D02*
X027047Y019453D01*
X027075Y019375D02*
X028013Y019375D01*
X028013Y019296D02*
X027075Y019296D01*
X027075Y019218D02*
X028013Y019218D01*
X028013Y019139D02*
X027075Y019139D01*
X027075Y019061D02*
X028013Y019061D01*
X028013Y018982D02*
X027075Y018982D01*
X027029Y018904D02*
X028013Y018904D01*
X028013Y018825D02*
X023143Y018825D01*
X023143Y018747D02*
X028013Y018747D01*
X028013Y018668D02*
X023143Y018668D01*
X023143Y018590D02*
X023884Y018590D01*
X023823Y018511D02*
X023143Y018511D01*
X023143Y018433D02*
X023823Y018433D01*
X023823Y018354D02*
X023143Y018354D01*
X023143Y018276D02*
X023863Y018276D01*
X023863Y018197D02*
X023143Y018197D01*
X023143Y018119D02*
X023863Y018119D01*
X023863Y018040D02*
X023143Y018040D01*
X023143Y017962D02*
X023863Y017962D01*
X023863Y017883D02*
X023143Y017883D01*
X023143Y017805D02*
X023863Y017805D01*
X023863Y017726D02*
X023143Y017726D01*
X023143Y017648D02*
X023863Y017648D01*
X023863Y017569D02*
X023143Y017569D01*
X023143Y017491D02*
X023863Y017491D01*
X023863Y017412D02*
X023143Y017412D01*
X023143Y017334D02*
X023863Y017334D01*
X023863Y017255D02*
X023143Y017255D01*
X023143Y017177D02*
X023863Y017177D01*
X023863Y017098D02*
X023143Y017098D01*
X023143Y017020D02*
X023863Y017020D01*
X023863Y016941D02*
X023143Y016941D01*
X023143Y016863D02*
X023863Y016863D01*
X023863Y016784D02*
X023143Y016784D01*
X023143Y016706D02*
X023920Y016706D01*
X023998Y016627D02*
X023143Y016627D01*
X023143Y016549D02*
X025363Y016549D01*
X025236Y016470D02*
X023143Y016470D01*
X023143Y016392D02*
X025226Y016392D01*
X025226Y016313D02*
X023143Y016313D01*
X023143Y016235D02*
X025226Y016235D01*
X025226Y016156D02*
X023143Y016156D01*
X023143Y016078D02*
X025226Y016078D01*
X025226Y015999D02*
X023143Y015999D01*
X023143Y015921D02*
X026493Y015921D01*
X026493Y015999D02*
X026459Y015999D01*
X026493Y015842D02*
X026408Y015842D01*
X026459Y015764D02*
X026493Y015764D01*
X026493Y015685D02*
X026459Y015685D01*
X026459Y015607D02*
X026493Y015607D01*
X026493Y015528D02*
X026459Y015528D01*
X026459Y015450D02*
X026493Y015450D01*
X026493Y015371D02*
X026459Y015371D01*
X026438Y015293D02*
X026493Y015293D01*
X026493Y015214D02*
X026461Y015214D01*
X026793Y015293D02*
X027468Y015293D01*
X027468Y015371D02*
X026793Y015371D01*
X026793Y015450D02*
X027468Y015450D01*
X027468Y015528D02*
X026793Y015528D01*
X026793Y015607D02*
X027468Y015607D01*
X027468Y015685D02*
X026793Y015685D01*
X026793Y015764D02*
X027468Y015764D01*
X027468Y015842D02*
X026793Y015842D01*
X026793Y015921D02*
X027468Y015921D01*
X027468Y015999D02*
X026793Y015999D01*
X026793Y016078D02*
X027468Y016078D01*
X027468Y016156D02*
X026786Y016156D01*
X026707Y016235D02*
X027468Y016235D01*
X027532Y016313D02*
X026629Y016313D01*
X026459Y016392D02*
X027876Y016392D01*
X027886Y016470D02*
X026449Y016470D01*
X026475Y016549D02*
X027861Y016549D01*
X027861Y016627D02*
X026475Y016627D01*
X026475Y016706D02*
X027861Y016706D01*
X027861Y016784D02*
X026475Y016784D01*
X026475Y016863D02*
X027861Y016863D01*
X027861Y016941D02*
X026475Y016941D01*
X026430Y017020D02*
X027905Y017020D01*
X028450Y017020D02*
X028556Y017020D01*
X028563Y016941D02*
X028494Y016941D01*
X028494Y016863D02*
X028563Y016863D01*
X028563Y016784D02*
X028494Y016784D01*
X028494Y016706D02*
X028563Y016706D01*
X028563Y016627D02*
X028494Y016627D01*
X028494Y016549D02*
X028563Y016549D01*
X028477Y017098D02*
X025758Y017098D01*
X025723Y017020D02*
X025886Y017020D01*
X025842Y016941D02*
X025723Y016941D01*
X025723Y016863D02*
X025842Y016863D01*
X025842Y016784D02*
X025723Y016784D01*
X025723Y016706D02*
X025842Y016706D01*
X025842Y016627D02*
X025723Y016627D01*
X025723Y016549D02*
X025842Y016549D01*
X025808Y015842D02*
X025878Y015842D01*
X025278Y015842D02*
X023143Y015842D01*
X023143Y015764D02*
X025226Y015764D01*
X025226Y015685D02*
X023143Y015685D01*
X023143Y015607D02*
X025226Y015607D01*
X025226Y015528D02*
X023143Y015528D01*
X023117Y015450D02*
X025226Y015450D01*
X025226Y015371D02*
X023039Y015371D01*
X022960Y015293D02*
X025248Y015293D01*
X025156Y015136D02*
X025760Y015136D01*
X025700Y015057D02*
X025235Y015057D01*
X025313Y014979D02*
X025700Y014979D01*
X025700Y014900D02*
X025392Y014900D01*
X025470Y014822D02*
X025700Y014822D01*
X025700Y014743D02*
X025549Y014743D01*
X025627Y014665D02*
X025738Y014665D01*
X025706Y014586D02*
X025816Y014586D01*
X025784Y014508D02*
X025895Y014508D01*
X025053Y014115D02*
X024777Y014115D01*
X024698Y014194D02*
X024974Y014194D01*
X024896Y014272D02*
X024620Y014272D01*
X024541Y014351D02*
X024817Y014351D01*
X024739Y014429D02*
X024463Y014429D01*
X024384Y014508D02*
X024660Y014508D01*
X024582Y014586D02*
X023053Y014586D01*
X022833Y014586D02*
X021693Y014586D01*
X021693Y014508D02*
X021901Y014508D01*
X021823Y014429D02*
X021693Y014429D01*
X021693Y014351D02*
X021744Y014351D01*
X021933Y014115D02*
X024353Y014115D01*
X024431Y014037D02*
X021854Y014037D01*
X021843Y013958D02*
X024510Y013958D01*
X024588Y013880D02*
X021843Y013880D01*
X021843Y013801D02*
X024667Y013801D01*
X024274Y014194D02*
X022011Y014194D01*
X021843Y013723D02*
X023267Y013723D01*
X023302Y013757D02*
X023173Y013629D01*
X023173Y013516D01*
X023166Y013509D01*
X023166Y013033D01*
X023224Y012974D01*
X023740Y012974D01*
X023799Y013033D01*
X023799Y013509D01*
X023740Y013568D01*
X023613Y013568D01*
X023613Y013629D01*
X023484Y013757D01*
X023302Y013757D01*
X023189Y013644D02*
X021843Y013644D01*
X021843Y013566D02*
X023173Y013566D01*
X023166Y013487D02*
X021843Y013487D01*
X021776Y013409D02*
X023166Y013409D01*
X023166Y013330D02*
X021698Y013330D01*
X021619Y013252D02*
X023166Y013252D01*
X023166Y013173D02*
X021541Y013173D01*
X021462Y013095D02*
X021991Y013095D01*
X021988Y013016D02*
X021384Y013016D01*
X021305Y012938D02*
X021988Y012938D01*
X021703Y012859D02*
X021227Y012859D01*
X021148Y012781D02*
X021624Y012781D01*
X021546Y012702D02*
X021113Y012702D01*
X021064Y012624D02*
X021467Y012624D01*
X021389Y012545D02*
X020986Y012545D01*
X020907Y012467D02*
X021237Y012467D01*
X021159Y012388D02*
X020829Y012388D01*
X020750Y012310D02*
X021080Y012310D01*
X021002Y012231D02*
X020672Y012231D01*
X020519Y012231D02*
X020393Y012231D01*
X020393Y012153D02*
X020923Y012153D01*
X020845Y012074D02*
X020393Y012074D01*
X020393Y011996D02*
X020540Y011996D01*
X020462Y011917D02*
X020393Y011917D01*
X020393Y011839D02*
X020423Y011839D01*
X020404Y011760D02*
X020393Y011760D01*
X020093Y011839D02*
X019605Y011839D01*
X019684Y011917D02*
X020093Y011917D01*
X020093Y011996D02*
X019713Y011996D01*
X019713Y012074D02*
X020093Y012074D01*
X020093Y012153D02*
X019688Y012153D01*
X019688Y012231D02*
X019643Y012231D01*
X019998Y012231D02*
X020093Y012231D01*
X020093Y012310D02*
X020063Y012310D01*
X020063Y012388D02*
X020093Y012388D01*
X020093Y012467D02*
X020063Y012467D01*
X020093Y012545D02*
X019996Y012545D01*
X020126Y012624D02*
X019818Y012624D01*
X019740Y012702D02*
X020048Y012702D01*
X019970Y012781D02*
X019661Y012781D01*
X019583Y012859D02*
X019911Y012859D01*
X019813Y012938D02*
X019555Y012938D01*
X019634Y013016D02*
X019734Y013016D01*
X019445Y013252D02*
X019267Y013252D01*
X019220Y013330D02*
X019465Y013330D01*
X019507Y013409D02*
X019179Y013409D01*
X019100Y013487D02*
X019585Y013487D01*
X019664Y013566D02*
X019022Y013566D01*
X018943Y013644D02*
X019742Y013644D01*
X019821Y013723D02*
X018865Y013723D01*
X018786Y013801D02*
X019899Y013801D01*
X020067Y013801D02*
X020395Y013801D01*
X020316Y013723D02*
X020146Y013723D01*
X020222Y013644D02*
X020238Y013644D01*
X020473Y013880D02*
X016297Y013880D01*
X016293Y013801D02*
X018618Y013801D01*
X018540Y013723D02*
X016293Y013723D01*
X016293Y013644D02*
X018463Y013644D01*
X018383Y013566D02*
X018075Y013566D01*
X018154Y013487D02*
X018304Y013487D01*
X018241Y013409D02*
X018163Y013409D01*
X017810Y013566D02*
X016293Y013566D01*
X016293Y013487D02*
X017368Y013487D01*
X017463Y013487D02*
X017732Y013487D01*
X017723Y013409D02*
X017541Y013409D01*
X017620Y013330D02*
X017723Y013330D01*
X017698Y013252D02*
X017767Y013252D01*
X017777Y013173D02*
X017793Y013173D01*
X017290Y013409D02*
X016293Y013409D01*
X016293Y013330D02*
X017211Y013330D01*
X017133Y013252D02*
X016293Y013252D01*
X016293Y013173D02*
X017054Y013173D01*
X017037Y013095D02*
X016297Y013095D01*
X016376Y013016D02*
X017011Y013016D01*
X016973Y012938D02*
X016454Y012938D01*
X016533Y012859D02*
X016973Y012859D01*
X016988Y012781D02*
X016611Y012781D01*
X016690Y012702D02*
X017067Y012702D01*
X017319Y012702D02*
X017572Y012702D01*
X017621Y012624D02*
X016768Y012624D01*
X016847Y012545D02*
X017700Y012545D01*
X017778Y012467D02*
X017448Y012467D01*
X017527Y012388D02*
X017857Y012388D01*
X017935Y012310D02*
X017605Y012310D01*
X017684Y012231D02*
X018014Y012231D01*
X018167Y012231D02*
X018543Y012231D01*
X018543Y012153D02*
X017762Y012153D01*
X017841Y012074D02*
X018519Y012074D01*
X018473Y011996D02*
X017884Y011996D01*
X017929Y011917D02*
X018473Y011917D01*
X018480Y011839D02*
X018102Y011839D01*
X018181Y011760D02*
X018559Y011760D01*
X018747Y011603D02*
X018213Y011603D01*
X018213Y011682D02*
X018825Y011682D01*
X018827Y011760D02*
X018904Y011760D01*
X018905Y011839D02*
X018982Y011839D01*
X018993Y011917D02*
X018913Y011917D01*
X018913Y011996D02*
X018993Y011996D01*
X018993Y012074D02*
X018867Y012074D01*
X018843Y012153D02*
X018993Y012153D01*
X018993Y012231D02*
X018843Y012231D01*
X018843Y012310D02*
X018958Y012310D01*
X018880Y012388D02*
X018843Y012388D01*
X018543Y012388D02*
X018324Y012388D01*
X018402Y012467D02*
X018543Y012467D01*
X018543Y012545D02*
X018481Y012545D01*
X018543Y012310D02*
X018245Y012310D01*
X017284Y012467D02*
X016925Y012467D01*
X017004Y012388D02*
X017205Y012388D01*
X017127Y012310D02*
X017082Y012310D01*
X017617Y011682D02*
X017741Y011682D01*
X017773Y011603D02*
X017538Y011603D01*
X017438Y011525D02*
X017794Y011525D01*
X017873Y011446D02*
X017510Y011446D01*
X017588Y011368D02*
X018743Y011368D01*
X018743Y011446D02*
X018113Y011446D01*
X018191Y011525D02*
X018743Y011525D01*
X018734Y011289D02*
X017702Y011289D01*
X017763Y011211D02*
X018673Y011211D01*
X018673Y011132D02*
X017763Y011132D01*
X017763Y011054D02*
X018673Y011054D01*
X018744Y010975D02*
X017692Y010975D01*
X017394Y010975D02*
X017090Y010975D01*
X017168Y010897D02*
X019190Y010897D01*
X019112Y010818D02*
X017247Y010818D01*
X017325Y010740D02*
X018934Y010740D01*
X018856Y010661D02*
X017395Y010661D01*
X017558Y010583D02*
X018823Y010583D01*
X018823Y010504D02*
X017637Y010504D01*
X017663Y010426D02*
X018843Y010426D01*
X018922Y010347D02*
X017663Y010347D01*
X017635Y010269D02*
X019243Y010269D01*
X019243Y010347D02*
X019164Y010347D01*
X019243Y010190D02*
X017557Y010190D01*
X017329Y010190D02*
X017216Y010190D01*
X017250Y010269D02*
X017141Y010269D01*
X017062Y010347D02*
X017223Y010347D01*
X017204Y010426D02*
X016984Y010426D01*
X016905Y010504D02*
X017132Y010504D01*
X017058Y010583D02*
X016827Y010583D01*
X016765Y010661D02*
X016980Y010661D01*
X016901Y010740D02*
X016752Y010740D01*
X016823Y010818D02*
X016674Y010818D01*
X016676Y010897D02*
X016595Y010897D01*
X016597Y010975D02*
X016517Y010975D01*
X016519Y011054D02*
X016438Y011054D01*
X016440Y011132D02*
X016360Y011132D01*
X016362Y011211D02*
X016281Y011211D01*
X016283Y011289D02*
X016203Y011289D01*
X016236Y011368D02*
X016124Y011368D01*
X016195Y011446D02*
X016046Y011446D01*
X016116Y011525D02*
X015967Y011525D01*
X016038Y011603D02*
X015889Y011603D01*
X015700Y011368D02*
X014993Y011368D01*
X014993Y011446D02*
X015622Y011446D01*
X015543Y011525D02*
X014993Y011525D01*
X014993Y011603D02*
X015465Y011603D01*
X015386Y011682D02*
X014993Y011682D01*
X014993Y011760D02*
X015308Y011760D01*
X015280Y011839D02*
X014993Y011839D01*
X014993Y011917D02*
X015223Y011917D01*
X015223Y011996D02*
X014993Y011996D01*
X014993Y012074D02*
X015223Y012074D01*
X015293Y012153D02*
X014993Y012153D01*
X014993Y012231D02*
X015293Y012231D01*
X015293Y012310D02*
X014993Y012310D01*
X014993Y012388D02*
X015293Y012388D01*
X015293Y012467D02*
X014993Y012467D01*
X014993Y012545D02*
X015293Y012545D01*
X015293Y012624D02*
X014993Y012624D01*
X014993Y012702D02*
X015293Y012702D01*
X015293Y012781D02*
X014993Y012781D01*
X014993Y012859D02*
X015293Y012859D01*
X015293Y012938D02*
X014993Y012938D01*
X014993Y013016D02*
X015293Y013016D01*
X015293Y013095D02*
X014993Y013095D01*
X014993Y013173D02*
X015293Y013173D01*
X015293Y013252D02*
X014993Y013252D01*
X014993Y013330D02*
X015293Y013330D01*
X015293Y013409D02*
X014993Y013409D01*
X014993Y013487D02*
X015293Y013487D01*
X015293Y013566D02*
X014993Y013566D01*
X014993Y013644D02*
X015293Y013644D01*
X015293Y013723D02*
X014993Y013723D01*
X014993Y013801D02*
X015293Y013801D01*
X015293Y013880D02*
X014993Y013880D01*
X014993Y013958D02*
X015293Y013958D01*
X015293Y014037D02*
X014993Y014037D01*
X014993Y014115D02*
X015293Y014115D01*
X015293Y014194D02*
X014993Y014194D01*
X014993Y014272D02*
X015293Y014272D01*
X015293Y014351D02*
X014993Y014351D01*
X014993Y014429D02*
X015293Y014429D01*
X015293Y014508D02*
X014993Y014508D01*
X014993Y014586D02*
X015293Y014586D01*
X015293Y014665D02*
X014993Y014665D01*
X014993Y014743D02*
X015293Y014743D01*
X015293Y014822D02*
X014993Y014822D01*
X014993Y014900D02*
X015294Y014900D01*
X015372Y014979D02*
X014993Y014979D01*
X014993Y015057D02*
X015451Y015057D01*
X015626Y015136D02*
X014993Y015136D01*
X014993Y015214D02*
X015650Y015214D01*
X016223Y015293D02*
X014993Y015293D01*
X014993Y015371D02*
X016223Y015371D01*
X016242Y015450D02*
X014993Y015450D01*
X014993Y015528D02*
X016242Y015528D01*
X016242Y015607D02*
X014993Y015607D01*
X014993Y015685D02*
X016242Y015685D01*
X016242Y015764D02*
X014993Y015764D01*
X014993Y015842D02*
X016242Y015842D01*
X016242Y015921D02*
X014993Y015921D01*
X014993Y015999D02*
X016242Y015999D01*
X016242Y016078D02*
X014993Y016078D01*
X014993Y016156D02*
X016242Y016156D01*
X016218Y016235D02*
X014993Y016235D01*
X014993Y016313D02*
X016188Y016313D01*
X016188Y016392D02*
X014993Y016392D01*
X014993Y016470D02*
X016188Y016470D01*
X016188Y016549D02*
X014993Y016549D01*
X014993Y016627D02*
X016188Y016627D01*
X016188Y016706D02*
X014993Y016706D01*
X014993Y016784D02*
X016188Y016784D01*
X016230Y016863D02*
X014993Y016863D01*
X014993Y016941D02*
X016242Y016941D01*
X016242Y017020D02*
X014993Y017020D01*
X014993Y017098D02*
X016242Y017098D01*
X016242Y017177D02*
X014993Y017177D01*
X014993Y017255D02*
X016242Y017255D01*
X016242Y017334D02*
X014993Y017334D01*
X014993Y017412D02*
X016242Y017412D01*
X016242Y017491D02*
X014993Y017491D01*
X014993Y017569D02*
X016242Y017569D01*
X016242Y017648D02*
X014993Y017648D01*
X014993Y017726D02*
X016242Y017726D01*
X016242Y017805D02*
X014993Y017805D01*
X014993Y017883D02*
X016242Y017883D01*
X016242Y017962D02*
X014993Y017962D01*
X014993Y018040D02*
X016242Y018040D01*
X016242Y018119D02*
X014993Y018119D01*
X014993Y018197D02*
X016242Y018197D01*
X016256Y018276D02*
X014993Y018276D01*
X014993Y018354D02*
X016872Y018354D01*
X016872Y018276D02*
X016713Y018276D01*
X016727Y018197D02*
X016872Y018197D01*
X016872Y018119D02*
X016727Y018119D01*
X016727Y018040D02*
X016872Y018040D01*
X016872Y017962D02*
X016727Y017962D01*
X016727Y017883D02*
X016872Y017883D01*
X016872Y017805D02*
X016727Y017805D01*
X016727Y017726D02*
X016872Y017726D01*
X016872Y017648D02*
X016727Y017648D01*
X016727Y017569D02*
X016872Y017569D01*
X016872Y017491D02*
X016727Y017491D01*
X016727Y017412D02*
X016872Y017412D01*
X016872Y017334D02*
X016727Y017334D01*
X016727Y017255D02*
X017148Y017255D01*
X017148Y017265D02*
X017148Y016792D01*
X017186Y016754D01*
X020153Y016754D01*
X020191Y016792D01*
X020191Y016845D01*
X020191Y017422D01*
X020191Y017475D01*
X020153Y017513D01*
X017199Y017513D01*
X017199Y020349D01*
X017161Y020387D01*
X016910Y020387D01*
X016872Y020349D01*
X016872Y017303D01*
X016910Y017265D01*
X017148Y017265D01*
X017148Y017177D02*
X016727Y017177D01*
X016727Y017098D02*
X017148Y017098D01*
X017148Y017020D02*
X016727Y017020D01*
X016727Y016941D02*
X017148Y016941D01*
X017148Y016863D02*
X016739Y016863D01*
X016781Y016784D02*
X017155Y016784D01*
X016781Y016706D02*
X021193Y016706D01*
X021193Y016627D02*
X016781Y016627D01*
X016781Y016549D02*
X021193Y016549D01*
X021193Y016470D02*
X016781Y016470D01*
X016781Y016392D02*
X021193Y016392D01*
X021193Y016313D02*
X016781Y016313D01*
X016751Y016235D02*
X021193Y016235D01*
X021193Y016156D02*
X016727Y016156D01*
X016727Y016078D02*
X021193Y016078D01*
X021193Y015999D02*
X016727Y015999D01*
X016727Y015921D02*
X021193Y015921D01*
X021193Y015842D02*
X016727Y015842D01*
X016727Y015764D02*
X021193Y015764D01*
X021193Y015685D02*
X016727Y015685D01*
X016727Y015607D02*
X021193Y015607D01*
X021193Y015528D02*
X016727Y015528D01*
X016242Y015214D02*
X016236Y015214D01*
X016727Y015187D02*
X019110Y015187D01*
X019110Y015186D01*
X019081Y015186D01*
X019044Y015149D01*
X019006Y015186D01*
X018648Y015186D01*
X018610Y015149D01*
X018573Y015186D01*
X018215Y015186D01*
X018156Y015128D01*
X018156Y014572D01*
X018215Y014514D01*
X018244Y014514D01*
X018244Y014401D01*
X018231Y014387D01*
X017605Y014387D01*
X017678Y014460D01*
X017678Y014514D01*
X017707Y014514D01*
X017766Y014572D01*
X017766Y015128D01*
X017707Y015186D01*
X017349Y015186D01*
X017311Y015149D01*
X017274Y015186D01*
X016916Y015186D01*
X016878Y015149D01*
X016841Y015186D01*
X016727Y015186D01*
X016727Y015187D01*
X017678Y014508D02*
X018244Y014508D01*
X018244Y014429D02*
X017647Y014429D01*
X017766Y014586D02*
X018156Y014586D01*
X018156Y014665D02*
X017766Y014665D01*
X017766Y014743D02*
X018156Y014743D01*
X018156Y014822D02*
X017766Y014822D01*
X017766Y014900D02*
X018156Y014900D01*
X018156Y014979D02*
X017766Y014979D01*
X017766Y015057D02*
X018156Y015057D01*
X018164Y015136D02*
X017757Y015136D01*
X018683Y014115D02*
X020709Y014115D01*
X020630Y014037D02*
X018604Y014037D01*
X018526Y013958D02*
X020552Y013958D01*
X020787Y014194D02*
X019611Y014194D01*
X019690Y014272D02*
X020866Y014272D01*
X020944Y014351D02*
X019768Y014351D01*
X019843Y014429D02*
X021023Y014429D01*
X020975Y014514D02*
X021033Y014572D01*
X021033Y015128D01*
X020975Y015186D01*
X020498Y015186D01*
X020440Y015128D01*
X020440Y014572D01*
X020498Y014514D01*
X020975Y014514D01*
X021033Y014586D02*
X021180Y014586D01*
X021193Y014665D02*
X021033Y014665D01*
X021033Y014743D02*
X021193Y014743D01*
X021193Y014822D02*
X021033Y014822D01*
X021033Y014900D02*
X021193Y014900D01*
X021193Y014979D02*
X021033Y014979D01*
X021033Y015057D02*
X021193Y015057D01*
X021193Y015136D02*
X021025Y015136D01*
X021193Y015214D02*
X019410Y015214D01*
X019410Y015293D02*
X021193Y015293D01*
X021193Y015371D02*
X019371Y015371D01*
X019292Y015450D02*
X021193Y015450D01*
X021693Y015450D02*
X021723Y015450D01*
X021723Y015528D02*
X021693Y015528D01*
X021693Y015607D02*
X021801Y015607D01*
X021703Y015685D02*
X022843Y015685D01*
X022843Y015607D02*
X022084Y015607D01*
X021860Y015842D02*
X022843Y015842D01*
X022843Y015764D02*
X021781Y015764D01*
X021938Y015921D02*
X022843Y015921D01*
X022843Y015999D02*
X022017Y015999D01*
X022043Y016078D02*
X022843Y016078D01*
X022843Y016156D02*
X022043Y016156D01*
X022043Y016235D02*
X022843Y016235D01*
X022843Y016313D02*
X022043Y016313D01*
X022043Y016392D02*
X022843Y016392D01*
X022843Y016470D02*
X022087Y016470D01*
X022113Y016549D02*
X022843Y016549D01*
X022843Y016627D02*
X022113Y016627D01*
X022085Y016706D02*
X022843Y016706D01*
X022843Y016784D02*
X022007Y016784D01*
X022029Y016863D02*
X022843Y016863D01*
X022843Y016941D02*
X022108Y016941D01*
X022113Y017020D02*
X022843Y017020D01*
X022843Y017098D02*
X022113Y017098D01*
X022064Y017177D02*
X022843Y017177D01*
X022843Y017255D02*
X021986Y017255D01*
X021800Y017255D02*
X020191Y017255D01*
X020191Y017177D02*
X021620Y017177D01*
X021542Y017098D02*
X020191Y017098D01*
X020191Y017020D02*
X021463Y017020D01*
X021385Y016941D02*
X020191Y016941D01*
X020191Y016863D02*
X021306Y016863D01*
X021228Y016784D02*
X020184Y016784D01*
X020191Y017334D02*
X022843Y017334D01*
X022843Y017412D02*
X020191Y017412D01*
X020176Y017491D02*
X022843Y017491D01*
X022843Y017569D02*
X017199Y017569D01*
X017199Y017648D02*
X022843Y017648D01*
X022843Y017726D02*
X017199Y017726D01*
X017199Y017805D02*
X022843Y017805D01*
X022843Y017883D02*
X017199Y017883D01*
X017199Y017962D02*
X022843Y017962D01*
X022843Y018040D02*
X017199Y018040D01*
X017199Y018119D02*
X022843Y018119D01*
X022843Y018197D02*
X017199Y018197D01*
X017199Y018276D02*
X022843Y018276D01*
X022843Y018354D02*
X017199Y018354D01*
X017199Y018433D02*
X022843Y018433D01*
X022843Y018511D02*
X017199Y018511D01*
X017199Y018590D02*
X022843Y018590D01*
X022843Y018668D02*
X017199Y018668D01*
X017199Y018747D02*
X022843Y018747D01*
X022843Y018825D02*
X017199Y018825D01*
X017199Y018904D02*
X022843Y018904D01*
X022843Y018982D02*
X017199Y018982D01*
X017199Y019061D02*
X022843Y019061D01*
X022883Y019139D02*
X017199Y019139D01*
X017199Y019218D02*
X022961Y019218D01*
X023040Y019296D02*
X017199Y019296D01*
X017199Y019375D02*
X025835Y019375D01*
X025866Y019453D02*
X017199Y019453D01*
X017199Y019532D02*
X026459Y019532D01*
X026469Y019453D02*
X026436Y019453D01*
X026957Y019532D02*
X027128Y019532D01*
X027081Y019610D02*
X027005Y019610D01*
X027005Y019689D02*
X027081Y019689D01*
X027081Y019767D02*
X027005Y019767D01*
X027005Y019846D02*
X027081Y019846D01*
X027081Y019924D02*
X027005Y019924D01*
X027005Y020003D02*
X027081Y020003D01*
X027081Y020081D02*
X027005Y020081D01*
X026584Y020395D02*
X031102Y020395D01*
X031089Y020317D02*
X026505Y020317D01*
X026427Y020238D02*
X031089Y020238D01*
X031110Y020160D02*
X026348Y020160D01*
X025952Y020160D02*
X017199Y020160D01*
X017199Y020238D02*
X025873Y020238D01*
X025795Y020317D02*
X017199Y020317D01*
X017199Y020081D02*
X025835Y020081D01*
X025835Y020003D02*
X017199Y020003D01*
X017199Y019924D02*
X025835Y019924D01*
X025835Y019846D02*
X017199Y019846D01*
X017199Y019767D02*
X025835Y019767D01*
X025835Y019689D02*
X017199Y019689D01*
X017199Y019610D02*
X025839Y019610D01*
X025716Y020395D02*
X021959Y020395D01*
X021959Y020379D02*
X021959Y021210D01*
X021923Y021245D01*
X041832Y021245D01*
X041602Y021091D01*
X041602Y021091D01*
X041390Y020775D01*
X041390Y020775D01*
X041316Y020401D01*
X041390Y020028D01*
X041390Y020028D01*
X041602Y019711D01*
X041918Y019500D01*
X041918Y019500D01*
X042292Y019425D01*
X042292Y019425D01*
X042150Y019453D02*
X039203Y019453D01*
X039203Y019532D02*
X041870Y019532D01*
X041752Y019610D02*
X039203Y019610D01*
X039203Y019689D02*
X041635Y019689D01*
X041602Y019711D02*
X041602Y019711D01*
X041602Y019711D01*
X041564Y019767D02*
X039203Y019767D01*
X039203Y019846D02*
X041512Y019846D01*
X041459Y019924D02*
X040562Y019924D01*
X040641Y020003D02*
X041407Y020003D01*
X041379Y020081D02*
X040719Y020081D01*
X040740Y020160D02*
X041364Y020160D01*
X041348Y020238D02*
X040874Y020238D01*
X040953Y020317D02*
X041333Y020317D01*
X041317Y020395D02*
X040994Y020395D01*
X041026Y020474D02*
X041330Y020474D01*
X041316Y020401D02*
X041316Y020401D01*
X041346Y020552D02*
X041039Y020552D01*
X041039Y020631D02*
X041361Y020631D01*
X041377Y020709D02*
X041032Y020709D01*
X040999Y020788D02*
X041399Y020788D01*
X041451Y020866D02*
X040965Y020866D01*
X040887Y020945D02*
X041504Y020945D01*
X041556Y021023D02*
X040770Y021023D01*
X040368Y021023D02*
X039630Y021023D01*
X039747Y020945D02*
X040251Y020945D01*
X040173Y020866D02*
X039825Y020866D01*
X039859Y020788D02*
X040139Y020788D01*
X040107Y020709D02*
X039892Y020709D01*
X039899Y020631D02*
X040099Y020631D01*
X040099Y020552D02*
X039899Y020552D01*
X039886Y020474D02*
X040112Y020474D01*
X040144Y020395D02*
X039854Y020395D01*
X039813Y020317D02*
X040185Y020317D01*
X040264Y020238D02*
X039734Y020238D01*
X041602Y021091D02*
X041602Y021091D01*
X041618Y021102D02*
X021959Y021102D01*
X021959Y021180D02*
X041735Y021180D01*
X043124Y019924D02*
X043136Y019924D01*
X043136Y019846D02*
X043072Y019846D01*
X043019Y019767D02*
X043136Y019767D01*
X043136Y019689D02*
X042948Y019689D01*
X042982Y019711D02*
X042982Y019711D01*
X042831Y019610D02*
X043136Y019610D01*
X043136Y019532D02*
X042713Y019532D01*
X042665Y019500D02*
X042665Y019500D01*
X038683Y018825D02*
X038547Y018825D01*
X038549Y018747D02*
X038683Y018747D01*
X038683Y018668D02*
X038599Y018668D01*
X038599Y018590D02*
X038683Y018590D01*
X038683Y018511D02*
X038599Y018511D01*
X038599Y018433D02*
X038683Y018433D01*
X038683Y018354D02*
X038576Y018354D01*
X037031Y017726D02*
X036358Y017726D01*
X036437Y017648D02*
X037062Y017648D01*
X035510Y018354D02*
X035421Y018354D01*
X035394Y018747D02*
X035536Y018747D01*
X034613Y018904D02*
X034161Y018904D01*
X034240Y018982D02*
X034613Y018982D01*
X034613Y019061D02*
X034318Y019061D01*
X034397Y019139D02*
X034613Y019139D01*
X034613Y019218D02*
X034427Y019218D01*
X034427Y019296D02*
X034613Y019296D01*
X034327Y019767D02*
X035002Y019767D01*
X034973Y019846D02*
X034248Y019846D01*
X034170Y019924D02*
X034973Y019924D01*
X034997Y020003D02*
X034091Y020003D01*
X031198Y020552D02*
X026600Y020552D01*
X026600Y020474D02*
X031135Y020474D01*
X028903Y018511D02*
X028373Y018511D01*
X028373Y018433D02*
X028801Y018433D01*
X028723Y018354D02*
X028373Y018354D01*
X028373Y018276D02*
X028646Y018276D01*
X028613Y018197D02*
X028373Y018197D01*
X028373Y018119D02*
X028581Y018119D01*
X028548Y018040D02*
X028373Y018040D01*
X028373Y017962D02*
X028530Y017962D01*
X028530Y017883D02*
X028373Y017883D01*
X028373Y017805D02*
X028530Y017805D01*
X028530Y017726D02*
X028373Y017726D01*
X028373Y017648D02*
X028547Y017648D01*
X028579Y017569D02*
X028373Y017569D01*
X028594Y017491D02*
X028612Y017491D01*
X028923Y017098D02*
X029083Y017098D01*
X028013Y017569D02*
X025689Y017569D01*
X025722Y017648D02*
X028013Y017648D01*
X028013Y017726D02*
X025739Y017726D01*
X025739Y017805D02*
X028013Y017805D01*
X028013Y017883D02*
X025739Y017883D01*
X025739Y017962D02*
X028013Y017962D01*
X028013Y018040D02*
X025720Y018040D01*
X025687Y018119D02*
X028013Y018119D01*
X028013Y018197D02*
X025655Y018197D01*
X025622Y018276D02*
X028013Y018276D01*
X028013Y018354D02*
X025545Y018354D01*
X025467Y018433D02*
X028013Y018433D01*
X028013Y018511D02*
X025365Y018511D01*
X025175Y018590D02*
X028013Y018590D01*
X026487Y018904D02*
X026426Y018904D01*
X025876Y018904D02*
X023143Y018904D01*
X023150Y018982D02*
X025835Y018982D01*
X024762Y018590D02*
X024201Y018590D01*
X024263Y018511D02*
X024573Y018511D01*
X024471Y018433D02*
X024263Y018433D01*
X024263Y018354D02*
X024392Y018354D01*
X024315Y018276D02*
X024223Y018276D01*
X024223Y018197D02*
X024283Y018197D01*
X024250Y018119D02*
X024223Y018119D01*
X021756Y016863D02*
X021730Y016863D01*
X021779Y016784D02*
X021652Y016784D01*
X021700Y016706D02*
X021573Y016706D01*
X021495Y016627D02*
X021673Y016627D01*
X021673Y016549D02*
X021493Y016549D01*
X021493Y016470D02*
X021699Y016470D01*
X021743Y016392D02*
X021493Y016392D01*
X021493Y016313D02*
X021743Y016313D01*
X021743Y016235D02*
X021493Y016235D01*
X021493Y016156D02*
X021743Y016156D01*
X021671Y016078D02*
X021493Y016078D01*
X021493Y015999D02*
X021593Y015999D01*
X021514Y015921D02*
X021493Y015921D01*
X021693Y015371D02*
X021723Y015371D01*
X021693Y015293D02*
X021776Y015293D01*
X021693Y015214D02*
X022209Y015214D01*
X022173Y015136D02*
X021693Y015136D01*
X021693Y015057D02*
X022173Y015057D01*
X022190Y014979D02*
X021693Y014979D01*
X021693Y014900D02*
X022269Y014900D01*
X022517Y014900D02*
X022745Y014900D01*
X022723Y014822D02*
X021693Y014822D01*
X021693Y014743D02*
X022723Y014743D01*
X022754Y014665D02*
X021693Y014665D01*
X021101Y014508D02*
X019843Y014508D01*
X020364Y014586D02*
X020440Y014586D01*
X020440Y014665D02*
X020364Y014665D01*
X020364Y014743D02*
X020440Y014743D01*
X020440Y014822D02*
X020364Y014822D01*
X020364Y014900D02*
X020440Y014900D01*
X020440Y014979D02*
X020364Y014979D01*
X020364Y015057D02*
X020440Y015057D01*
X020448Y015136D02*
X020356Y015136D01*
X019367Y013173D02*
X019343Y013173D01*
X020393Y012310D02*
X020441Y012310D01*
X020745Y011996D02*
X020802Y011996D01*
X020824Y011917D02*
X020833Y011917D01*
X020863Y011839D02*
X020912Y011839D01*
X020863Y011760D02*
X020990Y011760D01*
X021059Y011682D02*
X021069Y011682D01*
X021113Y011603D02*
X021147Y011603D01*
X021113Y011525D02*
X021247Y011525D01*
X021295Y011446D02*
X021304Y011446D01*
X021363Y011368D02*
X021383Y011368D01*
X021363Y011289D02*
X021470Y011289D01*
X021540Y011211D02*
X021363Y011211D01*
X021609Y011132D02*
X021618Y011132D01*
X021663Y011054D02*
X021697Y011054D01*
X021663Y010975D02*
X021775Y010975D01*
X021854Y010897D02*
X021663Y010897D01*
X021585Y010818D02*
X026843Y010818D01*
X026843Y010740D02*
X025759Y010740D01*
X025759Y010741D02*
X025701Y010800D01*
X025185Y010800D01*
X025126Y010741D01*
X025126Y010399D01*
X024883Y010643D01*
X024386Y010643D01*
X024034Y010291D01*
X024034Y009794D01*
X024291Y009537D01*
X024155Y009537D01*
X023705Y009987D01*
X022555Y009987D01*
X022449Y010093D01*
X022449Y010139D01*
X021973Y010615D01*
X021890Y010615D01*
X021693Y010417D01*
X021693Y010392D01*
X021668Y010392D01*
X021470Y010194D01*
X021470Y010169D01*
X021445Y010169D01*
X021247Y009971D01*
X021247Y009947D01*
X021222Y009947D01*
X021024Y009749D01*
X021024Y009666D01*
X021501Y009190D01*
X021578Y009190D01*
X021643Y009125D01*
X021731Y009037D01*
X023081Y009037D01*
X023443Y008675D01*
X023531Y008587D01*
X024470Y008587D01*
X024455Y008573D01*
X024455Y008096D01*
X024514Y008037D01*
X025030Y008037D01*
X025088Y008096D01*
X025088Y008131D01*
X025102Y008117D01*
X025284Y008117D01*
X025354Y008187D01*
X025732Y008187D01*
X025802Y008117D01*
X025984Y008117D01*
X026030Y008164D01*
X026030Y008096D01*
X026089Y008037D01*
X026605Y008037D01*
X026663Y008096D01*
X026663Y008573D01*
X026605Y008631D01*
X026493Y008631D01*
X026493Y008725D01*
X026531Y008687D01*
X027631Y008687D01*
X027687Y008631D01*
X027664Y008631D01*
X027605Y008573D01*
X027605Y008096D01*
X027664Y008037D01*
X028179Y008037D01*
X028238Y008096D01*
X028238Y008537D01*
X029131Y008537D01*
X029180Y008488D01*
X029180Y008096D01*
X029238Y008037D01*
X029754Y008037D01*
X029813Y008096D01*
X029813Y008573D01*
X029754Y008631D01*
X029461Y008631D01*
X029343Y008750D01*
X029255Y008837D01*
X028205Y008837D01*
X027843Y009200D01*
X027755Y009287D01*
X026705Y009287D01*
X026555Y009437D01*
X029241Y009437D01*
X029316Y009513D01*
X029386Y009443D01*
X029883Y009443D01*
X030234Y009794D01*
X030234Y010291D01*
X029883Y010643D01*
X029386Y010643D01*
X029034Y010291D01*
X029034Y009794D01*
X029091Y009737D01*
X026454Y009737D01*
X026563Y009846D01*
X026563Y010029D01*
X026434Y010157D01*
X026424Y010157D01*
X026424Y010195D01*
X026366Y010254D01*
X025889Y010254D01*
X025831Y010195D01*
X025831Y009737D01*
X025755Y009737D01*
X025755Y010195D01*
X025723Y010228D01*
X025759Y010264D01*
X025759Y010741D01*
X025759Y010661D02*
X026843Y010661D01*
X026843Y010583D02*
X025759Y010583D01*
X025759Y010504D02*
X026843Y010504D01*
X026843Y010426D02*
X025759Y010426D01*
X025759Y010347D02*
X026843Y010347D01*
X026843Y010269D02*
X025759Y010269D01*
X025755Y010190D02*
X025831Y010190D01*
X025831Y010112D02*
X025755Y010112D01*
X025755Y010033D02*
X025831Y010033D01*
X025831Y009955D02*
X025755Y009955D01*
X025755Y009876D02*
X025831Y009876D01*
X025831Y009798D02*
X025755Y009798D01*
X026514Y009798D02*
X029034Y009798D01*
X029034Y009876D02*
X027909Y009876D01*
X027960Y009955D02*
X029034Y009955D01*
X029034Y010033D02*
X027960Y010033D01*
X027960Y010112D02*
X029034Y010112D01*
X029034Y010190D02*
X027960Y010190D01*
X027960Y010269D02*
X028108Y010269D01*
X028075Y010347D02*
X027960Y010347D01*
X027939Y010426D02*
X028075Y010426D01*
X028075Y010504D02*
X027143Y010504D01*
X027143Y010426D02*
X027231Y010426D01*
X027209Y010347D02*
X027143Y010347D01*
X027143Y010583D02*
X028075Y010583D01*
X028075Y010661D02*
X027143Y010661D01*
X027143Y010740D02*
X028075Y010740D01*
X028115Y010818D02*
X027143Y010818D01*
X027143Y010897D02*
X027965Y010897D01*
X027959Y010975D02*
X027143Y010975D01*
X027143Y011054D02*
X027959Y011054D01*
X027959Y011132D02*
X027143Y011132D01*
X027143Y011211D02*
X027959Y011211D01*
X027959Y011289D02*
X027143Y011289D01*
X027143Y011368D02*
X027896Y011368D01*
X027818Y011446D02*
X027143Y011446D01*
X027067Y011525D02*
X027739Y011525D01*
X027661Y011603D02*
X026989Y011603D01*
X026800Y011368D02*
X026440Y011368D01*
X026440Y011289D02*
X026843Y011289D01*
X026843Y011211D02*
X026440Y011211D01*
X026440Y011132D02*
X026843Y011132D01*
X026843Y011054D02*
X026440Y011054D01*
X026440Y010975D02*
X026843Y010975D01*
X026843Y010897D02*
X026422Y010897D01*
X025863Y010897D02*
X025722Y010897D01*
X025759Y010975D02*
X025846Y010975D01*
X025163Y010897D02*
X022010Y010897D01*
X022089Y010975D02*
X025126Y010975D01*
X025126Y011054D02*
X024770Y011054D01*
X024515Y011054D02*
X022167Y011054D01*
X022246Y011132D02*
X024437Y011132D01*
X024423Y011211D02*
X022324Y011211D01*
X022403Y011289D02*
X024423Y011289D01*
X024462Y011368D02*
X022449Y011368D01*
X022005Y010583D02*
X024326Y010583D01*
X024247Y010504D02*
X022083Y010504D01*
X022162Y010426D02*
X024169Y010426D01*
X024090Y010347D02*
X022240Y010347D01*
X022319Y010269D02*
X024034Y010269D01*
X024034Y010190D02*
X022397Y010190D01*
X022449Y010112D02*
X024034Y010112D01*
X024034Y010033D02*
X022509Y010033D01*
X021780Y010504D02*
X021156Y010504D01*
X021238Y010583D02*
X021859Y010583D01*
X021702Y010426D02*
X021074Y010426D01*
X020992Y010347D02*
X021623Y010347D01*
X021545Y010269D02*
X020910Y010269D01*
X020828Y010190D02*
X021470Y010190D01*
X021388Y010112D02*
X020746Y010112D01*
X020664Y010033D02*
X021309Y010033D01*
X021247Y009955D02*
X020582Y009955D01*
X020500Y009876D02*
X021152Y009876D01*
X021074Y009798D02*
X020418Y009798D01*
X020393Y009719D02*
X021024Y009719D01*
X021049Y009641D02*
X020393Y009641D01*
X020393Y009562D02*
X021128Y009562D01*
X021206Y009484D02*
X020877Y009484D01*
X020955Y009405D02*
X021285Y009405D01*
X021363Y009327D02*
X021034Y009327D01*
X021112Y009248D02*
X021442Y009248D01*
X021598Y009170D02*
X021191Y009170D01*
X021269Y009091D02*
X021677Y009091D01*
X021486Y008856D02*
X023262Y008856D01*
X023184Y008934D02*
X021408Y008934D01*
X021336Y009013D02*
X023105Y009013D01*
X023341Y008777D02*
X021565Y008777D01*
X021851Y008699D02*
X023419Y008699D01*
X023498Y008620D02*
X021930Y008620D01*
X022008Y008542D02*
X024455Y008542D01*
X024455Y008463D02*
X022087Y008463D01*
X022148Y008385D02*
X024455Y008385D01*
X024455Y008306D02*
X022136Y008306D01*
X022058Y008228D02*
X024455Y008228D01*
X024455Y008149D02*
X021979Y008149D01*
X021901Y008071D02*
X024480Y008071D01*
X024514Y007962D02*
X024455Y007903D01*
X024455Y007427D01*
X024514Y007368D01*
X024552Y007368D01*
X024552Y007239D01*
X024681Y007110D01*
X024863Y007110D01*
X024992Y007239D01*
X024992Y007368D01*
X025030Y007368D01*
X025088Y007427D01*
X025088Y007903D01*
X025030Y007962D01*
X024514Y007962D01*
X024466Y007914D02*
X020793Y007914D01*
X020793Y007992D02*
X020927Y007992D01*
X020873Y008071D02*
X020838Y008071D01*
X020793Y007835D02*
X024455Y007835D01*
X024455Y007757D02*
X020793Y007757D01*
X020793Y007678D02*
X024455Y007678D01*
X024455Y007600D02*
X020793Y007600D01*
X020793Y007521D02*
X024455Y007521D01*
X024455Y007443D02*
X020793Y007443D01*
X020793Y007364D02*
X024552Y007364D01*
X024552Y007286D02*
X020793Y007286D01*
X020793Y007207D02*
X024584Y007207D01*
X024662Y007129D02*
X020793Y007129D01*
X020793Y007050D02*
X030363Y007050D01*
X030363Y007012D02*
X030268Y006917D01*
X023374Y006917D01*
X023334Y006957D01*
X023152Y006957D01*
X023023Y006829D01*
X023023Y006646D01*
X023152Y006517D01*
X023334Y006517D01*
X023374Y006557D01*
X030417Y006557D01*
X030523Y006663D01*
X030723Y006863D01*
X030723Y008506D01*
X030763Y008546D01*
X030763Y008729D01*
X030634Y008857D01*
X030452Y008857D01*
X030323Y008729D01*
X030323Y008546D01*
X030363Y008506D01*
X030363Y007012D01*
X030323Y006972D02*
X020793Y006972D01*
X020793Y006893D02*
X023088Y006893D01*
X023023Y006815D02*
X020793Y006815D01*
X020793Y006736D02*
X023023Y006736D01*
X023023Y006658D02*
X020793Y006658D01*
X020793Y006579D02*
X023090Y006579D01*
X023152Y006507D02*
X023023Y006379D01*
X023023Y006196D01*
X023152Y006067D01*
X023334Y006067D01*
X023374Y006107D01*
X030867Y006107D01*
X031017Y006257D01*
X031123Y006363D01*
X031123Y008156D01*
X031163Y008196D01*
X031163Y008207D01*
X031288Y008207D01*
X031288Y008032D01*
X031347Y007974D01*
X032139Y007974D01*
X032197Y008032D01*
X032197Y008179D01*
X032313Y008063D01*
X032418Y007957D01*
X035268Y007957D01*
X035313Y007913D01*
X035418Y007807D01*
X035628Y007807D01*
X035628Y006760D01*
X035686Y006702D01*
X036517Y006702D01*
X036576Y006760D01*
X036576Y007467D01*
X038069Y007467D01*
X038069Y007429D01*
X038127Y007371D01*
X038958Y007371D01*
X039017Y007429D01*
X039017Y007945D01*
X038958Y008004D01*
X038127Y008004D01*
X038069Y007945D01*
X038069Y007907D01*
X036576Y007907D01*
X036576Y008615D01*
X036517Y008673D01*
X036413Y008673D01*
X036413Y008756D01*
X036451Y008756D01*
X036509Y008814D01*
X036509Y009291D01*
X036451Y009350D01*
X035935Y009350D01*
X035876Y009291D01*
X035876Y008814D01*
X035935Y008756D01*
X035973Y008756D01*
X035973Y008673D01*
X035793Y008673D01*
X035793Y008807D01*
X035739Y008936D01*
X035641Y009034D01*
X035512Y009087D01*
X035373Y009087D01*
X035245Y009034D01*
X035146Y008936D01*
X035093Y008807D01*
X035093Y008668D01*
X035146Y008539D01*
X035245Y008441D01*
X035293Y008421D01*
X035293Y008317D01*
X032567Y008317D01*
X032316Y008569D01*
X032197Y008569D01*
X032197Y008745D01*
X032139Y008804D01*
X031347Y008804D01*
X031288Y008745D01*
X031288Y008567D01*
X030968Y008567D01*
X030908Y008507D01*
X030852Y008507D01*
X030723Y008379D01*
X030723Y008196D01*
X030763Y008156D01*
X030763Y006512D01*
X030718Y006467D01*
X023374Y006467D01*
X023334Y006507D01*
X023152Y006507D01*
X023145Y006501D02*
X020793Y006501D01*
X020793Y006422D02*
X023067Y006422D01*
X023023Y006344D02*
X020793Y006344D01*
X020793Y006265D02*
X023023Y006265D01*
X023032Y006187D02*
X020793Y006187D01*
X020793Y006108D02*
X023111Y006108D01*
X023340Y006501D02*
X030752Y006501D01*
X030763Y006579D02*
X030439Y006579D01*
X030518Y006658D02*
X030763Y006658D01*
X030763Y006736D02*
X030596Y006736D01*
X030675Y006815D02*
X030763Y006815D01*
X030763Y006893D02*
X030723Y006893D01*
X030723Y006972D02*
X030763Y006972D01*
X030763Y007050D02*
X030723Y007050D01*
X030723Y007129D02*
X030763Y007129D01*
X030763Y007207D02*
X030723Y007207D01*
X030723Y007286D02*
X030763Y007286D01*
X030763Y007364D02*
X030723Y007364D01*
X030723Y007443D02*
X030763Y007443D01*
X030763Y007521D02*
X030723Y007521D01*
X030723Y007600D02*
X030763Y007600D01*
X030763Y007678D02*
X030723Y007678D01*
X030723Y007757D02*
X030763Y007757D01*
X030763Y007835D02*
X030723Y007835D01*
X030723Y007914D02*
X030763Y007914D01*
X030763Y007992D02*
X030723Y007992D01*
X030723Y008071D02*
X030763Y008071D01*
X030763Y008149D02*
X030723Y008149D01*
X030723Y008228D02*
X030723Y008228D01*
X030723Y008306D02*
X030723Y008306D01*
X030723Y008385D02*
X030729Y008385D01*
X030723Y008463D02*
X030808Y008463D01*
X030758Y008542D02*
X030943Y008542D01*
X030763Y008620D02*
X031288Y008620D01*
X031288Y008699D02*
X030763Y008699D01*
X030714Y008777D02*
X031321Y008777D01*
X030635Y008856D02*
X033479Y008856D01*
X033479Y008934D02*
X028108Y008934D01*
X028186Y008856D02*
X030450Y008856D01*
X030372Y008777D02*
X029315Y008777D01*
X029393Y008699D02*
X030323Y008699D01*
X030323Y008620D02*
X029765Y008620D01*
X029813Y008542D02*
X030327Y008542D01*
X030363Y008463D02*
X029813Y008463D01*
X029813Y008385D02*
X030363Y008385D01*
X030363Y008306D02*
X029813Y008306D01*
X029813Y008228D02*
X030363Y008228D01*
X030363Y008149D02*
X029813Y008149D01*
X029788Y008071D02*
X030363Y008071D01*
X030363Y007992D02*
X021822Y007992D01*
X021718Y007992D02*
X021587Y007992D01*
X020493Y007992D02*
X020386Y007992D01*
X020445Y008071D02*
X020493Y008071D01*
X020493Y007914D02*
X020308Y007914D01*
X020222Y007835D02*
X020493Y007835D01*
X020493Y007757D02*
X020151Y007757D01*
X020072Y007678D02*
X020493Y007678D01*
X020493Y007600D02*
X018645Y007600D01*
X018566Y007521D02*
X020493Y007521D01*
X020493Y007443D02*
X018488Y007443D01*
X018409Y007364D02*
X020493Y007364D01*
X020493Y007286D02*
X018331Y007286D01*
X018252Y007207D02*
X020493Y007207D01*
X020493Y007129D02*
X018174Y007129D01*
X018095Y007050D02*
X020493Y007050D01*
X020493Y006972D02*
X018017Y006972D01*
X017938Y006893D02*
X020493Y006893D01*
X020493Y006815D02*
X017860Y006815D01*
X017781Y006736D02*
X020493Y006736D01*
X020493Y006658D02*
X017703Y006658D01*
X017624Y006579D02*
X020493Y006579D01*
X020493Y006501D02*
X017546Y006501D01*
X017467Y006422D02*
X020493Y006422D01*
X020493Y006344D02*
X017389Y006344D01*
X017310Y006265D02*
X020493Y006265D01*
X020493Y006187D02*
X015866Y006187D01*
X015852Y006108D02*
X015834Y006108D01*
X015773Y006030D02*
X015755Y006030D01*
X015962Y005794D02*
X041807Y005794D01*
X041689Y005873D02*
X020640Y005873D01*
X020719Y005951D02*
X041588Y005951D01*
X041602Y005932D02*
X041602Y005932D01*
X041602Y005932D01*
X041536Y006030D02*
X020793Y006030D01*
X019894Y007678D02*
X018792Y007678D01*
X018870Y007757D02*
X019816Y007757D01*
X019737Y007835D02*
X018949Y007835D01*
X019027Y007914D02*
X019659Y007914D01*
X019580Y007992D02*
X019106Y007992D01*
X019184Y008071D02*
X019502Y008071D01*
X019465Y008149D02*
X019220Y008149D01*
X019182Y008228D02*
X019440Y008228D01*
X019362Y008306D02*
X019103Y008306D01*
X019025Y008385D02*
X019283Y008385D01*
X019243Y008463D02*
X018946Y008463D01*
X018868Y008542D02*
X019243Y008542D01*
X019243Y008620D02*
X018775Y008620D01*
X018711Y008699D02*
X019243Y008699D01*
X019243Y008777D02*
X018632Y008777D01*
X018564Y008856D02*
X019243Y008856D01*
X019243Y008934D02*
X018643Y008934D01*
X018721Y009013D02*
X019243Y009013D01*
X019243Y009091D02*
X018800Y009091D01*
X018843Y009170D02*
X019243Y009170D01*
X019243Y009248D02*
X018843Y009248D01*
X018843Y009327D02*
X019243Y009327D01*
X019243Y009405D02*
X018843Y009405D01*
X018843Y009484D02*
X019243Y009484D01*
X019243Y009562D02*
X018879Y009562D01*
X018913Y009641D02*
X019243Y009641D01*
X019243Y009719D02*
X018913Y009719D01*
X018893Y009798D02*
X019243Y009798D01*
X019243Y009876D02*
X018815Y009876D01*
X018571Y009876D02*
X018415Y009876D01*
X018171Y009876D02*
X017533Y009876D01*
X017612Y009798D02*
X018092Y009798D01*
X018073Y009719D02*
X017661Y009719D01*
X017636Y009641D02*
X018073Y009641D01*
X018093Y009562D02*
X017558Y009562D01*
X017479Y009484D02*
X017809Y009484D01*
X017730Y009405D02*
X017401Y009405D01*
X017322Y009327D02*
X017652Y009327D01*
X017573Y009248D02*
X017244Y009248D01*
X017087Y009170D02*
X017495Y009170D01*
X017416Y009091D02*
X017009Y009091D01*
X016846Y009013D02*
X017350Y009013D01*
X017278Y008934D02*
X016778Y008934D01*
X016699Y008856D02*
X017199Y008856D01*
X017143Y008777D02*
X016621Y008777D01*
X016542Y008699D02*
X017143Y008699D01*
X017143Y008620D02*
X016581Y008620D01*
X016659Y008542D02*
X017143Y008542D01*
X017143Y008463D02*
X016738Y008463D01*
X016816Y008385D02*
X017079Y008385D01*
X017001Y008306D02*
X016872Y008306D01*
X017309Y007992D02*
X017723Y007992D01*
X017723Y008071D02*
X017387Y008071D01*
X017413Y008149D02*
X017744Y008149D01*
X017822Y008228D02*
X017443Y008228D01*
X017443Y008306D02*
X017985Y008306D01*
X017907Y008385D02*
X017443Y008385D01*
X017443Y008463D02*
X017828Y008463D01*
X017750Y008542D02*
X017443Y008542D01*
X017443Y008620D02*
X017671Y008620D01*
X017593Y008699D02*
X017466Y008699D01*
X017272Y007914D02*
X017755Y007914D01*
X017834Y007835D02*
X017261Y007835D01*
X017182Y007757D02*
X017950Y007757D01*
X017872Y007678D02*
X017104Y007678D01*
X017025Y007600D02*
X017793Y007600D01*
X017715Y007521D02*
X016947Y007521D01*
X016784Y007521D02*
X014079Y007521D01*
X014051Y007550D02*
X013535Y007550D01*
X013476Y007491D01*
X013476Y007457D01*
X013452Y007457D01*
X013323Y007329D01*
X013323Y007146D01*
X013452Y007017D01*
X013476Y007017D01*
X013476Y007014D01*
X013535Y006956D01*
X014051Y006956D01*
X014109Y007014D01*
X014109Y007491D01*
X014051Y007550D01*
X014051Y007625D02*
X013535Y007625D01*
X013476Y007684D01*
X013476Y007869D01*
X013464Y007857D01*
X012721Y007857D01*
X012663Y007916D01*
X012663Y008658D01*
X012721Y008717D01*
X013464Y008717D01*
X013523Y008658D01*
X013523Y008404D01*
X013708Y008219D01*
X014051Y008219D01*
X014109Y008160D01*
X014109Y007684D01*
X014051Y007625D01*
X014104Y007678D02*
X016627Y007678D01*
X016706Y007600D02*
X007983Y007600D01*
X007983Y007678D02*
X013482Y007678D01*
X013476Y007757D02*
X007983Y007757D01*
X007983Y007835D02*
X013476Y007835D01*
X013507Y007521D02*
X009203Y007521D01*
X009200Y007523D02*
X009200Y007523D01*
X008827Y007597D01*
X008454Y007523D01*
X008454Y007523D01*
X008137Y007312D01*
X008137Y007312D01*
X008137Y007312D01*
X007983Y007081D01*
X007983Y019942D01*
X008137Y019711D01*
X008137Y019711D01*
X008137Y019711D01*
X008454Y019500D01*
X008827Y019425D01*
X009200Y019500D01*
X009200Y019500D01*
X009517Y019711D01*
X009517Y019711D01*
X009517Y019711D01*
X009729Y020028D01*
X009803Y020401D01*
X009729Y020775D01*
X009517Y021091D01*
X009286Y021245D01*
X016223Y021245D01*
X016188Y021210D01*
X016188Y020025D01*
X016246Y019967D01*
X016723Y019967D01*
X016781Y020025D01*
X016781Y021210D01*
X016746Y021245D01*
X021400Y021245D01*
X021369Y021214D01*
X020099Y021214D01*
X020061Y021176D01*
X020061Y020571D01*
X020099Y020533D01*
X021365Y020533D01*
X021365Y020379D01*
X021423Y020321D01*
X021900Y020321D01*
X021959Y020379D01*
X021959Y020474D02*
X025700Y020474D01*
X025700Y020552D02*
X021959Y020552D01*
X021959Y020631D02*
X025700Y020631D01*
X025700Y020709D02*
X021959Y020709D01*
X021959Y020788D02*
X025703Y020788D01*
X025782Y020866D02*
X021959Y020866D01*
X021959Y020945D02*
X025860Y020945D01*
X025939Y021023D02*
X021959Y021023D01*
X021365Y020474D02*
X016781Y020474D01*
X016781Y020552D02*
X020080Y020552D01*
X020061Y020631D02*
X016781Y020631D01*
X016781Y020709D02*
X020061Y020709D01*
X020061Y020788D02*
X016781Y020788D01*
X016781Y020866D02*
X020061Y020866D01*
X020061Y020945D02*
X016781Y020945D01*
X016781Y021023D02*
X020061Y021023D01*
X020061Y021102D02*
X016781Y021102D01*
X016781Y021180D02*
X020066Y021180D01*
X021365Y020395D02*
X016781Y020395D01*
X016781Y020317D02*
X016872Y020317D01*
X016872Y020238D02*
X016781Y020238D01*
X016781Y020160D02*
X016872Y020160D01*
X016872Y020081D02*
X016781Y020081D01*
X016759Y020003D02*
X016872Y020003D01*
X016872Y019924D02*
X013018Y019924D01*
X013017Y020003D02*
X016210Y020003D01*
X016188Y020081D02*
X013017Y020081D01*
X013153Y020160D02*
X016188Y020160D01*
X016188Y020238D02*
X013231Y020238D01*
X013289Y020317D02*
X016188Y020317D01*
X016188Y020395D02*
X013322Y020395D01*
X013346Y020474D02*
X016188Y020474D01*
X016188Y020552D02*
X013346Y020552D01*
X013346Y020631D02*
X016188Y020631D01*
X016188Y020709D02*
X013318Y020709D01*
X013286Y020788D02*
X016188Y020788D01*
X016188Y020866D02*
X013223Y020866D01*
X013144Y020945D02*
X016188Y020945D01*
X016188Y021023D02*
X009562Y021023D01*
X009517Y021091D02*
X009517Y021091D01*
X009501Y021102D02*
X016188Y021102D01*
X016188Y021180D02*
X009383Y021180D01*
X009615Y020945D02*
X010608Y020945D01*
X010530Y020866D02*
X009667Y020866D01*
X009720Y020788D02*
X010467Y020788D01*
X010434Y020709D02*
X009742Y020709D01*
X009757Y020631D02*
X010406Y020631D01*
X010406Y020552D02*
X009773Y020552D01*
X009788Y020474D02*
X010406Y020474D01*
X010431Y020395D02*
X009802Y020395D01*
X009803Y020401D02*
X009803Y020401D01*
X009786Y020317D02*
X010463Y020317D01*
X010521Y020238D02*
X009770Y020238D01*
X009755Y020160D02*
X010600Y020160D01*
X010743Y020081D02*
X009739Y020081D01*
X009729Y020028D02*
X009729Y020028D01*
X009712Y020003D02*
X010743Y020003D01*
X010743Y019924D02*
X009660Y019924D01*
X009607Y019846D02*
X010743Y019846D01*
X010743Y019767D02*
X009555Y019767D01*
X009484Y019689D02*
X010743Y019689D01*
X010743Y019610D02*
X009366Y019610D01*
X009249Y019532D02*
X010786Y019532D01*
X010865Y019453D02*
X008968Y019453D01*
X008827Y019425D02*
X008827Y019425D01*
X008686Y019453D02*
X007983Y019453D01*
X007983Y019375D02*
X010943Y019375D01*
X011053Y019689D02*
X012829Y019689D01*
X012751Y019767D02*
X011043Y019767D01*
X011043Y019846D02*
X012717Y019846D01*
X012717Y019924D02*
X011043Y019924D01*
X011043Y020003D02*
X012717Y020003D01*
X012717Y020081D02*
X011043Y020081D01*
X011153Y020160D02*
X012600Y020160D01*
X012521Y020238D02*
X011231Y020238D01*
X011289Y020317D02*
X012463Y020317D01*
X012431Y020395D02*
X011322Y020395D01*
X011346Y020474D02*
X012406Y020474D01*
X012406Y020552D02*
X011346Y020552D01*
X011346Y020631D02*
X012406Y020631D01*
X012434Y020709D02*
X011318Y020709D01*
X011286Y020788D02*
X012467Y020788D01*
X012530Y020866D02*
X011223Y020866D01*
X011144Y020945D02*
X012608Y020945D01*
X014360Y019532D02*
X014686Y019532D01*
X014693Y019453D02*
X014439Y019453D01*
X014493Y019375D02*
X014693Y019375D01*
X014693Y019296D02*
X014493Y019296D01*
X014493Y019218D02*
X014693Y019218D01*
X014693Y019139D02*
X014493Y019139D01*
X014493Y019061D02*
X014693Y019061D01*
X014693Y018982D02*
X014493Y018982D01*
X014493Y018904D02*
X014693Y018904D01*
X014693Y018825D02*
X014493Y018825D01*
X014493Y018747D02*
X014693Y018747D01*
X014693Y018668D02*
X014493Y018668D01*
X014493Y018590D02*
X014693Y018590D01*
X014693Y018511D02*
X014493Y018511D01*
X014508Y018433D02*
X014693Y018433D01*
X014693Y018354D02*
X014563Y018354D01*
X014563Y018276D02*
X014693Y018276D01*
X014693Y018197D02*
X014563Y018197D01*
X014485Y018119D02*
X014693Y018119D01*
X014693Y018040D02*
X014159Y018040D01*
X014159Y017962D02*
X014693Y017962D01*
X014693Y017883D02*
X014159Y017883D01*
X014101Y017750D02*
X013585Y017750D01*
X013526Y017691D01*
X013526Y017214D01*
X013585Y017156D01*
X013623Y017156D01*
X013623Y017096D01*
X013752Y016967D01*
X013934Y016967D01*
X014063Y017096D01*
X014063Y017156D01*
X014101Y017156D01*
X014159Y017214D01*
X014159Y017691D01*
X014101Y017750D01*
X014124Y017726D02*
X014693Y017726D01*
X014693Y017648D02*
X014159Y017648D01*
X014159Y017569D02*
X014693Y017569D01*
X014693Y017491D02*
X014159Y017491D01*
X014159Y017412D02*
X014693Y017412D01*
X014693Y017334D02*
X014159Y017334D01*
X014159Y017255D02*
X014693Y017255D01*
X014693Y017177D02*
X014122Y017177D01*
X014063Y017098D02*
X014693Y017098D01*
X014693Y017020D02*
X013986Y017020D01*
X013699Y017020D02*
X007983Y017020D01*
X007983Y017098D02*
X013623Y017098D01*
X013564Y017177D02*
X007983Y017177D01*
X007983Y017255D02*
X013526Y017255D01*
X013526Y017334D02*
X013492Y017334D01*
X013523Y017412D02*
X013526Y017412D01*
X013523Y017491D02*
X013526Y017491D01*
X013523Y017569D02*
X013526Y017569D01*
X013523Y017648D02*
X013526Y017648D01*
X013523Y017726D02*
X013562Y017726D01*
X013523Y017805D02*
X014693Y017805D01*
X014200Y018119D02*
X014159Y018119D01*
X013526Y018276D02*
X007983Y018276D01*
X007983Y018354D02*
X013526Y018354D01*
X013342Y018197D02*
X007983Y018197D01*
X007983Y018119D02*
X012674Y018119D01*
X012663Y018040D02*
X007983Y018040D01*
X007983Y017962D02*
X012663Y017962D01*
X012663Y017883D02*
X007983Y017883D01*
X007983Y017805D02*
X012663Y017805D01*
X012663Y017726D02*
X007983Y017726D01*
X007983Y017648D02*
X012663Y017648D01*
X012663Y017569D02*
X007983Y017569D01*
X007983Y017491D02*
X012663Y017491D01*
X012663Y017412D02*
X007983Y017412D01*
X007983Y017334D02*
X012693Y017334D01*
X013523Y017883D02*
X013527Y017883D01*
X014177Y018433D02*
X007983Y018433D01*
X007983Y018511D02*
X014193Y018511D01*
X014193Y018590D02*
X007983Y018590D01*
X007983Y018668D02*
X014193Y018668D01*
X014193Y018747D02*
X007983Y018747D01*
X007983Y018825D02*
X014193Y018825D01*
X014193Y018904D02*
X007983Y018904D01*
X007983Y018982D02*
X014193Y018982D01*
X014193Y019061D02*
X007983Y019061D01*
X007983Y019139D02*
X014193Y019139D01*
X014193Y019218D02*
X007983Y019218D01*
X007983Y019296D02*
X014172Y019296D01*
X014993Y019296D02*
X016872Y019296D01*
X016872Y019218D02*
X016746Y019218D01*
X016723Y019241D02*
X016246Y019241D01*
X016188Y019183D01*
X016188Y019107D01*
X016102Y019107D01*
X015973Y018979D01*
X015973Y018796D01*
X016102Y018667D01*
X016284Y018667D01*
X016324Y018707D01*
X016463Y018707D01*
X016482Y018726D01*
X016723Y018726D01*
X016781Y018785D01*
X016781Y019183D01*
X016723Y019241D01*
X016781Y019139D02*
X016872Y019139D01*
X016872Y019061D02*
X016781Y019061D01*
X016781Y018982D02*
X016872Y018982D01*
X016872Y018904D02*
X016781Y018904D01*
X016781Y018825D02*
X016872Y018825D01*
X016872Y018747D02*
X016743Y018747D01*
X016872Y018668D02*
X016285Y018668D01*
X016101Y018668D02*
X014993Y018668D01*
X014993Y018590D02*
X016872Y018590D01*
X016872Y018511D02*
X014993Y018511D01*
X014993Y018433D02*
X016872Y018433D01*
X016022Y018747D02*
X014993Y018747D01*
X014993Y018825D02*
X015973Y018825D01*
X015973Y018904D02*
X014993Y018904D01*
X014993Y018982D02*
X015977Y018982D01*
X016055Y019061D02*
X014993Y019061D01*
X014993Y019139D02*
X016188Y019139D01*
X016223Y019218D02*
X014993Y019218D01*
X014993Y019375D02*
X016872Y019375D01*
X016872Y019453D02*
X014993Y019453D01*
X014993Y019532D02*
X016872Y019532D01*
X016872Y019610D02*
X014993Y019610D01*
X014953Y019689D02*
X016872Y019689D01*
X016872Y019767D02*
X014875Y019767D01*
X014796Y019846D02*
X016872Y019846D01*
X014693Y016941D02*
X007983Y016941D01*
X007983Y016863D02*
X014693Y016863D01*
X014693Y016784D02*
X007983Y016784D01*
X007983Y016706D02*
X014693Y016706D01*
X014693Y016627D02*
X007983Y016627D01*
X007983Y016549D02*
X014693Y016549D01*
X014693Y016470D02*
X007983Y016470D01*
X007983Y016392D02*
X014693Y016392D01*
X014693Y016313D02*
X007983Y016313D01*
X007983Y016235D02*
X014693Y016235D01*
X014693Y016156D02*
X007983Y016156D01*
X007983Y016078D02*
X014693Y016078D01*
X014693Y015999D02*
X007983Y015999D01*
X007983Y015921D02*
X014693Y015921D01*
X014693Y015842D02*
X014159Y015842D01*
X014159Y015860D02*
X014101Y015919D01*
X013585Y015919D01*
X013526Y015860D01*
X013526Y015787D01*
X013480Y015787D01*
X013464Y015804D01*
X012721Y015804D01*
X012663Y015745D01*
X012663Y015002D01*
X012721Y014944D01*
X013464Y014944D01*
X013523Y015002D01*
X013523Y015455D01*
X013526Y015459D01*
X013526Y015384D01*
X013585Y015325D01*
X014101Y015325D01*
X014159Y015384D01*
X014159Y015860D01*
X014159Y015764D02*
X014693Y015764D01*
X014693Y015685D02*
X014159Y015685D01*
X014159Y015607D02*
X014693Y015607D01*
X014693Y015528D02*
X014159Y015528D01*
X014159Y015450D02*
X014693Y015450D01*
X014693Y015371D02*
X014147Y015371D01*
X014101Y015250D02*
X013585Y015250D01*
X013526Y015191D01*
X013526Y014714D01*
X013585Y014656D01*
X013623Y014656D01*
X013623Y014596D01*
X013752Y014467D01*
X013934Y014467D01*
X014063Y014596D01*
X014063Y014656D01*
X014101Y014656D01*
X014159Y014714D01*
X014159Y015191D01*
X014101Y015250D01*
X014136Y015214D02*
X014693Y015214D01*
X014693Y015136D02*
X014159Y015136D01*
X014159Y015057D02*
X014693Y015057D01*
X014693Y014979D02*
X014159Y014979D01*
X014159Y014900D02*
X014693Y014900D01*
X014693Y014822D02*
X014159Y014822D01*
X014159Y014743D02*
X014693Y014743D01*
X014693Y014665D02*
X014110Y014665D01*
X014053Y014586D02*
X014693Y014586D01*
X014693Y014508D02*
X013974Y014508D01*
X013711Y014508D02*
X007983Y014508D01*
X007983Y014586D02*
X013633Y014586D01*
X013576Y014665D02*
X007983Y014665D01*
X007983Y014743D02*
X013526Y014743D01*
X013526Y014822D02*
X007983Y014822D01*
X007983Y014900D02*
X013526Y014900D01*
X013526Y014979D02*
X013500Y014979D01*
X013523Y015057D02*
X013526Y015057D01*
X013523Y015136D02*
X013526Y015136D01*
X013523Y015214D02*
X013550Y015214D01*
X013523Y015293D02*
X014693Y015293D01*
X013539Y015371D02*
X013523Y015371D01*
X013523Y015450D02*
X013526Y015450D01*
X013526Y015842D02*
X007983Y015842D01*
X007983Y015764D02*
X012682Y015764D01*
X012663Y015685D02*
X007983Y015685D01*
X007983Y015607D02*
X012663Y015607D01*
X012663Y015528D02*
X007983Y015528D01*
X007983Y015450D02*
X012663Y015450D01*
X012663Y015371D02*
X007983Y015371D01*
X007983Y015293D02*
X012663Y015293D01*
X012663Y015214D02*
X007983Y015214D01*
X007983Y015136D02*
X012663Y015136D01*
X012663Y015057D02*
X007983Y015057D01*
X007983Y014979D02*
X012686Y014979D01*
X014693Y014429D02*
X007983Y014429D01*
X007983Y014351D02*
X014693Y014351D01*
X014693Y014272D02*
X007983Y014272D01*
X007983Y014194D02*
X014693Y014194D01*
X014693Y014115D02*
X007983Y014115D01*
X007983Y014037D02*
X014693Y014037D01*
X014693Y013958D02*
X007983Y013958D01*
X007983Y013880D02*
X014693Y013880D01*
X014693Y013801D02*
X007983Y013801D01*
X007983Y013723D02*
X014217Y013723D01*
X014139Y013644D02*
X007983Y013644D01*
X007983Y013566D02*
X014091Y013566D01*
X014087Y013487D02*
X007983Y013487D01*
X007983Y013409D02*
X012689Y013409D01*
X012663Y013330D02*
X007983Y013330D01*
X007983Y013252D02*
X012663Y013252D01*
X012663Y013173D02*
X007983Y013173D01*
X007983Y013095D02*
X012663Y013095D01*
X012663Y013016D02*
X007983Y013016D01*
X007983Y012938D02*
X012663Y012938D01*
X012663Y012859D02*
X007983Y012859D01*
X007983Y012781D02*
X012663Y012781D01*
X012663Y012702D02*
X007983Y012702D01*
X007983Y012624D02*
X012679Y012624D01*
X013507Y012624D02*
X013559Y012624D01*
X013585Y012650D02*
X013526Y012591D01*
X013526Y012114D01*
X013585Y012056D01*
X013623Y012056D01*
X013623Y011996D01*
X007983Y011996D01*
X007983Y012074D02*
X013566Y012074D01*
X013526Y012153D02*
X007983Y012153D01*
X007983Y012231D02*
X013526Y012231D01*
X013526Y012310D02*
X007983Y012310D01*
X007983Y012388D02*
X013526Y012388D01*
X013526Y012467D02*
X007983Y012467D01*
X007983Y012545D02*
X013526Y012545D01*
X013585Y012650D02*
X014101Y012650D01*
X014159Y012591D01*
X014159Y012114D01*
X014101Y012056D01*
X014063Y012056D01*
X014063Y011996D01*
X013934Y011867D01*
X013752Y011867D01*
X013623Y011996D01*
X013702Y011917D02*
X007983Y011917D01*
X007983Y011839D02*
X014693Y011839D01*
X014693Y011917D02*
X013984Y011917D01*
X014062Y011996D02*
X014693Y011996D01*
X014693Y012074D02*
X014119Y012074D01*
X014159Y012153D02*
X014693Y012153D01*
X014693Y012231D02*
X014159Y012231D01*
X014159Y012310D02*
X014693Y012310D01*
X014693Y012388D02*
X014159Y012388D01*
X014159Y012467D02*
X014693Y012467D01*
X014693Y012545D02*
X014159Y012545D01*
X014126Y012624D02*
X014693Y012624D01*
X014693Y012702D02*
X013523Y012702D01*
X013523Y012781D02*
X013529Y012781D01*
X013523Y012859D02*
X013526Y012859D01*
X014159Y012859D02*
X014693Y012859D01*
X014693Y012781D02*
X014156Y012781D01*
X014159Y012938D02*
X014693Y012938D01*
X014693Y013016D02*
X014159Y013016D01*
X014087Y013330D02*
X013523Y013330D01*
X013523Y013252D02*
X013526Y013252D01*
X013523Y013173D02*
X013526Y013173D01*
X013497Y013409D02*
X014087Y013409D01*
X014468Y013723D02*
X014693Y013723D01*
X014693Y013644D02*
X014547Y013644D01*
X014693Y011760D02*
X007983Y011760D01*
X007983Y011682D02*
X014693Y011682D01*
X014693Y011603D02*
X007983Y011603D01*
X007983Y011525D02*
X014693Y011525D01*
X014693Y011446D02*
X007983Y011446D01*
X007983Y011368D02*
X014693Y011368D01*
X014693Y011289D02*
X007983Y011289D01*
X007983Y011211D02*
X014707Y011211D01*
X014786Y011132D02*
X007983Y011132D01*
X007983Y011054D02*
X012696Y011054D01*
X012721Y011079D02*
X012663Y011021D01*
X012663Y010278D01*
X012721Y010219D01*
X013464Y010219D01*
X013503Y010258D01*
X013535Y010225D01*
X014051Y010225D01*
X014109Y010284D01*
X014109Y010760D01*
X014051Y010819D01*
X013535Y010819D01*
X013523Y010807D01*
X013523Y011021D01*
X013464Y011079D01*
X012721Y011079D01*
X012663Y010975D02*
X007983Y010975D01*
X007983Y010897D02*
X012663Y010897D01*
X012663Y010818D02*
X007983Y010818D01*
X007983Y010740D02*
X012663Y010740D01*
X012663Y010661D02*
X007983Y010661D01*
X007983Y010583D02*
X012663Y010583D01*
X012663Y010504D02*
X007983Y010504D01*
X007983Y010426D02*
X012663Y010426D01*
X012663Y010347D02*
X007983Y010347D01*
X007983Y010269D02*
X012672Y010269D01*
X013476Y010091D02*
X013476Y009614D01*
X013535Y009556D01*
X013573Y009556D01*
X013573Y009496D01*
X013702Y009367D01*
X013884Y009367D01*
X014013Y009496D01*
X014013Y009556D01*
X014051Y009556D01*
X014109Y009614D01*
X014109Y010091D01*
X014051Y010150D01*
X013535Y010150D01*
X013476Y010091D01*
X013497Y010112D02*
X007983Y010112D01*
X007983Y010190D02*
X015728Y010190D01*
X015806Y010112D02*
X014088Y010112D01*
X014109Y010033D02*
X015885Y010033D01*
X015963Y009955D02*
X014109Y009955D01*
X014109Y009876D02*
X016042Y009876D01*
X016120Y009798D02*
X014109Y009798D01*
X014109Y009719D02*
X014505Y009719D01*
X014426Y009641D02*
X014109Y009641D01*
X014057Y009562D02*
X014348Y009562D01*
X014269Y009484D02*
X014000Y009484D01*
X013922Y009405D02*
X014191Y009405D01*
X014164Y009327D02*
X007983Y009327D01*
X007983Y009405D02*
X013664Y009405D01*
X013585Y009484D02*
X007983Y009484D01*
X007983Y009562D02*
X013528Y009562D01*
X013476Y009641D02*
X007983Y009641D01*
X007983Y009719D02*
X013476Y009719D01*
X013476Y009798D02*
X007983Y009798D01*
X007983Y009876D02*
X013476Y009876D01*
X013476Y009955D02*
X007983Y009955D01*
X007983Y010033D02*
X013476Y010033D01*
X014094Y010269D02*
X015649Y010269D01*
X015571Y010347D02*
X014109Y010347D01*
X014109Y010426D02*
X015492Y010426D01*
X015414Y010504D02*
X014109Y010504D01*
X014109Y010583D02*
X015335Y010583D01*
X015257Y010661D02*
X014109Y010661D01*
X014109Y010740D02*
X015178Y010740D01*
X015100Y010818D02*
X014051Y010818D01*
X013534Y010818D02*
X013523Y010818D01*
X013523Y010897D02*
X015021Y010897D01*
X014943Y010975D02*
X013523Y010975D01*
X013489Y011054D02*
X014864Y011054D01*
X015053Y011289D02*
X015779Y011289D01*
X015857Y011211D02*
X015131Y011211D01*
X015210Y011132D02*
X015936Y011132D01*
X016014Y011054D02*
X015288Y011054D01*
X015367Y010975D02*
X016093Y010975D01*
X016171Y010897D02*
X015445Y010897D01*
X015524Y010818D02*
X016250Y010818D01*
X016328Y010740D02*
X015602Y010740D01*
X015681Y010661D02*
X016407Y010661D01*
X016465Y010583D02*
X015759Y010583D01*
X015838Y010504D02*
X016465Y010504D01*
X016465Y010426D02*
X015916Y010426D01*
X015995Y010347D02*
X016445Y010347D01*
X016367Y010269D02*
X016073Y010269D01*
X016152Y010190D02*
X016288Y010190D01*
X016236Y010112D02*
X016230Y010112D01*
X016199Y009719D02*
X014635Y009719D01*
X014714Y009641D02*
X016134Y009641D01*
X016056Y009562D02*
X014792Y009562D01*
X014871Y009484D02*
X015977Y009484D01*
X015899Y009405D02*
X014948Y009405D01*
X014948Y009327D02*
X015820Y009327D01*
X015742Y009248D02*
X014874Y009248D01*
X014795Y009170D02*
X015663Y009170D01*
X015585Y009091D02*
X014717Y009091D01*
X014858Y009013D02*
X014916Y009013D01*
X015105Y008777D02*
X015812Y008777D01*
X015810Y008856D02*
X015773Y008856D01*
X015852Y008934D02*
X015882Y008934D01*
X015930Y009013D02*
X015961Y009013D01*
X016009Y009091D02*
X016039Y009091D01*
X016087Y009170D02*
X016118Y009170D01*
X016166Y009248D02*
X016196Y009248D01*
X016244Y009327D02*
X016275Y009327D01*
X015891Y008699D02*
X015172Y008699D01*
X015175Y008620D02*
X015969Y008620D01*
X016048Y008542D02*
X015105Y008542D01*
X015026Y008463D02*
X016126Y008463D01*
X016170Y008385D02*
X014948Y008385D01*
X014869Y008306D02*
X016092Y008306D01*
X016087Y008228D02*
X014791Y008228D01*
X014712Y008149D02*
X016156Y008149D01*
X016235Y008071D02*
X014634Y008071D01*
X014459Y008071D02*
X014109Y008071D01*
X014109Y008149D02*
X014380Y008149D01*
X014302Y008228D02*
X013699Y008228D01*
X013621Y008306D02*
X014223Y008306D01*
X014145Y008385D02*
X013542Y008385D01*
X013523Y008463D02*
X014140Y008463D01*
X014209Y008542D02*
X013523Y008542D01*
X013523Y008620D02*
X014288Y008620D01*
X014366Y008699D02*
X013482Y008699D01*
X012703Y008699D02*
X007983Y008699D01*
X007983Y008777D02*
X014406Y008777D01*
X014406Y008856D02*
X007983Y008856D01*
X007983Y008934D02*
X014406Y008934D01*
X014406Y009013D02*
X007983Y009013D01*
X007983Y009091D02*
X014368Y009091D01*
X014289Y009170D02*
X007983Y009170D01*
X007983Y009248D02*
X014211Y009248D01*
X012663Y008620D02*
X007983Y008620D01*
X007983Y008542D02*
X012663Y008542D01*
X012663Y008463D02*
X007983Y008463D01*
X007983Y008385D02*
X012663Y008385D01*
X012663Y008306D02*
X007983Y008306D01*
X007983Y008228D02*
X012663Y008228D01*
X012663Y008149D02*
X007983Y008149D01*
X007983Y008071D02*
X012663Y008071D01*
X012663Y007992D02*
X007983Y007992D01*
X007983Y007914D02*
X012664Y007914D01*
X013359Y007364D02*
X010855Y007364D01*
X010859Y007360D02*
X010801Y007419D01*
X010285Y007419D01*
X010226Y007360D01*
X010226Y006884D01*
X010285Y006825D01*
X010801Y006825D01*
X010859Y006884D01*
X010859Y006972D01*
X012246Y006972D01*
X012293Y006925D01*
X012293Y006924D01*
X012169Y006873D01*
X012037Y006741D01*
X011965Y006568D01*
X011965Y006381D01*
X012037Y006209D01*
X012169Y006076D01*
X012342Y006005D01*
X012529Y006005D01*
X012702Y006076D01*
X012834Y006209D01*
X012905Y006381D01*
X012905Y006568D01*
X012834Y006741D01*
X012702Y006873D01*
X012593Y006918D01*
X012593Y007050D01*
X012505Y007137D01*
X012370Y007272D01*
X010859Y007272D01*
X010859Y007360D01*
X010859Y007286D02*
X013323Y007286D01*
X013323Y007207D02*
X012435Y007207D01*
X012513Y007129D02*
X013340Y007129D01*
X013419Y007050D02*
X012592Y007050D01*
X012593Y006972D02*
X013519Y006972D01*
X014067Y006972D02*
X014720Y006972D01*
X014799Y007050D02*
X014109Y007050D01*
X014109Y007129D02*
X017322Y007129D01*
X017244Y007050D02*
X015792Y007050D01*
X015870Y006972D02*
X017165Y006972D01*
X017087Y006893D02*
X015949Y006893D01*
X016027Y006815D02*
X017008Y006815D01*
X017401Y007207D02*
X014109Y007207D01*
X014109Y007286D02*
X017479Y007286D01*
X017558Y007364D02*
X014109Y007364D01*
X014109Y007443D02*
X017636Y007443D01*
X016549Y007757D02*
X014109Y007757D01*
X014109Y007835D02*
X016487Y007835D01*
X016392Y007914D02*
X014109Y007914D01*
X014109Y007992D02*
X016313Y007992D01*
X015132Y006736D02*
X014909Y006736D01*
X014868Y006658D02*
X015054Y006658D01*
X015011Y006579D02*
X014901Y006579D01*
X014905Y006501D02*
X014979Y006501D01*
X014965Y006422D02*
X014905Y006422D01*
X014890Y006344D02*
X014965Y006344D01*
X014972Y006265D02*
X014857Y006265D01*
X014812Y006187D02*
X015004Y006187D01*
X015037Y006108D02*
X014734Y006108D01*
X014589Y006030D02*
X015116Y006030D01*
X014281Y006030D02*
X012589Y006030D01*
X012734Y006108D02*
X014137Y006108D01*
X014059Y006187D02*
X012812Y006187D01*
X012857Y006265D02*
X014013Y006265D01*
X013981Y006344D02*
X012890Y006344D01*
X012905Y006422D02*
X013965Y006422D01*
X013965Y006501D02*
X012905Y006501D01*
X012901Y006579D02*
X013970Y006579D01*
X014002Y006658D02*
X012868Y006658D01*
X012836Y006736D02*
X014035Y006736D01*
X014111Y006815D02*
X012760Y006815D01*
X012653Y006893D02*
X014218Y006893D01*
X013437Y007443D02*
X009321Y007443D01*
X009438Y007364D02*
X010230Y007364D01*
X010226Y007286D02*
X009534Y007286D01*
X009517Y007312D02*
X009729Y006995D01*
X009729Y006995D01*
X009803Y006622D01*
X009729Y006248D01*
X009729Y006248D01*
X009517Y005932D01*
X009517Y005932D01*
X009517Y005932D01*
X009530Y005951D02*
X011229Y005951D01*
X011293Y005873D02*
X009429Y005873D01*
X009312Y005794D02*
X011324Y005794D01*
X011116Y006030D02*
X009583Y006030D01*
X009635Y006108D02*
X011037Y006108D01*
X011004Y006187D02*
X010832Y006187D01*
X010859Y006579D02*
X011011Y006579D01*
X011054Y006658D02*
X010859Y006658D01*
X010814Y006736D02*
X011132Y006736D01*
X011270Y006815D02*
X009764Y006815D01*
X009749Y006893D02*
X010226Y006893D01*
X010226Y006972D02*
X009733Y006972D01*
X009692Y007050D02*
X010226Y007050D01*
X010226Y007129D02*
X009639Y007129D01*
X009587Y007207D02*
X010226Y007207D01*
X010272Y006736D02*
X009780Y006736D01*
X009796Y006658D02*
X010226Y006658D01*
X010226Y006579D02*
X009794Y006579D01*
X009779Y006501D02*
X010226Y006501D01*
X010226Y006422D02*
X009763Y006422D01*
X009748Y006344D02*
X010226Y006344D01*
X010226Y006265D02*
X009732Y006265D01*
X009688Y006187D02*
X010254Y006187D01*
X010859Y006893D02*
X012218Y006893D01*
X012246Y006972D02*
X010859Y006972D01*
X011601Y006815D02*
X012111Y006815D01*
X012035Y006736D02*
X011738Y006736D01*
X011817Y006658D02*
X012002Y006658D01*
X011970Y006579D02*
X011859Y006579D01*
X011892Y006501D02*
X011965Y006501D01*
X011965Y006422D02*
X011905Y006422D01*
X011905Y006344D02*
X011981Y006344D01*
X012013Y006265D02*
X011899Y006265D01*
X011866Y006187D02*
X012059Y006187D01*
X012137Y006108D02*
X011834Y006108D01*
X011755Y006030D02*
X012281Y006030D01*
X009517Y007312D02*
X009517Y007312D01*
X009200Y007523D01*
X008827Y007597D02*
X008827Y007597D01*
X008451Y007521D02*
X007983Y007521D01*
X007983Y007443D02*
X008333Y007443D01*
X008216Y007364D02*
X007983Y007364D01*
X007983Y007286D02*
X008120Y007286D01*
X008067Y007207D02*
X007983Y007207D01*
X007983Y007129D02*
X008015Y007129D01*
X009517Y007312D02*
X009517Y007312D01*
X017011Y011054D02*
X017323Y011054D01*
X017323Y011132D02*
X017067Y011132D01*
X017146Y011211D02*
X017321Y011211D01*
X017242Y011289D02*
X017216Y011289D01*
X017298Y010112D02*
X019243Y010112D01*
X019243Y010033D02*
X017376Y010033D01*
X017438Y009955D02*
X019243Y009955D01*
X020393Y009484D02*
X020760Y009484D01*
X020681Y009405D02*
X020393Y009405D01*
X020393Y009327D02*
X020603Y009327D01*
X020524Y009248D02*
X020393Y009248D01*
X020393Y009170D02*
X020446Y009170D01*
X021319Y010661D02*
X025126Y010661D01*
X025126Y010583D02*
X024943Y010583D01*
X025021Y010504D02*
X025126Y010504D01*
X025126Y010426D02*
X025100Y010426D01*
X025126Y010740D02*
X021401Y010740D01*
X019975Y011682D02*
X019249Y011682D01*
X019293Y011760D02*
X020054Y011760D01*
X019897Y011603D02*
X019171Y011603D01*
X019092Y011525D02*
X019818Y011525D01*
X019740Y011446D02*
X019043Y011446D01*
X019043Y011368D02*
X019661Y011368D01*
X019583Y011289D02*
X019052Y011289D01*
X019113Y011211D02*
X019504Y011211D01*
X019426Y011132D02*
X019113Y011132D01*
X019113Y011054D02*
X019347Y011054D01*
X019269Y010975D02*
X019042Y010975D01*
X019293Y011839D02*
X019380Y011839D01*
X019302Y011917D02*
X019293Y011917D01*
X022897Y012388D02*
X025882Y012388D01*
X025960Y012467D02*
X022897Y012467D01*
X022897Y012545D02*
X026039Y012545D01*
X026117Y012624D02*
X022897Y012624D01*
X022897Y012702D02*
X026196Y012702D01*
X026274Y012781D02*
X022897Y012781D01*
X022897Y012859D02*
X026353Y012859D01*
X026431Y012938D02*
X022897Y012938D01*
X022897Y013016D02*
X023182Y013016D01*
X023166Y013095D02*
X022895Y013095D01*
X023518Y013723D02*
X028616Y013723D01*
X028538Y013644D02*
X023597Y013644D01*
X023742Y013566D02*
X027059Y013566D01*
X026981Y013487D02*
X023799Y013487D01*
X023799Y013409D02*
X026902Y013409D01*
X026824Y013330D02*
X023799Y013330D01*
X023799Y013252D02*
X026745Y013252D01*
X026667Y013173D02*
X023799Y013173D01*
X023799Y013095D02*
X026588Y013095D01*
X026510Y013016D02*
X023783Y013016D01*
X026070Y012153D02*
X026396Y012153D01*
X026475Y012231D02*
X026149Y012231D01*
X026227Y012310D02*
X027209Y012310D01*
X027243Y012388D02*
X026306Y012388D01*
X026384Y012467D02*
X028075Y012467D01*
X028075Y012545D02*
X026463Y012545D01*
X026541Y012624D02*
X028075Y012624D01*
X028075Y012702D02*
X026620Y012702D01*
X026698Y012781D02*
X028128Y012781D01*
X028075Y012388D02*
X027927Y012388D01*
X027960Y012310D02*
X028075Y012310D01*
X028096Y012231D02*
X027960Y012231D01*
X027960Y012153D02*
X028534Y012153D01*
X028613Y012074D02*
X027960Y012074D01*
X027960Y011996D02*
X028691Y011996D01*
X028832Y011760D02*
X027928Y011760D01*
X027921Y011839D02*
X030505Y011839D01*
X030462Y011917D02*
X027960Y011917D01*
X028006Y011682D02*
X028825Y011682D01*
X028825Y011603D02*
X028085Y011603D01*
X028163Y011525D02*
X028825Y011525D01*
X028825Y011446D02*
X028242Y011446D01*
X028710Y011368D02*
X028825Y011368D01*
X028825Y011289D02*
X028710Y011289D01*
X028710Y011211D02*
X030474Y011211D01*
X030462Y011289D02*
X029577Y011289D01*
X028710Y011132D02*
X030462Y011132D01*
X031043Y011211D02*
X031144Y011211D01*
X031131Y011198D02*
X031131Y010682D01*
X031190Y010624D01*
X031666Y010624D01*
X031725Y010682D01*
X031725Y010757D01*
X031798Y010757D01*
X031799Y010757D01*
X031912Y010757D01*
X031952Y010717D01*
X032134Y010717D01*
X032263Y010846D01*
X032263Y011029D01*
X032134Y011157D01*
X031952Y011157D01*
X031912Y011117D01*
X031726Y011117D01*
X031725Y011117D01*
X031725Y011198D01*
X031695Y011228D01*
X031725Y011257D01*
X031725Y011357D01*
X031912Y011357D01*
X031952Y011317D01*
X032134Y011317D01*
X032263Y011446D01*
X032263Y011629D01*
X032134Y011757D01*
X031952Y011757D01*
X031912Y011717D01*
X031725Y011717D01*
X031725Y011773D01*
X031670Y011828D01*
X031725Y011883D01*
X031725Y011957D01*
X031912Y011957D01*
X031952Y011917D01*
X032134Y011917D01*
X032263Y012046D01*
X032263Y012229D01*
X032134Y012357D01*
X031952Y012357D01*
X031912Y012317D01*
X031725Y012317D01*
X031725Y012399D01*
X031666Y012457D01*
X031190Y012457D01*
X031131Y012399D01*
X031131Y011883D01*
X031186Y011828D01*
X031131Y011773D01*
X031131Y011257D01*
X031161Y011228D01*
X031131Y011198D01*
X031131Y011132D02*
X031055Y011132D01*
X031055Y011054D02*
X031131Y011054D01*
X031131Y010975D02*
X031055Y010975D01*
X031055Y010897D02*
X031131Y010897D01*
X031131Y010818D02*
X031055Y010818D01*
X031055Y010740D02*
X031131Y010740D01*
X031152Y010661D02*
X031035Y010661D01*
X030482Y010661D02*
X028827Y010661D01*
X028827Y010583D02*
X029326Y010583D01*
X029247Y010504D02*
X028827Y010504D01*
X028827Y010426D02*
X029169Y010426D01*
X029090Y010347D02*
X028827Y010347D01*
X028794Y010269D02*
X029034Y010269D01*
X028905Y010740D02*
X030462Y010740D01*
X030100Y010426D02*
X034870Y010426D01*
X034928Y010483D02*
X034799Y010355D01*
X034799Y010076D01*
X034230Y010076D01*
X034230Y010299D01*
X034172Y010357D01*
X032514Y010357D01*
X032455Y010299D01*
X032455Y009507D01*
X032514Y009449D01*
X033674Y009449D01*
X033674Y009392D01*
X033538Y009392D01*
X033479Y009333D01*
X033479Y008542D01*
X032343Y008542D01*
X032421Y008463D02*
X035222Y008463D01*
X035293Y008385D02*
X032500Y008385D01*
X032226Y008149D02*
X032197Y008149D01*
X032197Y008071D02*
X032305Y008071D01*
X032383Y007992D02*
X032157Y007992D01*
X032197Y008620D02*
X033479Y008620D01*
X033479Y008542D02*
X033538Y008483D01*
X034250Y008483D01*
X034309Y008542D01*
X035145Y008542D01*
X035112Y008620D02*
X034309Y008620D01*
X034309Y008542D02*
X034309Y009333D01*
X034250Y009392D01*
X034114Y009392D01*
X034114Y009449D01*
X034172Y009449D01*
X034230Y009507D01*
X034230Y009636D01*
X034801Y009636D01*
X034801Y009608D01*
X034859Y009549D01*
X035178Y009549D01*
X035237Y009608D01*
X035237Y009763D01*
X035239Y009765D01*
X035239Y010167D01*
X036952Y010167D01*
X037328Y009791D01*
X037495Y009791D01*
X037495Y009620D01*
X037554Y009561D01*
X037723Y009561D01*
X037723Y009396D01*
X037852Y009267D01*
X037952Y009167D01*
X039452Y009167D01*
X039523Y009096D01*
X039523Y006879D01*
X039489Y006844D01*
X039017Y006844D01*
X039017Y007040D01*
X038958Y007098D01*
X038127Y007098D01*
X038069Y007040D01*
X038069Y006844D01*
X037539Y006844D01*
X037302Y006607D01*
X034884Y006607D01*
X034813Y006679D01*
X034813Y006912D01*
X035153Y006912D01*
X035212Y006970D01*
X035212Y007604D01*
X035153Y007663D01*
X034047Y007663D01*
X033988Y007604D01*
X033988Y006970D01*
X034047Y006912D01*
X034373Y006912D01*
X034373Y006496D01*
X034502Y006367D01*
X034702Y006167D01*
X037484Y006167D01*
X037613Y006296D01*
X037721Y006404D01*
X038069Y006404D01*
X038069Y006209D01*
X038127Y006150D01*
X038958Y006150D01*
X039017Y006209D01*
X039017Y006404D01*
X039671Y006404D01*
X039834Y006567D01*
X039963Y006696D01*
X039963Y009279D01*
X039763Y009479D01*
X039634Y009607D01*
X039178Y009607D01*
X039395Y009825D01*
X039395Y010198D01*
X039132Y010461D01*
X038759Y010461D01*
X038495Y010198D01*
X038495Y009825D01*
X038713Y009607D01*
X038383Y009607D01*
X038395Y009620D01*
X038395Y010403D01*
X038337Y010461D01*
X037554Y010461D01*
X037495Y010403D01*
X037495Y010246D01*
X037263Y010479D01*
X037134Y010607D01*
X035052Y010607D01*
X034928Y010483D01*
X034949Y010504D02*
X030021Y010504D01*
X029943Y010583D02*
X035027Y010583D01*
X035178Y010612D02*
X035237Y010671D01*
X035237Y010826D01*
X035239Y010828D01*
X035239Y011010D01*
X035237Y011012D01*
X035237Y011167D01*
X035178Y011226D01*
X034859Y011226D01*
X034801Y011167D01*
X034801Y011139D01*
X033752Y011139D01*
X033563Y011329D01*
X033563Y011417D01*
X034172Y011417D01*
X034230Y011476D01*
X034230Y012267D01*
X034172Y012326D01*
X034121Y012326D01*
X034121Y012424D01*
X034238Y012424D01*
X034297Y012483D01*
X034297Y013392D01*
X034238Y013451D01*
X033565Y013451D01*
X033506Y013392D01*
X033506Y012483D01*
X033565Y012424D01*
X033681Y012424D01*
X033681Y012326D01*
X032514Y012326D01*
X032455Y012267D01*
X032455Y011476D01*
X032514Y011417D01*
X033123Y011417D01*
X033123Y011146D01*
X033252Y011017D01*
X033570Y010699D01*
X034801Y010699D01*
X034801Y010671D01*
X034859Y010612D01*
X035178Y010612D01*
X035228Y010661D02*
X035558Y010661D01*
X035549Y010671D02*
X035607Y010612D01*
X035926Y010612D01*
X035985Y010671D01*
X035985Y010826D01*
X035987Y010828D01*
X035987Y013020D01*
X036084Y013117D01*
X036176Y013117D01*
X036176Y013084D01*
X036235Y013025D01*
X036751Y013025D01*
X036809Y013084D01*
X036809Y013560D01*
X036751Y013619D01*
X036235Y013619D01*
X036176Y013560D01*
X036176Y013557D01*
X036113Y013557D01*
X036113Y013636D01*
X036131Y013636D01*
X036190Y013695D01*
X036190Y013701D01*
X036235Y013656D01*
X036751Y013656D01*
X036809Y013714D01*
X036809Y014191D01*
X036751Y014250D01*
X036235Y014250D01*
X036190Y014204D01*
X036190Y014211D01*
X036131Y014269D01*
X035655Y014269D01*
X035596Y014211D01*
X035596Y013695D01*
X035655Y013636D01*
X035673Y013636D01*
X035673Y013329D01*
X035547Y013203D01*
X035547Y010828D01*
X035549Y010826D01*
X035549Y010671D01*
X035549Y010740D02*
X035237Y010740D01*
X035237Y010818D02*
X035549Y010818D01*
X035547Y010897D02*
X035239Y010897D01*
X035239Y010975D02*
X035547Y010975D01*
X035547Y011054D02*
X035237Y011054D01*
X035237Y011132D02*
X035547Y011132D01*
X035547Y011211D02*
X035193Y011211D01*
X034845Y011211D02*
X033680Y011211D01*
X033602Y011289D02*
X035547Y011289D01*
X035547Y011368D02*
X033563Y011368D01*
X033123Y011368D02*
X032184Y011368D01*
X032263Y011446D02*
X032485Y011446D01*
X032455Y011525D02*
X032263Y011525D01*
X032263Y011603D02*
X032455Y011603D01*
X032455Y011682D02*
X032209Y011682D01*
X032134Y011917D02*
X032455Y011917D01*
X032455Y011839D02*
X031681Y011839D01*
X031725Y011917D02*
X031952Y011917D01*
X032212Y011996D02*
X032455Y011996D01*
X032455Y012074D02*
X032263Y012074D01*
X032263Y012153D02*
X032455Y012153D01*
X032455Y012231D02*
X032260Y012231D01*
X032181Y012310D02*
X032498Y012310D01*
X032864Y012467D02*
X033522Y012467D01*
X033506Y012545D02*
X032879Y012545D01*
X032879Y012624D02*
X033506Y012624D01*
X033506Y012702D02*
X032879Y012702D01*
X032879Y012781D02*
X033506Y012781D01*
X033506Y012859D02*
X032879Y012859D01*
X032879Y012938D02*
X033506Y012938D01*
X033506Y013016D02*
X032879Y013016D01*
X032879Y013095D02*
X033506Y013095D01*
X033506Y013173D02*
X032879Y013173D01*
X032879Y013252D02*
X033506Y013252D01*
X033506Y013330D02*
X032879Y013330D01*
X032863Y013409D02*
X033523Y013409D01*
X032883Y013566D02*
X035673Y013566D01*
X035673Y013487D02*
X032704Y013487D01*
X032897Y013644D02*
X035646Y013644D01*
X035596Y013723D02*
X034383Y013723D01*
X034461Y013801D02*
X035596Y013801D01*
X035596Y013880D02*
X034540Y013880D01*
X034618Y013958D02*
X035596Y013958D01*
X035596Y014037D02*
X034697Y014037D01*
X034775Y014115D02*
X035596Y014115D01*
X035596Y014194D02*
X034854Y014194D01*
X034932Y014272D02*
X037570Y014272D01*
X037495Y014198D02*
X037495Y013825D01*
X037759Y013561D01*
X038132Y013561D01*
X038395Y013825D01*
X038395Y014198D01*
X038132Y014461D01*
X037759Y014461D01*
X037495Y014198D01*
X037495Y014194D02*
X036806Y014194D01*
X036809Y014115D02*
X037495Y014115D01*
X037495Y014037D02*
X036809Y014037D01*
X036809Y013958D02*
X037495Y013958D01*
X037495Y013880D02*
X036809Y013880D01*
X036809Y013801D02*
X037519Y013801D01*
X037597Y013723D02*
X036809Y013723D01*
X036804Y013566D02*
X037754Y013566D01*
X037759Y013461D02*
X037495Y013198D01*
X037495Y012825D01*
X037759Y012561D01*
X038132Y012561D01*
X038395Y012825D01*
X038395Y013198D01*
X038132Y013461D01*
X037759Y013461D01*
X037706Y013409D02*
X036809Y013409D01*
X036809Y013487D02*
X043136Y013487D01*
X043136Y013409D02*
X039184Y013409D01*
X039132Y013461D02*
X039395Y013198D01*
X039395Y012825D01*
X039132Y012561D01*
X038759Y012561D01*
X038495Y012825D01*
X038495Y013198D01*
X038759Y013461D01*
X039132Y013461D01*
X039132Y013561D02*
X039395Y013825D01*
X039395Y014198D01*
X039132Y014461D01*
X038759Y014461D01*
X038495Y014198D01*
X038495Y013825D01*
X038759Y013561D01*
X039132Y013561D01*
X039136Y013566D02*
X043136Y013566D01*
X043136Y013644D02*
X039215Y013644D01*
X039293Y013723D02*
X043136Y013723D01*
X043136Y013801D02*
X039372Y013801D01*
X039395Y013880D02*
X043136Y013880D01*
X043136Y013958D02*
X039395Y013958D01*
X039395Y014037D02*
X043136Y014037D01*
X043136Y014115D02*
X039395Y014115D01*
X039395Y014194D02*
X043136Y014194D01*
X043136Y014272D02*
X039321Y014272D01*
X039242Y014351D02*
X043136Y014351D01*
X043136Y014429D02*
X039164Y014429D01*
X039157Y014586D02*
X043136Y014586D01*
X043136Y014508D02*
X036809Y014508D01*
X036809Y014586D02*
X037734Y014586D01*
X037759Y014561D02*
X038132Y014561D01*
X038395Y014825D01*
X038395Y015198D01*
X038132Y015461D01*
X037759Y015461D01*
X037495Y015198D01*
X037495Y014825D01*
X037759Y014561D01*
X037727Y014429D02*
X036809Y014429D01*
X036776Y014351D02*
X037648Y014351D01*
X037655Y014665D02*
X036809Y014665D01*
X036809Y014743D02*
X037577Y014743D01*
X037498Y014822D02*
X036809Y014822D01*
X036769Y014900D02*
X037495Y014900D01*
X037495Y014979D02*
X036663Y014979D01*
X036758Y015057D02*
X037495Y015057D01*
X037495Y015136D02*
X036809Y015136D01*
X036841Y015214D02*
X037512Y015214D01*
X037590Y015293D02*
X036843Y015293D01*
X036837Y015371D02*
X037669Y015371D01*
X037747Y015450D02*
X036804Y015450D01*
X036350Y015607D02*
X034427Y015607D01*
X034427Y015528D02*
X036239Y015528D01*
X036181Y015450D02*
X034427Y015450D01*
X034427Y015371D02*
X036149Y015371D01*
X036143Y015293D02*
X034427Y015293D01*
X034412Y015214D02*
X036144Y015214D01*
X036177Y015136D02*
X034333Y015136D01*
X034255Y015057D02*
X036228Y015057D01*
X036323Y014979D02*
X034176Y014979D01*
X034098Y014900D02*
X035616Y014900D01*
X035596Y014822D02*
X031693Y014822D01*
X031693Y014900D02*
X033556Y014900D01*
X033478Y014979D02*
X031693Y014979D01*
X031693Y015057D02*
X033399Y015057D01*
X032839Y014351D02*
X032047Y014351D01*
X031988Y014272D02*
X031893Y014272D01*
X031893Y014194D02*
X031988Y014194D01*
X031988Y014115D02*
X031893Y014115D01*
X031893Y014037D02*
X031988Y014037D01*
X031988Y013958D02*
X031893Y013958D01*
X031860Y013880D02*
X031988Y013880D01*
X031988Y013801D02*
X029218Y013801D01*
X029040Y013723D02*
X031988Y013723D01*
X031988Y013644D02*
X028962Y013644D01*
X028883Y013566D02*
X032002Y013566D01*
X032106Y013409D02*
X028726Y013409D01*
X028805Y013487D02*
X032264Y013487D01*
X032089Y013330D02*
X027248Y013330D01*
X027169Y013252D02*
X032089Y013252D01*
X032089Y013173D02*
X027091Y013173D01*
X027012Y013095D02*
X031989Y013095D01*
X031911Y013016D02*
X026934Y013016D01*
X026855Y012938D02*
X031873Y012938D01*
X031873Y012859D02*
X026777Y012859D01*
X028519Y013801D02*
X028695Y013801D01*
X028773Y013880D02*
X028597Y013880D01*
X028676Y013958D02*
X028852Y013958D01*
X028873Y014037D02*
X028754Y014037D01*
X028833Y014115D02*
X028910Y014115D01*
X028911Y014194D02*
X028988Y014194D01*
X029197Y014194D02*
X029424Y014194D01*
X029503Y014115D02*
X029276Y014115D01*
X029313Y014037D02*
X029581Y014037D01*
X027863Y014508D02*
X027768Y014508D01*
X027768Y014586D02*
X027785Y014586D01*
X025839Y015214D02*
X025078Y015214D01*
X025838Y015293D02*
X025848Y015293D01*
X028458Y015842D02*
X028478Y015842D01*
X031795Y016549D02*
X031893Y016549D01*
X031971Y016627D02*
X031795Y016627D01*
X031795Y016706D02*
X032049Y016706D01*
X032176Y016784D02*
X031795Y016784D01*
X031795Y016863D02*
X032179Y016863D01*
X031795Y016941D02*
X033700Y016941D01*
X033700Y016863D02*
X033574Y016863D01*
X033585Y016784D02*
X033700Y016784D01*
X033743Y016706D02*
X033585Y016706D01*
X033585Y016627D02*
X033916Y016627D01*
X033878Y016549D02*
X033585Y016549D01*
X033585Y016470D02*
X033800Y016470D01*
X033721Y016392D02*
X033585Y016392D01*
X033700Y017020D02*
X031795Y017020D01*
X031795Y017098D02*
X033700Y017098D01*
X033700Y017177D02*
X031795Y017177D01*
X031795Y017255D02*
X033730Y017255D01*
X032845Y016863D02*
X032807Y016863D01*
X032809Y016784D02*
X032834Y016784D01*
X032809Y016470D02*
X032834Y016470D01*
X032834Y016392D02*
X032809Y016392D01*
X034390Y015764D02*
X038556Y015764D01*
X038747Y015450D02*
X038143Y015450D01*
X038222Y015371D02*
X038669Y015371D01*
X038590Y015293D02*
X038300Y015293D01*
X038379Y015214D02*
X038512Y015214D01*
X038495Y015136D02*
X038395Y015136D01*
X038395Y015057D02*
X038495Y015057D01*
X038495Y014979D02*
X038395Y014979D01*
X038395Y014900D02*
X038495Y014900D01*
X038498Y014822D02*
X038392Y014822D01*
X038314Y014743D02*
X038577Y014743D01*
X038655Y014665D02*
X038235Y014665D01*
X038157Y014586D02*
X038734Y014586D01*
X038727Y014429D02*
X038164Y014429D01*
X038242Y014351D02*
X038648Y014351D01*
X038570Y014272D02*
X038321Y014272D01*
X038395Y014194D02*
X038495Y014194D01*
X038495Y014115D02*
X038395Y014115D01*
X038395Y014037D02*
X038495Y014037D01*
X038495Y013958D02*
X038395Y013958D01*
X038395Y013880D02*
X038495Y013880D01*
X038519Y013801D02*
X038372Y013801D01*
X038293Y013723D02*
X038597Y013723D01*
X038676Y013644D02*
X038215Y013644D01*
X038136Y013566D02*
X038754Y013566D01*
X038706Y013409D02*
X038184Y013409D01*
X038263Y013330D02*
X038628Y013330D01*
X038549Y013252D02*
X038341Y013252D01*
X038395Y013173D02*
X038495Y013173D01*
X038495Y013095D02*
X038395Y013095D01*
X038395Y013016D02*
X038495Y013016D01*
X038495Y012938D02*
X038395Y012938D01*
X038395Y012859D02*
X038495Y012859D01*
X038539Y012781D02*
X038351Y012781D01*
X038273Y012702D02*
X038618Y012702D01*
X038696Y012624D02*
X038194Y012624D01*
X038132Y012461D02*
X037759Y012461D01*
X037495Y012198D01*
X037495Y011825D01*
X037759Y011561D01*
X038132Y011561D01*
X038395Y011825D01*
X038395Y012198D01*
X038132Y012461D01*
X038205Y012388D02*
X038686Y012388D01*
X038759Y012461D02*
X038495Y012198D01*
X038495Y011825D01*
X038759Y011561D01*
X039132Y011561D01*
X039395Y011825D01*
X039395Y012198D01*
X039132Y012461D01*
X038759Y012461D01*
X038607Y012310D02*
X038283Y012310D01*
X038362Y012231D02*
X038529Y012231D01*
X038495Y012153D02*
X038395Y012153D01*
X038395Y012074D02*
X038495Y012074D01*
X038495Y011996D02*
X038395Y011996D01*
X038395Y011917D02*
X038495Y011917D01*
X038495Y011839D02*
X038395Y011839D01*
X038331Y011760D02*
X038560Y011760D01*
X038638Y011682D02*
X038252Y011682D01*
X038174Y011603D02*
X038717Y011603D01*
X038759Y011461D02*
X038495Y011198D01*
X038495Y010825D01*
X038759Y010561D01*
X039132Y010561D01*
X039395Y010825D01*
X039395Y011198D01*
X039132Y011461D01*
X038759Y011461D01*
X038744Y011446D02*
X038147Y011446D01*
X038132Y011461D02*
X037759Y011461D01*
X037495Y011198D01*
X037495Y010825D01*
X037759Y010561D01*
X038132Y010561D01*
X038395Y010825D01*
X038395Y011198D01*
X038132Y011461D01*
X038225Y011368D02*
X038665Y011368D01*
X038587Y011289D02*
X038304Y011289D01*
X038382Y011211D02*
X038508Y011211D01*
X038495Y011132D02*
X038395Y011132D01*
X038395Y011054D02*
X038495Y011054D01*
X038495Y010975D02*
X038395Y010975D01*
X038395Y010897D02*
X038495Y010897D01*
X038502Y010818D02*
X038389Y010818D01*
X038310Y010740D02*
X038580Y010740D01*
X038659Y010661D02*
X038232Y010661D01*
X038153Y010583D02*
X038737Y010583D01*
X038723Y010426D02*
X038372Y010426D01*
X038395Y010347D02*
X038645Y010347D01*
X038566Y010269D02*
X038395Y010269D01*
X038395Y010190D02*
X038495Y010190D01*
X038495Y010112D02*
X038395Y010112D01*
X038395Y010033D02*
X038495Y010033D01*
X038495Y009955D02*
X038395Y009955D01*
X038395Y009876D02*
X038495Y009876D01*
X038522Y009798D02*
X038395Y009798D01*
X038395Y009719D02*
X038601Y009719D01*
X038679Y009641D02*
X038395Y009641D01*
X037949Y009170D02*
X036509Y009170D01*
X036509Y009248D02*
X037871Y009248D01*
X037792Y009327D02*
X036473Y009327D01*
X036451Y009425D02*
X035992Y009425D01*
X035884Y009317D01*
X035702Y009317D01*
X035573Y009446D01*
X035573Y009584D01*
X035549Y009608D01*
X035549Y010104D01*
X035607Y010163D01*
X035926Y010163D01*
X035985Y010104D01*
X035985Y010019D01*
X036451Y010019D01*
X036509Y009960D01*
X036509Y009484D01*
X037723Y009484D01*
X037723Y009405D02*
X035972Y009405D01*
X035912Y009327D02*
X035893Y009327D01*
X035876Y009248D02*
X034309Y009248D01*
X034309Y009170D02*
X035876Y009170D01*
X035876Y009091D02*
X034309Y009091D01*
X034309Y009013D02*
X035223Y009013D01*
X035146Y008934D02*
X034309Y008934D01*
X034309Y008856D02*
X035113Y008856D01*
X035093Y008777D02*
X034309Y008777D01*
X034309Y008699D02*
X035093Y008699D01*
X035662Y009013D02*
X035876Y009013D01*
X035876Y008934D02*
X035740Y008934D01*
X035773Y008856D02*
X035876Y008856D01*
X035913Y008777D02*
X035793Y008777D01*
X035793Y008699D02*
X035973Y008699D01*
X036413Y008699D02*
X039523Y008699D01*
X039523Y008777D02*
X036472Y008777D01*
X036509Y008856D02*
X039523Y008856D01*
X039523Y008934D02*
X036509Y008934D01*
X036509Y009013D02*
X039523Y009013D01*
X039523Y009091D02*
X036509Y009091D01*
X036451Y009425D02*
X036509Y009484D01*
X036509Y009562D02*
X037553Y009562D01*
X037495Y009641D02*
X036509Y009641D01*
X036509Y009719D02*
X037495Y009719D01*
X037321Y009798D02*
X036509Y009798D01*
X036509Y009876D02*
X037243Y009876D01*
X037164Y009955D02*
X036509Y009955D01*
X037007Y010112D02*
X035977Y010112D01*
X035985Y010033D02*
X037086Y010033D01*
X037394Y010347D02*
X037495Y010347D01*
X037495Y010269D02*
X037472Y010269D01*
X037518Y010426D02*
X037315Y010426D01*
X037237Y010504D02*
X043136Y010504D01*
X043136Y010426D02*
X039167Y010426D01*
X039246Y010347D02*
X043136Y010347D01*
X043136Y010269D02*
X039324Y010269D01*
X039395Y010190D02*
X043136Y010190D01*
X043136Y010112D02*
X039395Y010112D01*
X039395Y010033D02*
X043136Y010033D01*
X043136Y009955D02*
X039395Y009955D01*
X039395Y009876D02*
X043136Y009876D01*
X043136Y009798D02*
X039368Y009798D01*
X039290Y009719D02*
X043136Y009719D01*
X043136Y009641D02*
X039211Y009641D01*
X039679Y009562D02*
X043136Y009562D01*
X043136Y009484D02*
X039757Y009484D01*
X039836Y009405D02*
X043136Y009405D01*
X043136Y009327D02*
X039914Y009327D01*
X039963Y009248D02*
X043136Y009248D01*
X043136Y009170D02*
X039963Y009170D01*
X039963Y009091D02*
X043136Y009091D01*
X043136Y009013D02*
X039963Y009013D01*
X039963Y008934D02*
X043136Y008934D01*
X043136Y008856D02*
X039963Y008856D01*
X039963Y008777D02*
X043136Y008777D01*
X043136Y008699D02*
X039963Y008699D01*
X039963Y008620D02*
X043136Y008620D01*
X043136Y008542D02*
X039963Y008542D01*
X039963Y008463D02*
X043136Y008463D01*
X043136Y008385D02*
X039963Y008385D01*
X039963Y008306D02*
X043136Y008306D01*
X043136Y008228D02*
X039963Y008228D01*
X039963Y008149D02*
X043136Y008149D01*
X043136Y008071D02*
X039963Y008071D01*
X039963Y007992D02*
X043136Y007992D01*
X043136Y007914D02*
X039963Y007914D01*
X039963Y007835D02*
X043136Y007835D01*
X043136Y007757D02*
X039963Y007757D01*
X039963Y007678D02*
X043136Y007678D01*
X043136Y007600D02*
X039963Y007600D01*
X039963Y007521D02*
X041915Y007521D01*
X041918Y007523D02*
X041918Y007523D01*
X041798Y007443D02*
X039963Y007443D01*
X039963Y007364D02*
X041681Y007364D01*
X041602Y007312D02*
X041602Y007312D01*
X041584Y007286D02*
X039963Y007286D01*
X039963Y007207D02*
X041532Y007207D01*
X041479Y007129D02*
X039963Y007129D01*
X039963Y007050D02*
X041427Y007050D01*
X041390Y006995D02*
X041390Y006995D01*
X041385Y006972D02*
X039963Y006972D01*
X039963Y006893D02*
X041370Y006893D01*
X041354Y006815D02*
X039963Y006815D01*
X039963Y006736D02*
X041339Y006736D01*
X041323Y006658D02*
X039924Y006658D01*
X039846Y006579D02*
X041324Y006579D01*
X041340Y006501D02*
X039767Y006501D01*
X039689Y006422D02*
X041355Y006422D01*
X041371Y006344D02*
X039017Y006344D01*
X039017Y006265D02*
X041387Y006265D01*
X041390Y006248D02*
X041390Y006248D01*
X041431Y006187D02*
X038995Y006187D01*
X039017Y006893D02*
X039523Y006893D01*
X039523Y006972D02*
X039017Y006972D01*
X039006Y007050D02*
X039523Y007050D01*
X039523Y007129D02*
X036576Y007129D01*
X036576Y007207D02*
X039523Y007207D01*
X039523Y007286D02*
X036576Y007286D01*
X036576Y007364D02*
X039523Y007364D01*
X039523Y007443D02*
X039017Y007443D01*
X039017Y007521D02*
X039523Y007521D01*
X039523Y007600D02*
X039017Y007600D01*
X039017Y007678D02*
X039523Y007678D01*
X039523Y007757D02*
X039017Y007757D01*
X039017Y007835D02*
X039523Y007835D01*
X039523Y007914D02*
X039017Y007914D01*
X038970Y007992D02*
X039523Y007992D01*
X039523Y008071D02*
X036576Y008071D01*
X036576Y008149D02*
X039523Y008149D01*
X039523Y008228D02*
X036576Y008228D01*
X036576Y008306D02*
X039523Y008306D01*
X039523Y008385D02*
X036576Y008385D01*
X036576Y008463D02*
X039523Y008463D01*
X039523Y008542D02*
X036576Y008542D01*
X036570Y008620D02*
X039523Y008620D01*
X038116Y007992D02*
X036576Y007992D01*
X036576Y007914D02*
X038069Y007914D01*
X038069Y007443D02*
X036576Y007443D01*
X036576Y007050D02*
X038079Y007050D01*
X038069Y006972D02*
X036576Y006972D01*
X036576Y006893D02*
X038069Y006893D01*
X037509Y006815D02*
X036576Y006815D01*
X036552Y006736D02*
X037431Y006736D01*
X037352Y006658D02*
X034833Y006658D01*
X034813Y006736D02*
X035652Y006736D01*
X035628Y006815D02*
X034813Y006815D01*
X034813Y006893D02*
X035628Y006893D01*
X035628Y006972D02*
X035212Y006972D01*
X035212Y007050D02*
X035628Y007050D01*
X035628Y007129D02*
X035212Y007129D01*
X035212Y007207D02*
X035628Y007207D01*
X035628Y007286D02*
X035212Y007286D01*
X035212Y007364D02*
X035628Y007364D01*
X035628Y007443D02*
X035212Y007443D01*
X035212Y007521D02*
X035628Y007521D01*
X035628Y007600D02*
X035212Y007600D01*
X035390Y007835D02*
X031123Y007835D01*
X031123Y007757D02*
X035628Y007757D01*
X035628Y007678D02*
X031123Y007678D01*
X031123Y007600D02*
X033988Y007600D01*
X033988Y007521D02*
X031123Y007521D01*
X031123Y007443D02*
X033988Y007443D01*
X033988Y007364D02*
X031123Y007364D01*
X031123Y007286D02*
X033988Y007286D01*
X033988Y007207D02*
X031123Y007207D01*
X031123Y007129D02*
X033988Y007129D01*
X033988Y007050D02*
X031123Y007050D01*
X031123Y006972D02*
X033988Y006972D01*
X034373Y006893D02*
X031123Y006893D01*
X031123Y006815D02*
X034373Y006815D01*
X034373Y006736D02*
X031123Y006736D01*
X031123Y006658D02*
X034373Y006658D01*
X034373Y006579D02*
X031123Y006579D01*
X031123Y006501D02*
X034373Y006501D01*
X034447Y006422D02*
X031123Y006422D01*
X031104Y006344D02*
X034525Y006344D01*
X034604Y006265D02*
X031025Y006265D01*
X030947Y006187D02*
X034682Y006187D01*
X035312Y007914D02*
X031123Y007914D01*
X031123Y007992D02*
X031328Y007992D01*
X031288Y008071D02*
X031123Y008071D01*
X031123Y008149D02*
X031288Y008149D01*
X030363Y007914D02*
X029802Y007914D01*
X029813Y007903D02*
X029754Y007962D01*
X029238Y007962D01*
X029180Y007903D01*
X029180Y007427D01*
X029238Y007368D01*
X029276Y007368D01*
X029276Y007239D01*
X029405Y007110D01*
X029587Y007110D01*
X029716Y007239D01*
X029716Y007368D01*
X029754Y007368D01*
X029813Y007427D01*
X029813Y007903D01*
X029813Y007835D02*
X030363Y007835D01*
X030363Y007757D02*
X029813Y007757D01*
X029813Y007678D02*
X030363Y007678D01*
X030363Y007600D02*
X029813Y007600D01*
X029813Y007521D02*
X030363Y007521D01*
X030363Y007443D02*
X029813Y007443D01*
X029716Y007364D02*
X030363Y007364D01*
X030363Y007286D02*
X029716Y007286D01*
X029685Y007207D02*
X030363Y007207D01*
X030363Y007129D02*
X029606Y007129D01*
X029387Y007129D02*
X028031Y007129D01*
X028013Y007110D02*
X028142Y007239D01*
X028142Y007368D01*
X028179Y007368D01*
X028238Y007427D01*
X028238Y007903D01*
X028179Y007962D01*
X027664Y007962D01*
X027605Y007903D01*
X027605Y007427D01*
X027664Y007368D01*
X027702Y007368D01*
X027702Y007239D01*
X027830Y007110D01*
X028013Y007110D01*
X028110Y007207D02*
X029308Y007207D01*
X029276Y007286D02*
X028142Y007286D01*
X028142Y007364D02*
X029276Y007364D01*
X029180Y007443D02*
X028238Y007443D01*
X028238Y007521D02*
X029180Y007521D01*
X029180Y007600D02*
X028238Y007600D01*
X028238Y007678D02*
X029180Y007678D01*
X029180Y007757D02*
X028238Y007757D01*
X028238Y007835D02*
X029180Y007835D01*
X029190Y007914D02*
X028227Y007914D01*
X028213Y008071D02*
X029205Y008071D01*
X029180Y008149D02*
X028238Y008149D01*
X028238Y008228D02*
X029180Y008228D01*
X029180Y008306D02*
X028238Y008306D01*
X028238Y008385D02*
X029180Y008385D01*
X029180Y008463D02*
X028238Y008463D01*
X027653Y008620D02*
X026615Y008620D01*
X026663Y008542D02*
X027605Y008542D01*
X027605Y008463D02*
X026663Y008463D01*
X026663Y008385D02*
X027605Y008385D01*
X027605Y008306D02*
X026663Y008306D01*
X026663Y008228D02*
X027605Y008228D01*
X027605Y008149D02*
X026663Y008149D01*
X026638Y008071D02*
X027630Y008071D01*
X027616Y007914D02*
X026653Y007914D01*
X026663Y007903D02*
X026605Y007962D01*
X026089Y007962D01*
X026030Y007903D01*
X026030Y007427D01*
X026089Y007368D01*
X026127Y007368D01*
X026127Y007239D01*
X026256Y007110D01*
X026438Y007110D01*
X026567Y007239D01*
X026567Y007368D01*
X026605Y007368D01*
X026663Y007427D01*
X026663Y007903D01*
X026663Y007835D02*
X027605Y007835D01*
X027605Y007757D02*
X026663Y007757D01*
X026663Y007678D02*
X027605Y007678D01*
X027605Y007600D02*
X026663Y007600D01*
X026663Y007521D02*
X027605Y007521D01*
X027605Y007443D02*
X026663Y007443D01*
X026567Y007364D02*
X027702Y007364D01*
X027702Y007286D02*
X026567Y007286D01*
X026535Y007207D02*
X027733Y007207D01*
X027812Y007129D02*
X026456Y007129D01*
X026237Y007129D02*
X024882Y007129D01*
X024960Y007207D02*
X026159Y007207D01*
X026127Y007286D02*
X024992Y007286D01*
X024992Y007364D02*
X026127Y007364D01*
X026030Y007443D02*
X025088Y007443D01*
X025088Y007521D02*
X026030Y007521D01*
X026030Y007600D02*
X025088Y007600D01*
X025088Y007678D02*
X026030Y007678D01*
X026030Y007757D02*
X025088Y007757D01*
X025088Y007835D02*
X026030Y007835D01*
X026041Y007914D02*
X025078Y007914D01*
X025063Y008071D02*
X026055Y008071D01*
X026030Y008149D02*
X026016Y008149D01*
X025770Y008149D02*
X025316Y008149D01*
X026493Y008699D02*
X026519Y008699D01*
X026665Y009327D02*
X033479Y009327D01*
X033479Y009248D02*
X027794Y009248D01*
X027872Y009170D02*
X033479Y009170D01*
X033479Y009091D02*
X027951Y009091D01*
X028029Y009013D02*
X033479Y009013D01*
X033479Y008777D02*
X032165Y008777D01*
X032197Y008699D02*
X033479Y008699D01*
X034309Y009327D02*
X035692Y009327D01*
X035614Y009405D02*
X034114Y009405D01*
X034207Y009484D02*
X035573Y009484D01*
X035573Y009562D02*
X035191Y009562D01*
X035237Y009641D02*
X035549Y009641D01*
X035549Y009719D02*
X035237Y009719D01*
X035239Y009798D02*
X035549Y009798D01*
X035549Y009876D02*
X035239Y009876D01*
X035239Y009955D02*
X035549Y009955D01*
X035549Y010033D02*
X035239Y010033D01*
X035239Y010112D02*
X035557Y010112D01*
X035976Y010661D02*
X037659Y010661D01*
X037737Y010583D02*
X037158Y010583D01*
X037502Y010818D02*
X035985Y010818D01*
X035985Y010740D02*
X037580Y010740D01*
X037495Y010897D02*
X035987Y010897D01*
X035987Y010975D02*
X037495Y010975D01*
X037495Y011054D02*
X035987Y011054D01*
X035987Y011132D02*
X037495Y011132D01*
X037508Y011211D02*
X035987Y011211D01*
X035987Y011289D02*
X037587Y011289D01*
X037665Y011368D02*
X035987Y011368D01*
X035987Y011446D02*
X037744Y011446D01*
X037717Y011603D02*
X035987Y011603D01*
X035987Y011525D02*
X043136Y011525D01*
X043136Y011603D02*
X039174Y011603D01*
X039252Y011682D02*
X043136Y011682D01*
X043136Y011760D02*
X039331Y011760D01*
X039395Y011839D02*
X043136Y011839D01*
X043136Y011917D02*
X039395Y011917D01*
X039395Y011996D02*
X043136Y011996D01*
X043136Y012074D02*
X039395Y012074D01*
X039395Y012153D02*
X043136Y012153D01*
X043136Y012231D02*
X039362Y012231D01*
X039283Y012310D02*
X043136Y012310D01*
X043136Y012388D02*
X039205Y012388D01*
X039194Y012624D02*
X043136Y012624D01*
X043136Y012702D02*
X039273Y012702D01*
X039351Y012781D02*
X043136Y012781D01*
X043136Y012859D02*
X039395Y012859D01*
X039395Y012938D02*
X043136Y012938D01*
X043136Y013016D02*
X039395Y013016D01*
X039395Y013095D02*
X043136Y013095D01*
X043136Y013173D02*
X039395Y013173D01*
X039341Y013252D02*
X043136Y013252D01*
X043136Y013330D02*
X039263Y013330D01*
X037676Y013644D02*
X036139Y013644D01*
X036113Y013566D02*
X036182Y013566D01*
X035673Y013409D02*
X034280Y013409D01*
X034297Y013330D02*
X035673Y013330D01*
X035596Y013252D02*
X034297Y013252D01*
X034297Y013173D02*
X035547Y013173D01*
X035547Y013095D02*
X034297Y013095D01*
X034297Y013016D02*
X035547Y013016D01*
X035547Y012938D02*
X034297Y012938D01*
X034297Y012859D02*
X035547Y012859D01*
X035547Y012781D02*
X034297Y012781D01*
X034297Y012702D02*
X035547Y012702D01*
X035547Y012624D02*
X034297Y012624D01*
X034297Y012545D02*
X035547Y012545D01*
X035547Y012467D02*
X034281Y012467D01*
X034121Y012388D02*
X035547Y012388D01*
X035547Y012310D02*
X034188Y012310D01*
X034230Y012231D02*
X035547Y012231D01*
X035547Y012153D02*
X034230Y012153D01*
X034230Y012074D02*
X035547Y012074D01*
X035547Y011996D02*
X034230Y011996D01*
X034230Y011917D02*
X035547Y011917D01*
X035547Y011839D02*
X034230Y011839D01*
X034230Y011760D02*
X035547Y011760D01*
X035547Y011682D02*
X034230Y011682D01*
X034230Y011603D02*
X035547Y011603D01*
X035547Y011525D02*
X034230Y011525D01*
X034201Y011446D02*
X035547Y011446D01*
X035987Y011682D02*
X037638Y011682D01*
X037560Y011760D02*
X035987Y011760D01*
X035987Y011839D02*
X037495Y011839D01*
X037495Y011917D02*
X035987Y011917D01*
X035987Y011996D02*
X037495Y011996D01*
X037495Y012074D02*
X035987Y012074D01*
X035987Y012153D02*
X037495Y012153D01*
X037529Y012231D02*
X035987Y012231D01*
X035987Y012310D02*
X037607Y012310D01*
X037686Y012388D02*
X035987Y012388D01*
X035987Y012467D02*
X043136Y012467D01*
X043136Y012545D02*
X035987Y012545D01*
X035987Y012624D02*
X037696Y012624D01*
X037618Y012702D02*
X035987Y012702D01*
X035987Y012781D02*
X037539Y012781D01*
X037495Y012859D02*
X035987Y012859D01*
X035987Y012938D02*
X037495Y012938D01*
X037495Y013016D02*
X035987Y013016D01*
X036061Y013095D02*
X036176Y013095D01*
X036809Y013095D02*
X037495Y013095D01*
X037495Y013173D02*
X036809Y013173D01*
X036809Y013252D02*
X037549Y013252D01*
X037628Y013330D02*
X036809Y013330D01*
X036209Y014351D02*
X036176Y014351D01*
X036169Y014900D02*
X036216Y014900D01*
X035596Y014429D02*
X035089Y014429D01*
X035011Y014351D02*
X035609Y014351D01*
X034894Y014743D02*
X031693Y014743D01*
X031693Y014665D02*
X034816Y014665D01*
X034737Y014586D02*
X031873Y014586D01*
X031893Y014508D02*
X034659Y014508D01*
X034423Y014272D02*
X032897Y014272D01*
X032897Y014194D02*
X034345Y014194D01*
X034266Y014115D02*
X032897Y014115D01*
X031888Y012781D02*
X028775Y012781D01*
X028827Y012702D02*
X031967Y012702D01*
X032089Y012624D02*
X028827Y012624D01*
X028827Y012545D02*
X032089Y012545D01*
X032105Y012467D02*
X028827Y012467D01*
X028827Y012388D02*
X030462Y012388D01*
X031055Y012388D02*
X031131Y012388D01*
X031131Y012310D02*
X031055Y012310D01*
X031055Y012231D02*
X031131Y012231D01*
X031131Y012153D02*
X031055Y012153D01*
X031055Y012074D02*
X031131Y012074D01*
X031131Y011996D02*
X031055Y011996D01*
X031055Y011917D02*
X031131Y011917D01*
X031175Y011839D02*
X031012Y011839D01*
X031055Y011760D02*
X031131Y011760D01*
X031131Y011682D02*
X031055Y011682D01*
X031055Y011603D02*
X031131Y011603D01*
X031131Y011525D02*
X031055Y011525D01*
X031055Y011446D02*
X031131Y011446D01*
X031131Y011368D02*
X031055Y011368D01*
X031055Y011289D02*
X031131Y011289D01*
X031712Y011211D02*
X033123Y011211D01*
X033123Y011289D02*
X031725Y011289D01*
X031725Y011132D02*
X031927Y011132D01*
X032159Y011132D02*
X033137Y011132D01*
X033215Y011054D02*
X032237Y011054D01*
X032263Y010975D02*
X033294Y010975D01*
X033372Y010897D02*
X032263Y010897D01*
X032235Y010818D02*
X033451Y010818D01*
X033529Y010740D02*
X032156Y010740D01*
X031929Y010740D02*
X031725Y010740D01*
X031704Y010661D02*
X034810Y010661D01*
X034799Y010347D02*
X034182Y010347D01*
X034230Y010269D02*
X034799Y010269D01*
X034799Y010190D02*
X034230Y010190D01*
X034230Y010112D02*
X034799Y010112D01*
X034846Y009562D02*
X034230Y009562D01*
X033674Y009405D02*
X026587Y009405D01*
X026563Y009876D02*
X027261Y009876D01*
X027209Y009955D02*
X026563Y009955D01*
X026558Y010033D02*
X026985Y010033D01*
X026906Y010112D02*
X026479Y010112D01*
X026424Y010190D02*
X026843Y010190D01*
X029287Y009484D02*
X029345Y009484D01*
X029924Y009484D02*
X032479Y009484D01*
X032455Y009562D02*
X030002Y009562D01*
X030081Y009641D02*
X032455Y009641D01*
X032455Y009719D02*
X030159Y009719D01*
X030234Y009798D02*
X032455Y009798D01*
X032455Y009876D02*
X030234Y009876D01*
X030234Y009955D02*
X032455Y009955D01*
X032455Y010033D02*
X030234Y010033D01*
X030234Y010112D02*
X032455Y010112D01*
X032455Y010190D02*
X030234Y010190D01*
X030234Y010269D02*
X032455Y010269D01*
X032504Y010347D02*
X030178Y010347D01*
X030462Y011760D02*
X029570Y011760D01*
X031725Y011760D02*
X032455Y011760D01*
X031725Y012388D02*
X033681Y012388D01*
X039147Y011446D02*
X043136Y011446D01*
X043136Y011368D02*
X039225Y011368D01*
X039304Y011289D02*
X043136Y011289D01*
X043136Y011211D02*
X039382Y011211D01*
X039395Y011132D02*
X043136Y011132D01*
X043136Y011054D02*
X039395Y011054D01*
X039395Y010975D02*
X043136Y010975D01*
X043136Y010897D02*
X039395Y010897D01*
X039389Y010818D02*
X043136Y010818D01*
X043136Y010740D02*
X039310Y010740D01*
X039232Y010661D02*
X043136Y010661D01*
X043136Y010583D02*
X039153Y010583D01*
X042665Y007523D02*
X042665Y007523D01*
X042668Y007521D02*
X043136Y007521D01*
X043136Y007443D02*
X042785Y007443D01*
X042903Y007364D02*
X043136Y007364D01*
X043136Y007286D02*
X042999Y007286D01*
X042982Y007312D02*
X042982Y007312D01*
X042982Y007312D01*
X043051Y007207D02*
X043136Y007207D01*
X043136Y007129D02*
X043104Y007129D01*
X041483Y006108D02*
X030868Y006108D01*
X024266Y009562D02*
X024130Y009562D01*
X024188Y009641D02*
X024051Y009641D01*
X024109Y009719D02*
X023973Y009719D01*
X024034Y009798D02*
X023894Y009798D01*
X023816Y009876D02*
X024034Y009876D01*
X024034Y009955D02*
X023737Y009955D01*
X018093Y009484D02*
X017926Y009484D01*
X018004Y009405D02*
X018093Y009405D01*
X018083Y009327D02*
X018093Y009327D01*
X008454Y019500D02*
X008454Y019500D01*
X008405Y019532D02*
X007983Y019532D01*
X007983Y019610D02*
X008288Y019610D01*
X008170Y019689D02*
X007983Y019689D01*
X007983Y019767D02*
X008099Y019767D01*
X008047Y019846D02*
X007983Y019846D01*
X007983Y019924D02*
X007995Y019924D01*
X037503Y006187D02*
X038091Y006187D01*
X038069Y006265D02*
X037582Y006265D01*
X037660Y006344D02*
X038069Y006344D01*
X039235Y014665D02*
X043136Y014665D01*
X043136Y014743D02*
X039314Y014743D01*
X039392Y014822D02*
X043136Y014822D01*
X043136Y014900D02*
X039395Y014900D01*
X039395Y014979D02*
X043136Y014979D01*
X043136Y015057D02*
X039395Y015057D01*
X039395Y015136D02*
X043136Y015136D01*
X043136Y015214D02*
X039379Y015214D01*
X039300Y015293D02*
X043136Y015293D01*
X043136Y015371D02*
X039222Y015371D01*
X038693Y016627D02*
X038603Y016627D01*
X038603Y016706D02*
X038614Y016706D01*
D45*
X036493Y013953D02*
X035893Y013953D01*
X035893Y013387D01*
X035943Y013337D01*
X035993Y013337D01*
X036477Y013337D01*
X036493Y013322D01*
X035993Y013337D02*
X035767Y013111D01*
X035767Y010919D01*
X035019Y010919D02*
X033661Y010919D01*
X033343Y011237D01*
X033343Y011872D01*
X033359Y011887D01*
X033893Y011887D01*
X033901Y011896D01*
X033901Y012937D01*
X032484Y012937D02*
X032484Y013895D01*
X032443Y013936D01*
X035143Y010387D02*
X035019Y010263D01*
X035019Y009856D01*
X033893Y009856D01*
X033894Y009855D01*
X033894Y008937D01*
X033893Y009856D02*
X033390Y009856D01*
X033343Y009903D01*
X035143Y010387D02*
X037043Y010387D01*
X037419Y010011D01*
X037945Y010011D01*
X037943Y010009D01*
X037943Y009487D01*
X038043Y009387D01*
X039543Y009387D01*
X039743Y009187D01*
X039743Y006787D01*
X039580Y006624D01*
X038543Y006624D01*
X037630Y006624D01*
X037393Y006387D01*
X034793Y006387D01*
X034593Y006587D01*
X034593Y007280D01*
X034600Y007287D01*
X036102Y007687D02*
X038543Y007687D01*
X036193Y007778D02*
X036102Y007687D01*
X036193Y007778D02*
X036193Y009053D01*
D46*
X030008Y014887D02*
X030008Y015437D01*
X030043Y015472D01*
X030043Y016053D01*
X030043Y016722D02*
X030643Y016722D01*
X030643Y017787D01*
X030465Y017965D01*
X030485Y017945D01*
X032465Y017945D01*
X034076Y016987D02*
X034884Y016987D01*
X034893Y016979D01*
X034893Y016237D01*
X034993Y016137D01*
X035258Y016137D01*
X035927Y016137D02*
X036193Y016137D01*
X036293Y016237D01*
X036293Y016979D01*
X036301Y016987D01*
X037327Y017937D02*
X037327Y018472D01*
X037393Y018537D01*
X038066Y018537D01*
X038443Y017887D02*
X038843Y018287D01*
X038843Y018937D01*
X038743Y019037D01*
X038066Y019037D01*
X037493Y019037D01*
X037393Y019137D01*
X037393Y020572D01*
X037458Y020637D01*
X036693Y020572D02*
X036627Y020637D01*
X036693Y020572D02*
X036693Y019637D01*
X036593Y019537D01*
X036019Y019537D01*
X038066Y019537D02*
X039043Y019537D01*
X039043Y017109D01*
X038945Y017011D01*
X038443Y016487D02*
X038443Y017887D01*
X038443Y016487D02*
X038919Y016011D01*
X038945Y016011D01*
X034076Y016520D02*
X033843Y016287D01*
X033843Y015494D01*
X033827Y015478D01*
X034076Y016520D02*
X034076Y016987D01*
X039043Y019537D02*
X039043Y019987D01*
X039093Y020037D01*
X040449Y020037D01*
X040569Y020157D01*
X040569Y020598D01*
X039429Y020598D02*
X039390Y020637D01*
X038127Y020637D01*
D47*
X036019Y019537D02*
X034793Y019537D01*
X034793Y017687D01*
X034893Y017587D01*
X036243Y017587D01*
X036301Y017529D01*
X036301Y016987D01*
X033374Y019418D02*
X033193Y019237D01*
X028243Y019237D01*
X028193Y019287D01*
X028193Y019737D01*
X028093Y019837D01*
X027377Y019837D01*
X028193Y019287D02*
X028193Y017337D01*
X025743Y017337D01*
X025543Y017137D01*
X025543Y016787D01*
X025493Y016737D01*
X024143Y016737D01*
X024043Y016837D01*
X024043Y018437D01*
X025543Y016787D02*
X025543Y016222D01*
X028193Y017337D02*
X028493Y017337D01*
X028743Y017087D01*
X028743Y016222D01*
X032409Y013903D02*
X032443Y013936D01*
X032484Y013895D02*
X034300Y013895D01*
X035043Y014637D01*
X035877Y014637D01*
X035893Y014622D01*
X036493Y014622D01*
X032484Y012937D02*
X032434Y012887D01*
X032093Y012887D01*
X032043Y012137D02*
X031431Y012137D01*
X031428Y012141D01*
X030759Y012141D02*
X028801Y012141D01*
X028451Y012491D01*
X029201Y011515D02*
X030759Y011515D01*
X031428Y011515D02*
X031550Y011537D01*
X032043Y011537D01*
X032043Y010937D02*
X031725Y010937D01*
X031428Y010940D01*
X030759Y010940D02*
X028851Y010940D01*
X028451Y010540D01*
X030543Y008637D02*
X030543Y006937D01*
X030343Y006737D01*
X023243Y006737D01*
X023243Y006287D02*
X030793Y006287D01*
X030943Y006437D01*
X030943Y008287D01*
X031043Y008387D01*
X031742Y008387D01*
X031743Y008389D01*
X032242Y008389D01*
X032493Y008137D01*
X035343Y008137D01*
X035493Y007987D01*
X035802Y007987D01*
X036102Y007687D01*
X018793Y014587D02*
X018793Y014816D01*
X018827Y014850D01*
X017429Y013101D02*
X017406Y013101D01*
X017193Y012887D01*
X016388Y018887D02*
X016193Y018887D01*
X016388Y018887D02*
X016485Y018984D01*
X033374Y019418D02*
X033827Y019418D01*
X033946Y019537D01*
X034793Y019537D01*
M02*
