G75*
G70*
%OFA0B0*%
%FSLAX24Y24*%
%IPPOS*%
%LPD*%
%AMOC8*
5,1,8,0,0,1.08239X$1,22.5*
%
%ADD10C,0.0000*%
D10*
X007843Y005637D02*
X007843Y021385D01*
X043276Y021385D01*
X043276Y005637D01*
X007843Y005637D01*
X008315Y006622D02*
X008317Y006667D01*
X008323Y006711D01*
X008332Y006755D01*
X008346Y006797D01*
X008363Y006838D01*
X008384Y006878D01*
X008408Y006916D01*
X008435Y006951D01*
X008465Y006984D01*
X008498Y007014D01*
X008533Y007041D01*
X008571Y007065D01*
X008611Y007086D01*
X008652Y007103D01*
X008694Y007117D01*
X008738Y007126D01*
X008782Y007132D01*
X008827Y007134D01*
X008872Y007132D01*
X008916Y007126D01*
X008960Y007117D01*
X009002Y007103D01*
X009043Y007086D01*
X009083Y007065D01*
X009121Y007041D01*
X009156Y007014D01*
X009189Y006984D01*
X009219Y006951D01*
X009246Y006916D01*
X009270Y006878D01*
X009291Y006838D01*
X009308Y006797D01*
X009322Y006755D01*
X009331Y006711D01*
X009337Y006667D01*
X009339Y006622D01*
X009337Y006577D01*
X009331Y006533D01*
X009322Y006489D01*
X009308Y006447D01*
X009291Y006406D01*
X009270Y006366D01*
X009246Y006328D01*
X009219Y006293D01*
X009189Y006260D01*
X009156Y006230D01*
X009121Y006203D01*
X009083Y006179D01*
X009043Y006158D01*
X009002Y006141D01*
X008960Y006127D01*
X008916Y006118D01*
X008872Y006112D01*
X008827Y006110D01*
X008782Y006112D01*
X008738Y006118D01*
X008694Y006127D01*
X008652Y006141D01*
X008611Y006158D01*
X008571Y006179D01*
X008533Y006203D01*
X008498Y006230D01*
X008465Y006260D01*
X008435Y006293D01*
X008408Y006328D01*
X008384Y006366D01*
X008363Y006406D01*
X008346Y006447D01*
X008332Y006489D01*
X008323Y006533D01*
X008317Y006577D01*
X008315Y006622D01*
X024339Y017842D02*
X024341Y017892D01*
X024347Y017942D01*
X024357Y017991D01*
X024371Y018039D01*
X024388Y018086D01*
X024409Y018131D01*
X024434Y018175D01*
X024462Y018216D01*
X024494Y018255D01*
X024528Y018292D01*
X024565Y018326D01*
X024605Y018356D01*
X024647Y018383D01*
X024691Y018407D01*
X024737Y018428D01*
X024784Y018444D01*
X024832Y018457D01*
X024882Y018466D01*
X024931Y018471D01*
X024982Y018472D01*
X025032Y018469D01*
X025081Y018462D01*
X025130Y018451D01*
X025178Y018436D01*
X025224Y018418D01*
X025269Y018396D01*
X025312Y018370D01*
X025353Y018341D01*
X025392Y018309D01*
X025428Y018274D01*
X025460Y018236D01*
X025490Y018196D01*
X025517Y018153D01*
X025540Y018109D01*
X025559Y018063D01*
X025575Y018015D01*
X025587Y017966D01*
X025595Y017917D01*
X025599Y017867D01*
X025599Y017817D01*
X025595Y017767D01*
X025587Y017718D01*
X025575Y017669D01*
X025559Y017621D01*
X025540Y017575D01*
X025517Y017531D01*
X025490Y017488D01*
X025460Y017448D01*
X025428Y017410D01*
X025392Y017375D01*
X025353Y017343D01*
X025312Y017314D01*
X025269Y017288D01*
X025224Y017266D01*
X025178Y017248D01*
X025130Y017233D01*
X025081Y017222D01*
X025032Y017215D01*
X024982Y017212D01*
X024931Y017213D01*
X024882Y017218D01*
X024832Y017227D01*
X024784Y017240D01*
X024737Y017256D01*
X024691Y017277D01*
X024647Y017301D01*
X024605Y017328D01*
X024565Y017358D01*
X024528Y017392D01*
X024494Y017429D01*
X024462Y017468D01*
X024434Y017509D01*
X024409Y017553D01*
X024388Y017598D01*
X024371Y017645D01*
X024357Y017693D01*
X024347Y017742D01*
X024341Y017792D01*
X024339Y017842D01*
X028669Y017842D02*
X028671Y017892D01*
X028677Y017942D01*
X028687Y017991D01*
X028701Y018039D01*
X028718Y018086D01*
X028739Y018131D01*
X028764Y018175D01*
X028792Y018216D01*
X028824Y018255D01*
X028858Y018292D01*
X028895Y018326D01*
X028935Y018356D01*
X028977Y018383D01*
X029021Y018407D01*
X029067Y018428D01*
X029114Y018444D01*
X029162Y018457D01*
X029212Y018466D01*
X029261Y018471D01*
X029312Y018472D01*
X029362Y018469D01*
X029411Y018462D01*
X029460Y018451D01*
X029508Y018436D01*
X029554Y018418D01*
X029599Y018396D01*
X029642Y018370D01*
X029683Y018341D01*
X029722Y018309D01*
X029758Y018274D01*
X029790Y018236D01*
X029820Y018196D01*
X029847Y018153D01*
X029870Y018109D01*
X029889Y018063D01*
X029905Y018015D01*
X029917Y017966D01*
X029925Y017917D01*
X029929Y017867D01*
X029929Y017817D01*
X029925Y017767D01*
X029917Y017718D01*
X029905Y017669D01*
X029889Y017621D01*
X029870Y017575D01*
X029847Y017531D01*
X029820Y017488D01*
X029790Y017448D01*
X029758Y017410D01*
X029722Y017375D01*
X029683Y017343D01*
X029642Y017314D01*
X029599Y017288D01*
X029554Y017266D01*
X029508Y017248D01*
X029460Y017233D01*
X029411Y017222D01*
X029362Y017215D01*
X029312Y017212D01*
X029261Y017213D01*
X029212Y017218D01*
X029162Y017227D01*
X029114Y017240D01*
X029067Y017256D01*
X029021Y017277D01*
X028977Y017301D01*
X028935Y017328D01*
X028895Y017358D01*
X028858Y017392D01*
X028824Y017429D01*
X028792Y017468D01*
X028764Y017509D01*
X028739Y017553D01*
X028718Y017598D01*
X028701Y017645D01*
X028687Y017693D01*
X028677Y017742D01*
X028671Y017792D01*
X028669Y017842D01*
X031229Y018713D02*
X031231Y018743D01*
X031237Y018773D01*
X031246Y018802D01*
X031259Y018829D01*
X031276Y018854D01*
X031295Y018877D01*
X031318Y018898D01*
X031343Y018915D01*
X031369Y018929D01*
X031398Y018939D01*
X031427Y018946D01*
X031457Y018949D01*
X031488Y018948D01*
X031518Y018943D01*
X031547Y018934D01*
X031574Y018922D01*
X031600Y018907D01*
X031624Y018888D01*
X031645Y018866D01*
X031663Y018842D01*
X031678Y018815D01*
X031689Y018787D01*
X031697Y018758D01*
X031701Y018728D01*
X031701Y018698D01*
X031697Y018668D01*
X031689Y018639D01*
X031678Y018611D01*
X031663Y018584D01*
X031645Y018560D01*
X031624Y018538D01*
X031600Y018519D01*
X031574Y018504D01*
X031547Y018492D01*
X031518Y018483D01*
X031488Y018478D01*
X031457Y018477D01*
X031427Y018480D01*
X031398Y018487D01*
X031369Y018497D01*
X031343Y018511D01*
X031318Y018528D01*
X031295Y018549D01*
X031276Y018572D01*
X031259Y018597D01*
X031246Y018624D01*
X031237Y018653D01*
X031231Y018683D01*
X031229Y018713D01*
X031229Y020287D02*
X031231Y020317D01*
X031237Y020347D01*
X031246Y020376D01*
X031259Y020403D01*
X031276Y020428D01*
X031295Y020451D01*
X031318Y020472D01*
X031343Y020489D01*
X031369Y020503D01*
X031398Y020513D01*
X031427Y020520D01*
X031457Y020523D01*
X031488Y020522D01*
X031518Y020517D01*
X031547Y020508D01*
X031574Y020496D01*
X031600Y020481D01*
X031624Y020462D01*
X031645Y020440D01*
X031663Y020416D01*
X031678Y020389D01*
X031689Y020361D01*
X031697Y020332D01*
X031701Y020302D01*
X031701Y020272D01*
X031697Y020242D01*
X031689Y020213D01*
X031678Y020185D01*
X031663Y020158D01*
X031645Y020134D01*
X031624Y020112D01*
X031600Y020093D01*
X031574Y020078D01*
X031547Y020066D01*
X031518Y020057D01*
X031488Y020052D01*
X031457Y020051D01*
X031427Y020054D01*
X031398Y020061D01*
X031369Y020071D01*
X031343Y020085D01*
X031318Y020102D01*
X031295Y020123D01*
X031276Y020146D01*
X031259Y020171D01*
X031246Y020198D01*
X031237Y020227D01*
X031231Y020257D01*
X031229Y020287D01*
X041780Y020401D02*
X041782Y020446D01*
X041788Y020490D01*
X041797Y020534D01*
X041811Y020576D01*
X041828Y020617D01*
X041849Y020657D01*
X041873Y020695D01*
X041900Y020730D01*
X041930Y020763D01*
X041963Y020793D01*
X041998Y020820D01*
X042036Y020844D01*
X042076Y020865D01*
X042117Y020882D01*
X042159Y020896D01*
X042203Y020905D01*
X042247Y020911D01*
X042292Y020913D01*
X042337Y020911D01*
X042381Y020905D01*
X042425Y020896D01*
X042467Y020882D01*
X042508Y020865D01*
X042548Y020844D01*
X042586Y020820D01*
X042621Y020793D01*
X042654Y020763D01*
X042684Y020730D01*
X042711Y020695D01*
X042735Y020657D01*
X042756Y020617D01*
X042773Y020576D01*
X042787Y020534D01*
X042796Y020490D01*
X042802Y020446D01*
X042804Y020401D01*
X042802Y020356D01*
X042796Y020312D01*
X042787Y020268D01*
X042773Y020226D01*
X042756Y020185D01*
X042735Y020145D01*
X042711Y020107D01*
X042684Y020072D01*
X042654Y020039D01*
X042621Y020009D01*
X042586Y019982D01*
X042548Y019958D01*
X042508Y019937D01*
X042467Y019920D01*
X042425Y019906D01*
X042381Y019897D01*
X042337Y019891D01*
X042292Y019889D01*
X042247Y019891D01*
X042203Y019897D01*
X042159Y019906D01*
X042117Y019920D01*
X042076Y019937D01*
X042036Y019958D01*
X041998Y019982D01*
X041963Y020009D01*
X041930Y020039D01*
X041900Y020072D01*
X041873Y020107D01*
X041849Y020145D01*
X041828Y020185D01*
X041811Y020226D01*
X041797Y020268D01*
X041788Y020312D01*
X041782Y020356D01*
X041780Y020401D01*
X041780Y006622D02*
X041782Y006667D01*
X041788Y006711D01*
X041797Y006755D01*
X041811Y006797D01*
X041828Y006838D01*
X041849Y006878D01*
X041873Y006916D01*
X041900Y006951D01*
X041930Y006984D01*
X041963Y007014D01*
X041998Y007041D01*
X042036Y007065D01*
X042076Y007086D01*
X042117Y007103D01*
X042159Y007117D01*
X042203Y007126D01*
X042247Y007132D01*
X042292Y007134D01*
X042337Y007132D01*
X042381Y007126D01*
X042425Y007117D01*
X042467Y007103D01*
X042508Y007086D01*
X042548Y007065D01*
X042586Y007041D01*
X042621Y007014D01*
X042654Y006984D01*
X042684Y006951D01*
X042711Y006916D01*
X042735Y006878D01*
X042756Y006838D01*
X042773Y006797D01*
X042787Y006755D01*
X042796Y006711D01*
X042802Y006667D01*
X042804Y006622D01*
X042802Y006577D01*
X042796Y006533D01*
X042787Y006489D01*
X042773Y006447D01*
X042756Y006406D01*
X042735Y006366D01*
X042711Y006328D01*
X042684Y006293D01*
X042654Y006260D01*
X042621Y006230D01*
X042586Y006203D01*
X042548Y006179D01*
X042508Y006158D01*
X042467Y006141D01*
X042425Y006127D01*
X042381Y006118D01*
X042337Y006112D01*
X042292Y006110D01*
X042247Y006112D01*
X042203Y006118D01*
X042159Y006127D01*
X042117Y006141D01*
X042076Y006158D01*
X042036Y006179D01*
X041998Y006203D01*
X041963Y006230D01*
X041930Y006260D01*
X041900Y006293D01*
X041873Y006328D01*
X041849Y006366D01*
X041828Y006406D01*
X041811Y006447D01*
X041797Y006489D01*
X041788Y006533D01*
X041782Y006577D01*
X041780Y006622D01*
X008315Y020401D02*
X008317Y020446D01*
X008323Y020490D01*
X008332Y020534D01*
X008346Y020576D01*
X008363Y020617D01*
X008384Y020657D01*
X008408Y020695D01*
X008435Y020730D01*
X008465Y020763D01*
X008498Y020793D01*
X008533Y020820D01*
X008571Y020844D01*
X008611Y020865D01*
X008652Y020882D01*
X008694Y020896D01*
X008738Y020905D01*
X008782Y020911D01*
X008827Y020913D01*
X008872Y020911D01*
X008916Y020905D01*
X008960Y020896D01*
X009002Y020882D01*
X009043Y020865D01*
X009083Y020844D01*
X009121Y020820D01*
X009156Y020793D01*
X009189Y020763D01*
X009219Y020730D01*
X009246Y020695D01*
X009270Y020657D01*
X009291Y020617D01*
X009308Y020576D01*
X009322Y020534D01*
X009331Y020490D01*
X009337Y020446D01*
X009339Y020401D01*
X009337Y020356D01*
X009331Y020312D01*
X009322Y020268D01*
X009308Y020226D01*
X009291Y020185D01*
X009270Y020145D01*
X009246Y020107D01*
X009219Y020072D01*
X009189Y020039D01*
X009156Y020009D01*
X009121Y019982D01*
X009083Y019958D01*
X009043Y019937D01*
X009002Y019920D01*
X008960Y019906D01*
X008916Y019897D01*
X008872Y019891D01*
X008827Y019889D01*
X008782Y019891D01*
X008738Y019897D01*
X008694Y019906D01*
X008652Y019920D01*
X008611Y019937D01*
X008571Y019958D01*
X008533Y019982D01*
X008498Y020009D01*
X008465Y020039D01*
X008435Y020072D01*
X008408Y020107D01*
X008384Y020145D01*
X008363Y020185D01*
X008346Y020226D01*
X008332Y020268D01*
X008323Y020312D01*
X008317Y020356D01*
X008315Y020401D01*
M02*
