G75*
G70*
%OFA0B0*%
%FSLAX24Y24*%
%IPPOS*%
%LPD*%
%AMOC8*
5,1,8,0,0,1.08239X$1,22.5*
%
%ADD10C,0.0080*%
%ADD11C,0.0060*%
%ADD12C,0.0100*%
%ADD13C,0.0050*%
%ADD14C,0.0040*%
%ADD15R,0.0375X0.0250*%
%ADD16R,0.0433X0.0193*%
D10*
X007843Y005637D02*
X007843Y021385D01*
X043276Y021385D01*
X043276Y005637D01*
X007843Y005637D01*
X010935Y006175D02*
X011185Y005925D01*
X011685Y005925D01*
X011935Y006175D01*
X012185Y005925D01*
X012685Y005925D01*
X012935Y006175D01*
X013185Y005925D01*
X013685Y005925D01*
X013935Y006175D01*
X014185Y005925D01*
X014685Y005925D01*
X014935Y006175D01*
X015185Y005925D01*
X015685Y005925D01*
X015935Y006175D01*
X015935Y006675D01*
X015685Y006925D01*
X015185Y006925D01*
X014935Y006675D01*
X014685Y006925D01*
X014185Y006925D01*
X013935Y006675D01*
X013685Y006925D01*
X013185Y006925D01*
X012935Y006675D01*
X012685Y006925D01*
X012185Y006925D01*
X011935Y006675D01*
X011685Y006925D01*
X011185Y006925D01*
X010935Y006675D01*
X010935Y006175D01*
X014713Y008125D02*
X014880Y007958D01*
X015771Y008125D02*
X016105Y008459D01*
X015214Y009350D02*
X014880Y009016D01*
X016105Y009517D02*
X016272Y009350D01*
X016782Y010626D02*
X019231Y008176D01*
X019454Y008176D01*
X021904Y010626D01*
X021904Y010849D01*
X019454Y013299D01*
X019231Y013299D01*
X016782Y010849D01*
X016782Y010626D01*
X030249Y013922D02*
X030249Y014552D01*
X030249Y014553D02*
X030254Y014569D01*
X030262Y014585D01*
X030272Y014599D01*
X030284Y014611D01*
X030299Y014621D01*
X030315Y014628D01*
X030332Y014632D01*
X030349Y014633D01*
X030367Y014631D01*
X030918Y014631D02*
X030936Y014633D01*
X030953Y014632D01*
X030970Y014628D01*
X030986Y014621D01*
X031001Y014611D01*
X031013Y014599D01*
X031023Y014585D01*
X031031Y014569D01*
X031036Y014553D01*
X031036Y014552D02*
X031036Y013922D01*
X031031Y013906D01*
X031023Y013890D01*
X031013Y013876D01*
X031001Y013864D01*
X030986Y013854D01*
X030970Y013847D01*
X030953Y013843D01*
X030936Y013842D01*
X030918Y013844D01*
X031149Y013922D02*
X031149Y014552D01*
X031149Y014553D02*
X031154Y014569D01*
X031162Y014585D01*
X031172Y014599D01*
X031184Y014611D01*
X031199Y014621D01*
X031215Y014628D01*
X031232Y014632D01*
X031249Y014633D01*
X031267Y014631D01*
X031818Y014631D02*
X031836Y014633D01*
X031853Y014632D01*
X031870Y014628D01*
X031886Y014621D01*
X031901Y014611D01*
X031913Y014599D01*
X031923Y014585D01*
X031931Y014569D01*
X031936Y014553D01*
X031936Y014552D02*
X031936Y013922D01*
X031931Y013906D01*
X031923Y013890D01*
X031913Y013876D01*
X031901Y013864D01*
X031886Y013854D01*
X031870Y013847D01*
X031853Y013843D01*
X031836Y013842D01*
X031818Y013844D01*
X031267Y013844D02*
X031249Y013842D01*
X031232Y013843D01*
X031215Y013847D01*
X031199Y013854D01*
X031184Y013864D01*
X031172Y013876D01*
X031162Y013890D01*
X031154Y013906D01*
X031149Y013922D01*
X030367Y013844D02*
X030349Y013842D01*
X030332Y013843D01*
X030315Y013847D01*
X030299Y013854D01*
X030284Y013864D01*
X030272Y013876D01*
X030262Y013890D01*
X030254Y013906D01*
X030249Y013922D01*
X030481Y017177D02*
X031081Y017177D01*
X031809Y017177D02*
X032449Y017177D01*
X032449Y017591D01*
X032449Y018289D02*
X032449Y019471D01*
X032449Y020335D02*
X032449Y020878D01*
X031977Y020878D01*
X031977Y021272D01*
X030953Y021272D01*
X030953Y020878D01*
X031977Y020878D01*
X030953Y020878D02*
X030481Y020878D01*
X030481Y020325D01*
X030481Y019502D02*
X030481Y018299D01*
X030481Y017621D02*
X030481Y017177D01*
X036295Y018343D02*
X036492Y018343D01*
X036492Y020232D01*
X036295Y020232D01*
X036295Y018343D01*
X036492Y018343D02*
X037791Y018343D01*
X037791Y020232D01*
X036492Y020232D01*
X038999Y020348D02*
X039249Y020098D01*
X039749Y020098D01*
X039999Y020348D01*
X040249Y020098D01*
X040749Y020098D01*
X040999Y020348D01*
X040999Y020848D01*
X040749Y021098D01*
X040249Y021098D01*
X039999Y020848D01*
X039749Y021098D01*
X039249Y021098D01*
X038999Y020848D01*
X038999Y020348D01*
X013376Y020348D02*
X013376Y020848D01*
X013126Y021098D01*
X012626Y021098D01*
X012376Y020848D01*
X012126Y021098D01*
X011626Y021098D01*
X011376Y020848D01*
X011126Y021098D01*
X010626Y021098D01*
X010376Y020848D01*
X010376Y020348D01*
X010626Y020098D01*
X011126Y020098D01*
X011376Y020348D01*
X011626Y020098D01*
X012126Y020098D01*
X012376Y020348D01*
X012626Y020098D01*
X013126Y020098D01*
X013376Y020348D01*
D11*
X013394Y019908D02*
X013168Y019567D01*
X013394Y019567D02*
X013168Y019908D01*
X013536Y019851D02*
X013536Y019738D01*
X013593Y019681D01*
X013763Y019681D01*
X013763Y019567D02*
X013763Y019908D01*
X013593Y019908D01*
X013536Y019851D01*
X013649Y019681D02*
X013536Y019567D01*
X012463Y019674D02*
X012463Y019958D01*
X012236Y019958D02*
X012236Y019674D01*
X012293Y019617D01*
X012406Y019617D01*
X012463Y019674D01*
X012094Y019617D02*
X012094Y019844D01*
X011981Y019958D01*
X011868Y019844D01*
X011868Y019617D01*
X011726Y019617D02*
X011726Y019958D01*
X011556Y019958D01*
X011499Y019901D01*
X011499Y019788D01*
X011556Y019731D01*
X011726Y019731D01*
X011613Y019731D02*
X011499Y019617D01*
X011244Y019617D02*
X011244Y019958D01*
X011131Y019958D02*
X011358Y019958D01*
X011868Y019788D02*
X012094Y019788D01*
X010613Y019958D02*
X010386Y019958D01*
X010499Y019958D02*
X010499Y019617D01*
X010244Y019617D02*
X010018Y019958D01*
X010244Y019958D02*
X010018Y019617D01*
X008411Y018724D02*
X008411Y018497D01*
X008411Y018611D02*
X008751Y018611D01*
X008638Y018497D01*
X008751Y018356D02*
X008411Y018356D01*
X008524Y018242D01*
X008411Y018129D01*
X008751Y018129D01*
X008695Y017987D02*
X008751Y017931D01*
X008751Y017817D01*
X008695Y017760D01*
X008638Y017760D01*
X008581Y017817D01*
X008581Y017931D01*
X008524Y017987D01*
X008468Y017987D01*
X008411Y017931D01*
X008411Y017817D01*
X008468Y017760D01*
X008411Y016362D02*
X008411Y016135D01*
X008638Y016362D01*
X008695Y016362D01*
X008751Y016305D01*
X008751Y016192D01*
X008695Y016135D01*
X008751Y015993D02*
X008411Y015993D01*
X008524Y015880D01*
X008411Y015767D01*
X008751Y015767D01*
X008695Y015625D02*
X008751Y015568D01*
X008751Y015455D01*
X008695Y015398D01*
X008638Y015398D01*
X008581Y015455D01*
X008581Y015568D01*
X008524Y015625D01*
X008468Y015625D01*
X008411Y015568D01*
X008411Y015455D01*
X008468Y015398D01*
X008468Y014000D02*
X008411Y013943D01*
X008411Y013829D01*
X008468Y013773D01*
X008411Y013631D02*
X008751Y013631D01*
X008695Y013773D02*
X008751Y013829D01*
X008751Y013943D01*
X008695Y014000D01*
X008638Y014000D01*
X008581Y013943D01*
X008524Y014000D01*
X008468Y014000D01*
X008581Y013943D02*
X008581Y013886D01*
X008411Y013631D02*
X008524Y013518D01*
X008411Y013404D01*
X008751Y013404D01*
X008695Y013263D02*
X008751Y013206D01*
X008751Y013093D01*
X008695Y013036D01*
X008638Y013036D01*
X008581Y013093D01*
X008581Y013206D01*
X008524Y013263D01*
X008468Y013263D01*
X008411Y013206D01*
X008411Y013093D01*
X008468Y013036D01*
X008581Y011637D02*
X008581Y011411D01*
X008751Y011581D01*
X008411Y011581D01*
X008411Y011269D02*
X008751Y011269D01*
X008751Y011042D02*
X008411Y011042D01*
X008524Y011156D01*
X008411Y011269D01*
X008468Y010901D02*
X008411Y010844D01*
X008411Y010731D01*
X008468Y010674D01*
X008581Y010731D02*
X008581Y010844D01*
X008524Y010901D01*
X008468Y010901D01*
X008581Y010731D02*
X008638Y010674D01*
X008695Y010674D01*
X008751Y010731D01*
X008751Y010844D01*
X008695Y010901D01*
X008751Y009275D02*
X008751Y009048D01*
X008581Y009048D01*
X008638Y009162D01*
X008638Y009218D01*
X008581Y009275D01*
X008468Y009275D01*
X008411Y009218D01*
X008411Y009105D01*
X008468Y009048D01*
X008411Y008907D02*
X008751Y008907D01*
X008751Y008680D02*
X008411Y008680D01*
X008524Y008793D01*
X008411Y008907D01*
X008468Y008539D02*
X008411Y008482D01*
X008411Y008368D01*
X008468Y008312D01*
X008581Y008368D02*
X008581Y008482D01*
X008524Y008539D01*
X008468Y008539D01*
X008581Y008368D02*
X008638Y008312D01*
X008695Y008312D01*
X008751Y008368D01*
X008751Y008482D01*
X008695Y008539D01*
X009929Y007176D02*
X009986Y007176D01*
X010043Y007119D01*
X010043Y006949D01*
X009929Y006949D01*
X009873Y007006D01*
X009873Y007119D01*
X009929Y007176D01*
X010156Y007063D02*
X010043Y006949D01*
X010156Y007063D02*
X010213Y007176D01*
X009873Y006808D02*
X009873Y006581D01*
X009873Y006694D02*
X010213Y006694D01*
X010100Y006581D01*
X010156Y006439D02*
X010043Y006439D01*
X009986Y006383D01*
X009986Y006212D01*
X009873Y006212D02*
X010213Y006212D01*
X010213Y006383D01*
X010156Y006439D01*
X009986Y006326D02*
X009873Y006439D01*
X013494Y008405D02*
X013721Y008405D01*
X013608Y008405D02*
X013608Y008745D01*
X013721Y008632D01*
X013863Y008745D02*
X014090Y008405D01*
X013863Y008405D02*
X014090Y008745D01*
X014123Y009717D02*
X014463Y009717D01*
X014463Y009888D01*
X014406Y009944D01*
X014293Y009944D01*
X014236Y009888D01*
X014236Y009717D01*
X014236Y009831D02*
X014123Y009944D01*
X014123Y010086D02*
X014123Y010313D01*
X014123Y010199D02*
X014463Y010199D01*
X014350Y010086D01*
X014406Y010454D02*
X014463Y010511D01*
X014463Y010624D01*
X014406Y010681D01*
X014350Y010681D01*
X014123Y010454D01*
X014123Y010681D01*
X015133Y010182D02*
X015213Y010262D01*
X015293Y010262D01*
X015133Y010182D02*
X015133Y010102D01*
X015173Y010061D01*
X015494Y010061D01*
X015333Y009901D01*
X015594Y010161D02*
X015754Y010322D01*
X015674Y010242D02*
X015433Y010482D01*
X015594Y010482D01*
X015654Y010622D02*
X015654Y010703D01*
X015734Y010783D01*
X015814Y010783D01*
X015974Y010622D01*
X015974Y010542D01*
X015894Y010462D01*
X015814Y010462D01*
X017134Y009183D02*
X017214Y009183D01*
X017374Y009022D01*
X017374Y008942D01*
X017294Y008862D01*
X017214Y008862D01*
X017154Y008722D02*
X016994Y008561D01*
X017074Y008642D02*
X016833Y008882D01*
X016994Y008882D01*
X017054Y009022D02*
X017054Y009103D01*
X017134Y009183D01*
X016733Y008622D02*
X016573Y008622D01*
X016813Y008381D01*
X016894Y008461D02*
X016733Y008301D01*
X017223Y007772D02*
X017304Y007772D01*
X017464Y007612D01*
X017464Y007532D01*
X017384Y007452D01*
X017304Y007452D01*
X017123Y007432D02*
X016963Y007271D01*
X017123Y007191D02*
X016883Y007432D01*
X017123Y007432D01*
X017143Y007612D02*
X017143Y007692D01*
X017223Y007772D01*
X017200Y006558D02*
X017313Y006558D01*
X017257Y006558D02*
X017257Y006217D01*
X017313Y006217D02*
X017200Y006217D01*
X017068Y006274D02*
X017011Y006217D01*
X016898Y006217D01*
X016841Y006274D01*
X016699Y006274D02*
X016643Y006217D01*
X016529Y006217D01*
X016473Y006274D01*
X016473Y006331D01*
X016529Y006388D01*
X016643Y006388D01*
X016699Y006444D01*
X016699Y006501D01*
X016643Y006558D01*
X016529Y006558D01*
X016473Y006501D01*
X016331Y006558D02*
X016161Y006558D01*
X016104Y006501D01*
X016104Y006388D01*
X016161Y006331D01*
X016331Y006331D01*
X016331Y006217D02*
X016331Y006558D01*
X016841Y006501D02*
X016898Y006558D01*
X017011Y006558D01*
X017068Y006501D01*
X017068Y006274D01*
X015118Y007067D02*
X015118Y007408D01*
X014948Y007408D01*
X014891Y007351D01*
X014891Y007238D01*
X014948Y007181D01*
X015118Y007181D01*
X015004Y007181D02*
X014891Y007067D01*
X014749Y007067D02*
X014523Y007067D01*
X014636Y007067D02*
X014636Y007408D01*
X014749Y007294D01*
X014381Y007351D02*
X014324Y007408D01*
X014211Y007408D01*
X014154Y007351D01*
X014154Y007294D01*
X014211Y007238D01*
X014154Y007181D01*
X014154Y007124D01*
X014211Y007067D01*
X014324Y007067D01*
X014381Y007124D01*
X014268Y007238D02*
X014211Y007238D01*
X021397Y007807D02*
X021477Y007727D01*
X021557Y007727D01*
X021637Y007807D02*
X021597Y007927D01*
X021557Y007967D01*
X021477Y007967D01*
X021397Y007887D01*
X021397Y007807D01*
X021637Y007807D02*
X021757Y007927D01*
X021597Y008088D01*
X021817Y007787D02*
X021898Y007787D01*
X021978Y007707D01*
X021978Y007627D01*
X021817Y007466D01*
X021737Y007466D01*
X021657Y007546D01*
X021657Y007627D01*
X025102Y007630D02*
X025442Y007630D01*
X025442Y007800D01*
X025385Y007856D01*
X025272Y007856D01*
X025215Y007800D01*
X025215Y007630D01*
X025215Y007743D02*
X025102Y007856D01*
X025102Y007998D02*
X025329Y008225D01*
X025385Y008225D01*
X025442Y008168D01*
X025442Y008055D01*
X025385Y007998D01*
X025102Y007998D02*
X025102Y008225D01*
X025102Y008366D02*
X025159Y008366D01*
X025385Y008593D01*
X025442Y008593D01*
X025442Y008366D01*
X025561Y009217D02*
X025674Y009217D01*
X025731Y009274D01*
X025731Y009331D01*
X025674Y009388D01*
X025561Y009388D01*
X025504Y009331D01*
X025504Y009274D01*
X025561Y009217D01*
X025561Y009388D02*
X025504Y009444D01*
X025504Y009501D01*
X025561Y009558D01*
X025674Y009558D01*
X025731Y009501D01*
X025731Y009444D01*
X025674Y009388D01*
X025873Y009388D02*
X025929Y009331D01*
X026099Y009331D01*
X025986Y009331D02*
X025873Y009217D01*
X025873Y009388D02*
X025873Y009501D01*
X025929Y009558D01*
X026099Y009558D01*
X026099Y009217D01*
X026733Y008593D02*
X026677Y008536D01*
X026677Y008423D01*
X026733Y008366D01*
X026790Y008366D01*
X026847Y008423D01*
X026847Y008536D01*
X026790Y008593D01*
X026733Y008593D01*
X026847Y008536D02*
X026904Y008593D01*
X026960Y008593D01*
X027017Y008536D01*
X027017Y008423D01*
X026960Y008366D01*
X026904Y008366D01*
X026847Y008423D01*
X026904Y008225D02*
X026960Y008225D01*
X027017Y008168D01*
X027017Y008055D01*
X026960Y007998D01*
X026960Y007856D02*
X026847Y007856D01*
X026790Y007800D01*
X026790Y007630D01*
X026790Y007743D02*
X026677Y007856D01*
X026677Y007998D02*
X026904Y008225D01*
X026677Y008225D02*
X026677Y007998D01*
X026960Y007856D02*
X027017Y007800D01*
X027017Y007630D01*
X026677Y007630D01*
X028252Y007580D02*
X028592Y007580D01*
X028592Y007750D01*
X028535Y007806D01*
X028422Y007806D01*
X028365Y007750D01*
X028365Y007580D01*
X028365Y007693D02*
X028252Y007806D01*
X028252Y007948D02*
X028478Y008175D01*
X028535Y008175D01*
X028592Y008118D01*
X028592Y008005D01*
X028535Y007948D01*
X028252Y007948D02*
X028252Y008175D01*
X028308Y008316D02*
X028252Y008373D01*
X028252Y008486D01*
X028308Y008543D01*
X028535Y008543D01*
X028592Y008486D01*
X028592Y008373D01*
X028535Y008316D01*
X028478Y008316D01*
X028422Y008373D01*
X028422Y008543D01*
X028253Y009493D02*
X028310Y009549D01*
X028310Y009776D01*
X028253Y009833D01*
X028140Y009833D01*
X028083Y009776D01*
X028083Y009549D01*
X028140Y009493D01*
X028253Y009493D01*
X028197Y009606D02*
X028083Y009493D01*
X027942Y009549D02*
X027885Y009493D01*
X027772Y009493D01*
X027715Y009549D01*
X027715Y009606D01*
X027772Y009663D01*
X027828Y009663D01*
X027772Y009663D02*
X027715Y009719D01*
X027715Y009776D01*
X027772Y009833D01*
X027885Y009833D01*
X027942Y009776D01*
X027758Y009980D02*
X028278Y009980D01*
X028278Y011100D01*
X027758Y011100D01*
X027758Y009980D01*
X026813Y010574D02*
X026756Y010517D01*
X026529Y010517D01*
X026473Y010574D01*
X026473Y010688D01*
X026529Y010744D01*
X026473Y010886D02*
X026473Y011113D01*
X026473Y010999D02*
X026813Y010999D01*
X026700Y010886D01*
X026756Y010744D02*
X026813Y010688D01*
X026813Y010574D01*
X026756Y011254D02*
X026700Y011254D01*
X026643Y011311D01*
X026643Y011481D01*
X026756Y011481D02*
X026813Y011424D01*
X026813Y011311D01*
X026756Y011254D01*
X026529Y011254D02*
X026473Y011311D01*
X026473Y011424D01*
X026529Y011481D01*
X026756Y011481D01*
X027758Y011931D02*
X028278Y011931D01*
X028278Y013051D01*
X027758Y013051D01*
X027758Y011931D01*
X028508Y012075D02*
X028508Y010955D01*
X029028Y010955D01*
X029028Y012075D01*
X028508Y012075D01*
X028840Y012193D02*
X029067Y012193D01*
X028840Y012419D01*
X028840Y012476D01*
X028896Y012533D01*
X029010Y012533D01*
X029067Y012476D01*
X029208Y012476D02*
X029208Y012249D01*
X029265Y012193D01*
X029378Y012193D01*
X029435Y012249D01*
X029435Y012476D01*
X029378Y012533D01*
X029265Y012533D01*
X029208Y012476D01*
X029321Y012306D02*
X029208Y012193D01*
X029499Y012248D02*
X029726Y012021D01*
X029726Y011964D01*
X029867Y011964D02*
X030094Y011964D01*
X029981Y011964D02*
X029981Y012305D01*
X030094Y012191D01*
X030236Y012134D02*
X030292Y012078D01*
X030462Y012078D01*
X030349Y012078D02*
X030236Y011964D01*
X030236Y012134D02*
X030236Y012248D01*
X030292Y012305D01*
X030462Y012305D01*
X030462Y011964D01*
X030462Y011680D02*
X030292Y011680D01*
X030236Y011623D01*
X030236Y011510D01*
X030292Y011453D01*
X030462Y011453D01*
X030349Y011453D02*
X030236Y011339D01*
X030094Y011396D02*
X030037Y011339D01*
X029924Y011339D01*
X029867Y011396D01*
X029867Y011453D01*
X029924Y011510D01*
X029981Y011510D01*
X029924Y011510D02*
X029867Y011566D01*
X029867Y011623D01*
X029924Y011680D01*
X030037Y011680D01*
X030094Y011623D01*
X029726Y011623D02*
X029669Y011680D01*
X029556Y011680D01*
X029499Y011623D01*
X029499Y011566D01*
X029556Y011510D01*
X029499Y011453D01*
X029499Y011396D01*
X029556Y011339D01*
X029669Y011339D01*
X029726Y011396D01*
X029612Y011510D02*
X029556Y011510D01*
X029606Y011105D02*
X029776Y010935D01*
X029549Y010935D01*
X029606Y010765D02*
X029606Y011105D01*
X029917Y011048D02*
X029917Y010992D01*
X029974Y010935D01*
X029917Y010878D01*
X029917Y010821D01*
X029974Y010765D01*
X030087Y010765D01*
X030144Y010821D01*
X030286Y010765D02*
X030399Y010878D01*
X030342Y010878D02*
X030512Y010878D01*
X030512Y010765D02*
X030512Y011105D01*
X030342Y011105D01*
X030286Y011048D01*
X030286Y010935D01*
X030342Y010878D01*
X030144Y011048D02*
X030087Y011105D01*
X029974Y011105D01*
X029917Y011048D01*
X029974Y010935D02*
X030031Y010935D01*
X030462Y011339D02*
X030462Y011680D01*
X029499Y012248D02*
X029499Y012305D01*
X029726Y012305D01*
X030473Y012762D02*
X030813Y012762D01*
X030813Y012933D01*
X030756Y012989D01*
X030643Y012989D01*
X030586Y012933D01*
X030586Y012762D01*
X030586Y012876D02*
X030473Y012989D01*
X030529Y013131D02*
X030473Y013187D01*
X030473Y013301D01*
X030529Y013358D01*
X030473Y013499D02*
X030700Y013499D01*
X030813Y013613D01*
X030700Y013726D01*
X030473Y013726D01*
X030643Y013726D02*
X030643Y013499D01*
X030756Y013358D02*
X030813Y013301D01*
X030813Y013187D01*
X030756Y013131D01*
X030529Y013131D01*
X031373Y013187D02*
X031429Y013131D01*
X031713Y013131D01*
X031656Y012989D02*
X031600Y012989D01*
X031543Y012933D01*
X031543Y012762D01*
X031373Y012762D02*
X031713Y012762D01*
X031713Y012933D01*
X031656Y012989D01*
X031543Y012933D02*
X031486Y012989D01*
X031429Y012989D01*
X031373Y012933D01*
X031373Y012762D01*
X031373Y013187D02*
X031373Y013301D01*
X031429Y013358D01*
X031713Y013358D01*
X031713Y013499D02*
X031713Y013726D01*
X031656Y013726D01*
X031429Y013499D01*
X031373Y013499D01*
X031373Y013726D01*
X032973Y014074D02*
X033029Y014017D01*
X033256Y014017D01*
X033313Y014074D01*
X033313Y014188D01*
X033256Y014244D01*
X033256Y014386D02*
X033200Y014386D01*
X033143Y014442D01*
X033143Y014556D01*
X033086Y014613D01*
X033029Y014613D01*
X032973Y014556D01*
X032973Y014442D01*
X033029Y014386D01*
X033086Y014386D01*
X033143Y014442D01*
X033143Y014556D02*
X033200Y014613D01*
X033256Y014613D01*
X033313Y014556D01*
X033313Y014442D01*
X033256Y014386D01*
X033029Y014244D02*
X032973Y014188D01*
X032973Y014074D01*
X031961Y015217D02*
X031848Y015217D01*
X031791Y015274D01*
X031649Y015217D02*
X031423Y015217D01*
X031536Y015217D02*
X031536Y015558D01*
X031649Y015444D01*
X031791Y015501D02*
X031848Y015558D01*
X031961Y015558D01*
X032018Y015501D01*
X032018Y015274D01*
X031961Y015217D01*
X031281Y015274D02*
X031224Y015217D01*
X031111Y015217D01*
X031054Y015274D01*
X031054Y015388D01*
X031111Y015444D01*
X031168Y015444D01*
X031281Y015388D01*
X031281Y015558D01*
X031054Y015558D01*
X030979Y015817D02*
X030923Y015874D01*
X030923Y015988D01*
X030979Y016044D01*
X030923Y016186D02*
X031150Y016413D01*
X031206Y016413D01*
X031263Y016356D01*
X031263Y016242D01*
X031206Y016186D01*
X031206Y016044D02*
X031263Y015988D01*
X031263Y015874D01*
X031206Y015817D01*
X030979Y015817D01*
X030923Y016186D02*
X030923Y016413D01*
X030923Y016554D02*
X030923Y016781D01*
X030923Y016667D02*
X031263Y016667D01*
X031150Y016554D01*
X031823Y016606D02*
X031823Y016719D01*
X031879Y016776D01*
X032106Y016776D01*
X031879Y016549D01*
X031823Y016606D01*
X031879Y016549D02*
X032106Y016549D01*
X032163Y016606D01*
X032163Y016719D01*
X032106Y016776D01*
X032106Y016408D02*
X032050Y016408D01*
X031993Y016351D01*
X031936Y016408D01*
X031879Y016408D01*
X031823Y016351D01*
X031823Y016237D01*
X031879Y016181D01*
X031823Y016039D02*
X031936Y015926D01*
X031936Y015983D02*
X031936Y015812D01*
X031823Y015812D02*
X032163Y015812D01*
X032163Y015983D01*
X032106Y016039D01*
X031993Y016039D01*
X031936Y015983D01*
X032106Y016181D02*
X032163Y016237D01*
X032163Y016351D01*
X032106Y016408D01*
X031993Y016351D02*
X031993Y016294D01*
X033383Y016427D02*
X033903Y016427D01*
X033903Y017547D01*
X033383Y017547D01*
X033383Y016427D01*
X034473Y016724D02*
X034529Y016667D01*
X034756Y016667D01*
X034813Y016724D01*
X034813Y016838D01*
X034756Y016894D01*
X034529Y016894D01*
X034473Y016838D01*
X034473Y016724D01*
X034586Y016781D02*
X034473Y016894D01*
X034643Y017036D02*
X034643Y017263D01*
X034473Y017206D02*
X034813Y017206D01*
X034643Y017036D01*
X035304Y017767D02*
X035531Y017767D01*
X035304Y017994D01*
X035304Y018051D01*
X035361Y018108D01*
X035474Y018108D01*
X035531Y018051D01*
X035673Y018051D02*
X035729Y018108D01*
X035843Y018108D01*
X035899Y018051D01*
X036041Y018051D02*
X036041Y017938D01*
X036098Y017881D01*
X036268Y017881D01*
X036268Y017767D02*
X036268Y018108D01*
X036098Y018108D01*
X036041Y018051D01*
X036154Y017881D02*
X036041Y017767D01*
X035899Y017767D02*
X035673Y017994D01*
X035673Y018051D01*
X035673Y017767D02*
X035899Y017767D01*
X036723Y017276D02*
X036723Y017049D01*
X036723Y017163D02*
X037063Y017163D01*
X036950Y017049D01*
X037006Y016908D02*
X036779Y016908D01*
X036723Y016851D01*
X036723Y016681D01*
X037063Y016681D01*
X037063Y016851D01*
X037006Y016908D01*
X037048Y016308D02*
X036991Y016251D01*
X036991Y016138D01*
X037048Y016081D01*
X037218Y016081D01*
X037218Y015967D02*
X037218Y016308D01*
X037048Y016308D01*
X036849Y016251D02*
X036793Y016308D01*
X036679Y016308D01*
X036623Y016251D01*
X036623Y016194D01*
X036679Y016138D01*
X036623Y016081D01*
X036623Y016024D01*
X036679Y015967D01*
X036793Y015967D01*
X036849Y016024D01*
X036991Y015967D02*
X037104Y016081D01*
X036736Y016138D02*
X036679Y016138D01*
X036481Y016194D02*
X036368Y016308D01*
X036368Y015967D01*
X036481Y015967D02*
X036254Y015967D01*
X036149Y015751D02*
X036149Y015524D01*
X036036Y015638D02*
X036263Y015638D01*
X035894Y015694D02*
X035838Y015638D01*
X035668Y015638D01*
X035668Y015751D02*
X035724Y015808D01*
X035838Y015808D01*
X035894Y015751D01*
X035894Y015694D01*
X035894Y015524D02*
X035838Y015467D01*
X035724Y015467D01*
X035668Y015524D01*
X035668Y015751D01*
X035526Y015808D02*
X035526Y015581D01*
X035413Y015467D01*
X035299Y015581D01*
X035299Y015808D01*
X035279Y014426D02*
X035506Y014426D01*
X035563Y014369D01*
X035563Y014256D01*
X035506Y014199D01*
X035450Y014199D01*
X035393Y014256D01*
X035393Y014426D01*
X035279Y014426D02*
X035223Y014369D01*
X035223Y014256D01*
X035279Y014199D01*
X035279Y014058D02*
X035223Y014001D01*
X035223Y013887D01*
X035279Y013831D01*
X035506Y013831D01*
X035563Y013887D01*
X035563Y014001D01*
X035506Y014058D01*
X036873Y014044D02*
X036986Y013931D01*
X036986Y013988D02*
X036986Y013817D01*
X036873Y013817D02*
X037213Y013817D01*
X037213Y013988D01*
X037156Y014044D01*
X037043Y014044D01*
X036986Y013988D01*
X036929Y014186D02*
X036873Y014242D01*
X036873Y014356D01*
X036929Y014413D01*
X037043Y014413D01*
X037100Y014356D01*
X037100Y014299D01*
X037043Y014186D01*
X037213Y014186D01*
X037213Y014413D01*
X037163Y013113D02*
X037106Y012999D01*
X036993Y012886D01*
X036993Y013056D01*
X036936Y013113D01*
X036879Y013113D01*
X036823Y013056D01*
X036823Y012942D01*
X036879Y012886D01*
X036993Y012886D01*
X036993Y012744D02*
X036936Y012688D01*
X036936Y012517D01*
X036823Y012517D02*
X037163Y012517D01*
X037163Y012688D01*
X037106Y012744D01*
X036993Y012744D01*
X036936Y012631D02*
X036823Y012744D01*
X036456Y012158D02*
X036513Y012101D01*
X036513Y011874D01*
X036456Y011817D01*
X036343Y011817D01*
X036286Y011874D01*
X036286Y011988D01*
X036399Y011988D01*
X036286Y012101D02*
X036343Y012158D01*
X036456Y012158D01*
X036144Y012158D02*
X035918Y011817D01*
X035918Y012158D01*
X035776Y012158D02*
X035606Y012158D01*
X035549Y012101D01*
X035549Y011874D01*
X035606Y011817D01*
X035776Y011817D01*
X035776Y012158D01*
X036144Y012158D02*
X036144Y011817D01*
X035603Y011644D02*
X035603Y011360D01*
X035547Y011303D01*
X035433Y011303D01*
X035376Y011360D01*
X035376Y011644D01*
X035235Y011473D02*
X035008Y011473D01*
X035065Y011303D02*
X035065Y011644D01*
X035235Y011473D01*
X034899Y011817D02*
X034673Y011817D01*
X034531Y011817D02*
X034304Y011817D01*
X034418Y011817D02*
X034418Y012158D01*
X034531Y012044D01*
X034899Y012158D02*
X034899Y011817D01*
X034829Y012667D02*
X034773Y012724D01*
X034773Y012951D01*
X034829Y013008D01*
X034999Y013008D01*
X034999Y012667D01*
X034829Y012667D01*
X034631Y012667D02*
X034404Y012894D01*
X034404Y012951D01*
X034461Y013008D01*
X034574Y013008D01*
X034631Y012951D01*
X034631Y012667D02*
X034404Y012667D01*
X036168Y010358D02*
X036168Y010301D01*
X036394Y010074D01*
X036394Y010017D01*
X036536Y010017D02*
X036649Y010131D01*
X036593Y010131D02*
X036763Y010131D01*
X036763Y010017D02*
X036763Y010358D01*
X036593Y010358D01*
X036536Y010301D01*
X036536Y010188D01*
X036593Y010131D01*
X036394Y010358D02*
X036168Y010358D01*
X036700Y009539D02*
X036927Y009539D01*
X036927Y009369D01*
X036813Y009426D01*
X036757Y009426D01*
X036700Y009369D01*
X036700Y009256D01*
X036757Y009199D01*
X036870Y009199D01*
X036927Y009256D01*
X037068Y009256D02*
X037068Y009539D01*
X037295Y009539D02*
X037295Y009256D01*
X037238Y009199D01*
X037125Y009199D01*
X037068Y009256D01*
X035863Y009238D02*
X035636Y009238D01*
X035749Y009351D02*
X035749Y009124D01*
X035494Y009124D02*
X035438Y009067D01*
X035324Y009067D01*
X035268Y009124D01*
X035268Y009181D01*
X035324Y009238D01*
X035381Y009238D01*
X035324Y009238D02*
X035268Y009294D01*
X035268Y009351D01*
X035324Y009408D01*
X035438Y009408D01*
X035494Y009351D01*
X035126Y009408D02*
X035126Y009181D01*
X035013Y009067D01*
X034899Y009181D01*
X034899Y009408D01*
X034758Y009351D02*
X034701Y009408D01*
X034588Y009408D01*
X034531Y009351D01*
X034531Y009294D01*
X034588Y009238D01*
X034531Y009181D01*
X034531Y009124D01*
X034588Y009067D01*
X034701Y009067D01*
X034758Y009124D01*
X034644Y009238D02*
X034588Y009238D01*
X032263Y009301D02*
X032263Y009074D01*
X032206Y009017D01*
X032093Y009017D01*
X032036Y009074D01*
X031894Y009017D02*
X031668Y009017D01*
X031781Y009017D02*
X031781Y009358D01*
X031894Y009244D01*
X032036Y009301D02*
X032093Y009358D01*
X032206Y009358D01*
X032263Y009301D01*
X031526Y009188D02*
X031299Y009188D01*
X031356Y009358D02*
X031526Y009188D01*
X031356Y009358D02*
X031356Y009017D01*
X030167Y008486D02*
X030167Y008373D01*
X030110Y008316D01*
X030110Y008175D02*
X030053Y008175D01*
X029996Y008118D01*
X029940Y008175D01*
X029883Y008175D01*
X029826Y008118D01*
X029826Y008005D01*
X029883Y007948D01*
X029826Y007806D02*
X029940Y007693D01*
X029940Y007750D02*
X029940Y007580D01*
X029826Y007580D02*
X030167Y007580D01*
X030167Y007750D01*
X030110Y007806D01*
X029996Y007806D01*
X029940Y007750D01*
X030110Y007948D02*
X030167Y008005D01*
X030167Y008118D01*
X030110Y008175D01*
X029996Y008118D02*
X029996Y008061D01*
X029826Y008316D02*
X030053Y008543D01*
X030110Y008543D01*
X030167Y008486D01*
X029826Y008543D02*
X029826Y008316D01*
X030306Y007358D02*
X030249Y007301D01*
X030249Y007244D01*
X030306Y007188D01*
X030249Y007131D01*
X030249Y007074D01*
X030306Y007017D01*
X030419Y007017D01*
X030476Y007074D01*
X030618Y007017D02*
X030844Y007017D01*
X030731Y007017D02*
X030731Y007358D01*
X030844Y007244D01*
X030986Y007301D02*
X031043Y007358D01*
X031156Y007358D01*
X031213Y007301D01*
X031213Y007074D01*
X031156Y007017D01*
X031043Y007017D01*
X030986Y007074D01*
X030476Y007301D02*
X030419Y007358D01*
X030306Y007358D01*
X030306Y007188D02*
X030363Y007188D01*
X032041Y006590D02*
X032041Y006534D01*
X032268Y006307D01*
X032268Y006250D01*
X032410Y006307D02*
X032466Y006250D01*
X032580Y006250D01*
X032636Y006307D01*
X032636Y006534D01*
X032580Y006590D01*
X032466Y006590D01*
X032410Y006534D01*
X032268Y006590D02*
X032041Y006590D01*
X025113Y010712D02*
X025113Y010883D01*
X025056Y010939D01*
X024943Y010939D01*
X024886Y010883D01*
X024886Y010712D01*
X024773Y010712D02*
X025113Y010712D01*
X024886Y010826D02*
X024773Y010939D01*
X024773Y011081D02*
X025000Y011308D01*
X025056Y011308D01*
X025113Y011251D01*
X025113Y011137D01*
X025056Y011081D01*
X024773Y011081D02*
X024773Y011308D01*
X024773Y011449D02*
X024773Y011676D01*
X024773Y011563D02*
X025113Y011563D01*
X025000Y011449D01*
X024152Y012366D02*
X024152Y012536D01*
X024096Y012593D01*
X023982Y012593D01*
X023926Y012536D01*
X023926Y012366D01*
X023926Y012480D02*
X023812Y012593D01*
X023812Y012735D02*
X024039Y012961D01*
X024096Y012961D01*
X024152Y012905D01*
X024152Y012791D01*
X024096Y012735D01*
X023812Y012735D02*
X023812Y012961D01*
X023869Y013103D02*
X023812Y013160D01*
X023812Y013273D01*
X023869Y013330D01*
X023926Y013330D01*
X023982Y013273D01*
X023982Y013103D01*
X023869Y013103D01*
X023982Y013103D02*
X024096Y013216D01*
X024152Y013330D01*
X023263Y013006D02*
X023263Y012892D01*
X023206Y012836D01*
X023206Y012694D02*
X023263Y012638D01*
X023263Y012524D01*
X023206Y012467D01*
X022979Y012467D01*
X022923Y012524D01*
X022923Y012638D01*
X022979Y012694D01*
X022923Y012836D02*
X023150Y013063D01*
X023206Y013063D01*
X023263Y013006D01*
X022923Y013063D02*
X022923Y012836D01*
X023812Y012366D02*
X024152Y012366D01*
X022696Y010949D02*
X022696Y010665D01*
X022639Y010608D01*
X022526Y010608D01*
X022469Y010665D01*
X022469Y010949D01*
X022328Y010835D02*
X022214Y010949D01*
X022214Y010608D01*
X022101Y010608D02*
X022328Y010608D01*
X016947Y013030D02*
X016786Y012870D01*
X016706Y012870D01*
X016626Y012950D01*
X016626Y013030D01*
X016526Y013130D02*
X016446Y013130D01*
X016366Y013211D01*
X016366Y013291D01*
X016406Y013331D01*
X016486Y013331D01*
X016526Y013291D01*
X016486Y013331D02*
X016486Y013411D01*
X016526Y013451D01*
X016606Y013451D01*
X016686Y013371D01*
X016686Y013291D01*
X016786Y013191D02*
X016867Y013191D01*
X016947Y013111D01*
X016947Y013030D01*
X016866Y014126D02*
X016979Y014239D01*
X016923Y014239D02*
X017093Y014239D01*
X017093Y014126D02*
X017093Y014466D01*
X016923Y014466D01*
X016866Y014409D01*
X016866Y014296D01*
X016923Y014239D01*
X016724Y014126D02*
X016724Y014466D01*
X016554Y014466D01*
X016498Y014409D01*
X016498Y014182D01*
X016554Y014126D01*
X016724Y014126D01*
X017234Y014126D02*
X017234Y014353D01*
X017348Y014466D01*
X017461Y014353D01*
X017461Y014126D01*
X017602Y014182D02*
X017659Y014126D01*
X017773Y014126D01*
X017829Y014182D01*
X017829Y014409D01*
X017773Y014466D01*
X017659Y014466D01*
X017602Y014409D01*
X017461Y014296D02*
X017234Y014296D01*
X017971Y014069D02*
X018198Y014069D01*
X018339Y014182D02*
X018339Y014409D01*
X018396Y014466D01*
X018566Y014466D01*
X018566Y014126D01*
X018396Y014126D01*
X018339Y014182D01*
X018707Y014182D02*
X018764Y014126D01*
X018878Y014126D01*
X018934Y014182D01*
X018878Y014296D02*
X018764Y014296D01*
X018707Y014239D01*
X018707Y014182D01*
X018878Y014296D02*
X018934Y014353D01*
X018934Y014409D01*
X018878Y014466D01*
X018764Y014466D01*
X018707Y014409D01*
X015613Y014762D02*
X015613Y014933D01*
X015556Y014989D01*
X015443Y014989D01*
X015386Y014933D01*
X015386Y014762D01*
X015273Y014762D02*
X015613Y014762D01*
X015386Y014876D02*
X015273Y014989D01*
X015273Y015131D02*
X015500Y015358D01*
X015556Y015358D01*
X015613Y015301D01*
X015613Y015187D01*
X015556Y015131D01*
X015273Y015131D02*
X015273Y015358D01*
X015329Y015499D02*
X015273Y015556D01*
X015273Y015669D01*
X015329Y015726D01*
X015443Y015726D01*
X015500Y015669D01*
X015500Y015613D01*
X015443Y015499D01*
X015613Y015499D01*
X015613Y015726D01*
X014513Y015674D02*
X014456Y015731D01*
X014229Y015504D01*
X014173Y015561D01*
X014173Y015674D01*
X014229Y015731D01*
X014456Y015731D01*
X014513Y015674D02*
X014513Y015561D01*
X014456Y015504D01*
X014229Y015504D01*
X014173Y015363D02*
X014173Y015136D01*
X014173Y015249D02*
X014513Y015249D01*
X014400Y015136D01*
X014456Y014994D02*
X014343Y014994D01*
X014286Y014938D01*
X014286Y014767D01*
X014173Y014767D02*
X014513Y014767D01*
X014513Y014938D01*
X014456Y014994D01*
X014286Y014881D02*
X014173Y014994D01*
X014173Y013181D02*
X014173Y012954D01*
X014173Y013067D02*
X014513Y013067D01*
X014400Y012954D01*
X014173Y012813D02*
X014173Y012586D01*
X014173Y012699D02*
X014513Y012699D01*
X014400Y012586D01*
X014456Y012444D02*
X014343Y012444D01*
X014286Y012388D01*
X014286Y012217D01*
X014173Y012217D02*
X014513Y012217D01*
X014513Y012388D01*
X014456Y012444D01*
X014286Y012331D02*
X014173Y012444D01*
X014002Y012299D02*
X014002Y012186D01*
X013946Y012129D01*
X013946Y011988D02*
X013832Y011988D01*
X013776Y011931D01*
X013776Y011761D01*
X013776Y011874D02*
X013662Y011988D01*
X013662Y012129D02*
X013889Y012356D01*
X013946Y012356D01*
X014002Y012299D01*
X013832Y012498D02*
X013832Y012724D01*
X013662Y012668D02*
X014002Y012668D01*
X013832Y012498D01*
X013662Y012356D02*
X013662Y012129D01*
X013946Y011988D02*
X014002Y011931D01*
X014002Y011761D01*
X013662Y011761D01*
X014173Y017317D02*
X014513Y017317D01*
X014513Y017488D01*
X014456Y017544D01*
X014343Y017544D01*
X014286Y017488D01*
X014286Y017317D01*
X014286Y017431D02*
X014173Y017544D01*
X014229Y017686D02*
X014173Y017742D01*
X014173Y017856D01*
X014229Y017913D01*
X014456Y017913D01*
X014513Y017856D01*
X014513Y017742D01*
X014456Y017686D01*
X014400Y017686D01*
X014343Y017742D01*
X014343Y017913D01*
X024873Y016469D02*
X024873Y016356D01*
X024929Y016299D01*
X025043Y016356D02*
X025043Y016526D01*
X025156Y016526D02*
X024929Y016526D01*
X024873Y016469D01*
X025043Y016356D02*
X025100Y016299D01*
X025156Y016299D01*
X025213Y016356D01*
X025213Y016469D01*
X025156Y016526D01*
X024873Y016158D02*
X024873Y015931D01*
X024873Y016044D02*
X025213Y016044D01*
X025100Y015931D01*
X025156Y015789D02*
X025043Y015789D01*
X024986Y015733D01*
X024986Y015562D01*
X024873Y015562D02*
X025213Y015562D01*
X025213Y015733D01*
X025156Y015789D01*
X024986Y015676D02*
X024873Y015789D01*
X026473Y015786D02*
X026700Y016013D01*
X026756Y016013D01*
X026813Y015956D01*
X026813Y015842D01*
X026756Y015786D01*
X026756Y015644D02*
X026643Y015644D01*
X026586Y015588D01*
X026586Y015417D01*
X026473Y015417D02*
X026813Y015417D01*
X026813Y015588D01*
X026756Y015644D01*
X026586Y015531D02*
X026473Y015644D01*
X026473Y015786D02*
X026473Y016013D01*
X027523Y015969D02*
X027523Y015856D01*
X027579Y015799D01*
X027523Y015658D02*
X027636Y015544D01*
X027636Y015601D02*
X027636Y015431D01*
X027523Y015431D02*
X027863Y015431D01*
X027863Y015601D01*
X027806Y015658D01*
X027693Y015658D01*
X027636Y015601D01*
X027806Y015799D02*
X027863Y015856D01*
X027863Y015969D01*
X027806Y016026D01*
X027750Y016026D01*
X027693Y015969D01*
X027636Y016026D01*
X027579Y016026D01*
X027523Y015969D01*
X027693Y015969D02*
X027693Y015913D01*
X028973Y015867D02*
X029313Y015867D01*
X029313Y016038D01*
X029256Y016094D01*
X029143Y016094D01*
X029086Y016038D01*
X029086Y015867D01*
X029086Y015981D02*
X028973Y016094D01*
X028973Y016236D02*
X029200Y016463D01*
X029256Y016463D01*
X029313Y016406D01*
X029313Y016292D01*
X029256Y016236D01*
X029423Y016231D02*
X029423Y016458D01*
X029423Y016344D02*
X029763Y016344D01*
X029650Y016231D01*
X029706Y016089D02*
X029593Y016089D01*
X029536Y016033D01*
X029536Y015862D01*
X029423Y015862D02*
X029763Y015862D01*
X029763Y016033D01*
X029706Y016089D01*
X029536Y015976D02*
X029423Y016089D01*
X028973Y016236D02*
X028973Y016463D01*
X029029Y016604D02*
X029256Y016831D01*
X029029Y016831D01*
X028973Y016774D01*
X028973Y016661D01*
X029029Y016604D01*
X029256Y016604D01*
X029313Y016661D01*
X029313Y016774D01*
X029256Y016831D01*
X029423Y016769D02*
X029423Y016656D01*
X029479Y016599D01*
X029593Y016599D02*
X029650Y016713D01*
X029650Y016769D01*
X029593Y016826D01*
X029479Y016826D01*
X029423Y016769D01*
X029593Y016599D02*
X029763Y016599D01*
X029763Y016826D01*
X028313Y017074D02*
X028256Y017017D01*
X028143Y017017D01*
X028086Y017074D01*
X027944Y017017D02*
X027718Y017017D01*
X027831Y017017D02*
X027831Y017358D01*
X027944Y017244D01*
X028086Y017301D02*
X028143Y017358D01*
X028256Y017358D01*
X028313Y017301D01*
X028313Y017074D01*
X027576Y017074D02*
X027576Y017017D01*
X027576Y017074D02*
X027349Y017301D01*
X027349Y017358D01*
X027576Y017358D01*
X026963Y017301D02*
X026963Y017074D01*
X026906Y017017D01*
X026793Y017017D01*
X026736Y017074D01*
X026594Y017017D02*
X026368Y017017D01*
X026481Y017017D02*
X026481Y017358D01*
X026594Y017244D01*
X026736Y017301D02*
X026793Y017358D01*
X026906Y017358D01*
X026963Y017301D01*
X026226Y017188D02*
X026056Y017188D01*
X025999Y017131D01*
X025999Y017074D01*
X026056Y017017D01*
X026169Y017017D01*
X026226Y017074D01*
X026226Y017188D01*
X026113Y017301D01*
X025999Y017358D01*
X025821Y018994D02*
X025481Y018994D01*
X025594Y018994D02*
X025594Y019164D01*
X025651Y019220D01*
X025765Y019220D01*
X025821Y019164D01*
X025821Y018994D01*
X025594Y019107D02*
X025481Y019220D01*
X025481Y019362D02*
X025481Y019589D01*
X025481Y019475D02*
X025821Y019475D01*
X025708Y019362D01*
X025708Y019730D02*
X025765Y019730D01*
X025821Y019787D01*
X025821Y019900D01*
X025765Y019957D01*
X025708Y019957D01*
X025651Y019900D01*
X025651Y019787D01*
X025708Y019730D01*
X025651Y019787D02*
X025594Y019730D01*
X025538Y019730D01*
X025481Y019787D01*
X025481Y019900D01*
X025538Y019957D01*
X025594Y019957D01*
X025651Y019900D01*
X027704Y019788D02*
X027931Y019788D01*
X027761Y019958D01*
X027761Y019617D01*
X028073Y019617D02*
X028186Y019731D01*
X028129Y019731D02*
X028299Y019731D01*
X028299Y019617D02*
X028299Y019958D01*
X028129Y019958D01*
X028073Y019901D01*
X028073Y019788D01*
X028129Y019731D01*
X027974Y019308D02*
X027861Y019308D01*
X027804Y019251D01*
X027804Y019194D01*
X027861Y019138D01*
X027974Y019138D01*
X028031Y019194D01*
X028031Y019251D01*
X027974Y019308D01*
X027974Y019138D02*
X028031Y019081D01*
X028031Y019024D01*
X027974Y018967D01*
X027861Y018967D01*
X027804Y019024D01*
X027804Y019081D01*
X027861Y019138D01*
X028173Y018967D02*
X028399Y018967D01*
X028286Y018967D02*
X028286Y019308D01*
X028399Y019194D01*
X028541Y019251D02*
X028598Y019308D01*
X028711Y019308D01*
X028768Y019251D01*
X028768Y019024D01*
X028711Y018967D01*
X028598Y018967D01*
X028541Y019024D01*
X028792Y020417D02*
X028735Y020474D01*
X028735Y020701D01*
X028792Y020758D01*
X028906Y020758D01*
X028962Y020701D01*
X028962Y020474D01*
X028906Y020417D01*
X028792Y020417D01*
X029094Y020417D02*
X029208Y020417D01*
X029151Y020417D02*
X029151Y020758D01*
X029208Y020758D02*
X029094Y020758D01*
X029349Y020701D02*
X029406Y020758D01*
X029576Y020758D01*
X029576Y020417D01*
X029406Y020417D01*
X029349Y020474D01*
X029349Y020701D01*
X029718Y020758D02*
X029718Y020474D01*
X029774Y020417D01*
X029888Y020417D01*
X029944Y020474D01*
X029944Y020758D01*
X030086Y020644D02*
X030086Y020417D01*
X030086Y020588D02*
X030313Y020588D01*
X030313Y020644D02*
X030199Y020758D01*
X030086Y020644D01*
X030313Y020644D02*
X030313Y020417D01*
X035799Y020974D02*
X035856Y020917D01*
X035969Y020917D01*
X036026Y020974D01*
X035799Y021201D01*
X035799Y020974D01*
X035799Y021201D02*
X035856Y021258D01*
X035969Y021258D01*
X036026Y021201D01*
X036026Y020974D01*
X036168Y020917D02*
X036394Y020917D01*
X036168Y021144D01*
X036168Y021201D01*
X036224Y021258D01*
X036338Y021258D01*
X036394Y021201D01*
X036536Y021201D02*
X036593Y021258D01*
X036706Y021258D01*
X036763Y021201D01*
X036763Y020974D01*
X036706Y020917D01*
X036593Y020917D01*
X036536Y020974D01*
X037299Y020974D02*
X037356Y020917D01*
X037469Y020917D01*
X037526Y020974D01*
X037668Y020917D02*
X037894Y020917D01*
X037668Y021144D01*
X037668Y021201D01*
X037724Y021258D01*
X037838Y021258D01*
X037894Y021201D01*
X038036Y021201D02*
X038036Y021088D01*
X038093Y021031D01*
X038263Y021031D01*
X038263Y020917D02*
X038263Y021258D01*
X038093Y021258D01*
X038036Y021201D01*
X038149Y021031D02*
X038036Y020917D01*
X037526Y021201D02*
X037469Y021258D01*
X037356Y021258D01*
X037299Y021201D01*
X037299Y021144D01*
X037356Y021088D01*
X037299Y021031D01*
X037299Y020974D01*
X037356Y021088D02*
X037413Y021088D01*
X039499Y019958D02*
X039499Y019617D01*
X039726Y019958D01*
X039726Y019617D01*
X039868Y019617D02*
X039868Y019844D01*
X039981Y019958D01*
X040094Y019844D01*
X040094Y019617D01*
X040236Y019674D02*
X040293Y019617D01*
X040406Y019617D01*
X040463Y019674D01*
X040463Y019901D01*
X040406Y019958D01*
X040293Y019958D01*
X040236Y019901D01*
X040094Y019788D02*
X039868Y019788D01*
X038499Y018158D02*
X038499Y017874D01*
X038443Y017817D01*
X038329Y017817D01*
X038273Y017874D01*
X038273Y018158D01*
X038131Y018101D02*
X038074Y018158D01*
X037961Y018158D01*
X037904Y018101D01*
X037904Y018044D01*
X038131Y017817D01*
X037904Y017817D01*
X029663Y015058D02*
X029663Y014717D01*
X029663Y014831D02*
X029493Y014831D01*
X029436Y014888D01*
X029436Y015001D01*
X029493Y015058D01*
X029663Y015058D01*
X029549Y014831D02*
X029436Y014717D01*
X029294Y014717D02*
X029068Y014717D01*
X029181Y014717D02*
X029181Y015058D01*
X029294Y014944D01*
X028926Y014888D02*
X028699Y014888D01*
X028756Y015058D02*
X028926Y014888D01*
X028756Y015058D02*
X028756Y014717D01*
X028203Y013533D02*
X028089Y013533D01*
X028033Y013476D01*
X028033Y013249D01*
X028089Y013193D01*
X028203Y013193D01*
X028260Y013249D01*
X028260Y013476D01*
X028203Y013533D01*
X028146Y013306D02*
X028033Y013193D01*
X027891Y013193D02*
X027664Y013193D01*
X027778Y013193D02*
X027778Y013533D01*
X027891Y013419D01*
X039824Y007675D02*
X039824Y007334D01*
X039937Y007334D02*
X039710Y007334D01*
X039937Y007561D02*
X039824Y007675D01*
X040078Y007675D02*
X040192Y007675D01*
X040135Y007675D02*
X040135Y007391D01*
X040192Y007334D01*
X040249Y007334D01*
X040305Y007391D01*
D12*
X041406Y006622D02*
X041408Y006681D01*
X041414Y006740D01*
X041424Y006798D01*
X041437Y006856D01*
X041455Y006913D01*
X041476Y006968D01*
X041501Y007022D01*
X041530Y007074D01*
X041562Y007123D01*
X041597Y007171D01*
X041635Y007216D01*
X041676Y007259D01*
X041720Y007299D01*
X041766Y007335D01*
X041815Y007369D01*
X041866Y007399D01*
X041919Y007426D01*
X041974Y007449D01*
X042029Y007468D01*
X042087Y007484D01*
X042145Y007496D01*
X042203Y007504D01*
X042262Y007508D01*
X042322Y007508D01*
X042381Y007504D01*
X042439Y007496D01*
X042497Y007484D01*
X042555Y007468D01*
X042610Y007449D01*
X042665Y007426D01*
X042718Y007399D01*
X042769Y007369D01*
X042818Y007335D01*
X042864Y007299D01*
X042908Y007259D01*
X042949Y007216D01*
X042987Y007171D01*
X043022Y007123D01*
X043054Y007074D01*
X043083Y007022D01*
X043108Y006968D01*
X043129Y006913D01*
X043147Y006856D01*
X043160Y006798D01*
X043170Y006740D01*
X043176Y006681D01*
X043178Y006622D01*
X043176Y006563D01*
X043170Y006504D01*
X043160Y006446D01*
X043147Y006388D01*
X043129Y006331D01*
X043108Y006276D01*
X043083Y006222D01*
X043054Y006170D01*
X043022Y006121D01*
X042987Y006073D01*
X042949Y006028D01*
X042908Y005985D01*
X042864Y005945D01*
X042818Y005909D01*
X042769Y005875D01*
X042718Y005845D01*
X042665Y005818D01*
X042610Y005795D01*
X042555Y005776D01*
X042497Y005760D01*
X042439Y005748D01*
X042381Y005740D01*
X042322Y005736D01*
X042262Y005736D01*
X042203Y005740D01*
X042145Y005748D01*
X042087Y005760D01*
X042029Y005776D01*
X041974Y005795D01*
X041919Y005818D01*
X041866Y005845D01*
X041815Y005875D01*
X041766Y005909D01*
X041720Y005945D01*
X041676Y005985D01*
X041635Y006028D01*
X041597Y006073D01*
X041562Y006121D01*
X041530Y006170D01*
X041501Y006222D01*
X041476Y006276D01*
X041455Y006331D01*
X041437Y006388D01*
X041424Y006446D01*
X041414Y006504D01*
X041408Y006563D01*
X041406Y006622D01*
X019232Y012965D02*
X019234Y012985D01*
X019239Y013005D01*
X019249Y013023D01*
X019261Y013040D01*
X019276Y013054D01*
X019294Y013064D01*
X019313Y013072D01*
X019333Y013076D01*
X019353Y013076D01*
X019373Y013072D01*
X019392Y013064D01*
X019410Y013054D01*
X019425Y013040D01*
X019437Y013023D01*
X019447Y013005D01*
X019452Y012985D01*
X019454Y012965D01*
X019452Y012945D01*
X019447Y012925D01*
X019437Y012907D01*
X019425Y012890D01*
X019410Y012876D01*
X019392Y012866D01*
X019373Y012858D01*
X019353Y012854D01*
X019333Y012854D01*
X019313Y012858D01*
X019294Y012866D01*
X019276Y012876D01*
X019261Y012890D01*
X019249Y012907D01*
X019239Y012925D01*
X019234Y012945D01*
X019232Y012965D01*
X007941Y006622D02*
X007943Y006681D01*
X007949Y006740D01*
X007959Y006798D01*
X007972Y006856D01*
X007990Y006913D01*
X008011Y006968D01*
X008036Y007022D01*
X008065Y007074D01*
X008097Y007123D01*
X008132Y007171D01*
X008170Y007216D01*
X008211Y007259D01*
X008255Y007299D01*
X008301Y007335D01*
X008350Y007369D01*
X008401Y007399D01*
X008454Y007426D01*
X008509Y007449D01*
X008564Y007468D01*
X008622Y007484D01*
X008680Y007496D01*
X008738Y007504D01*
X008797Y007508D01*
X008857Y007508D01*
X008916Y007504D01*
X008974Y007496D01*
X009032Y007484D01*
X009090Y007468D01*
X009145Y007449D01*
X009200Y007426D01*
X009253Y007399D01*
X009304Y007369D01*
X009353Y007335D01*
X009399Y007299D01*
X009443Y007259D01*
X009484Y007216D01*
X009522Y007171D01*
X009557Y007123D01*
X009589Y007074D01*
X009618Y007022D01*
X009643Y006968D01*
X009664Y006913D01*
X009682Y006856D01*
X009695Y006798D01*
X009705Y006740D01*
X009711Y006681D01*
X009713Y006622D01*
X009711Y006563D01*
X009705Y006504D01*
X009695Y006446D01*
X009682Y006388D01*
X009664Y006331D01*
X009643Y006276D01*
X009618Y006222D01*
X009589Y006170D01*
X009557Y006121D01*
X009522Y006073D01*
X009484Y006028D01*
X009443Y005985D01*
X009399Y005945D01*
X009353Y005909D01*
X009304Y005875D01*
X009253Y005845D01*
X009200Y005818D01*
X009145Y005795D01*
X009090Y005776D01*
X009032Y005760D01*
X008974Y005748D01*
X008916Y005740D01*
X008857Y005736D01*
X008797Y005736D01*
X008738Y005740D01*
X008680Y005748D01*
X008622Y005760D01*
X008564Y005776D01*
X008509Y005795D01*
X008454Y005818D01*
X008401Y005845D01*
X008350Y005875D01*
X008301Y005909D01*
X008255Y005945D01*
X008211Y005985D01*
X008170Y006028D01*
X008132Y006073D01*
X008097Y006121D01*
X008065Y006170D01*
X008036Y006222D01*
X008011Y006276D01*
X007990Y006331D01*
X007972Y006388D01*
X007959Y006446D01*
X007949Y006504D01*
X007943Y006563D01*
X007941Y006622D01*
X007941Y020401D02*
X007943Y020460D01*
X007949Y020519D01*
X007959Y020577D01*
X007972Y020635D01*
X007990Y020692D01*
X008011Y020747D01*
X008036Y020801D01*
X008065Y020853D01*
X008097Y020902D01*
X008132Y020950D01*
X008170Y020995D01*
X008211Y021038D01*
X008255Y021078D01*
X008301Y021114D01*
X008350Y021148D01*
X008401Y021178D01*
X008454Y021205D01*
X008509Y021228D01*
X008564Y021247D01*
X008622Y021263D01*
X008680Y021275D01*
X008738Y021283D01*
X008797Y021287D01*
X008857Y021287D01*
X008916Y021283D01*
X008974Y021275D01*
X009032Y021263D01*
X009090Y021247D01*
X009145Y021228D01*
X009200Y021205D01*
X009253Y021178D01*
X009304Y021148D01*
X009353Y021114D01*
X009399Y021078D01*
X009443Y021038D01*
X009484Y020995D01*
X009522Y020950D01*
X009557Y020902D01*
X009589Y020853D01*
X009618Y020801D01*
X009643Y020747D01*
X009664Y020692D01*
X009682Y020635D01*
X009695Y020577D01*
X009705Y020519D01*
X009711Y020460D01*
X009713Y020401D01*
X009711Y020342D01*
X009705Y020283D01*
X009695Y020225D01*
X009682Y020167D01*
X009664Y020110D01*
X009643Y020055D01*
X009618Y020001D01*
X009589Y019949D01*
X009557Y019900D01*
X009522Y019852D01*
X009484Y019807D01*
X009443Y019764D01*
X009399Y019724D01*
X009353Y019688D01*
X009304Y019654D01*
X009253Y019624D01*
X009200Y019597D01*
X009145Y019574D01*
X009090Y019555D01*
X009032Y019539D01*
X008974Y019527D01*
X008916Y019519D01*
X008857Y019515D01*
X008797Y019515D01*
X008738Y019519D01*
X008680Y019527D01*
X008622Y019539D01*
X008564Y019555D01*
X008509Y019574D01*
X008454Y019597D01*
X008401Y019624D01*
X008350Y019654D01*
X008301Y019688D01*
X008255Y019724D01*
X008211Y019764D01*
X008170Y019807D01*
X008132Y019852D01*
X008097Y019900D01*
X008065Y019949D01*
X008036Y020001D01*
X008011Y020055D01*
X007990Y020110D01*
X007972Y020167D01*
X007959Y020225D01*
X007949Y020283D01*
X007943Y020342D01*
X007941Y020401D01*
X041406Y020401D02*
X041408Y020460D01*
X041414Y020519D01*
X041424Y020577D01*
X041437Y020635D01*
X041455Y020692D01*
X041476Y020747D01*
X041501Y020801D01*
X041530Y020853D01*
X041562Y020902D01*
X041597Y020950D01*
X041635Y020995D01*
X041676Y021038D01*
X041720Y021078D01*
X041766Y021114D01*
X041815Y021148D01*
X041866Y021178D01*
X041919Y021205D01*
X041974Y021228D01*
X042029Y021247D01*
X042087Y021263D01*
X042145Y021275D01*
X042203Y021283D01*
X042262Y021287D01*
X042322Y021287D01*
X042381Y021283D01*
X042439Y021275D01*
X042497Y021263D01*
X042555Y021247D01*
X042610Y021228D01*
X042665Y021205D01*
X042718Y021178D01*
X042769Y021148D01*
X042818Y021114D01*
X042864Y021078D01*
X042908Y021038D01*
X042949Y020995D01*
X042987Y020950D01*
X043022Y020902D01*
X043054Y020853D01*
X043083Y020801D01*
X043108Y020747D01*
X043129Y020692D01*
X043147Y020635D01*
X043160Y020577D01*
X043170Y020519D01*
X043176Y020460D01*
X043178Y020401D01*
X043176Y020342D01*
X043170Y020283D01*
X043160Y020225D01*
X043147Y020167D01*
X043129Y020110D01*
X043108Y020055D01*
X043083Y020001D01*
X043054Y019949D01*
X043022Y019900D01*
X042987Y019852D01*
X042949Y019807D01*
X042908Y019764D01*
X042864Y019724D01*
X042818Y019688D01*
X042769Y019654D01*
X042718Y019624D01*
X042665Y019597D01*
X042610Y019574D01*
X042555Y019555D01*
X042497Y019539D01*
X042439Y019527D01*
X042381Y019519D01*
X042322Y019515D01*
X042262Y019515D01*
X042203Y019519D01*
X042145Y019527D01*
X042087Y019539D01*
X042029Y019555D01*
X041974Y019574D01*
X041919Y019597D01*
X041866Y019624D01*
X041815Y019654D01*
X041766Y019688D01*
X041720Y019724D01*
X041676Y019764D01*
X041635Y019807D01*
X041597Y019852D01*
X041562Y019900D01*
X041530Y019949D01*
X041501Y020001D01*
X041476Y020055D01*
X041455Y020110D01*
X041437Y020167D01*
X041424Y020225D01*
X041414Y020283D01*
X041408Y020342D01*
X041406Y020401D01*
D13*
X043079Y019130D02*
X039536Y019130D01*
X039536Y007893D01*
X043079Y007893D01*
X043079Y012027D01*
X042882Y012027D01*
X042882Y008090D01*
X039733Y008090D01*
X039733Y018933D01*
X042882Y018933D01*
X042882Y014496D01*
X040717Y014496D01*
X040717Y012027D01*
X042882Y012027D01*
X043079Y012027D02*
X043079Y014496D01*
X042882Y014496D01*
X043079Y014496D02*
X043079Y019130D01*
X035814Y016987D02*
X035718Y016987D01*
X035718Y017175D01*
X035718Y016987D02*
X035718Y016800D01*
X035718Y016987D02*
X035468Y017175D01*
X035468Y016987D01*
X035372Y016987D01*
X035468Y016987D02*
X035468Y016800D01*
X035718Y016987D01*
X040520Y014496D02*
X040520Y012027D01*
X040717Y012027D01*
X041445Y010011D02*
X042445Y010511D01*
X042445Y009511D01*
X041445Y010011D01*
X038031Y009065D02*
X038031Y006309D01*
X036614Y006309D01*
X036614Y009065D01*
X038031Y009065D01*
X035983Y010092D02*
X035983Y010683D01*
X034802Y010683D02*
X034802Y010092D01*
X034606Y010781D02*
X034608Y010800D01*
X034613Y010819D01*
X034623Y010835D01*
X034635Y010850D01*
X034650Y010862D01*
X034666Y010872D01*
X034685Y010877D01*
X034704Y010879D01*
X034723Y010877D01*
X034742Y010872D01*
X034758Y010862D01*
X034773Y010850D01*
X034785Y010835D01*
X034795Y010819D01*
X034800Y010800D01*
X034802Y010781D01*
X034800Y010762D01*
X034795Y010743D01*
X034785Y010727D01*
X034773Y010712D01*
X034758Y010700D01*
X034742Y010690D01*
X034723Y010685D01*
X034704Y010683D01*
X034685Y010685D01*
X034666Y010690D01*
X034650Y010700D01*
X034635Y010712D01*
X034623Y010727D01*
X034613Y010743D01*
X034608Y010762D01*
X034606Y010781D01*
X033318Y012750D02*
X033068Y012937D01*
X032972Y012937D01*
X033068Y012937D02*
X033068Y012750D01*
X033068Y012937D02*
X033068Y013125D01*
X033068Y012937D02*
X033318Y013125D01*
X033318Y012937D01*
X033414Y012937D01*
X033318Y012937D02*
X033318Y012750D01*
X040520Y014496D02*
X040717Y014496D01*
X021701Y014830D02*
X021032Y014830D01*
X021701Y014830D02*
X021701Y020342D01*
X021386Y021149D02*
X021110Y021149D01*
X020559Y020598D01*
X017370Y020598D01*
X016898Y021070D01*
X016740Y021070D01*
X016347Y019968D02*
X016347Y019259D01*
X016347Y018728D02*
X016347Y016956D01*
X016347Y016130D02*
X016347Y014830D01*
X016465Y014830D01*
X012305Y014724D02*
X011518Y014724D01*
X007975Y014724D01*
X007975Y014921D01*
X011518Y014921D01*
X011518Y014724D01*
X011518Y014661D02*
X007975Y014661D01*
X007975Y014464D01*
X011518Y014464D01*
X011518Y012559D01*
X007975Y012559D01*
X007975Y014464D01*
X007975Y014921D02*
X007975Y016826D01*
X011518Y016826D01*
X011518Y014921D01*
X011518Y014661D02*
X011518Y014464D01*
X011518Y014661D02*
X012305Y014661D01*
X012305Y012362D01*
X011518Y012362D01*
X007975Y012362D01*
X007975Y012559D01*
X007975Y012299D02*
X011518Y012299D01*
X011518Y012102D01*
X007975Y012102D01*
X007975Y012299D01*
X007975Y012102D02*
X007975Y010196D01*
X011518Y010196D01*
X011518Y010000D01*
X007975Y010000D01*
X007975Y010196D01*
X007975Y009937D02*
X011518Y009937D01*
X011518Y009740D01*
X007975Y009740D01*
X007975Y009937D01*
X007975Y009740D02*
X007975Y007834D01*
X011518Y007834D01*
X011518Y007637D01*
X007975Y007637D01*
X007975Y007834D01*
X011518Y007834D02*
X011518Y009740D01*
X011518Y009937D02*
X012305Y009937D01*
X012305Y007637D01*
X011518Y007637D01*
X011518Y010000D02*
X012305Y010000D01*
X012305Y012299D01*
X011518Y012299D01*
X011518Y012362D02*
X011518Y012559D01*
X011518Y012102D02*
X011518Y010196D01*
X016812Y009355D02*
X016814Y009361D01*
X016818Y009365D01*
X016825Y009366D01*
X016830Y009363D01*
X016834Y009358D01*
X016834Y009352D01*
X016830Y009347D01*
X016825Y009344D01*
X016818Y009345D01*
X016814Y009349D01*
X016812Y009355D01*
X016766Y009355D02*
X016768Y009370D01*
X016774Y009383D01*
X016783Y009395D01*
X016794Y009404D01*
X016808Y009410D01*
X016823Y009412D01*
X016838Y009410D01*
X016851Y009404D01*
X016863Y009395D01*
X016872Y009384D01*
X016878Y009370D01*
X016880Y009355D01*
X016878Y009340D01*
X016872Y009327D01*
X016863Y009315D01*
X016852Y009306D01*
X016838Y009300D01*
X016823Y009298D01*
X016808Y009300D01*
X016795Y009306D01*
X016783Y009315D01*
X016774Y009326D01*
X016768Y009340D01*
X016766Y009355D01*
X016719Y009355D02*
X016721Y009375D01*
X016726Y009394D01*
X016736Y009411D01*
X016748Y009427D01*
X016763Y009440D01*
X016780Y009450D01*
X016798Y009456D01*
X016818Y009459D01*
X016838Y009458D01*
X016857Y009453D01*
X016875Y009445D01*
X016891Y009434D01*
X016905Y009419D01*
X016915Y009403D01*
X016923Y009384D01*
X016927Y009365D01*
X016927Y009345D01*
X016923Y009326D01*
X016915Y009307D01*
X016905Y009291D01*
X016891Y009276D01*
X016875Y009265D01*
X016857Y009257D01*
X016838Y009252D01*
X016818Y009251D01*
X016798Y009254D01*
X016780Y009260D01*
X016763Y009270D01*
X016748Y009283D01*
X016736Y009299D01*
X016726Y009316D01*
X016721Y009335D01*
X016719Y009355D01*
X012305Y014724D02*
X012305Y017023D01*
X011518Y017023D01*
X007975Y017023D01*
X007975Y016826D01*
X007975Y017086D02*
X007975Y017283D01*
X011518Y017283D01*
X011518Y017086D01*
X007975Y017086D01*
X007975Y017283D02*
X007975Y019189D01*
X011518Y019189D01*
X011518Y017283D01*
X011518Y017086D02*
X012305Y017086D01*
X012305Y019385D01*
X011518Y019385D01*
X007975Y019385D01*
X007975Y019189D01*
X011518Y019189D02*
X011518Y019385D01*
X011518Y017023D02*
X011518Y016826D01*
D14*
X032769Y008311D02*
X032769Y007661D01*
X032769Y008311D02*
X034285Y008311D01*
X034816Y007780D01*
X034816Y007661D01*
X034698Y007622D02*
X034675Y007679D01*
X034648Y007734D01*
X034618Y007788D01*
X034584Y007840D01*
X034547Y007889D01*
X034507Y007936D01*
X034464Y007981D01*
X034418Y008022D01*
X034370Y008061D01*
X034319Y008096D01*
X034266Y008128D01*
X034211Y008157D01*
X034155Y008182D01*
X034097Y008203D01*
X034038Y008221D01*
X033977Y008234D01*
X033916Y008244D01*
X033855Y008250D01*
X033793Y008252D01*
X033731Y008250D01*
X033670Y008244D01*
X033609Y008234D01*
X033548Y008221D01*
X033489Y008203D01*
X033431Y008182D01*
X033375Y008157D01*
X033320Y008128D01*
X033267Y008096D01*
X033216Y008061D01*
X033168Y008022D01*
X033122Y007981D01*
X033079Y007936D01*
X033039Y007889D01*
X033002Y007840D01*
X032968Y007788D01*
X032938Y007734D01*
X032911Y007679D01*
X032888Y007622D01*
X032888Y006952D02*
X032911Y006895D01*
X032938Y006840D01*
X032968Y006786D01*
X033002Y006734D01*
X033039Y006685D01*
X033079Y006638D01*
X033122Y006593D01*
X033168Y006552D01*
X033216Y006513D01*
X033267Y006478D01*
X033320Y006446D01*
X033375Y006417D01*
X033431Y006392D01*
X033489Y006371D01*
X033548Y006353D01*
X033609Y006340D01*
X033670Y006330D01*
X033731Y006324D01*
X033793Y006322D01*
X033855Y006324D01*
X033916Y006330D01*
X033977Y006340D01*
X034038Y006353D01*
X034097Y006371D01*
X034155Y006392D01*
X034211Y006417D01*
X034266Y006446D01*
X034319Y006478D01*
X034370Y006513D01*
X034418Y006552D01*
X034464Y006593D01*
X034507Y006638D01*
X034547Y006685D01*
X034584Y006734D01*
X034618Y006786D01*
X034648Y006840D01*
X034675Y006895D01*
X034698Y006952D01*
X034816Y006913D02*
X034816Y006795D01*
X034285Y006264D01*
X032769Y006264D01*
X032769Y006913D01*
D15*
X012530Y008287D03*
X012530Y009287D03*
X012530Y010649D03*
X012530Y011649D03*
X012530Y013011D03*
X012530Y014011D03*
X012530Y015374D03*
X012530Y016374D03*
X012530Y017736D03*
X012530Y018736D03*
D16*
X036039Y018537D03*
X036039Y019037D03*
X036039Y019537D03*
X036039Y020037D03*
X038047Y020037D03*
X038047Y019537D03*
X038047Y019037D03*
X038047Y018537D03*
M02*
