G75*
G70*
%OFA0B0*%
%FSLAX24Y24*%
%IPPOS*%
%LPD*%
%AMOC8*
5,1,8,0,0,1.08239X$1,22.5*
%
%ADD10C,0.0740*%
%ADD11C,0.0080*%
%ADD12C,0.0198*%
D10*
X000955Y001550D03*
X001955Y001550D03*
X002955Y001550D03*
X003955Y001550D03*
X004955Y001550D03*
X005955Y001550D03*
X006955Y001550D03*
X007955Y001550D03*
X008955Y001550D03*
X009955Y001550D03*
X010955Y001550D03*
X011955Y001550D03*
X011955Y007550D03*
X010955Y007550D03*
X009955Y007550D03*
X008955Y007550D03*
X007955Y007550D03*
X006955Y007550D03*
X005955Y007550D03*
X004955Y007550D03*
X003955Y007550D03*
X002955Y007550D03*
X001955Y007550D03*
X000955Y007550D03*
D11*
X000345Y008160D02*
X000345Y000940D01*
X012565Y000940D01*
X012565Y008160D01*
X000345Y008160D01*
X000345Y008101D02*
X012565Y008101D01*
X012565Y008022D02*
X012148Y008022D01*
X012056Y008060D02*
X012244Y007982D01*
X012387Y007839D01*
X012465Y007651D01*
X012465Y007449D01*
X012387Y007261D01*
X012244Y007118D01*
X012056Y007040D01*
X011854Y007040D01*
X011666Y007118D01*
X011523Y007261D01*
X011455Y007424D01*
X011387Y007261D01*
X011244Y007118D01*
X011056Y007040D01*
X010854Y007040D01*
X010666Y007118D01*
X010523Y007261D01*
X010455Y007424D01*
X010387Y007261D01*
X010244Y007118D01*
X010056Y007040D01*
X009854Y007040D01*
X009666Y007118D01*
X009523Y007261D01*
X009455Y007424D01*
X009387Y007261D01*
X009244Y007118D01*
X009056Y007040D01*
X008854Y007040D01*
X008666Y007118D01*
X008523Y007261D01*
X008455Y007424D01*
X008387Y007261D01*
X008244Y007118D01*
X008056Y007040D01*
X007854Y007040D01*
X007666Y007118D01*
X007523Y007261D01*
X007455Y007424D01*
X007387Y007261D01*
X007244Y007118D01*
X007056Y007040D01*
X006854Y007040D01*
X006666Y007118D01*
X006523Y007261D01*
X006455Y007424D01*
X006387Y007261D01*
X006244Y007118D01*
X006056Y007040D01*
X006003Y007040D01*
X006058Y006985D01*
X006094Y006898D01*
X006094Y006802D01*
X006058Y006715D01*
X005990Y006647D01*
X005903Y006611D01*
X005807Y006611D01*
X005720Y006647D01*
X005652Y006715D01*
X005629Y006772D01*
X005603Y006761D01*
X005507Y006761D01*
X005420Y006797D01*
X005352Y006865D01*
X005316Y006952D01*
X005316Y007048D01*
X005352Y007135D01*
X005420Y007203D01*
X005507Y007239D01*
X005545Y007239D01*
X005523Y007261D01*
X005455Y007424D01*
X005387Y007261D01*
X005244Y007118D01*
X005056Y007040D01*
X004854Y007040D01*
X004666Y007118D01*
X004523Y007261D01*
X004455Y007424D01*
X004387Y007261D01*
X004244Y007118D01*
X004056Y007040D01*
X003854Y007040D01*
X003666Y007118D01*
X003523Y007261D01*
X003455Y007424D01*
X003387Y007261D01*
X003244Y007118D01*
X003056Y007040D01*
X002854Y007040D01*
X002666Y007118D01*
X002523Y007261D01*
X002455Y007424D01*
X002387Y007261D01*
X002244Y007118D01*
X002056Y007040D01*
X001854Y007040D01*
X001666Y007118D01*
X001523Y007261D01*
X001455Y007424D01*
X001387Y007261D01*
X001244Y007118D01*
X001056Y007040D01*
X000854Y007040D01*
X000666Y007118D01*
X000523Y007261D01*
X000445Y007449D01*
X000445Y007651D01*
X000523Y007839D01*
X000666Y007982D01*
X000854Y008060D01*
X001056Y008060D01*
X001244Y007982D01*
X001387Y007839D01*
X001455Y007676D01*
X001523Y007839D01*
X001666Y007982D01*
X001854Y008060D01*
X002056Y008060D01*
X002244Y007982D01*
X002387Y007839D01*
X002455Y007676D01*
X002523Y007839D01*
X002666Y007982D01*
X002854Y008060D01*
X003056Y008060D01*
X003244Y007982D01*
X003387Y007839D01*
X003455Y007676D01*
X003523Y007839D01*
X003666Y007982D01*
X003854Y008060D01*
X004056Y008060D01*
X004244Y007982D01*
X004387Y007839D01*
X004455Y007676D01*
X004523Y007839D01*
X004666Y007982D01*
X004854Y008060D01*
X005056Y008060D01*
X005244Y007982D01*
X005387Y007839D01*
X005455Y007676D01*
X005523Y007839D01*
X005666Y007982D01*
X005854Y008060D01*
X006056Y008060D01*
X006244Y007982D01*
X006387Y007839D01*
X006455Y007676D01*
X006523Y007839D01*
X006666Y007982D01*
X006854Y008060D01*
X007056Y008060D01*
X007244Y007982D01*
X007387Y007839D01*
X007455Y007676D01*
X007523Y007839D01*
X007666Y007982D01*
X007854Y008060D01*
X008056Y008060D01*
X008244Y007982D01*
X008387Y007839D01*
X008455Y007676D01*
X008523Y007839D01*
X008666Y007982D01*
X008854Y008060D01*
X009056Y008060D01*
X009244Y007982D01*
X009387Y007839D01*
X009455Y007676D01*
X009523Y007839D01*
X009666Y007982D01*
X009854Y008060D01*
X010056Y008060D01*
X010244Y007982D01*
X010387Y007839D01*
X010455Y007676D01*
X010523Y007839D01*
X010666Y007982D01*
X010854Y008060D01*
X011056Y008060D01*
X011244Y007982D01*
X011387Y007839D01*
X011455Y007676D01*
X011523Y007839D01*
X011666Y007982D01*
X011854Y008060D01*
X012056Y008060D01*
X012283Y007944D02*
X012565Y007944D01*
X012565Y007865D02*
X012361Y007865D01*
X012409Y007787D02*
X012565Y007787D01*
X012565Y007708D02*
X012442Y007708D01*
X012465Y007630D02*
X012565Y007630D01*
X012565Y007551D02*
X012465Y007551D01*
X012465Y007473D02*
X012565Y007473D01*
X012565Y007394D02*
X012442Y007394D01*
X012410Y007316D02*
X012565Y007316D01*
X012565Y007237D02*
X012363Y007237D01*
X012285Y007159D02*
X012565Y007159D01*
X012565Y007080D02*
X012153Y007080D01*
X011757Y007080D02*
X011153Y007080D01*
X011285Y007159D02*
X011625Y007159D01*
X011547Y007237D02*
X011363Y007237D01*
X011410Y007316D02*
X011500Y007316D01*
X011468Y007394D02*
X011442Y007394D01*
X011442Y007708D02*
X011468Y007708D01*
X011501Y007787D02*
X011409Y007787D01*
X011361Y007865D02*
X011549Y007865D01*
X011627Y007944D02*
X011283Y007944D01*
X011148Y008022D02*
X011762Y008022D01*
X010762Y008022D02*
X010148Y008022D01*
X010283Y007944D02*
X010627Y007944D01*
X010549Y007865D02*
X010361Y007865D01*
X010409Y007787D02*
X010501Y007787D01*
X010468Y007708D02*
X010442Y007708D01*
X010442Y007394D02*
X010468Y007394D01*
X010500Y007316D02*
X010410Y007316D01*
X010363Y007237D02*
X010547Y007237D01*
X010625Y007159D02*
X010285Y007159D01*
X010153Y007080D02*
X010757Y007080D01*
X009757Y007080D02*
X009153Y007080D01*
X009285Y007159D02*
X009625Y007159D01*
X009547Y007237D02*
X009363Y007237D01*
X009410Y007316D02*
X009500Y007316D01*
X009468Y007394D02*
X009442Y007394D01*
X009442Y007708D02*
X009468Y007708D01*
X009501Y007787D02*
X009409Y007787D01*
X009361Y007865D02*
X009549Y007865D01*
X009627Y007944D02*
X009283Y007944D01*
X009148Y008022D02*
X009762Y008022D01*
X008762Y008022D02*
X008148Y008022D01*
X008283Y007944D02*
X008627Y007944D01*
X008549Y007865D02*
X008361Y007865D01*
X008409Y007787D02*
X008501Y007787D01*
X008468Y007708D02*
X008442Y007708D01*
X008442Y007394D02*
X008468Y007394D01*
X008500Y007316D02*
X008410Y007316D01*
X008363Y007237D02*
X008547Y007237D01*
X008625Y007159D02*
X008285Y007159D01*
X008153Y007080D02*
X008757Y007080D01*
X007757Y007080D02*
X007153Y007080D01*
X007285Y007159D02*
X007625Y007159D01*
X007547Y007237D02*
X007363Y007237D01*
X007410Y007316D02*
X007500Y007316D01*
X007468Y007394D02*
X007442Y007394D01*
X007442Y007708D02*
X007468Y007708D01*
X007501Y007787D02*
X007409Y007787D01*
X007361Y007865D02*
X007549Y007865D01*
X007627Y007944D02*
X007283Y007944D01*
X007148Y008022D02*
X007762Y008022D01*
X006762Y008022D02*
X006148Y008022D01*
X006283Y007944D02*
X006627Y007944D01*
X006549Y007865D02*
X006361Y007865D01*
X006409Y007787D02*
X006501Y007787D01*
X006468Y007708D02*
X006442Y007708D01*
X006442Y007394D02*
X006468Y007394D01*
X006500Y007316D02*
X006410Y007316D01*
X006363Y007237D02*
X006547Y007237D01*
X006625Y007159D02*
X006285Y007159D01*
X006153Y007080D02*
X006757Y007080D01*
X006084Y006923D02*
X012565Y006923D01*
X012565Y006845D02*
X006094Y006845D01*
X006079Y006766D02*
X012565Y006766D01*
X012565Y006688D02*
X006031Y006688D01*
X006042Y007002D02*
X012565Y007002D01*
X012565Y006609D02*
X004652Y006609D01*
X004640Y006597D02*
X004708Y006665D01*
X004744Y006752D01*
X004744Y006848D01*
X004708Y006935D01*
X004640Y007003D01*
X004553Y007039D01*
X004457Y007039D01*
X004370Y007003D01*
X004302Y006935D01*
X004266Y006848D01*
X004266Y006752D01*
X004302Y006665D01*
X004370Y006597D01*
X004457Y006561D01*
X004553Y006561D01*
X004640Y006597D01*
X004717Y006688D02*
X005679Y006688D01*
X005631Y006766D02*
X005615Y006766D01*
X005495Y006766D02*
X004744Y006766D01*
X004744Y006845D02*
X005372Y006845D01*
X005328Y006923D02*
X004713Y006923D01*
X004642Y007002D02*
X005316Y007002D01*
X005329Y007080D02*
X005153Y007080D01*
X005285Y007159D02*
X005375Y007159D01*
X005363Y007237D02*
X005503Y007237D01*
X005500Y007316D02*
X005410Y007316D01*
X005442Y007394D02*
X005468Y007394D01*
X005468Y007708D02*
X005442Y007708D01*
X005409Y007787D02*
X005501Y007787D01*
X005549Y007865D02*
X005361Y007865D01*
X005283Y007944D02*
X005627Y007944D01*
X005762Y008022D02*
X005148Y008022D01*
X004762Y008022D02*
X004148Y008022D01*
X004283Y007944D02*
X004627Y007944D01*
X004549Y007865D02*
X004361Y007865D01*
X004409Y007787D02*
X004501Y007787D01*
X004468Y007708D02*
X004442Y007708D01*
X004442Y007394D02*
X004468Y007394D01*
X004500Y007316D02*
X004410Y007316D01*
X004363Y007237D02*
X004547Y007237D01*
X004625Y007159D02*
X004285Y007159D01*
X004153Y007080D02*
X004757Y007080D01*
X004368Y007002D02*
X004142Y007002D01*
X004140Y007003D02*
X004053Y007039D01*
X003957Y007039D01*
X003870Y007003D01*
X003802Y006935D01*
X003766Y006848D01*
X003766Y006752D01*
X003802Y006665D01*
X003870Y006597D01*
X003957Y006561D01*
X004053Y006561D01*
X004140Y006597D01*
X004208Y006665D01*
X004244Y006752D01*
X004244Y006848D01*
X004208Y006935D01*
X004140Y007003D01*
X004213Y006923D02*
X004297Y006923D01*
X004266Y006845D02*
X004244Y006845D01*
X004244Y006766D02*
X004266Y006766D01*
X004293Y006688D02*
X004217Y006688D01*
X004152Y006609D02*
X004358Y006609D01*
X003858Y006609D02*
X003139Y006609D01*
X003144Y006598D02*
X003108Y006685D01*
X003040Y006753D01*
X002953Y006789D01*
X002857Y006789D01*
X002770Y006753D01*
X002702Y006685D01*
X002666Y006598D01*
X002666Y006502D01*
X002702Y006415D01*
X002770Y006347D01*
X002857Y006311D01*
X002953Y006311D01*
X003040Y006347D01*
X003108Y006415D01*
X003144Y006502D01*
X003144Y006598D01*
X003144Y006531D02*
X012565Y006531D01*
X012565Y006452D02*
X003123Y006452D01*
X003067Y006374D02*
X012565Y006374D01*
X012565Y006295D02*
X000345Y006295D01*
X000345Y006217D02*
X012565Y006217D01*
X012565Y006138D02*
X000345Y006138D01*
X000345Y006060D02*
X012565Y006060D01*
X012565Y005981D02*
X000345Y005981D01*
X000345Y005903D02*
X012565Y005903D01*
X012565Y005824D02*
X000345Y005824D01*
X000345Y005746D02*
X009343Y005746D01*
X009343Y005754D02*
X009343Y005625D01*
X009316Y005599D01*
X009316Y005450D01*
X009343Y005423D01*
X009343Y004933D01*
X009366Y004910D01*
X009872Y004910D01*
X009895Y004933D01*
X009895Y005428D01*
X009916Y005450D01*
X009916Y005599D01*
X009895Y005620D01*
X009895Y005754D01*
X009872Y005777D01*
X009366Y005777D01*
X009343Y005754D01*
X009343Y005667D02*
X000345Y005667D01*
X000345Y005589D02*
X009316Y005589D01*
X009316Y005510D02*
X000345Y005510D01*
X000345Y005432D02*
X009334Y005432D01*
X009343Y005353D02*
X000345Y005353D01*
X000345Y005275D02*
X009343Y005275D01*
X009343Y005196D02*
X000345Y005196D01*
X000345Y005118D02*
X009343Y005118D01*
X009343Y005039D02*
X000345Y005039D01*
X000345Y004961D02*
X009343Y004961D01*
X009895Y004961D02*
X012565Y004961D01*
X012565Y005039D02*
X009895Y005039D01*
X009895Y005118D02*
X012565Y005118D01*
X012565Y005196D02*
X009895Y005196D01*
X009895Y005275D02*
X012565Y005275D01*
X012565Y005353D02*
X009895Y005353D01*
X009898Y005432D02*
X012565Y005432D01*
X012565Y005510D02*
X009916Y005510D01*
X009916Y005589D02*
X012565Y005589D01*
X012565Y005667D02*
X009895Y005667D01*
X009895Y005746D02*
X012565Y005746D01*
X012565Y004882D02*
X000345Y004882D01*
X000345Y004804D02*
X012565Y004804D01*
X012565Y004725D02*
X000345Y004725D01*
X000345Y004647D02*
X012565Y004647D01*
X012565Y004568D02*
X000345Y004568D01*
X000345Y004490D02*
X012565Y004490D01*
X012565Y004411D02*
X000345Y004411D01*
X000345Y004333D02*
X012565Y004333D01*
X012565Y004254D02*
X000345Y004254D01*
X000345Y004176D02*
X012565Y004176D01*
X012565Y004097D02*
X000345Y004097D01*
X000345Y004019D02*
X012565Y004019D01*
X012565Y003940D02*
X000345Y003940D01*
X000345Y003862D02*
X008178Y003862D01*
X008152Y003835D02*
X008116Y003748D01*
X008116Y003652D01*
X008152Y003565D01*
X008220Y003497D01*
X008307Y003461D01*
X008403Y003461D01*
X008490Y003497D01*
X008505Y003512D01*
X008520Y003497D01*
X008607Y003461D01*
X008703Y003461D01*
X008790Y003497D01*
X008805Y003512D01*
X008820Y003497D01*
X008907Y003461D01*
X009003Y003461D01*
X009090Y003497D01*
X009158Y003565D01*
X009194Y003652D01*
X009194Y003748D01*
X009158Y003835D01*
X009090Y003903D01*
X009003Y003939D01*
X008907Y003939D01*
X008820Y003903D01*
X008805Y003888D01*
X008790Y003903D01*
X008703Y003939D01*
X008607Y003939D01*
X008520Y003903D01*
X008505Y003888D01*
X008490Y003903D01*
X008403Y003939D01*
X008307Y003939D01*
X008220Y003903D01*
X008152Y003835D01*
X008131Y003783D02*
X000345Y003783D01*
X000345Y003705D02*
X008116Y003705D01*
X008127Y003626D02*
X000345Y003626D01*
X000345Y003548D02*
X008169Y003548D01*
X008288Y003469D02*
X000345Y003469D01*
X000345Y003391D02*
X012565Y003391D01*
X012565Y003469D02*
X009022Y003469D01*
X008888Y003469D02*
X008722Y003469D01*
X008588Y003469D02*
X008422Y003469D01*
X008058Y003235D02*
X007990Y003303D01*
X007903Y003339D01*
X007807Y003339D01*
X007720Y003303D01*
X007655Y003238D01*
X007590Y003303D01*
X007503Y003339D01*
X007407Y003339D01*
X007320Y003303D01*
X007255Y003238D01*
X007190Y003303D01*
X007103Y003339D01*
X007007Y003339D01*
X006920Y003303D01*
X006852Y003235D01*
X006816Y003148D01*
X006816Y003052D01*
X006852Y002965D01*
X006920Y002897D01*
X007007Y002861D01*
X007103Y002861D01*
X007190Y002897D01*
X007255Y002962D01*
X007320Y002897D01*
X007407Y002861D01*
X007503Y002861D01*
X007590Y002897D01*
X007655Y002962D01*
X007720Y002897D01*
X007807Y002861D01*
X007903Y002861D01*
X007990Y002897D01*
X008058Y002965D01*
X008094Y003052D01*
X008094Y003148D01*
X008058Y003235D01*
X008058Y003234D02*
X012565Y003234D01*
X012565Y003312D02*
X007968Y003312D01*
X008091Y003155D02*
X012565Y003155D01*
X012565Y003077D02*
X008094Y003077D01*
X008072Y002998D02*
X012565Y002998D01*
X012565Y002920D02*
X008013Y002920D01*
X007697Y002920D02*
X007613Y002920D01*
X007297Y002920D02*
X007213Y002920D01*
X006897Y002920D02*
X005685Y002920D01*
X005694Y002898D02*
X005658Y002985D01*
X005643Y003000D01*
X005658Y003015D01*
X005694Y003102D01*
X005694Y003198D01*
X005658Y003285D01*
X005590Y003353D01*
X005503Y003389D01*
X005407Y003389D01*
X005320Y003353D01*
X005252Y003285D01*
X005216Y003198D01*
X005216Y003102D01*
X005252Y003015D01*
X005267Y003000D01*
X005252Y002985D01*
X005216Y002898D01*
X005216Y002802D01*
X005252Y002715D01*
X005267Y002700D01*
X005252Y002685D01*
X005216Y002598D01*
X005216Y002502D01*
X005252Y002415D01*
X005320Y002347D01*
X005407Y002311D01*
X005503Y002311D01*
X005590Y002347D01*
X005658Y002415D01*
X005694Y002502D01*
X005694Y002598D01*
X005658Y002685D01*
X005643Y002700D01*
X005658Y002715D01*
X005694Y002802D01*
X005694Y002898D01*
X005694Y002841D02*
X012565Y002841D01*
X012565Y002763D02*
X005678Y002763D01*
X005658Y002684D02*
X012565Y002684D01*
X012565Y002606D02*
X005691Y002606D01*
X005694Y002527D02*
X012565Y002527D01*
X012565Y002449D02*
X005672Y002449D01*
X005613Y002370D02*
X012565Y002370D01*
X012565Y002292D02*
X004476Y002292D01*
X004490Y002297D02*
X004558Y002365D01*
X004594Y002452D01*
X004594Y002548D01*
X004558Y002635D01*
X004543Y002650D01*
X004558Y002665D01*
X004594Y002752D01*
X004594Y002848D01*
X004558Y002935D01*
X004543Y002950D01*
X004558Y002965D01*
X004594Y003052D01*
X004594Y003148D01*
X004558Y003235D01*
X004490Y003303D01*
X004403Y003339D01*
X004307Y003339D01*
X004220Y003303D01*
X004152Y003235D01*
X004116Y003148D01*
X004116Y003052D01*
X004152Y002965D01*
X004167Y002950D01*
X004152Y002935D01*
X004116Y002848D01*
X004116Y002752D01*
X004152Y002665D01*
X004167Y002650D01*
X004152Y002635D01*
X004116Y002548D01*
X004116Y002452D01*
X004152Y002365D01*
X004220Y002297D01*
X004307Y002261D01*
X004403Y002261D01*
X004490Y002297D01*
X004560Y002370D02*
X005297Y002370D01*
X005238Y002449D02*
X004592Y002449D01*
X004594Y002527D02*
X005216Y002527D01*
X005219Y002606D02*
X004570Y002606D01*
X004566Y002684D02*
X005252Y002684D01*
X005232Y002763D02*
X004594Y002763D01*
X004594Y002841D02*
X005216Y002841D01*
X005225Y002920D02*
X004564Y002920D01*
X004572Y002998D02*
X005265Y002998D01*
X005227Y003077D02*
X004594Y003077D01*
X004591Y003155D02*
X005216Y003155D01*
X005231Y003234D02*
X004558Y003234D01*
X004468Y003312D02*
X005279Y003312D01*
X005631Y003312D02*
X006942Y003312D01*
X006852Y003234D02*
X005679Y003234D01*
X005694Y003155D02*
X006819Y003155D01*
X006816Y003077D02*
X005683Y003077D01*
X005645Y002998D02*
X006838Y002998D01*
X007168Y003312D02*
X007342Y003312D01*
X007568Y003312D02*
X007742Y003312D01*
X007005Y004050D02*
X006755Y004050D01*
X009132Y003862D02*
X012565Y003862D01*
X012565Y003783D02*
X009179Y003783D01*
X009194Y003705D02*
X012565Y003705D01*
X012565Y003626D02*
X009183Y003626D01*
X009141Y003548D02*
X012565Y003548D01*
X012565Y002213D02*
X000345Y002213D01*
X000345Y002135D02*
X012565Y002135D01*
X012565Y002056D02*
X012066Y002056D01*
X012056Y002060D02*
X011854Y002060D01*
X011666Y001982D01*
X011523Y001839D01*
X011455Y001676D01*
X011387Y001839D01*
X011244Y001982D01*
X011056Y002060D01*
X010854Y002060D01*
X010666Y001982D01*
X010523Y001839D01*
X010455Y001676D01*
X010387Y001839D01*
X010244Y001982D01*
X010056Y002060D01*
X009854Y002060D01*
X009666Y001982D01*
X009523Y001839D01*
X009455Y001676D01*
X009387Y001839D01*
X009244Y001982D01*
X009056Y002060D01*
X008854Y002060D01*
X008666Y001982D01*
X008523Y001839D01*
X008455Y001676D01*
X008387Y001839D01*
X008244Y001982D01*
X008056Y002060D01*
X007854Y002060D01*
X007666Y001982D01*
X007523Y001839D01*
X007455Y001676D01*
X007387Y001839D01*
X007244Y001982D01*
X007056Y002060D01*
X006854Y002060D01*
X006666Y001982D01*
X006523Y001839D01*
X006455Y001676D01*
X006387Y001839D01*
X006244Y001982D01*
X006056Y002060D01*
X005854Y002060D01*
X005666Y001982D01*
X005523Y001839D01*
X005455Y001676D01*
X005387Y001839D01*
X005244Y001982D01*
X005056Y002060D01*
X004854Y002060D01*
X004666Y001982D01*
X004523Y001839D01*
X004455Y001676D01*
X004387Y001839D01*
X004244Y001982D01*
X004056Y002060D01*
X003854Y002060D01*
X003666Y001982D01*
X003523Y001839D01*
X003455Y001676D01*
X003387Y001839D01*
X003244Y001982D01*
X003056Y002060D01*
X002854Y002060D01*
X002666Y001982D01*
X002523Y001839D01*
X002445Y001651D01*
X002445Y001449D01*
X002523Y001261D01*
X002666Y001118D01*
X002854Y001040D01*
X003056Y001040D01*
X003244Y001118D01*
X003387Y001261D01*
X003455Y001424D01*
X003523Y001261D01*
X003666Y001118D01*
X003854Y001040D01*
X004056Y001040D01*
X004244Y001118D01*
X004387Y001261D01*
X004455Y001424D01*
X004523Y001261D01*
X004666Y001118D01*
X004854Y001040D01*
X005056Y001040D01*
X005244Y001118D01*
X005387Y001261D01*
X005455Y001424D01*
X005523Y001261D01*
X005666Y001118D01*
X005854Y001040D01*
X006056Y001040D01*
X006244Y001118D01*
X006387Y001261D01*
X006455Y001424D01*
X006523Y001261D01*
X006666Y001118D01*
X006854Y001040D01*
X007056Y001040D01*
X007244Y001118D01*
X007387Y001261D01*
X007455Y001424D01*
X007523Y001261D01*
X007666Y001118D01*
X007854Y001040D01*
X008056Y001040D01*
X008244Y001118D01*
X008387Y001261D01*
X008455Y001424D01*
X008523Y001261D01*
X008666Y001118D01*
X008854Y001040D01*
X009056Y001040D01*
X009244Y001118D01*
X009387Y001261D01*
X009455Y001424D01*
X009523Y001261D01*
X009666Y001118D01*
X009854Y001040D01*
X010056Y001040D01*
X010244Y001118D01*
X010387Y001261D01*
X010455Y001424D01*
X010523Y001261D01*
X010666Y001118D01*
X010854Y001040D01*
X011056Y001040D01*
X011244Y001118D01*
X011387Y001261D01*
X011455Y001424D01*
X011523Y001261D01*
X011666Y001118D01*
X011854Y001040D01*
X012056Y001040D01*
X012244Y001118D01*
X012387Y001261D01*
X012465Y001449D01*
X012465Y001651D01*
X012387Y001839D01*
X012244Y001982D01*
X012056Y002060D01*
X012249Y001978D02*
X012565Y001978D01*
X012565Y001899D02*
X012327Y001899D01*
X012395Y001821D02*
X012565Y001821D01*
X012565Y001742D02*
X012427Y001742D01*
X012460Y001664D02*
X012565Y001664D01*
X012565Y001585D02*
X012465Y001585D01*
X012465Y001507D02*
X012565Y001507D01*
X012565Y001428D02*
X012456Y001428D01*
X012424Y001350D02*
X012565Y001350D01*
X012565Y001271D02*
X012391Y001271D01*
X012319Y001193D02*
X012565Y001193D01*
X012565Y001114D02*
X012235Y001114D01*
X012565Y001036D02*
X000345Y001036D01*
X000345Y001114D02*
X002675Y001114D01*
X002591Y001193D02*
X000345Y001193D01*
X000345Y001271D02*
X002519Y001271D01*
X002486Y001350D02*
X000345Y001350D01*
X000345Y001428D02*
X002454Y001428D01*
X002445Y001507D02*
X000345Y001507D01*
X000345Y001585D02*
X002445Y001585D01*
X002450Y001664D02*
X000345Y001664D01*
X000345Y001742D02*
X002483Y001742D01*
X002515Y001821D02*
X000345Y001821D01*
X000345Y001899D02*
X002583Y001899D01*
X002661Y001978D02*
X000345Y001978D01*
X000345Y002056D02*
X002844Y002056D01*
X003066Y002056D02*
X003844Y002056D01*
X003661Y001978D02*
X003249Y001978D01*
X003327Y001899D02*
X003583Y001899D01*
X003515Y001821D02*
X003395Y001821D01*
X003427Y001742D02*
X003483Y001742D01*
X003486Y001350D02*
X003424Y001350D01*
X003391Y001271D02*
X003519Y001271D01*
X003591Y001193D02*
X003319Y001193D01*
X003235Y001114D02*
X003675Y001114D01*
X004235Y001114D02*
X004675Y001114D01*
X004591Y001193D02*
X004319Y001193D01*
X004391Y001271D02*
X004519Y001271D01*
X004486Y001350D02*
X004424Y001350D01*
X004427Y001742D02*
X004483Y001742D01*
X004515Y001821D02*
X004395Y001821D01*
X004327Y001899D02*
X004583Y001899D01*
X004661Y001978D02*
X004249Y001978D01*
X004066Y002056D02*
X004844Y002056D01*
X005066Y002056D02*
X005844Y002056D01*
X005661Y001978D02*
X005249Y001978D01*
X005327Y001899D02*
X005583Y001899D01*
X005515Y001821D02*
X005395Y001821D01*
X005427Y001742D02*
X005483Y001742D01*
X006066Y002056D02*
X006844Y002056D01*
X006661Y001978D02*
X006249Y001978D01*
X006327Y001899D02*
X006583Y001899D01*
X006515Y001821D02*
X006395Y001821D01*
X006427Y001742D02*
X006483Y001742D01*
X006486Y001350D02*
X006424Y001350D01*
X006391Y001271D02*
X006519Y001271D01*
X006591Y001193D02*
X006319Y001193D01*
X006235Y001114D02*
X006675Y001114D01*
X007235Y001114D02*
X007675Y001114D01*
X007591Y001193D02*
X007319Y001193D01*
X007391Y001271D02*
X007519Y001271D01*
X007486Y001350D02*
X007424Y001350D01*
X007427Y001742D02*
X007483Y001742D01*
X007515Y001821D02*
X007395Y001821D01*
X007327Y001899D02*
X007583Y001899D01*
X007661Y001978D02*
X007249Y001978D01*
X007066Y002056D02*
X007844Y002056D01*
X008066Y002056D02*
X008844Y002056D01*
X008661Y001978D02*
X008249Y001978D01*
X008327Y001899D02*
X008583Y001899D01*
X008515Y001821D02*
X008395Y001821D01*
X008427Y001742D02*
X008483Y001742D01*
X009066Y002056D02*
X009844Y002056D01*
X009661Y001978D02*
X009249Y001978D01*
X009327Y001899D02*
X009583Y001899D01*
X009515Y001821D02*
X009395Y001821D01*
X009427Y001742D02*
X009483Y001742D01*
X009486Y001350D02*
X009424Y001350D01*
X009391Y001271D02*
X009519Y001271D01*
X009591Y001193D02*
X009319Y001193D01*
X009235Y001114D02*
X009675Y001114D01*
X010235Y001114D02*
X010675Y001114D01*
X010591Y001193D02*
X010319Y001193D01*
X010391Y001271D02*
X010519Y001271D01*
X010486Y001350D02*
X010424Y001350D01*
X010427Y001742D02*
X010483Y001742D01*
X010515Y001821D02*
X010395Y001821D01*
X010327Y001899D02*
X010583Y001899D01*
X010661Y001978D02*
X010249Y001978D01*
X010066Y002056D02*
X010844Y002056D01*
X011066Y002056D02*
X011844Y002056D01*
X011661Y001978D02*
X011249Y001978D01*
X011327Y001899D02*
X011583Y001899D01*
X011515Y001821D02*
X011395Y001821D01*
X011427Y001742D02*
X011483Y001742D01*
X011486Y001350D02*
X011424Y001350D01*
X011391Y001271D02*
X011519Y001271D01*
X011591Y001193D02*
X011319Y001193D01*
X011235Y001114D02*
X011675Y001114D01*
X012565Y000957D02*
X000345Y000957D01*
X000345Y002292D02*
X004234Y002292D01*
X004150Y002370D02*
X003513Y002370D01*
X003490Y002347D02*
X003558Y002415D01*
X003594Y002502D01*
X003594Y002598D01*
X003558Y002685D01*
X003543Y002700D01*
X003558Y002715D01*
X003594Y002802D01*
X003594Y002898D01*
X003558Y002985D01*
X003543Y003000D01*
X003558Y003015D01*
X003594Y003102D01*
X003594Y003198D01*
X003558Y003285D01*
X003490Y003353D01*
X003403Y003389D01*
X003307Y003389D01*
X003220Y003353D01*
X003205Y003338D01*
X003190Y003353D01*
X003103Y003389D01*
X003007Y003389D01*
X002920Y003353D01*
X002852Y003285D01*
X002816Y003198D01*
X002816Y003102D01*
X002852Y003015D01*
X002867Y003000D01*
X002852Y002985D01*
X002816Y002898D01*
X002816Y002802D01*
X002852Y002715D01*
X002867Y002700D01*
X002852Y002685D01*
X002816Y002598D01*
X002816Y002502D01*
X002852Y002415D01*
X002920Y002347D01*
X003007Y002311D01*
X003103Y002311D01*
X003190Y002347D01*
X003205Y002362D01*
X003220Y002347D01*
X003307Y002311D01*
X003403Y002311D01*
X003490Y002347D01*
X003572Y002449D02*
X004118Y002449D01*
X004116Y002527D02*
X003594Y002527D01*
X003591Y002606D02*
X004140Y002606D01*
X004144Y002684D02*
X003558Y002684D01*
X003578Y002763D02*
X004116Y002763D01*
X004116Y002841D02*
X003594Y002841D01*
X003585Y002920D02*
X004146Y002920D01*
X004138Y002998D02*
X003545Y002998D01*
X003583Y003077D02*
X004116Y003077D01*
X004119Y003155D02*
X003594Y003155D01*
X003579Y003234D02*
X004152Y003234D01*
X004242Y003312D02*
X003531Y003312D01*
X002879Y003312D02*
X000345Y003312D01*
X000345Y003234D02*
X002831Y003234D01*
X002816Y003155D02*
X001635Y003155D01*
X001640Y003153D02*
X001553Y003189D01*
X001457Y003189D01*
X001370Y003153D01*
X001355Y003138D01*
X001340Y003153D01*
X001253Y003189D01*
X001157Y003189D01*
X001070Y003153D01*
X001055Y003138D01*
X001040Y003153D01*
X000953Y003189D01*
X000857Y003189D01*
X000770Y003153D01*
X000702Y003085D01*
X000666Y002998D01*
X000345Y002998D01*
X000345Y002920D02*
X000666Y002920D01*
X000666Y002902D02*
X000702Y002815D01*
X000770Y002747D01*
X000857Y002711D01*
X000953Y002711D01*
X001040Y002747D01*
X001055Y002762D01*
X001070Y002747D01*
X001157Y002711D01*
X001253Y002711D01*
X001340Y002747D01*
X001355Y002762D01*
X001370Y002747D01*
X001457Y002711D01*
X001553Y002711D01*
X001640Y002747D01*
X001708Y002815D01*
X001744Y002902D01*
X001744Y002998D01*
X002865Y002998D01*
X002827Y003077D02*
X001711Y003077D01*
X001708Y003085D02*
X001640Y003153D01*
X001708Y003085D02*
X001744Y002998D01*
X001744Y002920D02*
X002825Y002920D01*
X002816Y002841D02*
X001719Y002841D01*
X001656Y002763D02*
X002832Y002763D01*
X002852Y002684D02*
X000345Y002684D01*
X000345Y002606D02*
X002819Y002606D01*
X002816Y002527D02*
X000345Y002527D01*
X000345Y002449D02*
X002838Y002449D01*
X002897Y002370D02*
X000345Y002370D01*
X000345Y002763D02*
X000754Y002763D01*
X000691Y002841D02*
X000345Y002841D01*
X000345Y003077D02*
X000699Y003077D01*
X000666Y002998D02*
X000666Y002902D01*
X000775Y003155D02*
X000345Y003155D01*
X001035Y003155D02*
X001075Y003155D01*
X001335Y003155D02*
X001375Y003155D01*
X005235Y001114D02*
X005675Y001114D01*
X005591Y001193D02*
X005319Y001193D01*
X005391Y001271D02*
X005519Y001271D01*
X005486Y001350D02*
X005424Y001350D01*
X008235Y001114D02*
X008675Y001114D01*
X008591Y001193D02*
X008319Y001193D01*
X008391Y001271D02*
X008519Y001271D01*
X008486Y001350D02*
X008424Y001350D01*
X009616Y005404D02*
X009616Y005564D01*
X009496Y005524D02*
X009736Y005524D01*
X009616Y005404D01*
X003793Y006688D02*
X003106Y006688D01*
X003008Y006766D02*
X003766Y006766D01*
X003766Y006845D02*
X000345Y006845D01*
X000345Y006923D02*
X003797Y006923D01*
X003868Y007002D02*
X000345Y007002D01*
X000345Y007080D02*
X000757Y007080D01*
X000625Y007159D02*
X000345Y007159D01*
X000345Y007237D02*
X000547Y007237D01*
X000500Y007316D02*
X000345Y007316D01*
X000345Y007394D02*
X000468Y007394D01*
X000445Y007473D02*
X000345Y007473D01*
X000345Y007551D02*
X000445Y007551D01*
X000445Y007630D02*
X000345Y007630D01*
X000345Y007708D02*
X000468Y007708D01*
X000501Y007787D02*
X000345Y007787D01*
X000345Y007865D02*
X000549Y007865D01*
X000627Y007944D02*
X000345Y007944D01*
X000345Y008022D02*
X000762Y008022D01*
X001148Y008022D02*
X001762Y008022D01*
X001627Y007944D02*
X001283Y007944D01*
X001361Y007865D02*
X001549Y007865D01*
X001501Y007787D02*
X001409Y007787D01*
X001442Y007708D02*
X001468Y007708D01*
X001468Y007394D02*
X001442Y007394D01*
X001410Y007316D02*
X001500Y007316D01*
X001547Y007237D02*
X001363Y007237D01*
X001285Y007159D02*
X001625Y007159D01*
X001757Y007080D02*
X001153Y007080D01*
X000345Y006766D02*
X002802Y006766D01*
X002704Y006688D02*
X000345Y006688D01*
X000345Y006609D02*
X002671Y006609D01*
X002666Y006531D02*
X000345Y006531D01*
X000345Y006452D02*
X002687Y006452D01*
X002743Y006374D02*
X000345Y006374D01*
X002153Y007080D02*
X002757Y007080D01*
X002625Y007159D02*
X002285Y007159D01*
X002363Y007237D02*
X002547Y007237D01*
X002500Y007316D02*
X002410Y007316D01*
X002442Y007394D02*
X002468Y007394D01*
X002468Y007708D02*
X002442Y007708D01*
X002409Y007787D02*
X002501Y007787D01*
X002549Y007865D02*
X002361Y007865D01*
X002283Y007944D02*
X002627Y007944D01*
X002762Y008022D02*
X002148Y008022D01*
X003148Y008022D02*
X003762Y008022D01*
X003627Y007944D02*
X003283Y007944D01*
X003361Y007865D02*
X003549Y007865D01*
X003501Y007787D02*
X003409Y007787D01*
X003442Y007708D02*
X003468Y007708D01*
X003468Y007394D02*
X003442Y007394D01*
X003410Y007316D02*
X003500Y007316D01*
X003547Y007237D02*
X003363Y007237D01*
X003285Y007159D02*
X003625Y007159D01*
X003757Y007080D02*
X003153Y007080D01*
D12*
X002905Y006550D03*
X004005Y006800D03*
X004505Y006800D03*
X005555Y007000D03*
X005855Y006850D03*
X005927Y005662D03*
X005416Y005662D03*
X004904Y005662D03*
X004392Y005662D03*
X003880Y005662D03*
X003368Y005662D03*
X003372Y005150D03*
X003884Y005150D03*
X004396Y005150D03*
X004908Y005150D03*
X005420Y005150D03*
X005931Y005150D03*
X006443Y005150D03*
X006439Y005662D03*
X007905Y005950D03*
X008305Y005450D03*
X009105Y005450D03*
X009405Y005900D03*
X012355Y006100D03*
X012355Y005600D03*
X012355Y005100D03*
X012355Y004600D03*
X012355Y004100D03*
X012355Y003600D03*
X012355Y003100D03*
X008955Y003700D03*
X008655Y003700D03*
X008355Y003700D03*
X007855Y003100D03*
X007455Y003100D03*
X007055Y003100D03*
X006755Y004050D03*
X006439Y004638D03*
X005927Y004638D03*
X005416Y004638D03*
X004904Y004638D03*
X004392Y004638D03*
X003880Y004638D03*
X003368Y004638D03*
X001655Y004700D03*
X000505Y004800D03*
X000505Y004300D03*
X000505Y005300D03*
X000505Y005800D03*
X000855Y005800D03*
X001255Y005800D03*
X001655Y005800D03*
X000505Y006300D03*
X000505Y006800D03*
X003055Y003150D03*
X003355Y003150D03*
X003355Y002850D03*
X003055Y002850D03*
X003055Y002550D03*
X003355Y002550D03*
X004355Y002500D03*
X004355Y002800D03*
X004355Y003100D03*
X005455Y003150D03*
X005455Y002850D03*
X005455Y002550D03*
X001505Y002950D03*
X001205Y002950D03*
X000905Y002950D03*
X012355Y006600D03*
M02*
