G75*
G70*
%OFA0B0*%
%FSLAX24Y24*%
%IPPOS*%
%LPD*%
%AMOC8*
5,1,8,0,0,1.08239X$1,22.5*
%
%ADD10C,0.0600*%
%ADD11C,0.0080*%
%ADD12C,0.0198*%
D10*
X000955Y001550D03*
X001955Y001550D03*
X002955Y001550D03*
X003955Y001550D03*
X004955Y001550D03*
X005955Y001550D03*
X006955Y001550D03*
X007955Y001550D03*
X008955Y001550D03*
X009955Y001550D03*
X010955Y001550D03*
X011955Y001550D03*
X011955Y007550D03*
X010955Y007550D03*
X009955Y007550D03*
X008955Y007550D03*
X007955Y007550D03*
X006955Y007550D03*
X005955Y007550D03*
X004955Y007550D03*
X003955Y007550D03*
X002955Y007550D03*
X001955Y007550D03*
X000955Y007550D03*
D11*
X000345Y004122D02*
X000345Y000940D01*
X012565Y000940D01*
X012565Y002982D01*
X012558Y002965D01*
X012490Y002897D01*
X012403Y002861D01*
X012307Y002861D01*
X012220Y002897D01*
X012152Y002965D01*
X012116Y003052D01*
X012116Y003148D01*
X012152Y003235D01*
X012220Y003303D01*
X012307Y003339D01*
X012403Y003339D01*
X012490Y003303D01*
X012558Y003235D01*
X012565Y003218D01*
X012565Y003482D01*
X012558Y003465D01*
X012490Y003397D01*
X012403Y003361D01*
X012307Y003361D01*
X012220Y003397D01*
X012152Y003465D01*
X012116Y003552D01*
X012116Y003648D01*
X012152Y003735D01*
X012220Y003803D01*
X012307Y003839D01*
X012403Y003839D01*
X012490Y003803D01*
X012558Y003735D01*
X012565Y003718D01*
X012565Y003982D01*
X012558Y003965D01*
X012490Y003897D01*
X012403Y003861D01*
X012307Y003861D01*
X012220Y003897D01*
X012152Y003965D01*
X012116Y004052D01*
X012116Y004148D01*
X012152Y004235D01*
X012220Y004303D01*
X012307Y004339D01*
X012403Y004339D01*
X012490Y004303D01*
X012558Y004235D01*
X012565Y004218D01*
X012565Y004482D01*
X012558Y004465D01*
X012490Y004397D01*
X012403Y004361D01*
X012307Y004361D01*
X012220Y004397D01*
X012152Y004465D01*
X012116Y004552D01*
X012116Y004648D01*
X012152Y004735D01*
X012220Y004803D01*
X012307Y004839D01*
X012403Y004839D01*
X012490Y004803D01*
X012558Y004735D01*
X012565Y004718D01*
X012565Y004982D01*
X012558Y004965D01*
X012490Y004897D01*
X012403Y004861D01*
X012307Y004861D01*
X012220Y004897D01*
X012152Y004965D01*
X012116Y005052D01*
X012116Y005148D01*
X012152Y005235D01*
X012220Y005303D01*
X012307Y005339D01*
X012403Y005339D01*
X012490Y005303D01*
X012558Y005235D01*
X012565Y005218D01*
X012565Y005482D01*
X012558Y005465D01*
X012490Y005397D01*
X012403Y005361D01*
X012307Y005361D01*
X012220Y005397D01*
X012152Y005465D01*
X012116Y005552D01*
X012116Y005648D01*
X012152Y005735D01*
X012220Y005803D01*
X012307Y005839D01*
X012403Y005839D01*
X012490Y005803D01*
X012558Y005735D01*
X012565Y005718D01*
X012565Y005982D01*
X012558Y005965D01*
X012490Y005897D01*
X012403Y005861D01*
X012307Y005861D01*
X012220Y005897D01*
X012152Y005965D01*
X012116Y006052D01*
X012116Y006148D01*
X012152Y006235D01*
X012220Y006303D01*
X012307Y006339D01*
X012403Y006339D01*
X012490Y006303D01*
X012558Y006235D01*
X012565Y006218D01*
X012565Y006482D01*
X012558Y006465D01*
X012490Y006397D01*
X012403Y006361D01*
X012307Y006361D01*
X012220Y006397D01*
X012152Y006465D01*
X012116Y006552D01*
X012116Y006648D01*
X012152Y006735D01*
X012220Y006803D01*
X012307Y006839D01*
X012403Y006839D01*
X012490Y006803D01*
X012558Y006735D01*
X012565Y006718D01*
X012565Y008160D01*
X000345Y008160D01*
X000345Y006978D01*
X000370Y007003D01*
X000457Y007039D01*
X000553Y007039D01*
X000640Y007003D01*
X000708Y006935D01*
X000744Y006848D01*
X000744Y006752D01*
X000708Y006665D01*
X000640Y006597D01*
X000553Y006561D01*
X000457Y006561D01*
X000370Y006597D01*
X000345Y006622D01*
X000345Y006478D01*
X000370Y006503D01*
X000457Y006539D01*
X000553Y006539D01*
X000640Y006503D01*
X000708Y006435D01*
X000744Y006348D01*
X000744Y006252D01*
X000708Y006165D01*
X000640Y006097D01*
X000553Y006061D01*
X000457Y006061D01*
X000370Y006097D01*
X000345Y006122D01*
X000345Y005978D01*
X000370Y006003D01*
X000457Y006039D01*
X000553Y006039D01*
X000640Y006003D01*
X000680Y005963D01*
X000720Y006003D01*
X000807Y006039D01*
X000903Y006039D01*
X000990Y006003D01*
X001055Y005938D01*
X001120Y006003D01*
X001207Y006039D01*
X001303Y006039D01*
X001390Y006003D01*
X001455Y005938D01*
X001520Y006003D01*
X001607Y006039D01*
X001703Y006039D01*
X001790Y006003D01*
X001858Y005935D01*
X001894Y005848D01*
X001894Y005752D01*
X001858Y005665D01*
X001790Y005597D01*
X001703Y005561D01*
X001607Y005561D01*
X001520Y005597D01*
X001455Y005662D01*
X001390Y005597D01*
X001303Y005561D01*
X001207Y005561D01*
X001120Y005597D01*
X001055Y005662D01*
X000990Y005597D01*
X000903Y005561D01*
X000807Y005561D01*
X000720Y005597D01*
X000680Y005637D01*
X000640Y005597D01*
X000553Y005561D01*
X000457Y005561D01*
X000370Y005597D01*
X000345Y005622D01*
X000345Y005478D01*
X000370Y005503D01*
X000457Y005539D01*
X000553Y005539D01*
X000640Y005503D01*
X000708Y005435D01*
X000744Y005348D01*
X000744Y005252D01*
X000708Y005165D01*
X000640Y005097D01*
X000553Y005061D01*
X000457Y005061D01*
X000370Y005097D01*
X000345Y005122D01*
X000345Y004978D01*
X000370Y005003D01*
X000457Y005039D01*
X000345Y005039D01*
X000345Y005118D02*
X000349Y005118D01*
X000457Y005039D02*
X000553Y005039D01*
X003160Y005039D01*
X003170Y005015D02*
X003237Y004947D01*
X003325Y004911D01*
X003420Y004911D01*
X003508Y004947D01*
X003575Y005015D01*
X003611Y005102D01*
X003611Y005198D01*
X003575Y005285D01*
X003508Y005353D01*
X003420Y005389D01*
X003325Y005389D01*
X003237Y005353D01*
X003170Y005285D01*
X003133Y005198D01*
X003133Y005102D01*
X003170Y005015D01*
X003224Y004961D02*
X000683Y004961D01*
X000708Y004935D02*
X000640Y005003D01*
X000553Y005039D01*
X000661Y005118D02*
X003133Y005118D01*
X003133Y005196D02*
X000721Y005196D01*
X000744Y005275D02*
X003165Y005275D01*
X003238Y005353D02*
X000742Y005353D01*
X000709Y005432D02*
X003300Y005432D01*
X003321Y005423D02*
X003416Y005423D01*
X003504Y005459D01*
X003571Y005526D01*
X003607Y005614D01*
X003607Y005709D01*
X003571Y005797D01*
X003504Y005864D01*
X003416Y005901D01*
X003321Y005901D01*
X003233Y005864D01*
X003166Y005797D01*
X003129Y005709D01*
X003129Y005614D01*
X003166Y005526D01*
X003233Y005459D01*
X003321Y005423D01*
X003437Y005432D02*
X003811Y005432D01*
X003833Y005423D02*
X003928Y005423D01*
X004016Y005459D01*
X004083Y005526D01*
X004119Y005614D01*
X004119Y005709D01*
X004083Y005797D01*
X004016Y005864D01*
X003928Y005901D01*
X003833Y005901D01*
X003745Y005864D01*
X003678Y005797D01*
X003641Y005709D01*
X003641Y005614D01*
X003678Y005526D01*
X003745Y005459D01*
X003833Y005423D01*
X003837Y005389D02*
X003749Y005353D01*
X003681Y005285D01*
X003645Y005198D01*
X003645Y005102D01*
X003681Y005015D01*
X003749Y004947D01*
X003837Y004911D01*
X003932Y004911D01*
X004020Y004947D01*
X004087Y005015D01*
X004123Y005102D01*
X004123Y005198D01*
X004087Y005285D01*
X004020Y005353D01*
X003932Y005389D01*
X003837Y005389D01*
X003750Y005353D02*
X003507Y005353D01*
X003579Y005275D02*
X003677Y005275D01*
X003645Y005196D02*
X003611Y005196D01*
X003611Y005118D02*
X003645Y005118D01*
X003671Y005039D02*
X003585Y005039D01*
X003521Y004961D02*
X003736Y004961D01*
X003745Y004841D02*
X003678Y004774D01*
X003641Y004686D01*
X003641Y004591D01*
X003678Y004503D01*
X003745Y004436D01*
X003833Y004399D01*
X003928Y004399D01*
X004016Y004436D01*
X004083Y004503D01*
X004119Y004591D01*
X004119Y004686D01*
X004083Y004774D01*
X004016Y004841D01*
X003928Y004877D01*
X003833Y004877D01*
X003745Y004841D01*
X003707Y004804D02*
X003541Y004804D01*
X003571Y004774D02*
X003504Y004841D01*
X003416Y004877D01*
X003321Y004877D01*
X003233Y004841D01*
X003166Y004774D01*
X003129Y004686D01*
X003129Y004591D01*
X003166Y004503D01*
X003233Y004436D01*
X003321Y004399D01*
X003416Y004399D01*
X003504Y004436D01*
X003571Y004503D01*
X003607Y004591D01*
X003607Y004686D01*
X003571Y004774D01*
X003591Y004725D02*
X003657Y004725D01*
X003641Y004647D02*
X003607Y004647D01*
X003598Y004568D02*
X003651Y004568D01*
X003691Y004490D02*
X003558Y004490D01*
X003445Y004411D02*
X003804Y004411D01*
X003956Y004411D02*
X004316Y004411D01*
X004344Y004399D02*
X004440Y004399D01*
X004527Y004436D01*
X004595Y004503D01*
X004631Y004591D01*
X004631Y004686D01*
X004595Y004774D01*
X004527Y004841D01*
X004440Y004877D01*
X004344Y004877D01*
X004257Y004841D01*
X004189Y004774D01*
X004153Y004686D01*
X004153Y004591D01*
X004189Y004503D01*
X004257Y004436D01*
X004344Y004399D01*
X004468Y004411D02*
X004828Y004411D01*
X004856Y004399D02*
X004951Y004399D01*
X005039Y004436D01*
X005106Y004503D01*
X005143Y004591D01*
X005143Y004686D01*
X005106Y004774D01*
X005039Y004841D01*
X004951Y004877D01*
X004856Y004877D01*
X004768Y004841D01*
X004701Y004774D01*
X004665Y004686D01*
X004665Y004591D01*
X004701Y004503D01*
X004768Y004436D01*
X004856Y004399D01*
X004980Y004411D02*
X005339Y004411D01*
X005368Y004399D02*
X005280Y004436D01*
X005213Y004503D01*
X005177Y004591D01*
X005177Y004686D01*
X005213Y004774D01*
X005280Y004841D01*
X005368Y004877D01*
X005463Y004877D01*
X005551Y004841D01*
X005618Y004774D01*
X005655Y004686D01*
X005655Y004591D01*
X005618Y004503D01*
X005551Y004436D01*
X005463Y004399D01*
X005368Y004399D01*
X005492Y004411D02*
X005851Y004411D01*
X005880Y004399D02*
X005792Y004436D01*
X005725Y004503D01*
X005688Y004591D01*
X005688Y004686D01*
X005725Y004774D01*
X005792Y004841D01*
X005880Y004877D01*
X005975Y004877D01*
X006063Y004841D01*
X006130Y004774D01*
X006166Y004686D01*
X006166Y004591D01*
X006130Y004503D01*
X006063Y004436D01*
X005975Y004399D01*
X005880Y004399D01*
X006004Y004411D02*
X006363Y004411D01*
X006392Y004399D02*
X006304Y004436D01*
X006237Y004503D01*
X006200Y004591D01*
X006200Y004686D01*
X006237Y004774D01*
X006304Y004841D01*
X006392Y004877D01*
X006487Y004877D01*
X006575Y004841D01*
X006642Y004774D01*
X006678Y004686D01*
X006678Y004591D01*
X006642Y004503D01*
X006575Y004436D01*
X006487Y004399D01*
X006392Y004399D01*
X006515Y004411D02*
X012206Y004411D01*
X012142Y004490D02*
X006629Y004490D01*
X006669Y004568D02*
X009343Y004568D01*
X009343Y004540D02*
X009343Y004614D01*
X009316Y004641D01*
X009316Y004796D01*
X009316Y004870D01*
X009316Y004870D01*
X009343Y004896D01*
X009343Y004967D01*
X009366Y004990D01*
X009436Y004990D01*
X009462Y005015D01*
X009462Y005015D01*
X009535Y005015D01*
X009611Y005015D01*
X009611Y005015D01*
X009651Y005015D01*
X009656Y005010D01*
X009662Y005015D01*
X009811Y005015D01*
X009836Y004990D01*
X009872Y004990D01*
X009895Y004967D01*
X009895Y004931D01*
X009916Y004910D01*
X009916Y004750D01*
X009916Y004600D01*
X009895Y004579D01*
X009895Y004540D01*
X009872Y004516D01*
X009832Y004516D01*
X009811Y004495D01*
X009662Y004495D01*
X009640Y004516D01*
X009632Y004516D01*
X009611Y004495D01*
X009462Y004495D01*
X009440Y004516D01*
X009366Y004516D01*
X009343Y004540D01*
X009316Y004647D02*
X006678Y004647D01*
X006662Y004725D02*
X009316Y004725D01*
X009316Y004804D02*
X006612Y004804D01*
X006579Y004947D02*
X006491Y004911D01*
X006396Y004911D01*
X006308Y004947D01*
X006241Y005015D01*
X006204Y005102D01*
X006204Y005198D01*
X006241Y005285D01*
X006308Y005353D01*
X006396Y005389D01*
X006491Y005389D01*
X006579Y005353D01*
X006646Y005285D01*
X006682Y005198D01*
X006682Y005102D01*
X006646Y005015D01*
X006579Y004947D01*
X006592Y004961D02*
X009343Y004961D01*
X009328Y004882D02*
X001811Y004882D01*
X001790Y004903D02*
X001703Y004939D01*
X001607Y004939D01*
X001520Y004903D01*
X001452Y004835D01*
X001416Y004748D01*
X001416Y004652D01*
X001452Y004565D01*
X001520Y004497D01*
X001607Y004461D01*
X001703Y004461D01*
X001790Y004497D01*
X001858Y004565D01*
X001894Y004652D01*
X001894Y004748D01*
X001858Y004835D01*
X001790Y004903D01*
X001871Y004804D02*
X003196Y004804D01*
X003146Y004725D02*
X001894Y004725D01*
X001892Y004647D02*
X003129Y004647D01*
X003139Y004568D02*
X001859Y004568D01*
X001772Y004490D02*
X003179Y004490D01*
X003292Y004411D02*
X000718Y004411D01*
X000708Y004435D02*
X000640Y004503D01*
X000553Y004539D01*
X000457Y004539D01*
X000370Y004503D01*
X000345Y004478D01*
X000345Y004622D01*
X000370Y004597D01*
X000457Y004561D01*
X000553Y004561D01*
X000640Y004597D01*
X000708Y004665D01*
X000744Y004752D01*
X000744Y004848D01*
X000708Y004935D01*
X000730Y004882D02*
X001499Y004882D01*
X001439Y004804D02*
X000744Y004804D01*
X000733Y004725D02*
X001416Y004725D01*
X001418Y004647D02*
X000690Y004647D01*
X000570Y004568D02*
X001451Y004568D01*
X001538Y004490D02*
X000654Y004490D01*
X000708Y004435D02*
X000744Y004348D01*
X000744Y004252D01*
X000708Y004165D01*
X000640Y004097D01*
X006516Y004097D01*
X006516Y004098D02*
X006516Y004002D01*
X006552Y003915D01*
X006620Y003847D01*
X006707Y003811D01*
X006803Y003811D01*
X006890Y003847D01*
X006958Y003915D01*
X006994Y004002D01*
X006994Y004098D01*
X006958Y004185D01*
X006890Y004253D01*
X006803Y004289D01*
X006707Y004289D01*
X006620Y004253D01*
X006552Y004185D01*
X006516Y004098D01*
X006516Y004019D02*
X000345Y004019D01*
X000345Y004097D02*
X000370Y004097D01*
X000457Y004061D01*
X000553Y004061D01*
X000640Y004097D01*
X000712Y004176D02*
X006548Y004176D01*
X006623Y004254D02*
X000744Y004254D01*
X000744Y004333D02*
X012292Y004333D01*
X012418Y004333D02*
X012565Y004333D01*
X012565Y004411D02*
X012504Y004411D01*
X012539Y004254D02*
X012565Y004254D01*
X012171Y004254D02*
X006887Y004254D01*
X006962Y004176D02*
X012128Y004176D01*
X012116Y004097D02*
X006994Y004097D01*
X006994Y004019D02*
X012130Y004019D01*
X012177Y003940D02*
X006968Y003940D01*
X006905Y003862D02*
X008178Y003862D01*
X008152Y003835D02*
X008116Y003748D01*
X008116Y003652D01*
X008152Y003565D01*
X008220Y003497D01*
X008307Y003461D01*
X008403Y003461D01*
X008490Y003497D01*
X008505Y003512D01*
X008520Y003497D01*
X008607Y003461D01*
X008703Y003461D01*
X008790Y003497D01*
X008805Y003512D01*
X008820Y003497D01*
X008907Y003461D01*
X009003Y003461D01*
X009090Y003497D01*
X009158Y003565D01*
X009194Y003652D01*
X009194Y003748D01*
X009158Y003835D01*
X009090Y003903D01*
X009003Y003939D01*
X008907Y003939D01*
X008820Y003903D01*
X008805Y003888D01*
X008790Y003903D01*
X008703Y003939D01*
X008607Y003939D01*
X008520Y003903D01*
X008505Y003888D01*
X008490Y003903D01*
X008403Y003939D01*
X008307Y003939D01*
X008220Y003903D01*
X008152Y003835D01*
X008131Y003783D02*
X000345Y003783D01*
X000345Y003705D02*
X008116Y003705D01*
X008127Y003626D02*
X000345Y003626D01*
X000345Y003548D02*
X008169Y003548D01*
X008288Y003469D02*
X000345Y003469D01*
X000345Y003391D02*
X012236Y003391D01*
X012242Y003312D02*
X005631Y003312D01*
X005658Y003285D02*
X005590Y003353D01*
X005503Y003389D01*
X005407Y003389D01*
X005320Y003353D01*
X005252Y003285D01*
X005216Y003198D01*
X005216Y003102D01*
X005252Y003015D01*
X005267Y003000D01*
X005252Y002985D01*
X005216Y002898D01*
X005216Y002802D01*
X005252Y002715D01*
X005267Y002700D01*
X005252Y002685D01*
X005216Y002598D01*
X005216Y002502D01*
X005252Y002415D01*
X005320Y002347D01*
X005407Y002311D01*
X005503Y002311D01*
X005590Y002347D01*
X005658Y002415D01*
X005694Y002502D01*
X005694Y002598D01*
X005658Y002685D01*
X005643Y002700D01*
X005658Y002715D01*
X005694Y002802D01*
X005694Y002898D01*
X005658Y002985D01*
X005643Y003000D01*
X005658Y003015D01*
X005694Y003102D01*
X005694Y003198D01*
X005658Y003285D01*
X005679Y003234D02*
X012152Y003234D01*
X012119Y003155D02*
X005694Y003155D01*
X005683Y003077D02*
X012116Y003077D01*
X012138Y002998D02*
X005645Y002998D01*
X005685Y002920D02*
X012197Y002920D01*
X012513Y002920D02*
X012565Y002920D01*
X012565Y002841D02*
X005694Y002841D01*
X005678Y002763D02*
X012565Y002763D01*
X012565Y002684D02*
X005658Y002684D01*
X005691Y002606D02*
X012565Y002606D01*
X012565Y002527D02*
X005694Y002527D01*
X005672Y002449D02*
X012565Y002449D01*
X012565Y002370D02*
X005613Y002370D01*
X005297Y002370D02*
X004560Y002370D01*
X004558Y002365D02*
X004594Y002452D01*
X004594Y002548D01*
X004558Y002635D01*
X004543Y002650D01*
X004558Y002665D01*
X004594Y002752D01*
X004594Y002848D01*
X004558Y002935D01*
X004543Y002950D01*
X004558Y002965D01*
X004594Y003052D01*
X004594Y003148D01*
X004558Y003235D01*
X004490Y003303D01*
X004403Y003339D01*
X004307Y003339D01*
X004220Y003303D01*
X004152Y003235D01*
X004116Y003148D01*
X004116Y003052D01*
X004152Y002965D01*
X004167Y002950D01*
X004152Y002935D01*
X004116Y002848D01*
X004116Y002752D01*
X004152Y002665D01*
X004167Y002650D01*
X004152Y002635D01*
X004116Y002548D01*
X004116Y002452D01*
X004152Y002365D01*
X004220Y002297D01*
X004307Y002261D01*
X004403Y002261D01*
X004490Y002297D01*
X004558Y002365D01*
X004592Y002449D02*
X005238Y002449D01*
X005216Y002527D02*
X004594Y002527D01*
X004570Y002606D02*
X005219Y002606D01*
X005252Y002684D02*
X004566Y002684D01*
X004594Y002763D02*
X005232Y002763D01*
X005216Y002841D02*
X004594Y002841D01*
X004564Y002920D02*
X005225Y002920D01*
X005265Y002998D02*
X004572Y002998D01*
X004594Y003077D02*
X005227Y003077D01*
X005216Y003155D02*
X004591Y003155D01*
X004558Y003234D02*
X005231Y003234D01*
X005279Y003312D02*
X004468Y003312D01*
X004242Y003312D02*
X000345Y003312D01*
X000345Y003234D02*
X004152Y003234D01*
X004119Y003155D02*
X001635Y003155D01*
X001640Y003153D02*
X001553Y003189D01*
X001457Y003189D01*
X001370Y003153D01*
X001355Y003138D01*
X001340Y003153D01*
X001253Y003189D01*
X001157Y003189D01*
X001070Y003153D01*
X001055Y003138D01*
X001040Y003153D01*
X000953Y003189D01*
X000857Y003189D01*
X000770Y003153D01*
X000702Y003085D01*
X000666Y002998D01*
X000345Y002998D01*
X000345Y002920D02*
X000666Y002920D01*
X000666Y002902D02*
X000702Y002815D01*
X000770Y002747D01*
X000857Y002711D01*
X000953Y002711D01*
X001040Y002747D01*
X001055Y002762D01*
X001070Y002747D01*
X001157Y002711D01*
X001253Y002711D01*
X001340Y002747D01*
X001355Y002762D01*
X001370Y002747D01*
X001457Y002711D01*
X001553Y002711D01*
X001640Y002747D01*
X001708Y002815D01*
X001744Y002902D01*
X001744Y002998D01*
X004138Y002998D01*
X004146Y002920D02*
X001744Y002920D01*
X001744Y002998D02*
X001708Y003085D01*
X001640Y003153D01*
X001711Y003077D02*
X004116Y003077D01*
X004116Y002841D02*
X001719Y002841D01*
X001656Y002763D02*
X004116Y002763D01*
X004144Y002684D02*
X000345Y002684D01*
X000345Y002606D02*
X004140Y002606D01*
X004116Y002527D02*
X000345Y002527D01*
X000345Y002449D02*
X004118Y002449D01*
X004150Y002370D02*
X000345Y002370D01*
X000345Y002292D02*
X004234Y002292D01*
X004476Y002292D02*
X012565Y002292D01*
X012565Y002213D02*
X000345Y002213D01*
X000345Y002135D02*
X012565Y002135D01*
X012565Y002056D02*
X000345Y002056D01*
X000345Y001978D02*
X000837Y001978D01*
X000867Y001990D02*
X000706Y001923D01*
X000582Y001799D01*
X000515Y001638D01*
X000515Y001462D01*
X000582Y001301D01*
X000706Y001177D01*
X000867Y001110D01*
X001043Y001110D01*
X001204Y001177D01*
X001328Y001301D01*
X001395Y001462D01*
X001395Y001638D01*
X001328Y001799D01*
X001204Y001923D01*
X001043Y001990D01*
X000867Y001990D01*
X000682Y001899D02*
X000345Y001899D01*
X000345Y001821D02*
X000603Y001821D01*
X000558Y001742D02*
X000345Y001742D01*
X000345Y001664D02*
X000526Y001664D01*
X000515Y001585D02*
X000345Y001585D01*
X000345Y001507D02*
X000515Y001507D01*
X000529Y001428D02*
X000345Y001428D01*
X000345Y001350D02*
X000562Y001350D01*
X000612Y001271D02*
X000345Y001271D01*
X000345Y001193D02*
X000690Y001193D01*
X000858Y001114D02*
X000345Y001114D01*
X000345Y001036D02*
X012565Y001036D01*
X012565Y001114D02*
X010052Y001114D01*
X010043Y001110D02*
X010204Y001177D01*
X010328Y001301D01*
X010395Y001462D01*
X010395Y001638D01*
X010328Y001799D01*
X010204Y001923D01*
X010043Y001990D01*
X009867Y001990D01*
X009706Y001923D01*
X009582Y001799D01*
X009515Y001638D01*
X009515Y001462D01*
X009582Y001301D01*
X009706Y001177D01*
X009867Y001110D01*
X010043Y001110D01*
X010220Y001193D02*
X012565Y001193D01*
X012565Y001271D02*
X010298Y001271D01*
X010348Y001350D02*
X012565Y001350D01*
X012565Y001428D02*
X010381Y001428D01*
X010395Y001507D02*
X012565Y001507D01*
X012565Y001585D02*
X010395Y001585D01*
X010384Y001664D02*
X012565Y001664D01*
X012565Y001742D02*
X010352Y001742D01*
X010307Y001821D02*
X012565Y001821D01*
X012565Y001899D02*
X010228Y001899D01*
X010073Y001978D02*
X012565Y001978D01*
X012565Y000957D02*
X000345Y000957D01*
X001052Y001114D02*
X001858Y001114D01*
X001867Y001110D02*
X002043Y001110D01*
X002204Y001177D01*
X002328Y001301D01*
X002395Y001462D01*
X002395Y001638D01*
X002328Y001799D01*
X002204Y001923D01*
X002043Y001990D01*
X001867Y001990D01*
X001706Y001923D01*
X001582Y001799D01*
X001515Y001638D01*
X001515Y001462D01*
X001582Y001301D01*
X001706Y001177D01*
X001867Y001110D01*
X002052Y001114D02*
X002858Y001114D01*
X002867Y001110D02*
X002706Y001177D01*
X002582Y001301D01*
X002515Y001462D01*
X002515Y001638D01*
X002582Y001799D01*
X002706Y001923D01*
X002867Y001990D01*
X003043Y001990D01*
X003204Y001923D01*
X003328Y001799D01*
X003395Y001638D01*
X003395Y001462D01*
X003328Y001301D01*
X003204Y001177D01*
X003043Y001110D01*
X002867Y001110D01*
X003052Y001114D02*
X003858Y001114D01*
X003867Y001110D02*
X004043Y001110D01*
X004204Y001177D01*
X004328Y001301D01*
X004395Y001462D01*
X004395Y001638D01*
X004328Y001799D01*
X004204Y001923D01*
X004043Y001990D01*
X003867Y001990D01*
X003706Y001923D01*
X003582Y001799D01*
X003515Y001638D01*
X003515Y001462D01*
X003582Y001301D01*
X003706Y001177D01*
X003867Y001110D01*
X003690Y001193D02*
X003220Y001193D01*
X003298Y001271D02*
X003612Y001271D01*
X003562Y001350D02*
X003348Y001350D01*
X003381Y001428D02*
X003529Y001428D01*
X003515Y001507D02*
X003395Y001507D01*
X003395Y001585D02*
X003515Y001585D01*
X003526Y001664D02*
X003384Y001664D01*
X003352Y001742D02*
X003558Y001742D01*
X003603Y001821D02*
X003307Y001821D01*
X003228Y001899D02*
X003682Y001899D01*
X003837Y001978D02*
X003073Y001978D01*
X002837Y001978D02*
X002073Y001978D01*
X001837Y001978D02*
X001073Y001978D01*
X001228Y001899D02*
X001682Y001899D01*
X001603Y001821D02*
X001307Y001821D01*
X001352Y001742D02*
X001558Y001742D01*
X001526Y001664D02*
X001384Y001664D01*
X001395Y001585D02*
X001515Y001585D01*
X001515Y001507D02*
X001395Y001507D01*
X001381Y001428D02*
X001529Y001428D01*
X001562Y001350D02*
X001348Y001350D01*
X001298Y001271D02*
X001612Y001271D01*
X001690Y001193D02*
X001220Y001193D01*
X002220Y001193D02*
X002690Y001193D01*
X002612Y001271D02*
X002298Y001271D01*
X002348Y001350D02*
X002562Y001350D01*
X002529Y001428D02*
X002381Y001428D01*
X002395Y001507D02*
X002515Y001507D01*
X002515Y001585D02*
X002395Y001585D01*
X002384Y001664D02*
X002526Y001664D01*
X002558Y001742D02*
X002352Y001742D01*
X002307Y001821D02*
X002603Y001821D01*
X002682Y001899D02*
X002228Y001899D01*
X000754Y002763D02*
X000345Y002763D01*
X000345Y002841D02*
X000691Y002841D01*
X000666Y002902D02*
X000666Y002998D01*
X000699Y003077D02*
X000345Y003077D01*
X000345Y003155D02*
X000775Y003155D01*
X001035Y003155D02*
X001075Y003155D01*
X001335Y003155D02*
X001375Y003155D01*
X000345Y003862D02*
X006605Y003862D01*
X006542Y003940D02*
X000345Y003940D01*
X000370Y004097D02*
X000345Y004122D01*
X000345Y004490D02*
X000356Y004490D01*
X000345Y004568D02*
X000440Y004568D01*
X000387Y005510D02*
X000345Y005510D01*
X000345Y005589D02*
X000391Y005589D01*
X000619Y005589D02*
X000741Y005589D01*
X000623Y005510D02*
X003182Y005510D01*
X003140Y005589D02*
X001769Y005589D01*
X001859Y005667D02*
X003129Y005667D01*
X003144Y005746D02*
X001891Y005746D01*
X001894Y005824D02*
X003193Y005824D01*
X003544Y005824D02*
X003704Y005824D01*
X003656Y005746D02*
X003592Y005746D01*
X003607Y005667D02*
X003641Y005667D01*
X003652Y005589D02*
X003597Y005589D01*
X003555Y005510D02*
X003694Y005510D01*
X003949Y005432D02*
X004323Y005432D01*
X004344Y005423D02*
X004440Y005423D01*
X004527Y005459D01*
X004595Y005526D01*
X004631Y005614D01*
X004631Y005709D01*
X004595Y005797D01*
X004527Y005864D01*
X004440Y005901D01*
X004344Y005901D01*
X004257Y005864D01*
X004189Y005797D01*
X004153Y005709D01*
X004153Y005614D01*
X004189Y005526D01*
X004257Y005459D01*
X004344Y005423D01*
X004348Y005389D02*
X004261Y005353D01*
X004019Y005353D01*
X004091Y005275D02*
X004189Y005275D01*
X004193Y005285D02*
X004157Y005198D01*
X004157Y005102D01*
X004193Y005015D01*
X004261Y004947D01*
X004348Y004911D01*
X004443Y004911D01*
X004531Y004947D01*
X004599Y005015D01*
X004635Y005102D01*
X004635Y005198D01*
X004599Y005285D01*
X004531Y005353D01*
X004443Y005389D01*
X004348Y005389D01*
X004261Y005353D02*
X004193Y005285D01*
X004157Y005196D02*
X004123Y005196D01*
X004123Y005118D02*
X004157Y005118D01*
X004183Y005039D02*
X004097Y005039D01*
X004033Y004961D02*
X004247Y004961D01*
X004219Y004804D02*
X004053Y004804D01*
X004103Y004725D02*
X004169Y004725D01*
X004153Y004647D02*
X004119Y004647D01*
X004110Y004568D02*
X004162Y004568D01*
X004203Y004490D02*
X004070Y004490D01*
X004581Y004490D02*
X004714Y004490D01*
X004674Y004568D02*
X004622Y004568D01*
X004631Y004647D02*
X004665Y004647D01*
X004681Y004725D02*
X004615Y004725D01*
X004565Y004804D02*
X004731Y004804D01*
X004772Y004947D02*
X004860Y004911D01*
X004955Y004911D01*
X005043Y004947D01*
X005110Y005015D01*
X005147Y005102D01*
X005147Y005198D01*
X005110Y005285D01*
X005043Y005353D01*
X004955Y005389D01*
X004860Y005389D01*
X004772Y005353D01*
X004705Y005285D01*
X004669Y005198D01*
X004669Y005102D01*
X004705Y005015D01*
X004772Y004947D01*
X004759Y004961D02*
X004545Y004961D01*
X004609Y005039D02*
X004695Y005039D01*
X004669Y005118D02*
X004635Y005118D01*
X004635Y005196D02*
X004669Y005196D01*
X004701Y005275D02*
X004603Y005275D01*
X004531Y005353D02*
X004773Y005353D01*
X004835Y005432D02*
X004461Y005432D01*
X004578Y005510D02*
X004718Y005510D01*
X004701Y005526D02*
X004768Y005459D01*
X004856Y005423D01*
X004951Y005423D01*
X005039Y005459D01*
X005106Y005526D01*
X005143Y005614D01*
X005143Y005709D01*
X005106Y005797D01*
X005039Y005864D01*
X004951Y005901D01*
X004856Y005901D01*
X004768Y005864D01*
X004701Y005797D01*
X004665Y005709D01*
X004665Y005614D01*
X004701Y005526D01*
X004675Y005589D02*
X004620Y005589D01*
X004631Y005667D02*
X004665Y005667D01*
X004680Y005746D02*
X004616Y005746D01*
X004568Y005824D02*
X004728Y005824D01*
X005080Y005824D02*
X005240Y005824D01*
X005213Y005797D02*
X005280Y005864D01*
X005368Y005901D01*
X005463Y005901D01*
X005551Y005864D01*
X005618Y005797D01*
X005655Y005709D01*
X005655Y005614D01*
X005618Y005526D01*
X005551Y005459D01*
X005463Y005423D01*
X005368Y005423D01*
X005280Y005459D01*
X005213Y005526D01*
X005177Y005614D01*
X005177Y005709D01*
X005213Y005797D01*
X005192Y005746D02*
X005128Y005746D01*
X005143Y005667D02*
X005177Y005667D01*
X005187Y005589D02*
X005132Y005589D01*
X005090Y005510D02*
X005229Y005510D01*
X005347Y005432D02*
X004973Y005432D01*
X005042Y005353D02*
X005285Y005353D01*
X005284Y005353D02*
X005217Y005285D01*
X005181Y005198D01*
X005181Y005102D01*
X005217Y005015D01*
X005284Y004947D01*
X005372Y004911D01*
X005467Y004911D01*
X005555Y004947D01*
X005622Y005015D01*
X005659Y005102D01*
X005659Y005198D01*
X005622Y005285D01*
X005555Y005353D01*
X005467Y005389D01*
X005372Y005389D01*
X005284Y005353D01*
X005212Y005275D02*
X005115Y005275D01*
X005147Y005196D02*
X005181Y005196D01*
X005181Y005118D02*
X005147Y005118D01*
X005121Y005039D02*
X005207Y005039D01*
X005271Y004961D02*
X005056Y004961D01*
X005077Y004804D02*
X005243Y004804D01*
X005193Y004725D02*
X005127Y004725D01*
X005143Y004647D02*
X005177Y004647D01*
X005186Y004568D02*
X005134Y004568D01*
X005093Y004490D02*
X005226Y004490D01*
X005605Y004490D02*
X005738Y004490D01*
X005698Y004568D02*
X005645Y004568D01*
X005655Y004647D02*
X005688Y004647D01*
X005705Y004725D02*
X005638Y004725D01*
X005588Y004804D02*
X005755Y004804D01*
X005796Y004947D02*
X005884Y004911D01*
X005979Y004911D01*
X006067Y004947D01*
X006134Y005015D01*
X006170Y005102D01*
X006170Y005198D01*
X006134Y005285D01*
X006067Y005353D01*
X005979Y005389D01*
X005884Y005389D01*
X005796Y005353D01*
X005729Y005285D01*
X005692Y005198D01*
X005692Y005102D01*
X005729Y005015D01*
X005796Y004947D01*
X005783Y004961D02*
X005568Y004961D01*
X005632Y005039D02*
X005719Y005039D01*
X005692Y005118D02*
X005659Y005118D01*
X005659Y005196D02*
X005692Y005196D01*
X005724Y005275D02*
X005627Y005275D01*
X005554Y005353D02*
X005797Y005353D01*
X005859Y005432D02*
X005484Y005432D01*
X005602Y005510D02*
X005741Y005510D01*
X005725Y005526D02*
X005688Y005614D01*
X005688Y005709D01*
X005725Y005797D01*
X005792Y005864D01*
X005880Y005901D01*
X005975Y005901D01*
X006063Y005864D01*
X006130Y005797D01*
X006166Y005709D01*
X006166Y005614D01*
X006130Y005526D01*
X006063Y005459D01*
X005975Y005423D01*
X005880Y005423D01*
X005792Y005459D01*
X005725Y005526D01*
X005699Y005589D02*
X005644Y005589D01*
X005655Y005667D02*
X005688Y005667D01*
X005703Y005746D02*
X005640Y005746D01*
X005591Y005824D02*
X005752Y005824D01*
X006103Y005824D02*
X006263Y005824D01*
X006237Y005797D02*
X006304Y005864D01*
X006392Y005901D01*
X006487Y005901D01*
X006575Y005864D01*
X006642Y005797D01*
X006678Y005709D01*
X006678Y005614D01*
X006642Y005526D01*
X006575Y005459D01*
X006487Y005423D01*
X006392Y005423D01*
X006304Y005459D01*
X006237Y005526D01*
X006200Y005614D01*
X006200Y005709D01*
X006237Y005797D01*
X006215Y005746D02*
X006152Y005746D01*
X006166Y005667D02*
X006200Y005667D01*
X006211Y005589D02*
X006156Y005589D01*
X006114Y005510D02*
X006253Y005510D01*
X006371Y005432D02*
X005996Y005432D01*
X006066Y005353D02*
X006309Y005353D01*
X006236Y005275D02*
X006139Y005275D01*
X006170Y005196D02*
X006204Y005196D01*
X006204Y005118D02*
X006170Y005118D01*
X006144Y005039D02*
X006230Y005039D01*
X006295Y004961D02*
X006080Y004961D01*
X006100Y004804D02*
X006267Y004804D01*
X006216Y004725D02*
X006150Y004725D01*
X006166Y004647D02*
X006200Y004647D01*
X006210Y004568D02*
X006157Y004568D01*
X006117Y004490D02*
X006250Y004490D01*
X006656Y005039D02*
X012122Y005039D01*
X012116Y005118D02*
X006682Y005118D01*
X006682Y005196D02*
X012136Y005196D01*
X012191Y005275D02*
X009268Y005275D01*
X009240Y005247D02*
X009308Y005315D01*
X009344Y005402D01*
X009344Y005498D01*
X009308Y005585D01*
X009240Y005653D01*
X009153Y005689D01*
X009057Y005689D01*
X008970Y005653D01*
X008902Y005585D01*
X008866Y005498D01*
X008866Y005402D01*
X008902Y005315D01*
X008970Y005247D01*
X009057Y005211D01*
X009153Y005211D01*
X009240Y005247D01*
X009324Y005353D02*
X012565Y005353D01*
X012565Y005275D02*
X012519Y005275D01*
X012525Y005432D02*
X012565Y005432D01*
X012185Y005432D02*
X009344Y005432D01*
X009339Y005510D02*
X012134Y005510D01*
X012116Y005589D02*
X009305Y005589D01*
X009343Y005667D02*
X009206Y005667D01*
X009270Y005697D02*
X009202Y005765D01*
X009166Y005852D01*
X009166Y005948D01*
X009202Y006035D01*
X009270Y006103D01*
X009357Y006139D01*
X009453Y006139D01*
X009540Y006103D01*
X009608Y006035D01*
X009644Y005948D01*
X009644Y005852D01*
X009608Y005765D01*
X009540Y005697D01*
X009453Y005661D01*
X009357Y005661D01*
X009270Y005697D01*
X009221Y005746D02*
X008036Y005746D01*
X008040Y005747D02*
X008108Y005815D01*
X008144Y005902D01*
X008144Y005998D01*
X008108Y006085D01*
X008040Y006153D01*
X007953Y006189D01*
X007857Y006189D01*
X007770Y006153D01*
X007702Y006085D01*
X007666Y005998D01*
X007666Y005902D01*
X007702Y005815D01*
X007770Y005747D01*
X007857Y005711D01*
X007953Y005711D01*
X008040Y005747D01*
X008112Y005824D02*
X009178Y005824D01*
X009166Y005903D02*
X008144Y005903D01*
X008144Y005981D02*
X009180Y005981D01*
X009226Y006060D02*
X008118Y006060D01*
X008055Y006138D02*
X009355Y006138D01*
X009455Y006138D02*
X012116Y006138D01*
X012116Y006060D02*
X009584Y006060D01*
X009630Y005981D02*
X012146Y005981D01*
X012214Y005903D02*
X009644Y005903D01*
X009632Y005824D02*
X012271Y005824D01*
X012162Y005746D02*
X009589Y005746D01*
X009467Y005667D02*
X012124Y005667D01*
X012439Y005824D02*
X012565Y005824D01*
X012565Y005746D02*
X012548Y005746D01*
X012565Y005903D02*
X012496Y005903D01*
X012564Y005981D02*
X012565Y005981D01*
X012145Y006217D02*
X000729Y006217D01*
X000744Y006295D02*
X012212Y006295D01*
X012277Y006374D02*
X003067Y006374D01*
X003040Y006347D02*
X003108Y006415D01*
X003144Y006502D01*
X003144Y006534D01*
X003230Y006620D01*
X003847Y006620D01*
X003870Y006597D01*
X003957Y006561D01*
X004053Y006561D01*
X004140Y006597D01*
X004208Y006665D01*
X004244Y006752D01*
X004244Y006756D01*
X004279Y006722D01*
X004302Y006665D01*
X004370Y006597D01*
X004457Y006561D01*
X004553Y006561D01*
X004640Y006597D01*
X004708Y006665D01*
X004744Y006752D01*
X004744Y006848D01*
X004708Y006935D01*
X004640Y007003D01*
X004553Y007039D01*
X004471Y007039D01*
X004385Y007125D01*
X004280Y007230D01*
X004257Y007230D01*
X004328Y007301D01*
X004395Y007462D01*
X004395Y007638D01*
X004328Y007799D01*
X004204Y007923D01*
X004043Y007990D01*
X003867Y007990D01*
X003706Y007923D01*
X003582Y007799D01*
X003515Y007638D01*
X003515Y007462D01*
X003582Y007301D01*
X003653Y007230D01*
X003257Y007230D01*
X003328Y007301D01*
X003395Y007462D01*
X003395Y007638D01*
X003328Y007799D01*
X003204Y007923D01*
X003043Y007990D01*
X002867Y007990D01*
X002706Y007923D01*
X002582Y007799D01*
X002515Y007638D01*
X002515Y007462D01*
X002582Y007301D01*
X002706Y007177D01*
X002775Y007148D01*
X002775Y007025D01*
X002880Y006920D01*
X002930Y006870D01*
X002970Y006870D01*
X002889Y006789D01*
X002857Y006789D01*
X002770Y006753D01*
X002702Y006685D01*
X002666Y006598D01*
X002666Y006502D01*
X002702Y006415D01*
X002770Y006347D01*
X002857Y006311D01*
X002953Y006311D01*
X003040Y006347D01*
X003123Y006452D02*
X012165Y006452D01*
X012125Y006531D02*
X003144Y006531D01*
X003219Y006609D02*
X003858Y006609D01*
X004005Y006800D02*
X003155Y006800D01*
X002905Y006550D01*
X002687Y006452D02*
X000691Y006452D01*
X000733Y006374D02*
X002743Y006374D01*
X002666Y006531D02*
X000573Y006531D01*
X000652Y006609D02*
X002671Y006609D01*
X002704Y006688D02*
X000717Y006688D01*
X000744Y006766D02*
X002802Y006766D01*
X002945Y006845D02*
X000744Y006845D01*
X000713Y006923D02*
X002877Y006923D01*
X002799Y007002D02*
X000642Y007002D01*
X000706Y007177D02*
X000867Y007110D01*
X001043Y007110D01*
X001204Y007177D01*
X001328Y007301D01*
X001395Y007462D01*
X001395Y007638D01*
X001328Y007799D01*
X001204Y007923D01*
X001043Y007990D01*
X000867Y007990D01*
X000706Y007923D01*
X000582Y007799D01*
X000515Y007638D01*
X000515Y007462D01*
X000582Y007301D01*
X000706Y007177D01*
X000750Y007159D02*
X000345Y007159D01*
X000345Y007237D02*
X000646Y007237D01*
X000576Y007316D02*
X000345Y007316D01*
X000345Y007394D02*
X000543Y007394D01*
X000515Y007473D02*
X000345Y007473D01*
X000345Y007551D02*
X000515Y007551D01*
X000515Y007630D02*
X000345Y007630D01*
X000345Y007708D02*
X000544Y007708D01*
X000577Y007787D02*
X000345Y007787D01*
X000345Y007865D02*
X000648Y007865D01*
X000755Y007944D02*
X000345Y007944D01*
X000345Y008022D02*
X012565Y008022D01*
X012565Y007944D02*
X012155Y007944D01*
X012204Y007923D02*
X012043Y007990D01*
X011867Y007990D01*
X011706Y007923D01*
X011582Y007799D01*
X011515Y007638D01*
X011515Y007462D01*
X011582Y007301D01*
X011706Y007177D01*
X011867Y007110D01*
X012043Y007110D01*
X012204Y007177D01*
X012328Y007301D01*
X012395Y007462D01*
X012395Y007638D01*
X012328Y007799D01*
X012204Y007923D01*
X012262Y007865D02*
X012565Y007865D01*
X012565Y007787D02*
X012333Y007787D01*
X012366Y007708D02*
X012565Y007708D01*
X012565Y007630D02*
X012395Y007630D01*
X012395Y007551D02*
X012565Y007551D01*
X012565Y007473D02*
X012395Y007473D01*
X012367Y007394D02*
X012565Y007394D01*
X012565Y007316D02*
X012334Y007316D01*
X012264Y007237D02*
X012565Y007237D01*
X012565Y007159D02*
X012160Y007159D01*
X011750Y007159D02*
X011160Y007159D01*
X011204Y007177D02*
X011328Y007301D01*
X011395Y007462D01*
X011395Y007638D01*
X011328Y007799D01*
X011204Y007923D01*
X011043Y007990D01*
X010867Y007990D01*
X010706Y007923D01*
X010582Y007799D01*
X010515Y007638D01*
X010515Y007462D01*
X010582Y007301D01*
X010706Y007177D01*
X010867Y007110D01*
X011043Y007110D01*
X011204Y007177D01*
X011264Y007237D02*
X011646Y007237D01*
X011576Y007316D02*
X011334Y007316D01*
X011367Y007394D02*
X011543Y007394D01*
X011515Y007473D02*
X011395Y007473D01*
X011395Y007551D02*
X011515Y007551D01*
X011515Y007630D02*
X011395Y007630D01*
X011366Y007708D02*
X011544Y007708D01*
X011577Y007787D02*
X011333Y007787D01*
X011262Y007865D02*
X011648Y007865D01*
X011755Y007944D02*
X011155Y007944D01*
X010755Y007944D02*
X010155Y007944D01*
X010204Y007923D02*
X010043Y007990D01*
X009867Y007990D01*
X009706Y007923D01*
X009582Y007799D01*
X009515Y007638D01*
X009515Y007462D01*
X009582Y007301D01*
X009706Y007177D01*
X009775Y007148D01*
X009775Y007030D01*
X006013Y007030D01*
X005990Y007053D01*
X005903Y007089D01*
X005807Y007089D01*
X005781Y007078D01*
X005758Y007135D01*
X005723Y007170D01*
X005867Y007110D01*
X006043Y007110D01*
X006204Y007177D01*
X006328Y007301D01*
X006395Y007462D01*
X006395Y007638D01*
X006328Y007799D01*
X006204Y007923D01*
X006043Y007990D01*
X005867Y007990D01*
X005706Y007923D01*
X005582Y007799D01*
X005515Y007638D01*
X005515Y007462D01*
X005582Y007301D01*
X005673Y007210D01*
X005603Y007239D01*
X005507Y007239D01*
X005420Y007203D01*
X005352Y007135D01*
X005316Y007048D01*
X005316Y006952D01*
X005352Y006865D01*
X005420Y006797D01*
X005507Y006761D01*
X005603Y006761D01*
X005629Y006772D01*
X005652Y006715D01*
X005720Y006647D01*
X005807Y006611D01*
X005903Y006611D01*
X005990Y006647D01*
X006013Y006670D01*
X009930Y006670D01*
X010030Y006770D01*
X010135Y006875D01*
X010135Y007148D01*
X010204Y007177D01*
X010328Y007301D01*
X010395Y007462D01*
X010395Y007638D01*
X010328Y007799D01*
X010204Y007923D01*
X010262Y007865D02*
X010648Y007865D01*
X010577Y007787D02*
X010333Y007787D01*
X010366Y007708D02*
X010544Y007708D01*
X010515Y007630D02*
X010395Y007630D01*
X010395Y007551D02*
X010515Y007551D01*
X010515Y007473D02*
X010395Y007473D01*
X010367Y007394D02*
X010543Y007394D01*
X010576Y007316D02*
X010334Y007316D01*
X010264Y007237D02*
X010646Y007237D01*
X010750Y007159D02*
X010160Y007159D01*
X010135Y007080D02*
X012565Y007080D01*
X012565Y007002D02*
X010135Y007002D01*
X010135Y006923D02*
X012565Y006923D01*
X012565Y006845D02*
X010104Y006845D01*
X010026Y006766D02*
X012183Y006766D01*
X012133Y006688D02*
X009947Y006688D01*
X009855Y006850D02*
X009955Y006950D01*
X009955Y007550D01*
X009515Y007551D02*
X009395Y007551D01*
X009395Y007473D02*
X009515Y007473D01*
X009543Y007394D02*
X009367Y007394D01*
X009395Y007462D02*
X009328Y007301D01*
X009204Y007177D01*
X009043Y007110D01*
X008867Y007110D01*
X008706Y007177D01*
X008582Y007301D01*
X008515Y007462D01*
X008515Y007638D01*
X008582Y007799D01*
X008706Y007923D01*
X008867Y007990D01*
X009043Y007990D01*
X009204Y007923D01*
X009328Y007799D01*
X009395Y007638D01*
X009395Y007462D01*
X009334Y007316D02*
X009576Y007316D01*
X009646Y007237D02*
X009264Y007237D01*
X009160Y007159D02*
X009750Y007159D01*
X009775Y007080D02*
X005924Y007080D01*
X005786Y007080D02*
X005781Y007080D01*
X005750Y007159D02*
X005735Y007159D01*
X005646Y007237D02*
X005607Y007237D01*
X005576Y007316D02*
X005334Y007316D01*
X005328Y007301D02*
X005395Y007462D01*
X005395Y007638D01*
X005328Y007799D01*
X005204Y007923D01*
X005043Y007990D01*
X004867Y007990D01*
X004706Y007923D01*
X004582Y007799D01*
X004515Y007638D01*
X004515Y007462D01*
X004582Y007301D01*
X004706Y007177D01*
X004867Y007110D01*
X005043Y007110D01*
X005204Y007177D01*
X005328Y007301D01*
X005264Y007237D02*
X005503Y007237D01*
X005375Y007159D02*
X005160Y007159D01*
X005329Y007080D02*
X004430Y007080D01*
X004351Y007159D02*
X004750Y007159D01*
X004646Y007237D02*
X004264Y007237D01*
X004334Y007316D02*
X004576Y007316D01*
X004543Y007394D02*
X004367Y007394D01*
X004395Y007473D02*
X004515Y007473D01*
X004515Y007551D02*
X004395Y007551D01*
X004395Y007630D02*
X004515Y007630D01*
X004544Y007708D02*
X004366Y007708D01*
X004333Y007787D02*
X004577Y007787D01*
X004648Y007865D02*
X004262Y007865D01*
X004155Y007944D02*
X004755Y007944D01*
X005155Y007944D02*
X005755Y007944D01*
X005648Y007865D02*
X005262Y007865D01*
X005333Y007787D02*
X005577Y007787D01*
X005544Y007708D02*
X005366Y007708D01*
X005395Y007630D02*
X005515Y007630D01*
X005515Y007551D02*
X005395Y007551D01*
X005395Y007473D02*
X005515Y007473D01*
X005543Y007394D02*
X005367Y007394D01*
X005316Y007002D02*
X004642Y007002D01*
X004713Y006923D02*
X005328Y006923D01*
X005372Y006845D02*
X004744Y006845D01*
X004744Y006766D02*
X005495Y006766D01*
X005615Y006766D02*
X005631Y006766D01*
X005679Y006688D02*
X004717Y006688D01*
X004652Y006609D02*
X012116Y006609D01*
X012433Y006374D02*
X012565Y006374D01*
X012565Y006452D02*
X012545Y006452D01*
X012565Y006295D02*
X012498Y006295D01*
X012527Y006766D02*
X012565Y006766D01*
X012565Y008101D02*
X000345Y008101D01*
X001155Y007944D02*
X001755Y007944D01*
X001706Y007923D02*
X001582Y007799D01*
X001515Y007638D01*
X001515Y007462D01*
X001582Y007301D01*
X001706Y007177D01*
X001867Y007110D01*
X002043Y007110D01*
X002204Y007177D01*
X002328Y007301D01*
X002395Y007462D01*
X002395Y007638D01*
X002328Y007799D01*
X002204Y007923D01*
X002043Y007990D01*
X001867Y007990D01*
X001706Y007923D01*
X001648Y007865D02*
X001262Y007865D01*
X001333Y007787D02*
X001577Y007787D01*
X001544Y007708D02*
X001366Y007708D01*
X001395Y007630D02*
X001515Y007630D01*
X001515Y007551D02*
X001395Y007551D01*
X001395Y007473D02*
X001515Y007473D01*
X001543Y007394D02*
X001367Y007394D01*
X001334Y007316D02*
X001576Y007316D01*
X001646Y007237D02*
X001264Y007237D01*
X001160Y007159D02*
X001750Y007159D01*
X002160Y007159D02*
X002750Y007159D01*
X002775Y007080D02*
X000345Y007080D01*
X000345Y007002D02*
X000368Y007002D01*
X000345Y006609D02*
X000358Y006609D01*
X000345Y006531D02*
X000437Y006531D01*
X000681Y006138D02*
X007755Y006138D01*
X007692Y006060D02*
X000345Y006060D01*
X000345Y005981D02*
X000348Y005981D01*
X000662Y005981D02*
X000698Y005981D01*
X001012Y005981D02*
X001098Y005981D01*
X001412Y005981D02*
X001498Y005981D01*
X001812Y005981D02*
X007666Y005981D01*
X007666Y005903D02*
X001871Y005903D01*
X001541Y005589D02*
X001369Y005589D01*
X001141Y005589D02*
X000969Y005589D01*
X002955Y007100D02*
X003005Y007050D01*
X004205Y007050D01*
X004455Y006800D01*
X004505Y006800D01*
X004293Y006688D02*
X004217Y006688D01*
X004152Y006609D02*
X004358Y006609D01*
X003646Y007237D02*
X003264Y007237D01*
X003334Y007316D02*
X003576Y007316D01*
X003543Y007394D02*
X003367Y007394D01*
X003395Y007473D02*
X003515Y007473D01*
X003515Y007551D02*
X003395Y007551D01*
X003395Y007630D02*
X003515Y007630D01*
X003544Y007708D02*
X003366Y007708D01*
X003333Y007787D02*
X003577Y007787D01*
X003648Y007865D02*
X003262Y007865D01*
X003155Y007944D02*
X003755Y007944D01*
X002955Y007550D02*
X002955Y007100D01*
X002646Y007237D02*
X002264Y007237D01*
X002334Y007316D02*
X002576Y007316D01*
X002543Y007394D02*
X002367Y007394D01*
X002395Y007473D02*
X002515Y007473D01*
X002515Y007551D02*
X002395Y007551D01*
X002395Y007630D02*
X002515Y007630D01*
X002544Y007708D02*
X002366Y007708D01*
X002333Y007787D02*
X002577Y007787D01*
X002648Y007865D02*
X002262Y007865D01*
X002155Y007944D02*
X002755Y007944D01*
X005855Y006850D02*
X009855Y006850D01*
X008750Y007159D02*
X008160Y007159D01*
X008204Y007177D02*
X008328Y007301D01*
X008395Y007462D01*
X008395Y007638D01*
X008328Y007799D01*
X008204Y007923D01*
X008043Y007990D01*
X007867Y007990D01*
X007706Y007923D01*
X007582Y007799D01*
X007515Y007638D01*
X007515Y007462D01*
X007582Y007301D01*
X007706Y007177D01*
X007867Y007110D01*
X008043Y007110D01*
X008204Y007177D01*
X008264Y007237D02*
X008646Y007237D01*
X008576Y007316D02*
X008334Y007316D01*
X008367Y007394D02*
X008543Y007394D01*
X008515Y007473D02*
X008395Y007473D01*
X008395Y007551D02*
X008515Y007551D01*
X008515Y007630D02*
X008395Y007630D01*
X008366Y007708D02*
X008544Y007708D01*
X008577Y007787D02*
X008333Y007787D01*
X008262Y007865D02*
X008648Y007865D01*
X008755Y007944D02*
X008155Y007944D01*
X007755Y007944D02*
X007155Y007944D01*
X007204Y007923D02*
X007043Y007990D01*
X006867Y007990D01*
X006706Y007923D01*
X006582Y007799D01*
X006515Y007638D01*
X006515Y007462D01*
X006582Y007301D01*
X006706Y007177D01*
X006867Y007110D01*
X007043Y007110D01*
X007204Y007177D01*
X007328Y007301D01*
X007395Y007462D01*
X007395Y007638D01*
X007328Y007799D01*
X007204Y007923D01*
X007262Y007865D02*
X007648Y007865D01*
X007577Y007787D02*
X007333Y007787D01*
X007366Y007708D02*
X007544Y007708D01*
X007515Y007630D02*
X007395Y007630D01*
X007395Y007551D02*
X007515Y007551D01*
X007515Y007473D02*
X007395Y007473D01*
X007367Y007394D02*
X007543Y007394D01*
X007576Y007316D02*
X007334Y007316D01*
X007264Y007237D02*
X007646Y007237D01*
X007750Y007159D02*
X007160Y007159D01*
X006750Y007159D02*
X006160Y007159D01*
X006264Y007237D02*
X006646Y007237D01*
X006576Y007316D02*
X006334Y007316D01*
X006367Y007394D02*
X006543Y007394D01*
X006515Y007473D02*
X006395Y007473D01*
X006395Y007551D02*
X006515Y007551D01*
X006515Y007630D02*
X006395Y007630D01*
X006366Y007708D02*
X006544Y007708D01*
X006577Y007787D02*
X006333Y007787D01*
X006262Y007865D02*
X006648Y007865D01*
X006755Y007944D02*
X006155Y007944D01*
X009155Y007944D02*
X009755Y007944D01*
X009648Y007865D02*
X009262Y007865D01*
X009333Y007787D02*
X009577Y007787D01*
X009544Y007708D02*
X009366Y007708D01*
X009395Y007630D02*
X009515Y007630D01*
X007698Y005824D02*
X006615Y005824D01*
X006663Y005746D02*
X007774Y005746D01*
X008102Y005585D02*
X008066Y005498D01*
X008066Y005402D01*
X008102Y005315D01*
X008170Y005247D01*
X008257Y005211D01*
X008353Y005211D01*
X008440Y005247D01*
X008508Y005315D01*
X008544Y005402D01*
X008544Y005498D01*
X008508Y005585D01*
X008440Y005653D01*
X008353Y005689D01*
X008257Y005689D01*
X008170Y005653D01*
X008102Y005585D01*
X008105Y005589D02*
X006668Y005589D01*
X006678Y005667D02*
X008204Y005667D01*
X008406Y005667D02*
X009004Y005667D01*
X008905Y005589D02*
X008505Y005589D01*
X008539Y005510D02*
X008871Y005510D01*
X008866Y005432D02*
X008544Y005432D01*
X008524Y005353D02*
X008886Y005353D01*
X008942Y005275D02*
X008468Y005275D01*
X008142Y005275D02*
X006650Y005275D01*
X006578Y005353D02*
X008086Y005353D01*
X008066Y005432D02*
X006508Y005432D01*
X006626Y005510D02*
X008071Y005510D01*
X009316Y004870D02*
X009316Y004870D01*
X009496Y004795D02*
X009496Y004715D01*
X009536Y004675D01*
X009496Y004795D02*
X009536Y004835D01*
X009576Y004835D01*
X009736Y004675D01*
X009736Y004835D01*
X009895Y004961D02*
X012156Y004961D01*
X012257Y004882D02*
X009916Y004882D01*
X009916Y004804D02*
X012222Y004804D01*
X012148Y004725D02*
X009916Y004725D01*
X009916Y004647D02*
X012116Y004647D01*
X012116Y004568D02*
X009895Y004568D01*
X009462Y005015D02*
X009462Y005015D01*
X009132Y003862D02*
X012306Y003862D01*
X012404Y003862D02*
X012565Y003862D01*
X012565Y003940D02*
X012533Y003940D01*
X012510Y003783D02*
X012565Y003783D01*
X012559Y003469D02*
X012565Y003469D01*
X012565Y003391D02*
X012474Y003391D01*
X012468Y003312D02*
X012565Y003312D01*
X012558Y003234D02*
X012565Y003234D01*
X012151Y003469D02*
X009022Y003469D01*
X008888Y003469D02*
X008722Y003469D01*
X008588Y003469D02*
X008422Y003469D01*
X009141Y003548D02*
X012118Y003548D01*
X012116Y003626D02*
X009183Y003626D01*
X009194Y003705D02*
X012140Y003705D01*
X012200Y003783D02*
X009179Y003783D01*
X009043Y001990D02*
X008867Y001990D01*
X008706Y001923D01*
X008582Y001799D01*
X008515Y001638D01*
X008515Y001462D01*
X008582Y001301D01*
X008706Y001177D01*
X008867Y001110D01*
X009043Y001110D01*
X009204Y001177D01*
X009328Y001301D01*
X009395Y001462D01*
X009395Y001638D01*
X009328Y001799D01*
X009204Y001923D01*
X009043Y001990D01*
X009073Y001978D02*
X009837Y001978D01*
X009682Y001899D02*
X009228Y001899D01*
X009307Y001821D02*
X009603Y001821D01*
X009558Y001742D02*
X009352Y001742D01*
X009384Y001664D02*
X009526Y001664D01*
X009515Y001585D02*
X009395Y001585D01*
X009395Y001507D02*
X009515Y001507D01*
X009529Y001428D02*
X009381Y001428D01*
X009348Y001350D02*
X009562Y001350D01*
X009612Y001271D02*
X009298Y001271D01*
X009220Y001193D02*
X009690Y001193D01*
X009858Y001114D02*
X009052Y001114D01*
X008858Y001114D02*
X008052Y001114D01*
X008043Y001110D02*
X008204Y001177D01*
X008328Y001301D01*
X008395Y001462D01*
X008395Y001638D01*
X008328Y001799D01*
X008204Y001923D01*
X008043Y001990D01*
X007867Y001990D01*
X007706Y001923D01*
X007582Y001799D01*
X007515Y001638D01*
X007515Y001462D01*
X007582Y001301D01*
X007706Y001177D01*
X007867Y001110D01*
X008043Y001110D01*
X007858Y001114D02*
X007052Y001114D01*
X007043Y001110D02*
X007204Y001177D01*
X007328Y001301D01*
X007395Y001462D01*
X007395Y001638D01*
X007328Y001799D01*
X007204Y001923D01*
X007043Y001990D01*
X006867Y001990D01*
X006706Y001923D01*
X006582Y001799D01*
X006515Y001638D01*
X006515Y001462D01*
X006582Y001301D01*
X006706Y001177D01*
X006867Y001110D01*
X007043Y001110D01*
X007220Y001193D02*
X007690Y001193D01*
X007612Y001271D02*
X007298Y001271D01*
X007348Y001350D02*
X007562Y001350D01*
X007529Y001428D02*
X007381Y001428D01*
X007395Y001507D02*
X007515Y001507D01*
X007515Y001585D02*
X007395Y001585D01*
X007384Y001664D02*
X007526Y001664D01*
X007558Y001742D02*
X007352Y001742D01*
X007307Y001821D02*
X007603Y001821D01*
X007682Y001899D02*
X007228Y001899D01*
X007073Y001978D02*
X007837Y001978D01*
X008073Y001978D02*
X008837Y001978D01*
X008682Y001899D02*
X008228Y001899D01*
X008307Y001821D02*
X008603Y001821D01*
X008558Y001742D02*
X008352Y001742D01*
X008384Y001664D02*
X008526Y001664D01*
X008515Y001585D02*
X008395Y001585D01*
X008395Y001507D02*
X008515Y001507D01*
X008529Y001428D02*
X008381Y001428D01*
X008348Y001350D02*
X008562Y001350D01*
X008612Y001271D02*
X008298Y001271D01*
X008220Y001193D02*
X008690Y001193D01*
X006858Y001114D02*
X006052Y001114D01*
X006043Y001110D02*
X006204Y001177D01*
X006328Y001301D01*
X006395Y001462D01*
X006395Y001638D01*
X006328Y001799D01*
X006204Y001923D01*
X006043Y001990D01*
X005867Y001990D01*
X005706Y001923D01*
X005582Y001799D01*
X005515Y001638D01*
X005515Y001462D01*
X005582Y001301D01*
X005706Y001177D01*
X005867Y001110D01*
X006043Y001110D01*
X006220Y001193D02*
X006690Y001193D01*
X006612Y001271D02*
X006298Y001271D01*
X006348Y001350D02*
X006562Y001350D01*
X006529Y001428D02*
X006381Y001428D01*
X006395Y001507D02*
X006515Y001507D01*
X006515Y001585D02*
X006395Y001585D01*
X006384Y001664D02*
X006526Y001664D01*
X006558Y001742D02*
X006352Y001742D01*
X006307Y001821D02*
X006603Y001821D01*
X006682Y001899D02*
X006228Y001899D01*
X006073Y001978D02*
X006837Y001978D01*
X005837Y001978D02*
X005073Y001978D01*
X005043Y001990D02*
X004867Y001990D01*
X004706Y001923D01*
X004582Y001799D01*
X004515Y001638D01*
X004515Y001462D01*
X004582Y001301D01*
X004706Y001177D01*
X004867Y001110D01*
X005043Y001110D01*
X005204Y001177D01*
X005328Y001301D01*
X005395Y001462D01*
X005395Y001638D01*
X005328Y001799D01*
X005204Y001923D01*
X005043Y001990D01*
X004837Y001978D02*
X004073Y001978D01*
X004228Y001899D02*
X004682Y001899D01*
X004603Y001821D02*
X004307Y001821D01*
X004352Y001742D02*
X004558Y001742D01*
X004526Y001664D02*
X004384Y001664D01*
X004395Y001585D02*
X004515Y001585D01*
X004515Y001507D02*
X004395Y001507D01*
X004381Y001428D02*
X004529Y001428D01*
X004562Y001350D02*
X004348Y001350D01*
X004298Y001271D02*
X004612Y001271D01*
X004690Y001193D02*
X004220Y001193D01*
X004052Y001114D02*
X004858Y001114D01*
X005052Y001114D02*
X005858Y001114D01*
X005690Y001193D02*
X005220Y001193D01*
X005298Y001271D02*
X005612Y001271D01*
X005562Y001350D02*
X005348Y001350D01*
X005381Y001428D02*
X005529Y001428D01*
X005515Y001507D02*
X005395Y001507D01*
X005395Y001585D02*
X005515Y001585D01*
X005526Y001664D02*
X005384Y001664D01*
X005352Y001742D02*
X005558Y001742D01*
X005603Y001821D02*
X005307Y001821D01*
X005228Y001899D02*
X005682Y001899D01*
X004206Y005510D02*
X004066Y005510D01*
X004109Y005589D02*
X004164Y005589D01*
X004153Y005667D02*
X004119Y005667D01*
X004104Y005746D02*
X004168Y005746D01*
X004216Y005824D02*
X004056Y005824D01*
X012453Y004882D02*
X012565Y004882D01*
X012565Y004804D02*
X012488Y004804D01*
X012562Y004725D02*
X012565Y004725D01*
X012554Y004961D02*
X012565Y004961D01*
D12*
X012355Y005100D03*
X012355Y004600D03*
X012355Y004100D03*
X012355Y003600D03*
X012355Y003100D03*
X008955Y003700D03*
X008655Y003700D03*
X008355Y003700D03*
X007855Y003100D03*
X007455Y003100D03*
X007055Y003100D03*
X006755Y004050D03*
X006439Y004638D03*
X005927Y004638D03*
X005416Y004638D03*
X004904Y004638D03*
X004392Y004638D03*
X003880Y004638D03*
X003368Y004638D03*
X003372Y005150D03*
X003884Y005150D03*
X004396Y005150D03*
X004908Y005150D03*
X005420Y005150D03*
X005931Y005150D03*
X006443Y005150D03*
X006439Y005662D03*
X005927Y005662D03*
X005416Y005662D03*
X004904Y005662D03*
X004392Y005662D03*
X003880Y005662D03*
X003368Y005662D03*
X002905Y006550D03*
X004005Y006800D03*
X004505Y006800D03*
X005555Y007000D03*
X005855Y006850D03*
X007905Y005950D03*
X008305Y005450D03*
X009105Y005450D03*
X009405Y005900D03*
X012355Y006100D03*
X012355Y005600D03*
X012355Y006600D03*
X005455Y003150D03*
X005455Y002850D03*
X005455Y002550D03*
X004355Y002500D03*
X004355Y002800D03*
X004355Y003100D03*
X003355Y003150D03*
X003055Y003150D03*
X003055Y002850D03*
X003355Y002850D03*
X003355Y002550D03*
X003055Y002550D03*
X001505Y002950D03*
X001205Y002950D03*
X000905Y002950D03*
X000505Y004300D03*
X000505Y004800D03*
X000505Y005300D03*
X000505Y005800D03*
X000855Y005800D03*
X001255Y005800D03*
X001655Y005800D03*
X000505Y006300D03*
X000505Y006800D03*
X001655Y004700D03*
M02*
