G75*
G70*
%OFA0B0*%
%FSLAX24Y24*%
%IPPOS*%
%LPD*%
%AMOC8*
5,1,8,0,0,1.08239X$1,22.5*
%
%ADD10C,0.0240*%
%ADD11C,0.0820*%
%ADD12R,0.0198X0.0710*%
%ADD13R,0.2047X0.1181*%
%ADD14R,0.0474X0.0513*%
%ADD15R,0.1143X0.0789*%
%ADD16R,0.0631X0.1261*%
D10*
X003905Y003050D02*
X004255Y003400D01*
X004255Y003800D01*
X004005Y003800D02*
X004005Y003550D01*
X003605Y003150D01*
X004405Y003150D02*
X004505Y003250D01*
X004505Y003800D01*
X004755Y003800D02*
X004755Y003050D01*
X004705Y003050D01*
X005005Y003150D02*
X005105Y003050D01*
X005005Y003150D02*
X005005Y003800D01*
X005255Y003800D02*
X005255Y003350D01*
X005405Y003200D01*
X005555Y003550D02*
X005855Y003250D01*
X006105Y003400D02*
X005955Y003550D01*
X006105Y003550D01*
X006205Y003450D01*
X005955Y003550D02*
X005805Y003700D01*
X005805Y003800D01*
X005555Y003800D02*
X005555Y003550D01*
D11*
X000955Y001550D03*
X001955Y001550D03*
X002955Y001550D03*
X003955Y001550D03*
X004955Y001550D03*
X005955Y001550D03*
X006955Y001550D03*
X007955Y001550D03*
X008955Y001550D03*
X009955Y001550D03*
X010955Y001550D03*
X011955Y001550D03*
X011955Y007550D03*
X010955Y007550D03*
X009955Y007550D03*
X008955Y007550D03*
X007955Y007550D03*
X006955Y007550D03*
X005955Y007550D03*
X004955Y007550D03*
X003955Y007550D03*
X002955Y007550D03*
X001955Y007550D03*
X000955Y007550D03*
D12*
X003242Y006252D03*
X003498Y006252D03*
X003753Y006252D03*
X004009Y006252D03*
X004265Y006252D03*
X004521Y006252D03*
X004777Y006252D03*
X005033Y006252D03*
X005289Y006252D03*
X005545Y006252D03*
X005801Y006252D03*
X006057Y006252D03*
X006312Y006252D03*
X006568Y006252D03*
X006568Y004048D03*
X006312Y004048D03*
X006057Y004048D03*
X005801Y004048D03*
X005545Y004048D03*
X005289Y004048D03*
X005033Y004048D03*
X004777Y004048D03*
X004521Y004048D03*
X004265Y004048D03*
X004009Y004048D03*
X003753Y004048D03*
X003498Y004048D03*
X003242Y004048D03*
D13*
X004905Y005150D03*
D14*
X007355Y005335D03*
X007355Y004665D03*
X002405Y004665D03*
X002405Y005335D03*
X002455Y003385D03*
X002455Y002715D03*
D15*
X001205Y003534D03*
X001205Y005266D03*
X008655Y006016D03*
X008655Y004284D03*
D16*
X011205Y003355D03*
X011205Y005245D03*
M02*
