G75*
G70*
%OFA0B0*%
%FSLAX24Y24*%
%IPPOS*%
%LPD*%
%AMOC8*
5,1,8,0,0,1.08239X$1,22.5*
%
%ADD10C,0.0060*%
%ADD11C,0.0100*%
%ADD12C,0.0080*%
%ADD13C,0.0050*%
%ADD14C,0.0040*%
D10*
X001078Y002330D02*
X001165Y002330D01*
X001208Y002373D01*
X001208Y002460D01*
X001122Y002460D01*
X001208Y002547D02*
X001165Y002590D01*
X001078Y002590D01*
X001035Y002547D01*
X001035Y002373D01*
X001078Y002330D01*
X001330Y002330D02*
X001330Y002590D01*
X001503Y002330D01*
X001503Y002590D01*
X001624Y002590D02*
X001754Y002590D01*
X001798Y002547D01*
X001798Y002373D01*
X001754Y002330D01*
X001624Y002330D01*
X001624Y002590D01*
X002835Y002503D02*
X002835Y002330D01*
X002835Y002460D02*
X003008Y002460D01*
X003008Y002503D02*
X003008Y002330D01*
X003130Y002373D02*
X003173Y002330D01*
X003260Y002330D01*
X003303Y002373D01*
X003303Y002547D01*
X003260Y002590D01*
X003173Y002590D01*
X003130Y002547D01*
X003130Y002373D01*
X003008Y002503D02*
X002922Y002590D01*
X002835Y002503D01*
X003424Y002590D02*
X003424Y002373D01*
X003468Y002330D01*
X003554Y002330D01*
X003598Y002373D01*
X003598Y002590D01*
X003719Y002590D02*
X003892Y002590D01*
X003806Y002590D02*
X003806Y002330D01*
X004014Y002330D02*
X004187Y002330D01*
X004100Y002330D02*
X004100Y002590D01*
X004014Y002503D01*
X004785Y002503D02*
X004785Y002330D01*
X004785Y002460D02*
X004958Y002460D01*
X004958Y002503D02*
X004958Y002330D01*
X005080Y002373D02*
X005123Y002330D01*
X005210Y002330D01*
X005253Y002373D01*
X005253Y002547D01*
X005210Y002590D01*
X005123Y002590D01*
X005080Y002547D01*
X005080Y002373D01*
X004958Y002503D02*
X004872Y002590D01*
X004785Y002503D01*
X005374Y002590D02*
X005374Y002373D01*
X005418Y002330D01*
X005504Y002330D01*
X005548Y002373D01*
X005548Y002590D01*
X005669Y002590D02*
X005842Y002590D01*
X005756Y002590D02*
X005756Y002330D01*
X005964Y002330D02*
X006137Y002503D01*
X006137Y002547D01*
X006094Y002590D01*
X006007Y002590D01*
X005964Y002547D01*
X005964Y002330D02*
X006137Y002330D01*
X006785Y002330D02*
X006915Y002330D01*
X006958Y002373D01*
X006958Y002417D01*
X006915Y002460D01*
X006785Y002460D01*
X006785Y002330D02*
X006785Y002590D01*
X006915Y002590D01*
X006958Y002547D01*
X006958Y002503D01*
X006915Y002460D01*
X007080Y002373D02*
X007123Y002330D01*
X007210Y002330D01*
X007253Y002373D01*
X007253Y002547D01*
X007210Y002590D01*
X007123Y002590D01*
X007080Y002547D01*
X007080Y002373D01*
X007374Y002373D02*
X007374Y002590D01*
X007548Y002590D02*
X007548Y002373D01*
X007504Y002330D01*
X007418Y002330D01*
X007374Y002373D01*
X007669Y002590D02*
X007842Y002590D01*
X007756Y002590D02*
X007756Y002330D01*
X007964Y002330D02*
X008137Y002503D01*
X008137Y002547D01*
X008094Y002590D01*
X008007Y002590D01*
X007964Y002547D01*
X007964Y002330D02*
X008137Y002330D01*
X008835Y002330D02*
X008965Y002330D01*
X009008Y002373D01*
X009008Y002417D01*
X008965Y002460D01*
X008835Y002460D01*
X008835Y002330D02*
X008835Y002590D01*
X008965Y002590D01*
X009008Y002547D01*
X009008Y002503D01*
X008965Y002460D01*
X009130Y002373D02*
X009173Y002330D01*
X009260Y002330D01*
X009303Y002373D01*
X009303Y002547D01*
X009260Y002590D01*
X009173Y002590D01*
X009130Y002547D01*
X009130Y002373D01*
X009424Y002373D02*
X009424Y002590D01*
X009598Y002590D02*
X009598Y002373D01*
X009554Y002330D01*
X009468Y002330D01*
X009424Y002373D01*
X009719Y002590D02*
X009892Y002590D01*
X009806Y002590D02*
X009806Y002330D01*
X010014Y002330D02*
X010187Y002330D01*
X010100Y002330D02*
X010100Y002590D01*
X010014Y002503D01*
X011085Y002417D02*
X011172Y002330D01*
X011258Y002417D01*
X011258Y002590D01*
X011380Y002547D02*
X011380Y002373D01*
X011423Y002330D01*
X011510Y002330D01*
X011553Y002373D01*
X011674Y002373D02*
X011718Y002330D01*
X011804Y002330D01*
X011848Y002373D01*
X011674Y002373D02*
X011674Y002547D01*
X011718Y002590D01*
X011804Y002590D01*
X011848Y002547D01*
X011553Y002547D02*
X011510Y002590D01*
X011423Y002590D01*
X011380Y002547D01*
X011085Y002590D02*
X011085Y002417D01*
X009809Y003716D02*
X009809Y003977D01*
X009679Y003846D01*
X009853Y003846D01*
X009558Y003760D02*
X009515Y003716D01*
X009428Y003716D01*
X009385Y003760D01*
X009385Y003933D01*
X009428Y003977D01*
X009515Y003977D01*
X009558Y003933D01*
X009481Y004163D02*
X009757Y004163D01*
X009756Y004163D02*
X009774Y004162D01*
X009791Y004166D01*
X009807Y004172D01*
X009822Y004182D01*
X009834Y004194D01*
X009844Y004208D01*
X009851Y004224D01*
X009854Y004241D01*
X009855Y004241D02*
X009855Y004556D01*
X009383Y004556D01*
X009383Y004871D01*
X009386Y004888D01*
X009393Y004904D01*
X009403Y004918D01*
X009415Y004930D01*
X009430Y004940D01*
X009446Y004946D01*
X009463Y004950D01*
X009481Y004949D01*
X009481Y004950D02*
X009757Y004950D01*
X009756Y004949D02*
X009774Y004950D01*
X009791Y004946D01*
X009807Y004940D01*
X009822Y004930D01*
X009834Y004918D01*
X009844Y004904D01*
X009851Y004888D01*
X009854Y004871D01*
X009855Y004871D02*
X009855Y004556D01*
X009383Y004556D02*
X009383Y004241D01*
X009386Y004224D01*
X009393Y004208D01*
X009403Y004194D01*
X009415Y004182D01*
X009430Y004172D01*
X009446Y004166D01*
X009463Y004162D01*
X009481Y004163D01*
X008870Y003520D02*
X008784Y003520D01*
X008740Y003477D01*
X008619Y003477D02*
X008619Y003390D01*
X008576Y003347D01*
X008446Y003347D01*
X008532Y003347D02*
X008619Y003260D01*
X008740Y003260D02*
X008914Y003433D01*
X008914Y003477D01*
X008870Y003520D01*
X008619Y003477D02*
X008576Y003520D01*
X008446Y003520D01*
X008446Y003260D01*
X008740Y003260D02*
X008914Y003260D01*
X007603Y004030D02*
X007430Y004030D01*
X007603Y004203D01*
X007603Y004247D01*
X007560Y004290D01*
X007473Y004290D01*
X007430Y004247D01*
X007308Y004247D02*
X007265Y004290D01*
X007178Y004290D01*
X007135Y004247D01*
X007135Y004073D01*
X007178Y004030D01*
X007265Y004030D01*
X007308Y004073D01*
X009412Y006010D02*
X009412Y006270D01*
X009585Y006270D01*
X009706Y006183D02*
X009793Y006270D01*
X009880Y006183D01*
X009880Y006010D01*
X010001Y006053D02*
X010044Y006010D01*
X010131Y006010D01*
X010175Y006053D01*
X010175Y006270D01*
X010296Y006270D02*
X010296Y006010D01*
X010469Y006010D01*
X010677Y006010D02*
X010677Y006270D01*
X010590Y006270D02*
X010764Y006270D01*
X010855Y006390D02*
X009382Y006390D01*
X009412Y006140D02*
X009498Y006140D01*
X009706Y006140D02*
X009880Y006140D01*
X010001Y006053D02*
X010001Y006270D01*
X009706Y006183D02*
X009706Y006010D01*
X009770Y006660D02*
X009640Y006660D01*
X009640Y006920D01*
X009770Y006920D01*
X009814Y006877D01*
X009814Y006833D01*
X009770Y006790D01*
X009640Y006790D01*
X009770Y006790D02*
X009814Y006747D01*
X009814Y006703D01*
X009770Y006660D01*
X009519Y006660D02*
X009519Y006920D01*
X009346Y006920D02*
X009519Y006660D01*
X009346Y006660D02*
X009346Y006920D01*
X009225Y006920D02*
X009051Y006920D01*
X009051Y006660D01*
X009225Y006660D01*
X009138Y006790D02*
X009051Y006790D01*
X008930Y006747D02*
X008930Y006703D01*
X008887Y006660D01*
X008800Y006660D01*
X008756Y006703D01*
X008800Y006790D02*
X008887Y006790D01*
X008930Y006747D01*
X008800Y006790D02*
X008756Y006833D01*
X008756Y006877D01*
X008800Y006920D01*
X008887Y006920D01*
X008930Y006877D01*
X008647Y006920D02*
X008560Y006920D01*
X008603Y006920D02*
X008603Y006660D01*
X008560Y006660D02*
X008647Y006660D01*
X008264Y006660D02*
X008264Y006833D01*
X008177Y006920D01*
X008090Y006833D01*
X008090Y006660D01*
X007969Y006660D02*
X007969Y006920D01*
X008090Y006790D02*
X008264Y006790D01*
X007969Y006660D02*
X007796Y006920D01*
X007796Y006660D01*
X007675Y006660D02*
X007501Y006660D01*
X007501Y006920D01*
X007675Y006920D01*
X007588Y006790D02*
X007501Y006790D01*
X007380Y006747D02*
X007380Y006703D01*
X007337Y006660D01*
X007250Y006660D01*
X007206Y006703D01*
X007250Y006790D02*
X007337Y006790D01*
X007380Y006747D01*
X007250Y006790D02*
X007206Y006833D01*
X007206Y006877D01*
X007250Y006920D01*
X007337Y006920D01*
X007380Y006877D01*
X007097Y006920D02*
X007010Y006920D01*
X007053Y006920D02*
X007053Y006660D01*
X007010Y006660D02*
X007097Y006660D01*
X007180Y006420D02*
X007006Y006420D01*
X007006Y006160D01*
X007180Y006160D01*
X007301Y006203D02*
X007344Y006160D01*
X007431Y006160D01*
X007475Y006203D01*
X007596Y006160D02*
X007596Y006333D01*
X007682Y006420D01*
X007769Y006333D01*
X007769Y006160D01*
X007769Y006290D02*
X007596Y006290D01*
X007475Y006377D02*
X007431Y006420D01*
X007344Y006420D01*
X007301Y006377D01*
X007301Y006203D01*
X007093Y006290D02*
X007006Y006290D01*
X006885Y006203D02*
X006885Y006377D01*
X006842Y006420D01*
X006712Y006420D01*
X006712Y006160D01*
X006842Y006160D01*
X006885Y006203D01*
X006464Y006660D02*
X006290Y006660D01*
X006464Y006833D01*
X006464Y006877D01*
X006420Y006920D01*
X006334Y006920D01*
X006290Y006877D01*
X006169Y006920D02*
X006169Y006660D01*
X005996Y006920D01*
X005996Y006660D01*
X005886Y006660D02*
X005799Y006660D01*
X005843Y006660D02*
X005843Y006920D01*
X005886Y006920D02*
X005799Y006920D01*
X005678Y006833D02*
X005678Y006660D01*
X005505Y006660D02*
X005505Y006833D01*
X005591Y006920D01*
X005678Y006833D01*
X005678Y006790D02*
X005505Y006790D01*
X005264Y006660D02*
X005090Y006660D01*
X005177Y006660D02*
X005177Y006920D01*
X005090Y006833D01*
X004969Y006920D02*
X004969Y006660D01*
X004796Y006920D01*
X004796Y006660D01*
X004686Y006660D02*
X004599Y006660D01*
X004643Y006660D02*
X004643Y006920D01*
X004686Y006920D02*
X004599Y006920D01*
X004478Y006833D02*
X004478Y006660D01*
X004305Y006660D02*
X004305Y006833D01*
X004391Y006920D01*
X004478Y006833D01*
X004478Y006790D02*
X004305Y006790D01*
X004064Y006660D02*
X003890Y006660D01*
X003977Y006660D02*
X003977Y006920D01*
X003890Y006833D01*
X003769Y006920D02*
X003769Y006660D01*
X003596Y006920D01*
X003596Y006660D01*
X003486Y006660D02*
X003399Y006660D01*
X003443Y006660D02*
X003443Y006920D01*
X003486Y006920D02*
X003399Y006920D01*
X003278Y006877D02*
X003278Y006833D01*
X003235Y006790D01*
X003105Y006790D01*
X003235Y006790D02*
X003278Y006747D01*
X003278Y006703D01*
X003235Y006660D01*
X003105Y006660D01*
X003105Y006920D01*
X003235Y006920D01*
X003278Y006877D01*
X002870Y006420D02*
X002784Y006420D01*
X002740Y006377D01*
X002619Y006420D02*
X002619Y006160D01*
X002446Y006420D01*
X002446Y006160D01*
X002336Y006160D02*
X002249Y006160D01*
X002293Y006160D02*
X002293Y006420D01*
X002336Y006420D02*
X002249Y006420D01*
X002128Y006377D02*
X002128Y006333D01*
X002085Y006290D01*
X002128Y006247D01*
X002128Y006203D01*
X002085Y006160D01*
X001955Y006160D01*
X001955Y006420D01*
X002085Y006420D01*
X002128Y006377D01*
X002085Y006290D02*
X001955Y006290D01*
X001978Y005990D02*
X001935Y005947D01*
X001935Y005773D01*
X001978Y005730D01*
X002065Y005730D01*
X002108Y005773D01*
X002230Y005730D02*
X002403Y005730D01*
X002316Y005730D02*
X002316Y005990D01*
X002230Y005903D01*
X002108Y005947D02*
X002065Y005990D01*
X001978Y005990D01*
X001453Y005930D02*
X001280Y005930D01*
X001366Y005930D02*
X001366Y006190D01*
X001280Y006103D01*
X001158Y006060D02*
X001115Y006017D01*
X000985Y006017D01*
X001072Y006017D02*
X001158Y005930D01*
X001158Y006060D02*
X001158Y006147D01*
X001115Y006190D01*
X000985Y006190D01*
X000985Y005930D01*
X000990Y006660D02*
X001164Y006660D01*
X001077Y006660D02*
X001077Y006920D01*
X000990Y006833D01*
X000881Y006920D02*
X000794Y006920D01*
X000837Y006920D02*
X000837Y006660D01*
X000794Y006660D02*
X000881Y006660D01*
X001744Y006660D02*
X001831Y006660D01*
X001787Y006660D02*
X001787Y006920D01*
X001744Y006920D02*
X001831Y006920D01*
X001940Y006877D02*
X001984Y006920D01*
X002070Y006920D01*
X002114Y006877D01*
X001940Y006703D01*
X001984Y006660D01*
X002070Y006660D01*
X002114Y006703D01*
X002114Y006877D01*
X001940Y006877D02*
X001940Y006703D01*
X002740Y006160D02*
X002914Y006333D01*
X002914Y006377D01*
X002870Y006420D01*
X002914Y006160D02*
X002740Y006160D01*
X002696Y004295D02*
X002696Y004035D01*
X002782Y004035D02*
X002609Y004035D01*
X002488Y004079D02*
X002488Y004295D01*
X002609Y004209D02*
X002696Y004295D01*
X002488Y004079D02*
X002444Y004035D01*
X002358Y004035D01*
X002314Y004079D01*
X002314Y004295D01*
X002878Y003590D02*
X002835Y003547D01*
X002835Y003373D01*
X002878Y003330D01*
X002965Y003330D01*
X003008Y003373D01*
X003130Y003373D02*
X003173Y003330D01*
X003260Y003330D01*
X003303Y003373D01*
X003303Y003417D01*
X003260Y003460D01*
X003216Y003460D01*
X003260Y003460D02*
X003303Y003503D01*
X003303Y003547D01*
X003260Y003590D01*
X003173Y003590D01*
X003130Y003547D01*
X003008Y003547D02*
X002965Y003590D01*
X002878Y003590D01*
X007890Y006377D02*
X007977Y006290D01*
X007977Y006160D01*
X007977Y006290D02*
X008064Y006377D01*
X008064Y006420D01*
X007890Y006420D02*
X007890Y006377D01*
X010362Y006653D02*
X010405Y006610D01*
X010492Y006610D01*
X010535Y006653D01*
X010535Y006697D01*
X010492Y006740D01*
X010405Y006740D01*
X010362Y006783D01*
X010362Y006827D01*
X010405Y006870D01*
X010492Y006870D01*
X010535Y006827D01*
X010656Y006870D02*
X010656Y006610D01*
X010830Y006610D01*
X010951Y006610D02*
X011125Y006610D01*
X011246Y006610D02*
X011419Y006610D01*
X011540Y006610D02*
X011540Y006870D01*
X011670Y006870D01*
X011714Y006827D01*
X011714Y006740D01*
X011670Y006697D01*
X011540Y006697D01*
X011419Y006870D02*
X011246Y006870D01*
X011246Y006610D01*
X011246Y006740D02*
X011332Y006740D01*
X011125Y006870D02*
X010951Y006870D01*
X010951Y006610D01*
X010951Y006740D02*
X011038Y006740D01*
X011132Y006390D02*
X012605Y006390D01*
X012514Y006270D02*
X012340Y006270D01*
X012427Y006270D02*
X012427Y006010D01*
X012219Y006010D02*
X012046Y006010D01*
X012046Y006270D01*
X012219Y006270D01*
X012132Y006140D02*
X012046Y006140D01*
X011925Y006097D02*
X011925Y006053D01*
X011881Y006010D01*
X011794Y006010D01*
X011751Y006053D01*
X011794Y006140D02*
X011881Y006140D01*
X011925Y006097D01*
X011925Y006227D02*
X011881Y006270D01*
X011794Y006270D01*
X011751Y006227D01*
X011751Y006183D01*
X011794Y006140D01*
X011630Y006010D02*
X011456Y006010D01*
X011456Y006270D01*
X011630Y006270D01*
X011543Y006140D02*
X011456Y006140D01*
X011335Y006140D02*
X011335Y006227D01*
X011292Y006270D01*
X011162Y006270D01*
X011162Y006010D01*
X011162Y006097D02*
X011292Y006097D01*
X011335Y006140D01*
X011248Y006097D02*
X011335Y006010D01*
X011805Y006990D02*
X010332Y006990D01*
D11*
X010105Y007000D02*
X010105Y006450D01*
X012155Y006450D02*
X012155Y007000D01*
X006855Y007000D02*
X006855Y006550D01*
X002855Y006600D02*
X002855Y007000D01*
X002655Y002200D02*
X004255Y002200D01*
X004355Y002100D01*
X004555Y002100D02*
X004655Y002200D01*
X006255Y002200D01*
X006355Y002100D01*
X006555Y002100D02*
X006655Y002200D01*
X008255Y002200D01*
X008355Y002100D01*
X008555Y002100D02*
X008655Y002200D01*
X010255Y002200D01*
X010355Y002100D01*
X010555Y002100D02*
X010655Y002200D01*
X012255Y002200D01*
X012355Y002100D01*
X002655Y002200D02*
X002555Y002100D01*
X002405Y002100D02*
X002305Y002200D01*
X000605Y002200D01*
X000505Y002100D01*
D12*
X000255Y001350D02*
X000255Y000850D01*
X000755Y000850D01*
X000755Y000900D01*
X000355Y001350D01*
X000255Y001350D01*
X000355Y001350D01*
X000425Y001271D02*
X000255Y001271D01*
X000255Y001193D02*
X000495Y001193D01*
X000565Y001114D02*
X000255Y001114D01*
X000255Y001036D02*
X000635Y001036D01*
X000705Y001050D02*
X001205Y001050D01*
X001455Y001300D01*
X001705Y001050D01*
X002205Y001050D01*
X002455Y001300D01*
X002705Y001050D01*
X003205Y001050D01*
X003455Y001300D01*
X003705Y001050D01*
X004205Y001050D01*
X004455Y001300D01*
X004705Y001050D01*
X005205Y001050D01*
X005455Y001300D01*
X005705Y001050D01*
X006205Y001050D01*
X006455Y001300D01*
X006705Y001050D01*
X007205Y001050D01*
X007455Y001300D01*
X007705Y001050D01*
X008205Y001050D01*
X008455Y001300D01*
X008705Y001050D01*
X009205Y001050D01*
X009455Y001300D01*
X009705Y001050D01*
X010205Y001050D01*
X010455Y001300D01*
X010705Y001050D01*
X011205Y001050D01*
X011455Y001300D01*
X011705Y001050D01*
X012205Y001050D01*
X012455Y001300D01*
X012455Y001800D01*
X012205Y002050D01*
X011705Y002050D01*
X011455Y001800D01*
X011205Y002050D01*
X010705Y002050D01*
X010455Y001800D01*
X010205Y002050D01*
X009705Y002050D01*
X009455Y001800D01*
X009205Y002050D01*
X008705Y002050D01*
X008455Y001800D01*
X008205Y002050D01*
X007705Y002050D01*
X007455Y001800D01*
X007205Y002050D01*
X006705Y002050D01*
X006455Y001800D01*
X006205Y002050D01*
X005705Y002050D01*
X005455Y001800D01*
X005205Y002050D01*
X004705Y002050D01*
X004455Y001800D01*
X004205Y002050D01*
X003705Y002050D01*
X003455Y001800D01*
X003205Y002050D01*
X002705Y002050D01*
X002455Y001800D01*
X002205Y002050D01*
X001705Y002050D01*
X001455Y001800D01*
X001205Y002050D01*
X000705Y002050D01*
X000455Y001800D01*
X000455Y001300D01*
X000705Y001050D01*
X000704Y000957D02*
X000255Y000957D01*
X000255Y000879D02*
X000755Y000879D01*
X000705Y007050D02*
X001205Y007050D01*
X001455Y007300D01*
X001705Y007050D01*
X002205Y007050D01*
X002455Y007300D01*
X002705Y007050D01*
X003205Y007050D01*
X003455Y007300D01*
X003705Y007050D01*
X004205Y007050D01*
X004455Y007300D01*
X004705Y007050D01*
X005205Y007050D01*
X005455Y007300D01*
X005705Y007050D01*
X006205Y007050D01*
X006455Y007300D01*
X006705Y007050D01*
X007205Y007050D01*
X007455Y007300D01*
X007705Y007050D01*
X008205Y007050D01*
X008455Y007300D01*
X008705Y007050D01*
X009205Y007050D01*
X009455Y007300D01*
X009705Y007050D01*
X010205Y007050D01*
X010455Y007300D01*
X010705Y007050D01*
X011205Y007050D01*
X011455Y007300D01*
X011705Y007050D01*
X012205Y007050D01*
X012455Y007300D01*
X012455Y007800D01*
X012205Y008050D01*
X011705Y008050D01*
X011455Y007800D01*
X011205Y008050D01*
X010705Y008050D01*
X010455Y007800D01*
X010205Y008050D01*
X009705Y008050D01*
X009455Y007800D01*
X009205Y008050D01*
X008705Y008050D01*
X008455Y007800D01*
X008205Y008050D01*
X007705Y008050D01*
X007455Y007800D01*
X007205Y008050D01*
X006705Y008050D01*
X006455Y007800D01*
X006205Y008050D01*
X005705Y008050D01*
X005455Y007800D01*
X005205Y008050D01*
X004705Y008050D01*
X004455Y007800D01*
X004205Y008050D01*
X003705Y008050D01*
X003455Y007800D01*
X003205Y008050D01*
X002705Y008050D01*
X002455Y007800D01*
X002205Y008050D01*
X001705Y008050D01*
X001455Y007800D01*
X001205Y008050D01*
X000705Y008050D01*
X000455Y007800D01*
X000455Y007300D01*
X000705Y007050D01*
D13*
X002976Y006056D02*
X002976Y004244D01*
X003094Y004244D01*
X002857Y004048D02*
X002859Y004066D01*
X002865Y004082D01*
X002874Y004097D01*
X002887Y004110D01*
X002902Y004119D01*
X002918Y004125D01*
X002936Y004127D01*
X002954Y004125D01*
X002970Y004119D01*
X002985Y004110D01*
X002998Y004097D01*
X003007Y004082D01*
X003013Y004066D01*
X003015Y004048D01*
X003013Y004030D01*
X003007Y004014D01*
X002998Y003999D01*
X002985Y003986D01*
X002970Y003977D01*
X002954Y003971D01*
X002936Y003969D01*
X002918Y003971D01*
X002902Y003977D01*
X002887Y003986D01*
X002874Y003999D01*
X002865Y004014D01*
X002859Y004030D01*
X002857Y004048D01*
X002976Y006056D02*
X003094Y006056D01*
X006716Y006056D02*
X006834Y006056D01*
X006834Y004244D01*
X006716Y004244D01*
D14*
X009925Y003690D02*
X009925Y005580D01*
X010831Y005580D01*
X011579Y005580D02*
X012485Y005580D01*
X012485Y003690D01*
X011815Y003020D01*
X011579Y003020D01*
X010831Y003020D02*
X010595Y003020D01*
X009925Y003690D01*
X011579Y003139D02*
X011643Y003161D01*
X011706Y003188D01*
X011768Y003218D01*
X011827Y003251D01*
X011885Y003287D01*
X011941Y003327D01*
X011994Y003370D01*
X012045Y003415D01*
X012093Y003463D01*
X012138Y003514D01*
X012181Y003568D01*
X012220Y003624D01*
X012257Y003681D01*
X012290Y003741D01*
X012319Y003803D01*
X012345Y003866D01*
X012368Y003930D01*
X012387Y003996D01*
X012402Y004063D01*
X012413Y004130D01*
X012421Y004198D01*
X012425Y004266D01*
X012425Y004334D01*
X012421Y004402D01*
X012413Y004470D01*
X012402Y004537D01*
X012387Y004604D01*
X012368Y004670D01*
X012345Y004734D01*
X012319Y004797D01*
X012290Y004859D01*
X012257Y004919D01*
X012220Y004976D01*
X012181Y005032D01*
X012138Y005086D01*
X012093Y005137D01*
X012045Y005185D01*
X011994Y005230D01*
X011941Y005273D01*
X011885Y005313D01*
X011827Y005349D01*
X011768Y005382D01*
X011706Y005412D01*
X011643Y005439D01*
X011579Y005461D01*
X010831Y005461D02*
X010767Y005439D01*
X010704Y005412D01*
X010642Y005382D01*
X010583Y005349D01*
X010525Y005313D01*
X010469Y005273D01*
X010416Y005230D01*
X010365Y005185D01*
X010317Y005137D01*
X010272Y005086D01*
X010229Y005032D01*
X010190Y004976D01*
X010153Y004919D01*
X010120Y004859D01*
X010091Y004797D01*
X010065Y004734D01*
X010042Y004670D01*
X010023Y004604D01*
X010008Y004537D01*
X009997Y004470D01*
X009989Y004402D01*
X009985Y004334D01*
X009985Y004266D01*
X009989Y004198D01*
X009997Y004130D01*
X010008Y004063D01*
X010023Y003996D01*
X010042Y003930D01*
X010065Y003866D01*
X010091Y003803D01*
X010120Y003741D01*
X010153Y003681D01*
X010190Y003624D01*
X010229Y003568D01*
X010272Y003514D01*
X010317Y003463D01*
X010365Y003415D01*
X010416Y003370D01*
X010469Y003327D01*
X010525Y003287D01*
X010583Y003251D01*
X010642Y003218D01*
X010704Y003188D01*
X010767Y003161D01*
X010831Y003139D01*
M02*
