G75*
G70*
%OFA0B0*%
%FSLAX24Y24*%
%IPPOS*%
%LPD*%
%AMOC8*
5,1,8,0,0,1.08239X$1,22.5*
%
%ADD10C,0.0600*%
%ADD11C,0.0080*%
%ADD12C,0.0198*%
%ADD13C,0.0160*%
%ADD14C,0.0240*%
D10*
X000955Y001550D03*
X001955Y001550D03*
X002955Y001550D03*
X003955Y001550D03*
X004955Y001550D03*
X005955Y001550D03*
X006955Y001550D03*
X007955Y001550D03*
X008955Y001550D03*
X009955Y001550D03*
X010955Y001550D03*
X011955Y001550D03*
X011955Y007550D03*
X010955Y007550D03*
X009955Y007550D03*
X008955Y007550D03*
X007955Y007550D03*
X006955Y007550D03*
X005955Y007550D03*
X004955Y007550D03*
X003955Y007550D03*
X002955Y007550D03*
X001955Y007550D03*
X000955Y007550D03*
D11*
X000345Y008160D02*
X000345Y000940D01*
X012565Y000940D01*
X012565Y008160D01*
X000345Y008160D01*
X000345Y008101D02*
X012565Y008101D01*
X012565Y008022D02*
X000345Y008022D01*
X000345Y007944D02*
X000755Y007944D01*
X000706Y007923D02*
X000582Y007799D01*
X000515Y007638D01*
X000515Y007462D01*
X000582Y007301D01*
X000706Y007177D01*
X000867Y007110D01*
X001043Y007110D01*
X001204Y007177D01*
X001328Y007301D01*
X001395Y007462D01*
X001395Y007638D01*
X001328Y007799D01*
X001204Y007923D01*
X001043Y007990D01*
X000867Y007990D01*
X000706Y007923D01*
X000648Y007865D02*
X000345Y007865D01*
X000345Y007787D02*
X000577Y007787D01*
X000544Y007708D02*
X000345Y007708D01*
X000345Y007630D02*
X000515Y007630D01*
X000515Y007551D02*
X000345Y007551D01*
X000345Y007473D02*
X000515Y007473D01*
X000543Y007394D02*
X000345Y007394D01*
X000345Y007316D02*
X000576Y007316D01*
X000646Y007237D02*
X000345Y007237D01*
X000345Y007159D02*
X000750Y007159D01*
X001160Y007159D02*
X001750Y007159D01*
X001706Y007177D02*
X001867Y007110D01*
X002043Y007110D01*
X002204Y007177D01*
X002328Y007301D01*
X002395Y007462D01*
X002395Y007638D01*
X002328Y007799D01*
X002204Y007923D01*
X002043Y007990D01*
X001867Y007990D01*
X001706Y007923D01*
X001582Y007799D01*
X001515Y007638D01*
X001515Y007462D01*
X001582Y007301D01*
X001706Y007177D01*
X001646Y007237D02*
X001264Y007237D01*
X001334Y007316D02*
X001576Y007316D01*
X001543Y007394D02*
X001367Y007394D01*
X001395Y007473D02*
X001515Y007473D01*
X001515Y007551D02*
X001395Y007551D01*
X001395Y007630D02*
X001515Y007630D01*
X001544Y007708D02*
X001366Y007708D01*
X001333Y007787D02*
X001577Y007787D01*
X001648Y007865D02*
X001262Y007865D01*
X001155Y007944D02*
X001755Y007944D01*
X002155Y007944D02*
X002755Y007944D01*
X002706Y007923D02*
X002582Y007799D01*
X002515Y007638D01*
X002515Y007462D01*
X002582Y007301D01*
X002706Y007177D01*
X002867Y007110D01*
X003043Y007110D01*
X003204Y007177D01*
X003328Y007301D01*
X003395Y007462D01*
X003395Y007638D01*
X003328Y007799D01*
X003204Y007923D01*
X003043Y007990D01*
X002867Y007990D01*
X002706Y007923D01*
X002648Y007865D02*
X002262Y007865D01*
X002333Y007787D02*
X002577Y007787D01*
X002544Y007708D02*
X002366Y007708D01*
X002395Y007630D02*
X002515Y007630D01*
X002515Y007551D02*
X002395Y007551D01*
X002395Y007473D02*
X002515Y007473D01*
X002543Y007394D02*
X002367Y007394D01*
X002334Y007316D02*
X002576Y007316D01*
X002646Y007237D02*
X002264Y007237D01*
X002160Y007159D02*
X002750Y007159D01*
X003160Y007159D02*
X003750Y007159D01*
X003706Y007177D02*
X003867Y007110D01*
X004043Y007110D01*
X004204Y007177D01*
X004328Y007301D01*
X004395Y007462D01*
X004395Y007638D01*
X004328Y007799D01*
X004204Y007923D01*
X004043Y007990D01*
X003867Y007990D01*
X003706Y007923D01*
X003582Y007799D01*
X003515Y007638D01*
X003515Y007462D01*
X003582Y007301D01*
X003706Y007177D01*
X003646Y007237D02*
X003264Y007237D01*
X003334Y007316D02*
X003576Y007316D01*
X003543Y007394D02*
X003367Y007394D01*
X003395Y007473D02*
X003515Y007473D01*
X003515Y007551D02*
X003395Y007551D01*
X003395Y007630D02*
X003515Y007630D01*
X003544Y007708D02*
X003366Y007708D01*
X003333Y007787D02*
X003577Y007787D01*
X003648Y007865D02*
X003262Y007865D01*
X003155Y007944D02*
X003755Y007944D01*
X004155Y007944D02*
X004755Y007944D01*
X004706Y007923D02*
X004582Y007799D01*
X004515Y007638D01*
X004515Y007462D01*
X004582Y007301D01*
X004706Y007177D01*
X004867Y007110D01*
X005043Y007110D01*
X005204Y007177D01*
X005328Y007301D01*
X005395Y007462D01*
X005395Y007638D01*
X005328Y007799D01*
X005204Y007923D01*
X005043Y007990D01*
X004867Y007990D01*
X004706Y007923D01*
X004648Y007865D02*
X004262Y007865D01*
X004333Y007787D02*
X004577Y007787D01*
X004544Y007708D02*
X004366Y007708D01*
X004395Y007630D02*
X004515Y007630D01*
X004515Y007551D02*
X004395Y007551D01*
X004395Y007473D02*
X004515Y007473D01*
X004543Y007394D02*
X004367Y007394D01*
X004334Y007316D02*
X004576Y007316D01*
X004646Y007237D02*
X004264Y007237D01*
X004160Y007159D02*
X004750Y007159D01*
X004640Y007003D02*
X004553Y007039D01*
X004457Y007039D01*
X004370Y007003D01*
X004302Y006935D01*
X004266Y006848D01*
X004266Y006752D01*
X004302Y006665D01*
X004370Y006597D01*
X004457Y006561D01*
X004553Y006561D01*
X004640Y006597D01*
X004708Y006665D01*
X004744Y006752D01*
X004744Y006848D01*
X004708Y006935D01*
X004640Y007003D01*
X004642Y007002D02*
X005316Y007002D01*
X005316Y007048D02*
X005316Y006952D01*
X005352Y006865D01*
X005375Y006842D01*
X005375Y006625D01*
X005475Y006525D01*
X005580Y006420D01*
X006930Y006420D01*
X007030Y006520D01*
X007135Y006625D01*
X007135Y007148D01*
X007204Y007177D01*
X007328Y007301D01*
X007395Y007462D01*
X007395Y007638D01*
X007328Y007799D01*
X007204Y007923D01*
X007043Y007990D01*
X006867Y007990D01*
X006706Y007923D01*
X006582Y007799D01*
X006515Y007638D01*
X006515Y007462D01*
X006582Y007301D01*
X006706Y007177D01*
X006775Y007148D01*
X006775Y006780D01*
X006085Y006780D01*
X006094Y006802D01*
X006094Y006898D01*
X006058Y006985D01*
X005990Y007053D01*
X005903Y007089D01*
X005807Y007089D01*
X005781Y007078D01*
X005758Y007135D01*
X005723Y007170D01*
X005867Y007110D01*
X006043Y007110D01*
X006204Y007177D01*
X006328Y007301D01*
X006395Y007462D01*
X006395Y007638D01*
X006328Y007799D01*
X006204Y007923D01*
X006043Y007990D01*
X005867Y007990D01*
X005706Y007923D01*
X005582Y007799D01*
X005515Y007638D01*
X005515Y007462D01*
X005582Y007301D01*
X005673Y007210D01*
X005603Y007239D01*
X005507Y007239D01*
X005420Y007203D01*
X005352Y007135D01*
X005316Y007048D01*
X005329Y007080D02*
X000345Y007080D01*
X000345Y007002D02*
X003868Y007002D01*
X003870Y007003D02*
X003802Y006935D01*
X003766Y006848D01*
X003766Y006752D01*
X003802Y006665D01*
X003870Y006597D01*
X003957Y006561D01*
X004053Y006561D01*
X004140Y006597D01*
X004208Y006665D01*
X004244Y006752D01*
X004244Y006848D01*
X004208Y006935D01*
X004140Y007003D01*
X004053Y007039D01*
X003957Y007039D01*
X003870Y007003D01*
X003797Y006923D02*
X000345Y006923D01*
X000345Y006845D02*
X003766Y006845D01*
X003766Y006766D02*
X003008Y006766D01*
X003040Y006753D02*
X002953Y006789D01*
X002857Y006789D01*
X002770Y006753D01*
X002702Y006685D01*
X002666Y006598D01*
X002666Y006502D01*
X002702Y006415D01*
X002707Y006410D01*
X002703Y006410D01*
X002608Y006370D01*
X002358Y006120D01*
X002285Y006047D01*
X002245Y005952D01*
X002245Y004030D01*
X000580Y004030D01*
X000480Y003930D01*
X000375Y003825D01*
X000375Y001975D01*
X000425Y001925D01*
X000530Y001820D01*
X002603Y001820D01*
X002582Y001799D01*
X002515Y001638D01*
X002515Y001462D01*
X002582Y001301D01*
X002706Y001177D01*
X002867Y001110D01*
X003043Y001110D01*
X003204Y001177D01*
X003328Y001301D01*
X003395Y001462D01*
X003395Y001638D01*
X003328Y001799D01*
X003307Y001820D01*
X003603Y001820D01*
X003582Y001799D01*
X003515Y001638D01*
X003515Y001462D01*
X003582Y001301D01*
X003706Y001177D01*
X003867Y001110D01*
X004043Y001110D01*
X004204Y001177D01*
X004328Y001301D01*
X004395Y001462D01*
X004395Y001638D01*
X004328Y001799D01*
X004307Y001820D01*
X004603Y001820D01*
X004582Y001799D01*
X004515Y001638D01*
X004515Y001462D01*
X004582Y001301D01*
X004706Y001177D01*
X004867Y001110D01*
X005043Y001110D01*
X005204Y001177D01*
X005328Y001301D01*
X005395Y001462D01*
X005395Y001638D01*
X005328Y001799D01*
X005257Y001870D01*
X005653Y001870D01*
X005582Y001799D01*
X005515Y001638D01*
X005515Y001462D01*
X005582Y001301D01*
X005706Y001177D01*
X005867Y001110D01*
X006043Y001110D01*
X006204Y001177D01*
X006328Y001301D01*
X006395Y001462D01*
X006395Y001638D01*
X006328Y001799D01*
X006257Y001870D01*
X006653Y001870D01*
X006582Y001799D01*
X006515Y001638D01*
X006515Y001462D01*
X006582Y001301D01*
X006706Y001177D01*
X006867Y001110D01*
X007043Y001110D01*
X007204Y001177D01*
X007328Y001301D01*
X007395Y001462D01*
X007395Y001638D01*
X007328Y001799D01*
X007257Y001870D01*
X007653Y001870D01*
X007582Y001799D01*
X007515Y001638D01*
X007515Y001462D01*
X007582Y001301D01*
X007706Y001177D01*
X007867Y001110D01*
X008043Y001110D01*
X008204Y001177D01*
X008328Y001301D01*
X008395Y001462D01*
X008395Y001638D01*
X008328Y001799D01*
X008257Y001870D01*
X008653Y001870D01*
X008582Y001799D01*
X008515Y001638D01*
X008515Y001462D01*
X008582Y001301D01*
X008706Y001177D01*
X008867Y001110D01*
X009043Y001110D01*
X009204Y001177D01*
X009328Y001301D01*
X009395Y001462D01*
X009395Y001638D01*
X009328Y001799D01*
X009257Y001870D01*
X009380Y001870D01*
X009485Y001975D01*
X009585Y002075D01*
X009585Y003875D01*
X009480Y003980D01*
X009330Y004130D01*
X008915Y004130D01*
X008915Y005792D01*
X009175Y006053D01*
X009215Y006148D01*
X009215Y007188D01*
X009328Y007301D01*
X009395Y007462D01*
X009395Y007638D01*
X009328Y007799D01*
X009204Y007923D01*
X009043Y007990D01*
X008867Y007990D01*
X008706Y007923D01*
X008582Y007799D01*
X008515Y007638D01*
X008515Y007462D01*
X008582Y007301D01*
X008695Y007188D01*
X008695Y006308D01*
X008508Y006120D01*
X008435Y006047D01*
X008395Y005952D01*
X008395Y004130D01*
X007880Y004130D01*
X007775Y004025D01*
X007730Y003980D01*
X005430Y003980D01*
X005325Y003875D01*
X004875Y003425D01*
X004875Y002075D01*
X004960Y001990D01*
X004867Y001990D01*
X004752Y001942D01*
X004835Y002025D01*
X004835Y003425D01*
X004730Y003530D01*
X004730Y003530D01*
X004335Y003925D01*
X004230Y004030D01*
X002765Y004030D01*
X002765Y005792D01*
X002863Y005890D01*
X007207Y005890D01*
X007302Y005930D01*
X007375Y006003D01*
X008175Y006803D01*
X008215Y006898D01*
X008215Y007188D01*
X008328Y007301D01*
X008395Y007462D01*
X008395Y007638D01*
X008328Y007799D01*
X008204Y007923D01*
X008043Y007990D01*
X007867Y007990D01*
X007706Y007923D01*
X007582Y007799D01*
X007515Y007638D01*
X007515Y007462D01*
X007582Y007301D01*
X007695Y007188D01*
X007695Y007058D01*
X007047Y006410D01*
X003103Y006410D01*
X003108Y006415D01*
X003144Y006502D01*
X003144Y006598D01*
X003108Y006685D01*
X003040Y006753D01*
X003106Y006688D02*
X003793Y006688D01*
X003858Y006609D02*
X003139Y006609D01*
X003144Y006531D02*
X005470Y006531D01*
X005391Y006609D02*
X004652Y006609D01*
X004717Y006688D02*
X005375Y006688D01*
X005375Y006766D02*
X004744Y006766D01*
X004744Y006845D02*
X005372Y006845D01*
X005328Y006923D02*
X004713Y006923D01*
X004368Y007002D02*
X004142Y007002D01*
X004213Y006923D02*
X004297Y006923D01*
X004266Y006845D02*
X004244Y006845D01*
X004244Y006766D02*
X004266Y006766D01*
X004293Y006688D02*
X004217Y006688D01*
X004152Y006609D02*
X004358Y006609D01*
X005160Y007159D02*
X005375Y007159D01*
X005264Y007237D02*
X005503Y007237D01*
X005607Y007237D02*
X005646Y007237D01*
X005576Y007316D02*
X005334Y007316D01*
X005367Y007394D02*
X005543Y007394D01*
X005515Y007473D02*
X005395Y007473D01*
X005395Y007551D02*
X005515Y007551D01*
X005515Y007630D02*
X005395Y007630D01*
X005366Y007708D02*
X005544Y007708D01*
X005577Y007787D02*
X005333Y007787D01*
X005262Y007865D02*
X005648Y007865D01*
X005755Y007944D02*
X005155Y007944D01*
X006155Y007944D02*
X006755Y007944D01*
X006648Y007865D02*
X006262Y007865D01*
X006333Y007787D02*
X006577Y007787D01*
X006544Y007708D02*
X006366Y007708D01*
X006395Y007630D02*
X006515Y007630D01*
X006515Y007551D02*
X006395Y007551D01*
X006395Y007473D02*
X006515Y007473D01*
X006543Y007394D02*
X006367Y007394D01*
X006334Y007316D02*
X006576Y007316D01*
X006646Y007237D02*
X006264Y007237D01*
X006160Y007159D02*
X006750Y007159D01*
X006775Y007080D02*
X005924Y007080D01*
X005786Y007080D02*
X005781Y007080D01*
X005750Y007159D02*
X005735Y007159D01*
X005555Y007000D02*
X005555Y006700D01*
X005655Y006600D01*
X006855Y006600D01*
X006955Y006700D01*
X006955Y007550D01*
X007395Y007551D02*
X007515Y007551D01*
X007515Y007473D02*
X007395Y007473D01*
X007367Y007394D02*
X007543Y007394D01*
X007576Y007316D02*
X007334Y007316D01*
X007264Y007237D02*
X007646Y007237D01*
X007695Y007159D02*
X007160Y007159D01*
X007135Y007080D02*
X007695Y007080D01*
X007639Y007002D02*
X007135Y007002D01*
X007135Y006923D02*
X007560Y006923D01*
X007482Y006845D02*
X007135Y006845D01*
X007135Y006766D02*
X007403Y006766D01*
X007325Y006688D02*
X007135Y006688D01*
X007119Y006609D02*
X007246Y006609D01*
X007168Y006531D02*
X007040Y006531D01*
X007089Y006452D02*
X006962Y006452D01*
X007511Y006138D02*
X008525Y006138D01*
X008447Y006060D02*
X007432Y006060D01*
X007354Y005981D02*
X008407Y005981D01*
X008395Y005903D02*
X007237Y005903D01*
X007589Y006217D02*
X008604Y006217D01*
X008682Y006295D02*
X007668Y006295D01*
X007746Y006374D02*
X008695Y006374D01*
X008695Y006452D02*
X007825Y006452D01*
X007903Y006531D02*
X008695Y006531D01*
X008695Y006609D02*
X007982Y006609D01*
X008060Y006688D02*
X008695Y006688D01*
X008695Y006766D02*
X008139Y006766D01*
X008193Y006845D02*
X008695Y006845D01*
X008695Y006923D02*
X008215Y006923D01*
X008215Y007002D02*
X008695Y007002D01*
X008695Y007080D02*
X008215Y007080D01*
X008215Y007159D02*
X008695Y007159D01*
X008646Y007237D02*
X008264Y007237D01*
X008334Y007316D02*
X008576Y007316D01*
X008543Y007394D02*
X008367Y007394D01*
X008395Y007473D02*
X008515Y007473D01*
X008515Y007551D02*
X008395Y007551D01*
X008395Y007630D02*
X008515Y007630D01*
X008544Y007708D02*
X008366Y007708D01*
X008333Y007787D02*
X008577Y007787D01*
X008648Y007865D02*
X008262Y007865D01*
X008155Y007944D02*
X008755Y007944D01*
X009155Y007944D02*
X009755Y007944D01*
X009706Y007923D02*
X009582Y007799D01*
X009515Y007638D01*
X009515Y007462D01*
X009582Y007301D01*
X009706Y007177D01*
X009867Y007110D01*
X010043Y007110D01*
X010204Y007177D01*
X010328Y007301D01*
X010395Y007462D01*
X010395Y007638D01*
X010328Y007799D01*
X010204Y007923D01*
X010043Y007990D01*
X009867Y007990D01*
X009706Y007923D01*
X009648Y007865D02*
X009262Y007865D01*
X009333Y007787D02*
X009577Y007787D01*
X009544Y007708D02*
X009366Y007708D01*
X009395Y007630D02*
X009515Y007630D01*
X009515Y007551D02*
X009395Y007551D01*
X009395Y007473D02*
X009515Y007473D01*
X009543Y007394D02*
X009367Y007394D01*
X009334Y007316D02*
X009576Y007316D01*
X009646Y007237D02*
X009264Y007237D01*
X009215Y007159D02*
X009750Y007159D01*
X010160Y007159D02*
X010750Y007159D01*
X010706Y007177D02*
X010867Y007110D01*
X011043Y007110D01*
X011204Y007177D01*
X011328Y007301D01*
X011395Y007462D01*
X011395Y007638D01*
X011328Y007799D01*
X011204Y007923D01*
X011043Y007990D01*
X010867Y007990D01*
X010706Y007923D01*
X010582Y007799D01*
X010515Y007638D01*
X010515Y007462D01*
X010582Y007301D01*
X010706Y007177D01*
X010646Y007237D02*
X010264Y007237D01*
X010334Y007316D02*
X010576Y007316D01*
X010543Y007394D02*
X010367Y007394D01*
X010395Y007473D02*
X010515Y007473D01*
X010515Y007551D02*
X010395Y007551D01*
X010395Y007630D02*
X010515Y007630D01*
X010544Y007708D02*
X010366Y007708D01*
X010333Y007787D02*
X010577Y007787D01*
X010648Y007865D02*
X010262Y007865D01*
X010155Y007944D02*
X010755Y007944D01*
X011155Y007944D02*
X011755Y007944D01*
X011706Y007923D02*
X011582Y007799D01*
X011515Y007638D01*
X011515Y007462D01*
X011582Y007301D01*
X011706Y007177D01*
X011867Y007110D01*
X012043Y007110D01*
X012204Y007177D01*
X012328Y007301D01*
X012395Y007462D01*
X012395Y007638D01*
X012328Y007799D01*
X012204Y007923D01*
X012043Y007990D01*
X011867Y007990D01*
X011706Y007923D01*
X011648Y007865D02*
X011262Y007865D01*
X011333Y007787D02*
X011577Y007787D01*
X011544Y007708D02*
X011366Y007708D01*
X011395Y007630D02*
X011515Y007630D01*
X011515Y007551D02*
X011395Y007551D01*
X011395Y007473D02*
X011515Y007473D01*
X011543Y007394D02*
X011367Y007394D01*
X011334Y007316D02*
X011576Y007316D01*
X011646Y007237D02*
X011264Y007237D01*
X011160Y007159D02*
X011750Y007159D01*
X012160Y007159D02*
X012565Y007159D01*
X012565Y007237D02*
X012264Y007237D01*
X012334Y007316D02*
X012565Y007316D01*
X012565Y007394D02*
X012367Y007394D01*
X012395Y007473D02*
X012565Y007473D01*
X012565Y007551D02*
X012395Y007551D01*
X012395Y007630D02*
X012565Y007630D01*
X012565Y007708D02*
X012366Y007708D01*
X012333Y007787D02*
X012565Y007787D01*
X012565Y007865D02*
X012262Y007865D01*
X012155Y007944D02*
X012565Y007944D01*
X012565Y007080D02*
X009215Y007080D01*
X009215Y007002D02*
X012565Y007002D01*
X012565Y006923D02*
X009215Y006923D01*
X009215Y006845D02*
X012565Y006845D01*
X012565Y006766D02*
X009215Y006766D01*
X009215Y006688D02*
X012565Y006688D01*
X012565Y006609D02*
X009215Y006609D01*
X009215Y006531D02*
X012565Y006531D01*
X012565Y006452D02*
X009215Y006452D01*
X009215Y006374D02*
X012565Y006374D01*
X012565Y006295D02*
X009215Y006295D01*
X009215Y006217D02*
X012565Y006217D01*
X012565Y006138D02*
X009211Y006138D01*
X009178Y006060D02*
X012565Y006060D01*
X012565Y005981D02*
X009104Y005981D01*
X009025Y005903D02*
X012565Y005903D01*
X012565Y005824D02*
X008947Y005824D01*
X008915Y005746D02*
X012565Y005746D01*
X012565Y005667D02*
X008915Y005667D01*
X008915Y005589D02*
X012565Y005589D01*
X012565Y005510D02*
X008915Y005510D01*
X008915Y005432D02*
X012565Y005432D01*
X012565Y005353D02*
X009895Y005353D01*
X009895Y005360D02*
X009872Y005384D01*
X009366Y005384D01*
X009343Y005360D01*
X009343Y005231D01*
X009316Y005205D01*
X009316Y005131D01*
X009316Y004976D01*
X009343Y004949D01*
X009343Y004933D01*
X009366Y004910D01*
X009382Y004910D01*
X009462Y004830D01*
X009611Y004830D01*
X009616Y004836D01*
X009622Y004830D01*
X009771Y004830D01*
X009811Y004870D01*
X009851Y004910D01*
X009872Y004910D01*
X009895Y004933D01*
X009895Y004954D01*
X009916Y004976D01*
X009916Y005130D01*
X009916Y005205D01*
X009895Y005226D01*
X009895Y005360D01*
X009895Y005275D02*
X012565Y005275D01*
X012565Y005196D02*
X009916Y005196D01*
X009916Y005205D02*
X009916Y005205D01*
X009916Y005205D01*
X009916Y005118D02*
X012565Y005118D01*
X012565Y005039D02*
X009916Y005039D01*
X009901Y004961D02*
X012565Y004961D01*
X012565Y004882D02*
X009823Y004882D01*
X009696Y005010D02*
X009736Y005050D01*
X009736Y005130D01*
X009696Y005170D01*
X009656Y005170D01*
X009616Y005130D01*
X009576Y005170D01*
X009536Y005170D01*
X009496Y005130D01*
X009496Y005050D01*
X009536Y005010D01*
X009616Y005090D02*
X009616Y005130D01*
X009316Y005118D02*
X008915Y005118D01*
X008915Y005196D02*
X009316Y005196D01*
X009316Y005205D02*
X009316Y005205D01*
X009316Y005205D01*
X009343Y005275D02*
X008915Y005275D01*
X008915Y005353D02*
X009343Y005353D01*
X009316Y005039D02*
X008915Y005039D01*
X008915Y004961D02*
X009332Y004961D01*
X009410Y004882D02*
X008915Y004882D01*
X008915Y004804D02*
X012565Y004804D01*
X012565Y004725D02*
X008915Y004725D01*
X008915Y004647D02*
X012565Y004647D01*
X012565Y004568D02*
X008915Y004568D01*
X008915Y004490D02*
X012565Y004490D01*
X012565Y004411D02*
X008915Y004411D01*
X008915Y004333D02*
X012565Y004333D01*
X012565Y004254D02*
X008915Y004254D01*
X008915Y004176D02*
X012565Y004176D01*
X012565Y004097D02*
X009363Y004097D01*
X009441Y004019D02*
X012565Y004019D01*
X012565Y003940D02*
X009520Y003940D01*
X009585Y003862D02*
X012565Y003862D01*
X012565Y003783D02*
X009585Y003783D01*
X009585Y003705D02*
X012565Y003705D01*
X012565Y003626D02*
X009585Y003626D01*
X009585Y003548D02*
X012565Y003548D01*
X012565Y003469D02*
X009585Y003469D01*
X009585Y003391D02*
X012565Y003391D01*
X012565Y003312D02*
X009585Y003312D01*
X009585Y003234D02*
X012565Y003234D01*
X012565Y003155D02*
X009585Y003155D01*
X009585Y003077D02*
X012565Y003077D01*
X012565Y002998D02*
X009585Y002998D01*
X009585Y002920D02*
X012565Y002920D01*
X012565Y002841D02*
X009585Y002841D01*
X009585Y002763D02*
X012565Y002763D01*
X012565Y002684D02*
X009585Y002684D01*
X009585Y002606D02*
X012565Y002606D01*
X012565Y002527D02*
X009585Y002527D01*
X009585Y002449D02*
X012565Y002449D01*
X012565Y002370D02*
X009585Y002370D01*
X009585Y002292D02*
X012565Y002292D01*
X012565Y002213D02*
X009585Y002213D01*
X009585Y002135D02*
X012565Y002135D01*
X012565Y002056D02*
X009566Y002056D01*
X009487Y001978D02*
X009837Y001978D01*
X009867Y001990D02*
X009706Y001923D01*
X009582Y001799D01*
X009515Y001638D01*
X009515Y001462D01*
X009582Y001301D01*
X009706Y001177D01*
X009867Y001110D01*
X010043Y001110D01*
X010204Y001177D01*
X010328Y001301D01*
X010395Y001462D01*
X010395Y001638D01*
X010328Y001799D01*
X010204Y001923D01*
X010043Y001990D01*
X009867Y001990D01*
X009682Y001899D02*
X009409Y001899D01*
X009307Y001821D02*
X009603Y001821D01*
X009558Y001742D02*
X009352Y001742D01*
X009384Y001664D02*
X009526Y001664D01*
X009515Y001585D02*
X009395Y001585D01*
X009395Y001507D02*
X009515Y001507D01*
X009529Y001428D02*
X009381Y001428D01*
X009348Y001350D02*
X009562Y001350D01*
X009612Y001271D02*
X009298Y001271D01*
X009220Y001193D02*
X009690Y001193D01*
X009858Y001114D02*
X009052Y001114D01*
X008858Y001114D02*
X008052Y001114D01*
X007858Y001114D02*
X007052Y001114D01*
X007220Y001193D02*
X007690Y001193D01*
X007612Y001271D02*
X007298Y001271D01*
X007348Y001350D02*
X007562Y001350D01*
X007529Y001428D02*
X007381Y001428D01*
X007395Y001507D02*
X007515Y001507D01*
X007515Y001585D02*
X007395Y001585D01*
X007384Y001664D02*
X007526Y001664D01*
X007558Y001742D02*
X007352Y001742D01*
X007307Y001821D02*
X007603Y001821D01*
X008307Y001821D02*
X008603Y001821D01*
X008558Y001742D02*
X008352Y001742D01*
X008384Y001664D02*
X008526Y001664D01*
X008515Y001585D02*
X008395Y001585D01*
X008395Y001507D02*
X008515Y001507D01*
X008529Y001428D02*
X008381Y001428D01*
X008348Y001350D02*
X008562Y001350D01*
X008612Y001271D02*
X008298Y001271D01*
X008220Y001193D02*
X008690Y001193D01*
X009305Y002050D02*
X005155Y002050D01*
X005055Y002150D01*
X005055Y003350D01*
X005505Y003800D01*
X007805Y003800D01*
X007955Y003950D01*
X009255Y003950D01*
X009405Y003800D01*
X009405Y002150D01*
X009305Y002050D01*
X009311Y002056D02*
X005149Y002056D01*
X005070Y002135D02*
X009390Y002135D01*
X009405Y002213D02*
X005055Y002213D01*
X005055Y002292D02*
X009405Y002292D01*
X009405Y002370D02*
X005055Y002370D01*
X005055Y002449D02*
X009405Y002449D01*
X009405Y002527D02*
X005055Y002527D01*
X005055Y002606D02*
X009405Y002606D01*
X009405Y002684D02*
X005055Y002684D01*
X005055Y002763D02*
X009405Y002763D01*
X009405Y002841D02*
X005055Y002841D01*
X005055Y002920D02*
X006926Y002920D01*
X006964Y002881D02*
X007146Y002881D01*
X007255Y002990D01*
X007364Y002881D01*
X007546Y002881D01*
X007655Y002990D01*
X007764Y002881D01*
X007946Y002881D01*
X008074Y003009D01*
X008074Y003191D01*
X007946Y003319D01*
X007764Y003319D01*
X007655Y003210D01*
X007546Y003319D01*
X007364Y003319D01*
X007255Y003210D01*
X007146Y003319D01*
X006964Y003319D01*
X006836Y003191D01*
X006836Y003009D01*
X006964Y002881D01*
X006847Y002998D02*
X005055Y002998D01*
X005055Y003077D02*
X006836Y003077D01*
X006836Y003155D02*
X005055Y003155D01*
X005055Y003234D02*
X006879Y003234D01*
X006957Y003312D02*
X005055Y003312D01*
X005096Y003391D02*
X009405Y003391D01*
X009405Y003469D02*
X005174Y003469D01*
X005253Y003548D02*
X009405Y003548D01*
X009405Y003626D02*
X005331Y003626D01*
X005410Y003705D02*
X009405Y003705D01*
X009405Y003783D02*
X005488Y003783D01*
X005390Y003940D02*
X004320Y003940D01*
X004335Y003925D02*
X004335Y003925D01*
X004398Y003862D02*
X005312Y003862D01*
X005233Y003783D02*
X004477Y003783D01*
X004555Y003705D02*
X005155Y003705D01*
X005076Y003626D02*
X004634Y003626D01*
X004712Y003548D02*
X004998Y003548D01*
X004919Y003469D02*
X004791Y003469D01*
X004835Y003391D02*
X004875Y003391D01*
X004875Y003312D02*
X004835Y003312D01*
X004835Y003234D02*
X004875Y003234D01*
X004875Y003155D02*
X004835Y003155D01*
X004835Y003077D02*
X004875Y003077D01*
X004875Y002998D02*
X004835Y002998D01*
X004835Y002920D02*
X004875Y002920D01*
X004875Y002841D02*
X004835Y002841D01*
X004835Y002763D02*
X004875Y002763D01*
X004875Y002684D02*
X004835Y002684D01*
X004835Y002606D02*
X004875Y002606D01*
X004875Y002527D02*
X004835Y002527D01*
X004835Y002449D02*
X004875Y002449D01*
X004875Y002370D02*
X004835Y002370D01*
X004835Y002292D02*
X004875Y002292D01*
X004875Y002213D02*
X004835Y002213D01*
X004835Y002135D02*
X004875Y002135D01*
X004894Y002056D02*
X004835Y002056D01*
X004837Y001978D02*
X004787Y001978D01*
X004655Y002100D02*
X004555Y002000D01*
X000605Y002000D01*
X000555Y002050D01*
X000555Y003750D01*
X000655Y003850D01*
X004155Y003850D01*
X004655Y003350D01*
X004655Y002100D01*
X004655Y002135D02*
X000555Y002135D01*
X000555Y002213D02*
X004655Y002213D01*
X004655Y002292D02*
X000555Y002292D01*
X000555Y002370D02*
X002925Y002370D01*
X002964Y002331D02*
X002836Y002459D01*
X002836Y002641D01*
X002895Y002700D01*
X002836Y002759D01*
X002836Y002941D01*
X002895Y003000D01*
X002836Y003059D01*
X002836Y003241D01*
X002964Y003369D01*
X003146Y003369D01*
X003205Y003310D01*
X003264Y003369D01*
X003446Y003369D01*
X003574Y003241D01*
X003574Y003059D01*
X003515Y003000D01*
X003574Y002941D01*
X003574Y002759D01*
X003515Y002700D01*
X003574Y002641D01*
X003574Y002459D01*
X003446Y002331D01*
X003264Y002331D01*
X003205Y002390D01*
X003146Y002331D01*
X002964Y002331D01*
X002847Y002449D02*
X000555Y002449D01*
X000555Y002527D02*
X002836Y002527D01*
X002836Y002606D02*
X000555Y002606D01*
X000555Y002684D02*
X002879Y002684D01*
X002836Y002763D02*
X000555Y002763D01*
X000555Y002841D02*
X002836Y002841D01*
X002836Y002920D02*
X000555Y002920D01*
X000555Y002998D02*
X002893Y002998D01*
X002836Y003077D02*
X000555Y003077D01*
X000555Y003155D02*
X002836Y003155D01*
X002836Y003234D02*
X000555Y003234D01*
X000555Y003312D02*
X002907Y003312D01*
X003203Y003312D02*
X003207Y003312D01*
X003503Y003312D02*
X004655Y003312D01*
X004655Y003234D02*
X003574Y003234D01*
X003574Y003155D02*
X004655Y003155D01*
X004655Y003077D02*
X003574Y003077D01*
X003517Y002998D02*
X004655Y002998D01*
X004655Y002920D02*
X003574Y002920D01*
X003574Y002841D02*
X004655Y002841D01*
X004655Y002763D02*
X003574Y002763D01*
X003531Y002684D02*
X004655Y002684D01*
X004655Y002606D02*
X003574Y002606D01*
X003574Y002527D02*
X004655Y002527D01*
X004655Y002449D02*
X003563Y002449D01*
X003485Y002370D02*
X004655Y002370D01*
X004611Y002056D02*
X000555Y002056D01*
X000375Y002056D02*
X000345Y002056D01*
X000345Y001978D02*
X000375Y001978D01*
X000345Y001899D02*
X000451Y001899D01*
X000530Y001821D02*
X000345Y001821D01*
X000345Y001742D02*
X002558Y001742D01*
X002526Y001664D02*
X000345Y001664D01*
X000345Y001585D02*
X002515Y001585D01*
X002515Y001507D02*
X000345Y001507D01*
X000345Y001428D02*
X002529Y001428D01*
X002562Y001350D02*
X000345Y001350D01*
X000345Y001271D02*
X002612Y001271D01*
X002690Y001193D02*
X000345Y001193D01*
X000345Y001114D02*
X002858Y001114D01*
X003052Y001114D02*
X003858Y001114D01*
X003690Y001193D02*
X003220Y001193D01*
X003298Y001271D02*
X003612Y001271D01*
X003562Y001350D02*
X003348Y001350D01*
X003381Y001428D02*
X003529Y001428D01*
X003515Y001507D02*
X003395Y001507D01*
X003395Y001585D02*
X003515Y001585D01*
X003526Y001664D02*
X003384Y001664D01*
X003352Y001742D02*
X003558Y001742D01*
X004298Y001271D02*
X004612Y001271D01*
X004562Y001350D02*
X004348Y001350D01*
X004381Y001428D02*
X004529Y001428D01*
X004515Y001507D02*
X004395Y001507D01*
X004395Y001585D02*
X004515Y001585D01*
X004526Y001664D02*
X004384Y001664D01*
X004352Y001742D02*
X004558Y001742D01*
X004690Y001193D02*
X004220Y001193D01*
X004052Y001114D02*
X004858Y001114D01*
X005052Y001114D02*
X005858Y001114D01*
X005690Y001193D02*
X005220Y001193D01*
X005298Y001271D02*
X005612Y001271D01*
X005562Y001350D02*
X005348Y001350D01*
X005381Y001428D02*
X005529Y001428D01*
X005515Y001507D02*
X005395Y001507D01*
X005395Y001585D02*
X005515Y001585D01*
X005526Y001664D02*
X005384Y001664D01*
X005352Y001742D02*
X005558Y001742D01*
X005603Y001821D02*
X005307Y001821D01*
X006220Y001193D02*
X006690Y001193D01*
X006612Y001271D02*
X006298Y001271D01*
X006348Y001350D02*
X006562Y001350D01*
X006529Y001428D02*
X006381Y001428D01*
X006395Y001507D02*
X006515Y001507D01*
X006515Y001585D02*
X006395Y001585D01*
X006384Y001664D02*
X006526Y001664D01*
X006558Y001742D02*
X006352Y001742D01*
X006307Y001821D02*
X006603Y001821D01*
X006858Y001114D02*
X006052Y001114D01*
X007184Y002920D02*
X007326Y002920D01*
X007584Y002920D02*
X007726Y002920D01*
X007984Y002920D02*
X009405Y002920D01*
X009405Y002998D02*
X008063Y002998D01*
X008074Y003077D02*
X009405Y003077D01*
X009405Y003155D02*
X008074Y003155D01*
X008031Y003234D02*
X009405Y003234D01*
X009405Y003312D02*
X007953Y003312D01*
X007757Y003312D02*
X007553Y003312D01*
X007631Y003234D02*
X007679Y003234D01*
X007357Y003312D02*
X007153Y003312D01*
X007231Y003234D02*
X007279Y003234D01*
X007867Y003862D02*
X009343Y003862D01*
X009265Y003940D02*
X007945Y003940D01*
X007769Y004019D02*
X004241Y004019D01*
X004222Y003783D02*
X000588Y003783D01*
X000555Y003705D02*
X004300Y003705D01*
X004379Y003626D02*
X000555Y003626D01*
X000555Y003548D02*
X004457Y003548D01*
X004536Y003469D02*
X000555Y003469D01*
X000555Y003391D02*
X004614Y003391D01*
X003225Y002370D02*
X003185Y002370D01*
X002765Y004097D02*
X007847Y004097D01*
X008395Y004176D02*
X002765Y004176D01*
X002765Y004254D02*
X008395Y004254D01*
X008395Y004333D02*
X002765Y004333D01*
X002765Y004411D02*
X008395Y004411D01*
X008395Y004490D02*
X002765Y004490D01*
X002765Y004568D02*
X008395Y004568D01*
X008395Y004647D02*
X002765Y004647D01*
X002765Y004725D02*
X008395Y004725D01*
X008395Y004804D02*
X002765Y004804D01*
X002765Y004882D02*
X008395Y004882D01*
X008395Y004961D02*
X002765Y004961D01*
X002765Y005039D02*
X008395Y005039D01*
X008395Y005118D02*
X002765Y005118D01*
X002765Y005196D02*
X008395Y005196D01*
X008395Y005275D02*
X002765Y005275D01*
X002765Y005353D02*
X008395Y005353D01*
X008395Y005432D02*
X002765Y005432D01*
X002765Y005510D02*
X008395Y005510D01*
X008395Y005589D02*
X002765Y005589D01*
X002765Y005667D02*
X008395Y005667D01*
X008395Y005746D02*
X002765Y005746D01*
X002797Y005824D02*
X008395Y005824D01*
X006775Y006845D02*
X006094Y006845D01*
X006084Y006923D02*
X006775Y006923D01*
X006775Y007002D02*
X006042Y007002D01*
X005548Y006452D02*
X003123Y006452D01*
X002687Y006452D02*
X000345Y006452D01*
X000345Y006374D02*
X002615Y006374D01*
X002532Y006295D02*
X000345Y006295D01*
X000345Y006217D02*
X002454Y006217D01*
X002375Y006138D02*
X000345Y006138D01*
X000345Y006060D02*
X002297Y006060D01*
X002257Y005981D02*
X000345Y005981D01*
X000345Y005903D02*
X002245Y005903D01*
X002245Y005824D02*
X000345Y005824D01*
X000345Y005746D02*
X002245Y005746D01*
X002245Y005667D02*
X000345Y005667D01*
X000345Y005589D02*
X002245Y005589D01*
X002245Y005510D02*
X000345Y005510D01*
X000345Y005432D02*
X002245Y005432D01*
X002245Y005353D02*
X000345Y005353D01*
X000345Y005275D02*
X002245Y005275D01*
X002245Y005196D02*
X000345Y005196D01*
X000345Y005118D02*
X002245Y005118D01*
X002245Y005039D02*
X000345Y005039D01*
X000345Y004961D02*
X002245Y004961D01*
X002245Y004882D02*
X000345Y004882D01*
X000345Y004804D02*
X002245Y004804D01*
X002245Y004725D02*
X000345Y004725D01*
X000345Y004647D02*
X002245Y004647D01*
X002245Y004568D02*
X000345Y004568D01*
X000345Y004490D02*
X002245Y004490D01*
X002245Y004411D02*
X000345Y004411D01*
X000345Y004333D02*
X002245Y004333D01*
X002245Y004254D02*
X000345Y004254D01*
X000345Y004176D02*
X002245Y004176D01*
X002245Y004097D02*
X000345Y004097D01*
X000345Y004019D02*
X000569Y004019D01*
X000490Y003940D02*
X000345Y003940D01*
X000345Y003862D02*
X000412Y003862D01*
X000375Y003783D02*
X000345Y003783D01*
X000345Y003705D02*
X000375Y003705D01*
X000375Y003626D02*
X000345Y003626D01*
X000345Y003548D02*
X000375Y003548D01*
X000375Y003469D02*
X000345Y003469D01*
X000345Y003391D02*
X000375Y003391D01*
X000375Y003312D02*
X000345Y003312D01*
X000345Y003234D02*
X000375Y003234D01*
X000375Y003155D02*
X000345Y003155D01*
X000345Y003077D02*
X000375Y003077D01*
X000375Y002998D02*
X000345Y002998D01*
X000345Y002920D02*
X000375Y002920D01*
X000375Y002841D02*
X000345Y002841D01*
X000345Y002763D02*
X000375Y002763D01*
X000375Y002684D02*
X000345Y002684D01*
X000345Y002606D02*
X000375Y002606D01*
X000375Y002527D02*
X000345Y002527D01*
X000345Y002449D02*
X000375Y002449D01*
X000375Y002370D02*
X000345Y002370D01*
X000345Y002292D02*
X000375Y002292D01*
X000375Y002213D02*
X000345Y002213D01*
X000345Y002135D02*
X000375Y002135D01*
X000345Y001036D02*
X012565Y001036D01*
X012565Y001114D02*
X012052Y001114D01*
X012043Y001110D02*
X012204Y001177D01*
X012328Y001301D01*
X012395Y001462D01*
X012395Y001638D01*
X012328Y001799D01*
X012204Y001923D01*
X012043Y001990D01*
X011867Y001990D01*
X011706Y001923D01*
X011582Y001799D01*
X011515Y001638D01*
X011515Y001462D01*
X011582Y001301D01*
X011706Y001177D01*
X011867Y001110D01*
X012043Y001110D01*
X012220Y001193D02*
X012565Y001193D01*
X012565Y001271D02*
X012298Y001271D01*
X012348Y001350D02*
X012565Y001350D01*
X012565Y001428D02*
X012381Y001428D01*
X012395Y001507D02*
X012565Y001507D01*
X012565Y001585D02*
X012395Y001585D01*
X012384Y001664D02*
X012565Y001664D01*
X012565Y001742D02*
X012352Y001742D01*
X012307Y001821D02*
X012565Y001821D01*
X012565Y001899D02*
X012228Y001899D01*
X012073Y001978D02*
X012565Y001978D01*
X011837Y001978D02*
X011073Y001978D01*
X011043Y001990D02*
X010867Y001990D01*
X010706Y001923D01*
X010582Y001799D01*
X010515Y001638D01*
X010515Y001462D01*
X010582Y001301D01*
X010706Y001177D01*
X010867Y001110D01*
X011043Y001110D01*
X011204Y001177D01*
X011328Y001301D01*
X011395Y001462D01*
X011395Y001638D01*
X011328Y001799D01*
X011204Y001923D01*
X011043Y001990D01*
X010837Y001978D02*
X010073Y001978D01*
X010228Y001899D02*
X010682Y001899D01*
X010603Y001821D02*
X010307Y001821D01*
X010352Y001742D02*
X010558Y001742D01*
X010526Y001664D02*
X010384Y001664D01*
X010395Y001585D02*
X010515Y001585D01*
X010515Y001507D02*
X010395Y001507D01*
X010381Y001428D02*
X010529Y001428D01*
X010562Y001350D02*
X010348Y001350D01*
X010298Y001271D02*
X010612Y001271D01*
X010690Y001193D02*
X010220Y001193D01*
X010052Y001114D02*
X010858Y001114D01*
X011052Y001114D02*
X011858Y001114D01*
X011690Y001193D02*
X011220Y001193D01*
X011298Y001271D02*
X011612Y001271D01*
X011562Y001350D02*
X011348Y001350D01*
X011381Y001428D02*
X011529Y001428D01*
X011515Y001507D02*
X011395Y001507D01*
X011395Y001585D02*
X011515Y001585D01*
X011526Y001664D02*
X011384Y001664D01*
X011352Y001742D02*
X011558Y001742D01*
X011603Y001821D02*
X011307Y001821D01*
X011228Y001899D02*
X011682Y001899D01*
X012565Y000957D02*
X000345Y000957D01*
X000480Y003930D02*
X000480Y003930D01*
X000345Y006531D02*
X002666Y006531D01*
X002671Y006609D02*
X000345Y006609D01*
X000345Y006688D02*
X002704Y006688D01*
X002802Y006766D02*
X000345Y006766D01*
X007155Y007944D02*
X007755Y007944D01*
X007648Y007865D02*
X007262Y007865D01*
X007333Y007787D02*
X007577Y007787D01*
X007544Y007708D02*
X007366Y007708D01*
X007395Y007630D02*
X007515Y007630D01*
D12*
X005855Y006850D03*
X005555Y007000D03*
X004505Y006800D03*
X004005Y006800D03*
X002905Y006550D03*
X003368Y005662D03*
X003880Y005662D03*
X004392Y005662D03*
X004904Y005662D03*
X005416Y005662D03*
X005927Y005662D03*
X006439Y005662D03*
X006443Y005150D03*
X005931Y005150D03*
X005420Y005150D03*
X004908Y005150D03*
X004396Y005150D03*
X003884Y005150D03*
X003372Y005150D03*
X003368Y004638D03*
X003880Y004638D03*
X004392Y004638D03*
X004904Y004638D03*
X005416Y004638D03*
X005927Y004638D03*
X006439Y004638D03*
X006755Y004050D03*
X005455Y003150D03*
X005455Y002850D03*
X005455Y002550D03*
X004355Y002500D03*
X004355Y002800D03*
X004355Y003100D03*
X003355Y003150D03*
X003055Y003150D03*
X003055Y002850D03*
X003355Y002850D03*
X003355Y002550D03*
X003055Y002550D03*
X001505Y002950D03*
X001205Y002950D03*
X000905Y002950D03*
X000505Y004300D03*
X000505Y004800D03*
X000505Y005300D03*
X000505Y005800D03*
X000855Y005800D03*
X001255Y005800D03*
X001655Y005800D03*
X000505Y006300D03*
X000505Y006800D03*
X001655Y004700D03*
X007055Y003100D03*
X007455Y003100D03*
X007855Y003100D03*
X008355Y003700D03*
X008655Y003700D03*
X008955Y003700D03*
X009105Y005450D03*
X009405Y005900D03*
X008305Y005450D03*
X007905Y005950D03*
X012355Y006100D03*
X012355Y005600D03*
X012355Y005100D03*
X012355Y004600D03*
X012355Y004100D03*
X012355Y003600D03*
X012355Y003100D03*
X012355Y006600D03*
D13*
X005455Y003150D02*
X005455Y002850D01*
X005455Y002550D01*
X004355Y002500D02*
X004355Y002800D01*
X004355Y003100D01*
D14*
X004155Y003300D01*
X004155Y003500D01*
X002505Y003250D02*
X002205Y002950D01*
X001505Y002950D01*
X002505Y003250D02*
X002505Y005900D01*
X002755Y006150D01*
X007155Y006150D01*
X007955Y006950D01*
X007955Y007550D01*
X008955Y007550D02*
X008955Y006200D01*
X008655Y005900D01*
X008655Y003700D01*
M02*
