G75*
G70*
%OFA0B0*%
%FSLAX24Y24*%
%IPPOS*%
%LPD*%
%AMOC8*
5,1,8,0,0,1.08239X$1,22.5*
%
%ADD10C,0.0060*%
%ADD11C,0.0100*%
%ADD12C,0.0080*%
%ADD13C,0.0059*%
%ADD14R,0.0010X0.0010*%
%ADD15R,0.0031X0.0010*%
%ADD16R,0.0021X0.0010*%
%ADD17R,0.0042X0.0010*%
%ADD18R,0.0052X0.0010*%
%ADD19R,0.0177X0.0010*%
%ADD20R,0.0301X0.0010*%
%ADD21R,0.0416X0.0010*%
%ADD22R,0.0322X0.0010*%
%ADD23R,0.0270X0.0010*%
%ADD24R,0.0281X0.0010*%
%ADD25R,0.0187X0.0010*%
%ADD26R,0.0478X0.0010*%
%ADD27R,0.0395X0.0010*%
%ADD28R,0.0104X0.0010*%
%ADD29R,0.0197X0.0010*%
%ADD30R,0.0426X0.0010*%
%ADD31R,0.0166X0.0010*%
%ADD32R,0.0374X0.0010*%
%ADD33R,0.0083X0.0010*%
%ADD34R,0.0457X0.0010*%
%ADD35R,0.0208X0.0010*%
%ADD36R,0.0249X0.0010*%
%ADD37R,0.0468X0.0010*%
%ADD38R,0.0218X0.0010*%
%ADD39R,0.0135X0.0010*%
%ADD40R,0.0146X0.0010*%
%ADD41R,0.0156X0.0010*%
%ADD42R,0.0239X0.0010*%
%ADD43R,0.0062X0.0010*%
%ADD44R,0.0094X0.0010*%
%ADD45R,0.0073X0.0010*%
%ADD46R,0.0229X0.0010*%
%ADD47R,0.0811X0.0010*%
%ADD48R,0.0634X0.0010*%
%ADD49R,0.0260X0.0010*%
%ADD50R,0.0125X0.0010*%
%ADD51R,0.0114X0.0010*%
%ADD52R,0.0333X0.0010*%
%ADD53R,0.0312X0.0010*%
%ADD54R,0.0343X0.0010*%
%ADD55R,0.0385X0.0010*%
%ADD56R,0.0364X0.0010*%
%ADD57R,0.0655X0.0010*%
%ADD58R,0.0447X0.0010*%
%ADD59R,0.0676X0.0010*%
%ADD60R,0.0437X0.0010*%
%ADD61R,0.0353X0.0010*%
%ADD62R,0.0405X0.0010*%
%ADD63R,0.0686X0.0010*%
%ADD64R,0.0707X0.0010*%
D10*
X001012Y002373D02*
X001056Y002330D01*
X001186Y002330D01*
X001186Y002590D01*
X001056Y002590D01*
X001012Y002547D01*
X001012Y002373D01*
X001307Y002330D02*
X001307Y002590D01*
X001480Y002590D02*
X001307Y002330D01*
X001480Y002330D02*
X001480Y002590D01*
X001602Y002547D02*
X001645Y002590D01*
X001732Y002590D01*
X001775Y002547D01*
X001775Y002373D01*
X001732Y002330D01*
X001645Y002330D01*
X001602Y002373D01*
X001602Y002460D01*
X001688Y002460D01*
X001445Y003180D02*
X001185Y003180D01*
X001272Y003180D02*
X001272Y003310D01*
X001315Y003353D01*
X001402Y003353D01*
X001445Y003310D01*
X001445Y003180D01*
X001358Y003518D02*
X001358Y003605D01*
X001315Y003648D01*
X001185Y003648D01*
X001185Y003518D01*
X001228Y003475D01*
X001272Y003518D01*
X001272Y003648D01*
X001228Y003769D02*
X001185Y003813D01*
X001185Y003943D01*
X001358Y003943D01*
X001445Y004064D02*
X001445Y004107D01*
X001185Y004107D01*
X001185Y004064D02*
X001185Y004151D01*
X000895Y004194D02*
X000895Y004107D01*
X000852Y004064D01*
X000895Y004194D02*
X000852Y004237D01*
X000808Y004237D01*
X000635Y004064D01*
X000635Y004237D01*
X000678Y004359D02*
X000852Y004532D01*
X000678Y004532D01*
X000635Y004489D01*
X000635Y004402D01*
X000678Y004359D01*
X000852Y004359D01*
X000895Y004402D01*
X000895Y004489D01*
X000852Y004532D01*
X000808Y004653D02*
X000895Y004740D01*
X000635Y004740D01*
X000635Y004653D02*
X000635Y004827D01*
X000765Y004948D02*
X000765Y005121D01*
X000635Y005078D02*
X000895Y005078D01*
X000765Y004948D01*
X001185Y004893D02*
X001185Y004850D01*
X001228Y004850D01*
X001228Y004893D01*
X001185Y004893D01*
X001185Y004729D02*
X001445Y004729D01*
X001358Y004642D01*
X001445Y004555D01*
X001185Y004555D01*
X000895Y003943D02*
X000635Y003769D01*
X000678Y003648D02*
X000635Y003605D01*
X000635Y003518D01*
X000678Y003475D01*
X000722Y003475D01*
X000765Y003518D01*
X000765Y003605D01*
X000722Y003648D01*
X000678Y003648D01*
X000765Y003605D02*
X000808Y003648D01*
X000852Y003648D01*
X000895Y003605D01*
X000895Y003518D01*
X000852Y003475D01*
X000808Y003475D01*
X000765Y003518D01*
X000678Y003353D02*
X000635Y003310D01*
X000635Y003223D01*
X000678Y003180D01*
X000852Y003353D01*
X000678Y003353D01*
X000852Y003353D02*
X000895Y003310D01*
X000895Y003223D01*
X000852Y003180D01*
X000678Y003180D01*
X001228Y003769D02*
X001358Y003769D01*
X002910Y002590D02*
X002910Y002330D01*
X002996Y002330D02*
X002823Y002330D01*
X002996Y002503D02*
X002910Y002590D01*
X003118Y002590D02*
X003291Y002590D01*
X003204Y002590D02*
X003204Y002330D01*
X003412Y002373D02*
X003456Y002330D01*
X003542Y002330D01*
X003586Y002373D01*
X003586Y002590D01*
X003707Y002547D02*
X003750Y002590D01*
X003837Y002590D01*
X003880Y002547D01*
X003880Y002373D01*
X003837Y002330D01*
X003750Y002330D01*
X003707Y002373D01*
X003707Y002547D01*
X004002Y002503D02*
X004002Y002330D01*
X004002Y002460D02*
X004175Y002460D01*
X004175Y002503D02*
X004088Y002590D01*
X004002Y002503D01*
X004175Y002503D02*
X004175Y002330D01*
X004773Y002330D02*
X004946Y002330D01*
X004773Y002503D01*
X004773Y002547D01*
X004816Y002590D01*
X004903Y002590D01*
X004946Y002547D01*
X005068Y002590D02*
X005241Y002590D01*
X005154Y002590D02*
X005154Y002330D01*
X005362Y002373D02*
X005406Y002330D01*
X005492Y002330D01*
X005536Y002373D01*
X005536Y002590D01*
X005657Y002547D02*
X005700Y002590D01*
X005787Y002590D01*
X005830Y002547D01*
X005830Y002373D01*
X005787Y002330D01*
X005700Y002330D01*
X005657Y002373D01*
X005657Y002547D01*
X005952Y002503D02*
X005952Y002330D01*
X005952Y002460D02*
X006125Y002460D01*
X006125Y002503D02*
X006038Y002590D01*
X005952Y002503D01*
X006125Y002503D02*
X006125Y002330D01*
X006773Y002330D02*
X006946Y002330D01*
X006773Y002503D01*
X006773Y002547D01*
X006816Y002590D01*
X006903Y002590D01*
X006946Y002547D01*
X007068Y002590D02*
X007241Y002590D01*
X007154Y002590D02*
X007154Y002330D01*
X007362Y002373D02*
X007406Y002330D01*
X007492Y002330D01*
X007536Y002373D01*
X007536Y002590D01*
X007657Y002547D02*
X007700Y002590D01*
X007787Y002590D01*
X007830Y002547D01*
X007830Y002373D01*
X007787Y002330D01*
X007700Y002330D01*
X007657Y002373D01*
X007657Y002547D01*
X007362Y002590D02*
X007362Y002373D01*
X007952Y002373D02*
X007995Y002330D01*
X008125Y002330D01*
X008125Y002590D01*
X007995Y002590D01*
X007952Y002547D01*
X007952Y002503D01*
X007995Y002460D01*
X008125Y002460D01*
X007995Y002460D02*
X007952Y002417D01*
X007952Y002373D01*
X008723Y002330D02*
X008896Y002330D01*
X008810Y002330D02*
X008810Y002590D01*
X008896Y002503D01*
X009018Y002590D02*
X009191Y002590D01*
X009104Y002590D02*
X009104Y002330D01*
X009312Y002373D02*
X009356Y002330D01*
X009442Y002330D01*
X009486Y002373D01*
X009486Y002590D01*
X009607Y002547D02*
X009650Y002590D01*
X009737Y002590D01*
X009780Y002547D01*
X009780Y002373D01*
X009737Y002330D01*
X009650Y002330D01*
X009607Y002373D01*
X009607Y002547D01*
X009902Y002547D02*
X009902Y002503D01*
X009945Y002460D01*
X010075Y002460D01*
X010075Y002330D02*
X010075Y002590D01*
X009945Y002590D01*
X009902Y002547D01*
X009945Y002460D02*
X009902Y002417D01*
X009902Y002373D01*
X009945Y002330D01*
X010075Y002330D01*
X009312Y002373D02*
X009312Y002590D01*
X011062Y002547D02*
X011106Y002590D01*
X011192Y002590D01*
X011236Y002547D01*
X011236Y002373D01*
X011192Y002330D01*
X011106Y002330D01*
X011062Y002373D01*
X011357Y002373D02*
X011400Y002330D01*
X011487Y002330D01*
X011530Y002373D01*
X011530Y002547D01*
X011487Y002590D01*
X011400Y002590D01*
X011357Y002547D01*
X011652Y002590D02*
X011652Y002417D01*
X011738Y002330D01*
X011825Y002417D01*
X011825Y002590D01*
X009757Y004950D02*
X009461Y004950D01*
X009446Y004952D01*
X009431Y004956D01*
X009417Y004963D01*
X009405Y004973D01*
X009395Y004985D01*
X009388Y004999D01*
X009384Y005014D01*
X009382Y005029D01*
X009383Y005029D02*
X009383Y005344D01*
X009855Y005344D01*
X009855Y005659D01*
X009854Y005659D02*
X009851Y005676D01*
X009844Y005692D01*
X009834Y005706D01*
X009822Y005718D01*
X009807Y005728D01*
X009791Y005734D01*
X009774Y005738D01*
X009756Y005737D01*
X009757Y005737D02*
X009481Y005737D01*
X009463Y005738D01*
X009446Y005734D01*
X009430Y005728D01*
X009415Y005718D01*
X009403Y005706D01*
X009393Y005692D01*
X009386Y005676D01*
X009383Y005659D01*
X009383Y005344D01*
X009855Y005344D02*
X009855Y005029D01*
X009854Y005029D02*
X009851Y005012D01*
X009844Y004996D01*
X009834Y004982D01*
X009822Y004970D01*
X009807Y004960D01*
X009791Y004954D01*
X009774Y004950D01*
X009756Y004951D01*
X009741Y006010D02*
X009914Y006010D01*
X009914Y006270D01*
X010035Y006270D02*
X010035Y006053D01*
X010079Y006010D01*
X010166Y006010D01*
X010209Y006053D01*
X010209Y006270D01*
X010330Y006183D02*
X010330Y006010D01*
X010330Y006140D02*
X010504Y006140D01*
X010504Y006183D02*
X010504Y006010D01*
X010504Y006183D02*
X010417Y006270D01*
X010330Y006183D01*
X010625Y006270D02*
X010798Y006270D01*
X010798Y006010D01*
X010798Y006140D02*
X010712Y006140D01*
X010828Y006390D02*
X009355Y006390D01*
X009446Y006270D02*
X009620Y006270D01*
X009533Y006270D02*
X009533Y006010D01*
X009560Y006660D02*
X009473Y006660D01*
X009430Y006703D01*
X009430Y006747D01*
X009473Y006790D01*
X009560Y006790D01*
X009604Y006833D01*
X009604Y006877D01*
X009560Y006920D01*
X009473Y006920D01*
X009430Y006877D01*
X009309Y006920D02*
X009309Y006660D01*
X009135Y006660D01*
X009014Y006660D02*
X009014Y006920D01*
X008841Y006660D01*
X008841Y006920D01*
X008720Y006920D02*
X008590Y006920D01*
X008546Y006877D01*
X008546Y006833D01*
X008590Y006790D01*
X008720Y006790D01*
X008720Y006660D02*
X008720Y006920D01*
X008590Y006790D02*
X008546Y006747D01*
X008546Y006703D01*
X008590Y006660D01*
X008720Y006660D01*
X008300Y006660D02*
X008213Y006660D01*
X008257Y006660D02*
X008257Y006920D01*
X008300Y006920D02*
X008213Y006920D01*
X008104Y006877D02*
X008104Y006833D01*
X008060Y006790D01*
X007973Y006790D01*
X007930Y006747D01*
X007930Y006703D01*
X007973Y006660D01*
X008060Y006660D01*
X008104Y006703D01*
X008104Y006877D02*
X008060Y006920D01*
X007973Y006920D01*
X007930Y006877D01*
X007809Y006920D02*
X007809Y006660D01*
X007635Y006660D01*
X007514Y006660D02*
X007514Y006920D01*
X007341Y006660D01*
X007341Y006920D01*
X007220Y006833D02*
X007133Y006920D01*
X007046Y006833D01*
X007046Y006660D01*
X007220Y006660D02*
X007220Y006833D01*
X007220Y006790D02*
X007046Y006790D01*
X007028Y006420D02*
X006941Y006333D01*
X006941Y006160D01*
X007114Y006160D02*
X007114Y006333D01*
X007028Y006420D01*
X006820Y006420D02*
X006820Y006377D01*
X006733Y006290D01*
X006733Y006160D01*
X006733Y006290D02*
X006646Y006377D01*
X006646Y006420D01*
X006505Y006660D02*
X006505Y006833D01*
X006419Y006920D01*
X006332Y006833D01*
X006332Y006660D01*
X006211Y006660D02*
X006124Y006660D01*
X006167Y006660D02*
X006167Y006920D01*
X006124Y006920D02*
X006211Y006920D01*
X006332Y006790D02*
X006505Y006790D01*
X006014Y006660D02*
X006014Y006920D01*
X005841Y006660D01*
X005841Y006920D01*
X005720Y006877D02*
X005676Y006920D01*
X005590Y006920D01*
X005546Y006877D01*
X005546Y006833D01*
X005720Y006660D01*
X005546Y006660D01*
X005255Y006660D02*
X005255Y006833D01*
X005169Y006920D01*
X005082Y006833D01*
X005082Y006660D01*
X004961Y006660D02*
X004874Y006660D01*
X004917Y006660D02*
X004917Y006920D01*
X004874Y006920D02*
X004961Y006920D01*
X005082Y006790D02*
X005255Y006790D01*
X004764Y006660D02*
X004764Y006920D01*
X004591Y006660D01*
X004591Y006920D01*
X004470Y006833D02*
X004383Y006920D01*
X004383Y006660D01*
X004470Y006660D02*
X004296Y006660D01*
X004005Y006660D02*
X003875Y006660D01*
X003832Y006703D01*
X003832Y006747D01*
X003875Y006790D01*
X004005Y006790D01*
X003875Y006790D02*
X003832Y006833D01*
X003832Y006877D01*
X003875Y006920D01*
X004005Y006920D01*
X004005Y006660D01*
X003711Y006660D02*
X003624Y006660D01*
X003667Y006660D02*
X003667Y006920D01*
X003624Y006920D02*
X003711Y006920D01*
X003514Y006920D02*
X003341Y006660D01*
X003341Y006920D01*
X003220Y006833D02*
X003133Y006920D01*
X003133Y006660D01*
X003220Y006660D02*
X003046Y006660D01*
X002905Y006470D02*
X002775Y006470D01*
X002732Y006427D01*
X002732Y006383D01*
X002775Y006340D01*
X002905Y006340D01*
X002775Y006340D02*
X002732Y006297D01*
X002732Y006253D01*
X002775Y006210D01*
X002905Y006210D01*
X002905Y006470D01*
X002611Y006470D02*
X002524Y006470D01*
X002567Y006470D02*
X002567Y006210D01*
X002524Y006210D02*
X002611Y006210D01*
X002414Y006210D02*
X002414Y006470D01*
X002241Y006210D01*
X002241Y006470D01*
X002120Y006427D02*
X002076Y006470D01*
X001990Y006470D01*
X001946Y006427D01*
X001946Y006383D01*
X002120Y006210D01*
X001946Y006210D01*
X001926Y006660D02*
X001970Y006703D01*
X001796Y006877D01*
X001796Y006703D01*
X001840Y006660D01*
X001926Y006660D01*
X001970Y006703D02*
X001970Y006877D01*
X001926Y006920D01*
X001840Y006920D01*
X001796Y006877D01*
X002079Y006920D02*
X002166Y006920D01*
X002123Y006920D02*
X002123Y006660D01*
X002166Y006660D02*
X002079Y006660D01*
X001216Y006660D02*
X001129Y006660D01*
X001173Y006660D02*
X001173Y006920D01*
X001216Y006920D02*
X001129Y006920D01*
X001020Y006833D02*
X000933Y006920D01*
X000933Y006660D01*
X001020Y006660D02*
X000846Y006660D01*
X003514Y006660D02*
X003514Y006920D01*
X006941Y006290D02*
X007114Y006290D01*
X007235Y006203D02*
X007279Y006160D01*
X007366Y006160D01*
X007409Y006203D01*
X007409Y006377D01*
X007366Y006420D01*
X007279Y006420D01*
X007235Y006377D01*
X007530Y006420D02*
X007704Y006420D01*
X007704Y006160D01*
X007530Y006160D01*
X007617Y006290D02*
X007704Y006290D01*
X007825Y006203D02*
X007825Y006377D01*
X007868Y006420D01*
X007998Y006420D01*
X007998Y006160D01*
X007868Y006160D01*
X007825Y006203D01*
X007809Y006790D02*
X007722Y006790D01*
X007635Y006920D02*
X007809Y006920D01*
X009135Y006920D02*
X009309Y006920D01*
X009309Y006790D02*
X009222Y006790D01*
X009560Y006660D02*
X009604Y006703D01*
X009713Y006660D02*
X009800Y006660D01*
X009757Y006660D02*
X009757Y006920D01*
X009800Y006920D02*
X009713Y006920D01*
X010305Y006990D02*
X011778Y006990D01*
X011705Y006870D02*
X011748Y006827D01*
X011748Y006783D01*
X011705Y006740D01*
X011618Y006740D01*
X011575Y006697D01*
X011575Y006653D01*
X011618Y006610D01*
X011705Y006610D01*
X011748Y006653D01*
X011575Y006827D02*
X011618Y006870D01*
X011705Y006870D01*
X011454Y006870D02*
X011454Y006610D01*
X011280Y006610D01*
X011159Y006610D02*
X010985Y006610D01*
X010864Y006610D02*
X010691Y006610D01*
X010570Y006610D02*
X010570Y006870D01*
X010440Y006870D01*
X010396Y006827D01*
X010396Y006740D01*
X010440Y006697D01*
X010570Y006697D01*
X010778Y006740D02*
X010864Y006740D01*
X010864Y006870D02*
X010864Y006610D01*
X011072Y006740D02*
X011159Y006740D01*
X011159Y006870D02*
X011159Y006610D01*
X011155Y006390D02*
X012628Y006390D01*
X012598Y006270D02*
X012468Y006270D01*
X012425Y006227D01*
X012425Y006140D01*
X012468Y006097D01*
X012598Y006097D01*
X012512Y006097D02*
X012425Y006010D01*
X012304Y006010D02*
X012130Y006010D01*
X012009Y006053D02*
X011966Y006010D01*
X011879Y006010D01*
X011835Y006053D01*
X011835Y006097D01*
X011879Y006140D01*
X011966Y006140D01*
X012009Y006183D01*
X012009Y006227D01*
X011966Y006270D01*
X011879Y006270D01*
X011835Y006227D01*
X011714Y006270D02*
X011714Y006010D01*
X011541Y006010D01*
X011628Y006140D02*
X011714Y006140D01*
X011714Y006270D02*
X011541Y006270D01*
X011420Y006270D02*
X011246Y006270D01*
X011333Y006270D02*
X011333Y006010D01*
X012130Y006270D02*
X012304Y006270D01*
X012304Y006010D01*
X012304Y006140D02*
X012217Y006140D01*
X012598Y006010D02*
X012598Y006270D01*
X011159Y006870D02*
X010985Y006870D01*
X010864Y006870D02*
X010691Y006870D01*
X005875Y004290D02*
X005875Y004030D01*
X005745Y004030D01*
X005702Y004073D01*
X005702Y004247D01*
X005745Y004290D01*
X005875Y004290D01*
X005580Y004290D02*
X005580Y004030D01*
X005580Y004117D02*
X005450Y004117D01*
X005407Y004160D01*
X005407Y004247D01*
X005450Y004290D01*
X005580Y004290D01*
X005494Y004117D02*
X005407Y004030D01*
X005286Y004117D02*
X005199Y004030D01*
X005112Y004117D01*
X005112Y004290D01*
X004991Y004247D02*
X004991Y004203D01*
X004948Y004160D01*
X004861Y004160D01*
X004818Y004117D01*
X004818Y004073D01*
X004861Y004030D01*
X004948Y004030D01*
X004991Y004073D01*
X004991Y004117D01*
X004948Y004160D01*
X004861Y004160D02*
X004818Y004203D01*
X004818Y004247D01*
X004861Y004290D01*
X004948Y004290D01*
X004991Y004247D01*
X004696Y004247D02*
X004696Y004203D01*
X004653Y004160D01*
X004566Y004160D01*
X004523Y004117D01*
X004523Y004073D01*
X004566Y004030D01*
X004653Y004030D01*
X004696Y004073D01*
X004696Y004117D01*
X004653Y004160D01*
X004566Y004160D02*
X004523Y004203D01*
X004523Y004247D01*
X004566Y004290D01*
X004653Y004290D01*
X004696Y004247D01*
X004402Y004160D02*
X004228Y004160D01*
X004272Y004030D02*
X004272Y004290D01*
X004402Y004160D01*
X004107Y004073D02*
X004064Y004030D01*
X003977Y004030D01*
X003934Y004073D01*
X003934Y004117D01*
X003977Y004160D01*
X004020Y004160D01*
X003977Y004160D02*
X003934Y004203D01*
X003934Y004247D01*
X003977Y004290D01*
X004064Y004290D01*
X004107Y004247D01*
X004453Y003840D02*
X004453Y003580D01*
X004496Y003580D02*
X004410Y003580D01*
X004300Y003623D02*
X004300Y003710D01*
X004257Y003753D01*
X004170Y003753D01*
X004126Y003710D01*
X004126Y003667D01*
X004300Y003667D01*
X004300Y003623D02*
X004257Y003580D01*
X004170Y003580D01*
X004453Y003840D02*
X004496Y003840D01*
X004618Y003753D02*
X004618Y003580D01*
X004748Y003580D01*
X004791Y003623D01*
X004791Y003753D01*
X004912Y003753D02*
X005042Y003753D01*
X005086Y003710D01*
X005086Y003623D01*
X005042Y003580D01*
X004912Y003580D01*
X004912Y003840D01*
X005207Y003710D02*
X005250Y003753D01*
X005337Y003753D01*
X005380Y003710D01*
X005380Y003623D01*
X005337Y003580D01*
X005250Y003580D01*
X005207Y003623D01*
X005207Y003710D01*
X005502Y003840D02*
X005502Y003580D01*
X005675Y003580D02*
X005675Y003840D01*
X005588Y003753D01*
X005502Y003840D01*
X005286Y004117D02*
X005286Y004290D01*
X005362Y002590D02*
X005362Y002373D01*
X003412Y002373D02*
X003412Y002590D01*
D11*
X002655Y002200D02*
X002555Y002100D01*
X002405Y002100D02*
X002305Y002200D01*
X000605Y002200D01*
X000505Y002100D01*
X002655Y002200D02*
X004255Y002200D01*
X004355Y002100D01*
X004555Y002100D02*
X004655Y002200D01*
X006255Y002200D01*
X006355Y002100D01*
X006555Y002100D02*
X006655Y002200D01*
X008255Y002200D01*
X008355Y002100D01*
X008555Y002100D02*
X008655Y002200D01*
X010255Y002200D01*
X010355Y002100D01*
X010555Y002100D02*
X010655Y002200D01*
X012255Y002200D01*
X012355Y002100D01*
X012155Y006450D02*
X012155Y007000D01*
X010105Y007000D02*
X010105Y006450D01*
X006855Y006550D02*
X006855Y007000D01*
X002855Y007000D02*
X002855Y006600D01*
D12*
X000255Y001350D02*
X000255Y000850D01*
X000755Y000850D01*
X000755Y000900D01*
X000355Y001350D01*
X000255Y001350D01*
X000355Y001350D01*
X000425Y001271D02*
X000255Y001271D01*
X000255Y001193D02*
X000495Y001193D01*
X000565Y001114D02*
X000255Y001114D01*
X000255Y001036D02*
X000635Y001036D01*
X000704Y000957D02*
X000255Y000957D01*
X000255Y000879D02*
X000755Y000879D01*
D13*
X009819Y003228D02*
X009819Y003372D01*
X010009Y003391D01*
X010030Y003455D01*
X010061Y003515D01*
X009940Y003664D01*
X010041Y003765D01*
X010190Y003644D01*
X010250Y003675D01*
X010314Y003696D01*
X010333Y003886D01*
X010477Y003886D01*
X010496Y003696D01*
X010560Y003675D01*
X010620Y003644D01*
X010769Y003765D01*
X010870Y003664D01*
X010749Y003515D01*
X010780Y003455D01*
X010801Y003391D01*
X010991Y003372D01*
X010991Y003228D01*
X010801Y003209D01*
X010780Y003145D01*
X010749Y003085D01*
X010870Y002936D01*
X010769Y002835D01*
X010620Y002956D01*
X010560Y002925D01*
X010476Y003129D01*
X010513Y003151D01*
X010545Y003180D01*
X010569Y003216D01*
X010584Y003257D01*
X010590Y003300D01*
X010584Y003344D01*
X010569Y003385D01*
X010544Y003422D01*
X010511Y003451D01*
X010472Y003472D01*
X010429Y003483D01*
X010385Y003483D01*
X010342Y003473D01*
X010303Y003453D01*
X010269Y003425D01*
X010243Y003389D01*
X010227Y003348D01*
X010221Y003304D01*
X010225Y003260D01*
X010240Y003218D01*
X010264Y003181D01*
X010296Y003151D01*
X010334Y003129D01*
X010250Y002925D01*
X010190Y002956D01*
X010041Y002835D01*
X009940Y002936D01*
X010061Y003085D01*
X010030Y003145D01*
X010009Y003209D01*
X009819Y003228D01*
X009819Y003275D02*
X010223Y003275D01*
X010225Y003332D02*
X009819Y003332D01*
X009924Y003217D02*
X010240Y003217D01*
X010287Y003160D02*
X010025Y003160D01*
X010052Y003102D02*
X010323Y003102D01*
X010299Y003045D02*
X010028Y003045D01*
X009981Y002987D02*
X010275Y002987D01*
X010252Y002930D02*
X010241Y002930D01*
X010158Y002930D02*
X009947Y002930D01*
X010004Y002872D02*
X010087Y002872D01*
X010511Y003045D02*
X010782Y003045D01*
X010758Y003102D02*
X010487Y003102D01*
X010523Y003160D02*
X010785Y003160D01*
X010886Y003217D02*
X010570Y003217D01*
X010587Y003275D02*
X010991Y003275D01*
X010991Y003332D02*
X010586Y003332D01*
X010565Y003390D02*
X010814Y003390D01*
X010783Y003448D02*
X010515Y003448D01*
X010296Y003448D02*
X010027Y003448D01*
X010055Y003505D02*
X010755Y003505D01*
X010788Y003563D02*
X010022Y003563D01*
X009975Y003620D02*
X010835Y003620D01*
X010856Y003678D02*
X010661Y003678D01*
X010732Y003735D02*
X010799Y003735D01*
X010552Y003678D02*
X010258Y003678D01*
X010318Y003735D02*
X010492Y003735D01*
X010486Y003793D02*
X010324Y003793D01*
X010329Y003850D02*
X010481Y003850D01*
X010149Y003678D02*
X009954Y003678D01*
X010011Y003735D02*
X010078Y003735D01*
X009996Y003390D02*
X010244Y003390D01*
X010535Y002987D02*
X010829Y002987D01*
X010863Y002930D02*
X010652Y002930D01*
X010569Y002930D02*
X010558Y002930D01*
X010723Y002872D02*
X010806Y002872D01*
D14*
X009128Y004127D03*
X009191Y004148D03*
X009253Y004179D03*
X008931Y004148D03*
X008848Y004460D03*
X008848Y004470D03*
X008910Y004616D03*
X009066Y004460D03*
X009212Y004616D03*
X009253Y004740D03*
X011155Y004689D03*
X011155Y004668D03*
X011155Y004657D03*
X011155Y004647D03*
X011155Y004637D03*
X011155Y004626D03*
X011155Y004616D03*
X011290Y004720D03*
X011363Y004720D03*
X011332Y004626D03*
X011384Y004616D03*
X011384Y004595D03*
X011457Y004616D03*
X011446Y004657D03*
X011644Y004533D03*
X011644Y004501D03*
X011228Y004460D03*
X011207Y004460D03*
X011176Y004761D03*
D15*
X011176Y004751D03*
X011176Y004730D03*
X011197Y004605D03*
X011176Y004553D03*
X011218Y004470D03*
X011249Y004377D03*
X011249Y004366D03*
X011249Y004356D03*
X011332Y004616D03*
X011477Y004657D03*
X011550Y004668D03*
X011644Y004449D03*
X011904Y004169D03*
X011914Y004148D03*
X010272Y004262D03*
X010272Y004273D03*
X010272Y004283D03*
X010272Y004294D03*
X010272Y004304D03*
X010272Y004314D03*
X010272Y004325D03*
X010272Y004335D03*
X010272Y004346D03*
X010272Y004356D03*
X010272Y004366D03*
X010272Y004377D03*
X010272Y004387D03*
X010272Y004397D03*
X010272Y004408D03*
X010272Y004418D03*
X010272Y004429D03*
X010272Y004439D03*
X010272Y004449D03*
X010272Y004522D03*
X010272Y004533D03*
X010272Y004543D03*
X010272Y004553D03*
X010272Y004564D03*
X010272Y004574D03*
X010272Y004585D03*
X010272Y004595D03*
X010272Y004605D03*
X010272Y004616D03*
X010272Y004626D03*
X010272Y004637D03*
X010272Y004647D03*
X010272Y004657D03*
X010272Y004668D03*
X010002Y004242D03*
X010002Y004231D03*
X009253Y004190D03*
X009066Y004127D03*
X008993Y004138D03*
X008931Y004158D03*
X008827Y004231D03*
X008785Y004283D03*
X009128Y004792D03*
D16*
X009196Y004772D03*
X008999Y004792D03*
X008936Y004772D03*
X008874Y004740D03*
X009279Y004460D03*
X009342Y004283D03*
X009300Y004231D03*
X008999Y004127D03*
X010007Y004626D03*
X010007Y004637D03*
X010007Y004647D03*
X010007Y004657D03*
X010007Y004668D03*
X010007Y004678D03*
X010007Y004689D03*
X010007Y004699D03*
X010038Y004668D03*
X010038Y004657D03*
X010038Y004647D03*
X010038Y004637D03*
X010038Y004626D03*
X010090Y004553D03*
X010090Y004543D03*
X010090Y004533D03*
X010090Y004522D03*
X010090Y004512D03*
X010090Y004501D03*
X010090Y004491D03*
X010090Y004481D03*
X010090Y004470D03*
X010090Y004460D03*
X010090Y004449D03*
X010090Y004439D03*
X010090Y004429D03*
X010090Y004418D03*
X010121Y004418D03*
X010121Y004429D03*
X010121Y004439D03*
X010121Y004449D03*
X010121Y004522D03*
X010121Y004533D03*
X010121Y004543D03*
X010121Y004553D03*
X010391Y004553D03*
X010391Y004543D03*
X010391Y004533D03*
X010391Y004522D03*
X010391Y004512D03*
X010391Y004501D03*
X010391Y004491D03*
X010391Y004481D03*
X010391Y004470D03*
X010391Y004460D03*
X010391Y004449D03*
X010391Y004439D03*
X010391Y004429D03*
X010391Y004418D03*
X010391Y004408D03*
X010391Y004397D03*
X010391Y004387D03*
X010391Y004377D03*
X010391Y004366D03*
X010391Y004356D03*
X010391Y004346D03*
X010391Y004335D03*
X010391Y004325D03*
X010391Y004314D03*
X010391Y004304D03*
X010391Y004294D03*
X010391Y004283D03*
X010391Y004273D03*
X010391Y004262D03*
X010391Y004252D03*
X010391Y004564D03*
X010391Y004574D03*
X010391Y004585D03*
X010391Y004595D03*
X010391Y004605D03*
X010391Y004616D03*
X010391Y004626D03*
X010391Y004637D03*
X010391Y004647D03*
X010391Y004657D03*
X010391Y004668D03*
X010454Y004699D03*
X011160Y004605D03*
X011223Y004481D03*
X011327Y004595D03*
X011420Y004637D03*
X011410Y004657D03*
X011597Y004668D03*
X011607Y004657D03*
X011649Y004491D03*
X011649Y004481D03*
X011649Y004470D03*
X011649Y004460D03*
X011649Y004439D03*
D17*
X011597Y004460D03*
X011597Y004470D03*
X011597Y004481D03*
X011597Y004491D03*
X011597Y004501D03*
X011524Y004481D03*
X011524Y004470D03*
X011327Y004605D03*
X011420Y004647D03*
X011202Y004626D03*
X011202Y004616D03*
X011171Y004740D03*
X011244Y004346D03*
X011244Y004335D03*
X011244Y004325D03*
X011244Y004314D03*
X011244Y004304D03*
X011244Y004294D03*
X011898Y004190D03*
X011898Y004179D03*
X011909Y004158D03*
X009196Y004158D03*
X009134Y004138D03*
X009061Y004138D03*
X008999Y004148D03*
X008874Y004190D03*
X008874Y004730D03*
X008936Y004761D03*
X008999Y004772D03*
X008999Y004782D03*
X009061Y004782D03*
X009061Y004792D03*
X009134Y004782D03*
X009196Y004761D03*
X009248Y004730D03*
D18*
X009128Y004772D03*
X009066Y004772D03*
X009347Y004470D03*
X009347Y004460D03*
X009128Y004148D03*
X009066Y004148D03*
X008775Y004449D03*
X008775Y004460D03*
X008775Y004470D03*
X008370Y004595D03*
X008370Y004605D03*
X008370Y004616D03*
X008370Y004626D03*
X008370Y004637D03*
X008370Y004647D03*
X008370Y004657D03*
X008370Y004668D03*
X010022Y004616D03*
X010022Y004605D03*
X010105Y004574D03*
X010105Y004564D03*
X010105Y004408D03*
X010105Y004397D03*
X011176Y004564D03*
X011176Y004574D03*
X011207Y004637D03*
X011249Y004720D03*
X011477Y004647D03*
X011519Y004491D03*
X011529Y004460D03*
X011529Y004449D03*
X011592Y004449D03*
X011592Y004439D03*
X011592Y004533D03*
X011893Y004200D03*
D19*
X011363Y004200D03*
X011228Y004449D03*
X010677Y004668D03*
X010199Y004512D03*
X010199Y004501D03*
X010199Y004460D03*
X009523Y004449D03*
X009503Y004273D03*
X009180Y004210D03*
X009066Y004158D03*
X008941Y004210D03*
X009180Y004709D03*
X009066Y004761D03*
X009534Y004668D03*
D20*
X009066Y004740D03*
X009066Y004751D03*
X008900Y004543D03*
X009066Y004190D03*
X009066Y004179D03*
X009066Y004169D03*
X010137Y004252D03*
D21*
X009716Y004709D03*
X009061Y004200D03*
D22*
X009222Y004543D03*
X012028Y004221D03*
X012028Y004210D03*
D23*
X012054Y004231D03*
X012054Y004242D03*
X012054Y004678D03*
X012054Y004689D03*
X012054Y004699D03*
X012054Y004709D03*
X012054Y004720D03*
X011358Y004210D03*
X009258Y004512D03*
X009238Y004387D03*
X008895Y004387D03*
X008863Y004512D03*
X008604Y004242D03*
X008604Y004231D03*
X008604Y004221D03*
X008604Y004210D03*
D24*
X010916Y004210D03*
X010916Y004221D03*
X010916Y004231D03*
X010916Y004242D03*
D25*
X010578Y004221D03*
X010578Y004210D03*
X009518Y004262D03*
X009560Y004512D03*
X009175Y004720D03*
D26*
X010225Y004221D03*
X010225Y004210D03*
D27*
X009726Y004210D03*
D28*
X009310Y004294D03*
X009310Y004304D03*
X009300Y004335D03*
X009352Y004418D03*
X009352Y004501D03*
X009300Y004585D03*
X009310Y004616D03*
X009310Y004626D03*
X009154Y004657D03*
X009196Y004491D03*
X008936Y004491D03*
X008936Y004481D03*
X008936Y004439D03*
X008936Y004429D03*
X008770Y004501D03*
X008811Y004616D03*
X008811Y004626D03*
X008822Y004637D03*
X008811Y004304D03*
X011275Y004429D03*
X011462Y004221D03*
D29*
X011457Y004242D03*
X011290Y004221D03*
X011228Y004408D03*
X011228Y004418D03*
X011228Y004439D03*
X010584Y004242D03*
X010584Y004231D03*
D30*
X010843Y004699D03*
X009711Y004221D03*
D31*
X009497Y004283D03*
X009487Y004294D03*
X009477Y004325D03*
X009497Y004429D03*
X009508Y004439D03*
X009186Y004231D03*
X009186Y004221D03*
X008947Y004221D03*
X008936Y004231D03*
X009186Y004699D03*
X010194Y004491D03*
X010194Y004470D03*
X010724Y004429D03*
X011472Y004678D03*
X011566Y004585D03*
X011566Y004574D03*
X011576Y004429D03*
D32*
X011348Y004231D03*
X011358Y004689D03*
X009674Y004501D03*
D33*
X009362Y004439D03*
X009300Y004325D03*
X009144Y004273D03*
X009134Y004283D03*
X008936Y004449D03*
X008936Y004470D03*
X008770Y004481D03*
X008770Y004439D03*
X008853Y004657D03*
X009144Y004647D03*
X009269Y004657D03*
X009300Y004595D03*
X010422Y004678D03*
X010422Y004689D03*
X010422Y004242D03*
X010422Y004231D03*
X011171Y004294D03*
X011171Y004304D03*
X011171Y004314D03*
X011171Y004325D03*
X011171Y004429D03*
X011233Y004668D03*
X011607Y004543D03*
X011607Y004522D03*
D34*
X009695Y004231D03*
D35*
X009217Y004242D03*
X009206Y004262D03*
X008915Y004262D03*
X009217Y004678D03*
X011244Y004242D03*
D36*
X010152Y004242D03*
X009248Y004522D03*
X009061Y004574D03*
X008884Y004522D03*
X008884Y004397D03*
X009061Y004346D03*
D37*
X009690Y004242D03*
X009690Y004678D03*
X010230Y004709D03*
X010230Y004720D03*
D38*
X009565Y004460D03*
X009212Y004668D03*
X009212Y004689D03*
X009066Y004626D03*
X009066Y004616D03*
X009066Y004605D03*
X009066Y004595D03*
X008910Y004668D03*
X009066Y004325D03*
X009066Y004314D03*
X009066Y004304D03*
X009066Y004294D03*
X009212Y004252D03*
X008910Y004252D03*
X008910Y004242D03*
D39*
X009794Y004252D03*
X009794Y004262D03*
X009794Y004273D03*
X009794Y004283D03*
X009794Y004294D03*
X009794Y004304D03*
X009794Y004314D03*
X009794Y004325D03*
X009794Y004335D03*
X009794Y004346D03*
X009794Y004356D03*
X009794Y004366D03*
X009794Y004377D03*
X009794Y004387D03*
X009794Y004397D03*
X009794Y004408D03*
X009794Y004418D03*
X009794Y004429D03*
X009794Y004439D03*
X009794Y004449D03*
X009794Y004460D03*
X009794Y004512D03*
X009794Y004522D03*
X009794Y004533D03*
X009794Y004543D03*
X009794Y004553D03*
X009794Y004564D03*
X009794Y004574D03*
X009794Y004585D03*
X009794Y004595D03*
X009794Y004605D03*
X009794Y004616D03*
X009794Y004626D03*
X009794Y004637D03*
X009794Y004647D03*
X009794Y004657D03*
X009794Y004668D03*
X010916Y004668D03*
X010916Y004657D03*
X010916Y004647D03*
X010916Y004637D03*
X010916Y004626D03*
X010916Y004616D03*
X010916Y004605D03*
X010916Y004595D03*
X010916Y004585D03*
X010916Y004574D03*
X010916Y004564D03*
X010916Y004553D03*
X010916Y004543D03*
X010916Y004533D03*
X010916Y004522D03*
X010916Y004512D03*
X010916Y004501D03*
X010916Y004491D03*
X010916Y004429D03*
X010916Y004418D03*
X010916Y004408D03*
X010916Y004397D03*
X010916Y004387D03*
X010916Y004377D03*
X010916Y004366D03*
X010916Y004356D03*
X010916Y004346D03*
X010916Y004335D03*
X010916Y004325D03*
X010916Y004314D03*
X010916Y004304D03*
X010916Y004294D03*
X010916Y004283D03*
X010916Y004273D03*
X010916Y004262D03*
X010916Y004252D03*
X011197Y004262D03*
X011197Y004273D03*
X011197Y004283D03*
X011197Y004387D03*
X011197Y004397D03*
X011519Y004273D03*
X011529Y004283D03*
X011550Y004605D03*
X012059Y004605D03*
X012059Y004595D03*
X012059Y004585D03*
X012059Y004574D03*
X012059Y004564D03*
X012059Y004553D03*
X012059Y004543D03*
X012059Y004533D03*
X012059Y004522D03*
X012059Y004512D03*
X012059Y004501D03*
X012059Y004491D03*
X012059Y004481D03*
X012059Y004470D03*
X012059Y004460D03*
X012059Y004449D03*
X012059Y004439D03*
X012059Y004429D03*
X012059Y004418D03*
X012059Y004408D03*
X012059Y004397D03*
X012059Y004387D03*
X012059Y004377D03*
X012059Y004366D03*
X012059Y004356D03*
X012059Y004346D03*
X012059Y004335D03*
X012059Y004325D03*
X012059Y004314D03*
X012059Y004304D03*
X012059Y004294D03*
X012059Y004283D03*
X012059Y004273D03*
X012059Y004262D03*
X012059Y004252D03*
X012059Y004616D03*
X012059Y004626D03*
X012059Y004637D03*
X012059Y004647D03*
X012059Y004657D03*
X012059Y004668D03*
D40*
X011545Y004616D03*
X011535Y004626D03*
X011535Y004637D03*
X011566Y004366D03*
X011566Y004356D03*
X011555Y004335D03*
X011555Y004325D03*
X011545Y004314D03*
X011545Y004304D03*
X011535Y004294D03*
X011503Y004262D03*
X011493Y004252D03*
X010693Y004397D03*
X010682Y004377D03*
X010672Y004356D03*
X010662Y004346D03*
X010662Y004335D03*
X010651Y004325D03*
X010651Y004314D03*
X010641Y004304D03*
X010641Y004294D03*
X010630Y004283D03*
X010630Y004273D03*
X010620Y004262D03*
X010662Y004512D03*
X010651Y004522D03*
X010641Y004533D03*
X010641Y004543D03*
X010641Y004553D03*
X010641Y004564D03*
X010641Y004574D03*
X010641Y004585D03*
X010641Y004595D03*
X010641Y004605D03*
X010641Y004616D03*
X010641Y004626D03*
X010651Y004637D03*
X009518Y004533D03*
X009508Y004543D03*
X009508Y004553D03*
X009497Y004564D03*
X009497Y004574D03*
X009497Y004585D03*
X009497Y004595D03*
X009497Y004605D03*
X009497Y004616D03*
X009497Y004626D03*
X009508Y004637D03*
X009310Y004574D03*
X009310Y004346D03*
X008811Y004346D03*
X008604Y004346D03*
X008604Y004356D03*
X008604Y004366D03*
X008604Y004377D03*
X008604Y004387D03*
X008604Y004397D03*
X008604Y004408D03*
X008604Y004418D03*
X008604Y004429D03*
X008604Y004439D03*
X008604Y004449D03*
X008604Y004460D03*
X008604Y004470D03*
X008604Y004481D03*
X008604Y004491D03*
X008604Y004501D03*
X008604Y004512D03*
X008604Y004522D03*
X008604Y004533D03*
X008604Y004543D03*
X008604Y004553D03*
X008604Y004564D03*
X008604Y004574D03*
X008604Y004585D03*
X008604Y004595D03*
X008604Y004605D03*
X008604Y004616D03*
X008604Y004626D03*
X008604Y004637D03*
X008604Y004647D03*
X008604Y004657D03*
X008604Y004668D03*
X008811Y004574D03*
X008604Y004335D03*
X008604Y004325D03*
X008604Y004314D03*
X008604Y004304D03*
X008604Y004294D03*
X008604Y004283D03*
X008604Y004273D03*
X008604Y004262D03*
X008604Y004252D03*
D41*
X009471Y004335D03*
X009471Y004346D03*
X009471Y004377D03*
X009482Y004387D03*
X009482Y004397D03*
X009482Y004408D03*
X009492Y004418D03*
X009482Y004314D03*
X009482Y004304D03*
X009534Y004522D03*
X009513Y004647D03*
X009523Y004657D03*
X010656Y004647D03*
X010667Y004657D03*
X010667Y004501D03*
X010677Y004491D03*
X010708Y004418D03*
X010698Y004408D03*
X010688Y004387D03*
X010677Y004366D03*
X010615Y004252D03*
X011207Y004252D03*
X011561Y004346D03*
X011571Y004377D03*
X011571Y004387D03*
X011571Y004397D03*
X011571Y004408D03*
X011571Y004418D03*
X011571Y004512D03*
X011571Y004553D03*
X011571Y004564D03*
X011561Y004595D03*
X011228Y004678D03*
D42*
X010157Y004689D03*
X009555Y004252D03*
X009066Y004585D03*
D43*
X009279Y004647D03*
X009352Y004449D03*
X009290Y004283D03*
X009279Y004273D03*
X008843Y004283D03*
X010017Y004283D03*
X010017Y004273D03*
X010017Y004262D03*
X010017Y004294D03*
X010017Y004304D03*
X010017Y004314D03*
X010017Y004325D03*
X011181Y004585D03*
X011181Y004595D03*
X011212Y004647D03*
X011244Y004709D03*
X011524Y004543D03*
X011524Y004533D03*
X011524Y004522D03*
X011524Y004501D03*
X011524Y004439D03*
X011587Y004647D03*
D44*
X011457Y004668D03*
X011425Y004720D03*
X011374Y004730D03*
X009357Y004491D03*
X009357Y004429D03*
X009305Y004314D03*
X009191Y004439D03*
X009191Y004449D03*
X009191Y004460D03*
X009191Y004470D03*
X009191Y004481D03*
X009128Y004637D03*
X008993Y004637D03*
X008983Y004647D03*
X008973Y004657D03*
X008827Y004595D03*
X008827Y004585D03*
X008817Y004605D03*
X008765Y004491D03*
X008765Y004429D03*
X008827Y004335D03*
X008827Y004325D03*
X008817Y004314D03*
X008817Y004294D03*
X008983Y004273D03*
X008993Y004283D03*
X008941Y004460D03*
X009305Y004605D03*
X009305Y004637D03*
D45*
X009357Y004481D03*
X008848Y004647D03*
X008848Y004273D03*
X011166Y004335D03*
X011166Y004346D03*
X011166Y004356D03*
X011166Y004366D03*
X011166Y004377D03*
X011218Y004657D03*
D46*
X009061Y004335D03*
D47*
X009144Y004356D03*
X009144Y004366D03*
D48*
X009066Y004377D03*
D49*
X009243Y004397D03*
X009253Y004408D03*
X009232Y004533D03*
X008889Y004533D03*
X008869Y004408D03*
X010157Y004678D03*
D50*
X009196Y004501D03*
X009196Y004418D03*
X008926Y004418D03*
D51*
X008931Y004501D03*
X008775Y004418D03*
X009191Y004429D03*
X011446Y004709D03*
D52*
X010817Y004439D03*
D53*
X010828Y004449D03*
X010828Y004460D03*
X009061Y004730D03*
D54*
X009690Y004491D03*
X010812Y004470D03*
D55*
X009669Y004470D03*
D56*
X009679Y004481D03*
X009742Y004720D03*
X010802Y004481D03*
D57*
X009066Y004553D03*
X009066Y004564D03*
D58*
X009700Y004689D03*
X010823Y004678D03*
D59*
X008682Y004678D03*
X008682Y004689D03*
X008682Y004699D03*
D60*
X009705Y004699D03*
X010838Y004689D03*
D61*
X010869Y004720D03*
X011348Y004699D03*
D62*
X010854Y004709D03*
D63*
X008687Y004709D03*
D64*
X008697Y004720D03*
M02*
