%
M48
M72
T01C0.0118
T02C0.0400
%
T01
X3055Y2550
X3355Y2550
X3355Y2850
X3055Y2850
X3055Y3150
X3355Y3150
X4355Y3100
X4355Y2800
X4355Y2500
X5455Y2550
X5455Y2850
X5455Y3150
X6755Y4050
X6439Y4638
X5927Y4638
X5416Y4638
X4904Y4638
X4392Y4638
X3880Y4638
X3368Y4638
X3372Y5150
X3884Y5150
X4396Y5150
X4908Y5150
X5420Y5150
X5931Y5150
X6443Y5150
X6439Y5662
X5927Y5662
X5416Y5662
X4904Y5662
X4392Y5662
X3880Y5662
X3368Y5662
X2905Y6550
X4005Y6800
X4505Y6800
X5555Y7000
X5855Y6850
X7905Y5950
X8305Y5450
X9105Y5450
X9405Y5900
X12355Y6100
X12355Y5600
X12355Y5100
X12355Y4600
X12355Y4100
X12355Y3600
X12355Y3100
X8955Y3700
X8655Y3700
X8355Y3700
X7855Y3100
X7455Y3100
X7055Y3100
X1655Y4700
X505Y4800
X505Y4300
X505Y5300
X505Y5800
X855Y5800
X1255Y5800
X1655Y5800
X505Y6300
X505Y6800
X905Y2950
X1205Y2950
X1505Y2950
X12355Y6600
T02
X955Y1550
X1955Y1550
X2955Y1550
X3955Y1550
X4955Y1550
X5955Y1550
X6955Y1550
X7955Y1550
X8955Y1550
X9955Y1550
X10955Y1550
X11955Y1550
X11955Y7550
X10955Y7550
X9955Y7550
X8955Y7550
X7955Y7550
X6955Y7550
X5955Y7550
X4955Y7550
X3955Y7550
X2955Y7550
X1955Y7550
X955Y7550
M30
